<?xml version="1.0" encoding="utf-8"?>
<svg xmlns="http://www.w3.org/2000/svg" viewBox="0 0 123.932 123.932">
  <g transform="matrix(1, 0, 0, 1, 123.813705, 32.91745)">
    <path class="st0" d="M -14.631 90.84 C -6.431 90.84 0.169 84.24 0.169 76.14 L 0.169 -17.86 C 0.169 -26.06 -6.431 -32.66 -14.631 -32.66 L -108.63 -32.66 C -116.83 -32.76 -123.43 -26.16 -123.43 -17.96 L -123.43 76.04 C -123.43 84.24 -116.83 90.74 -108.73 90.74 C -108.63 90.84 -14.631 90.84 -14.631 90.84 Z" style="stroke-width: 1;"/>
    <path class="st1" d="M -106.1 -26.243 C -112.5 -26.243 -117.7 -21.143 -117.7 -14.743 L -117.7 72.957 C -117.7 79.257 -112.5 84.457 -106.2 84.457 L -17.196 84.457 C -10.796 84.457 -5.596 79.357 -5.596 72.957 L -5.596 -14.743 C -5.596 -21.043 -10.796 -26.243 -17.196 -26.243 C -17.296 -26.243 -106.1 -26.243 -106.1 -26.243 Z" style="fill: rgb(255, 255, 255); stroke-width: 1;"/>
    <text style="font-family: Arial, sans-serif; font-size: 28px; font-weight: 700; white-space: pre; visibility: hidden;" transform="matrix(3.117827, 0, 0, 3.622723, 161.590856, 16.823082)" x="-89.643" y="14.443">VS</text>
    <g transform="matrix(4.853253, 0, 0, 5.024656, -113.493898, -22.156527)" style="visibility: hidden;">
      <path d="M10,14c-1.1,0-2,0.9-2,2c0,1.1,0.9,2,2,2s2-0.9,2-2C12,14.9,11.1,14,10,14z M10,17c-0.6,0-1-0.4-1-1c0-0.6,0.4-1,1-1 s1,0.4,1,1C11,16.6,10.6,17,10,17z"/>
      <path d="M21.3,15H19V8.1c0-2-1.2-4.1-3.2-4.1H3.6C1.6,4,0,6.1,0,8.1l0,4.6C0,14.1,1.2,16,2.7,16H7c0-1.7,1.3-3,3-3s3,1.3,3,3h9 C22,15.6,21.7,15,21.3,15z M10,8c0,0.5-0.5,1-1,1H4C3.5,9,3,8.5,3,8V7c0-0.5,0.5-1,1-1h5c0.5,0,1,0.5,1,1V8z M17,8c0,0.5-0.5,1-1,1 h-2c-0.5,0-1-0.5-1-1V7c0-0.5,0.5-1,1-1h2c0.5,0,1,0.5,1,1V8z"/>
    </g>
    <line class="st3" x1="-116.83" y1="-25.943" x2="-6.431" y2="84.757" style="fill: none; stroke: rgb(252, 3, 3); stroke-miterlimit: 10; stroke-width: 10; visibility: hidden;"/>
  </g>
  <g id="Layer_1" style="" transform="matrix(4.411754, 0, 0, 3.783682, -207.370718, -186.527365)">
    <polygon points="72.412 57.726 72.412 56.126 71.112 56.126 50.412 66.026 50.412 68.226 54.412 66.326 54.412 78.126 55.412 78.126 56.412 78.126 72.412 78.126 72.412 76.126 56.412 76.126 56.412 65.326" style="stroke-width: 1;"/>
    <path d="M 72.412 70.126 L 70.012 70.126 L 68.512 67.126 L 71.412 67.126 L 71.412 65.126 L 67.512 65.126 L 65.312 65.126 L 63.312 65.126 L 59.412 65.126 L 59.412 67.126 L 62.312 67.126 L 60.812 70.126 L 58.412 70.126 L 58.412 72.126 L 59.812 72.126 L 58.312 75.126 L 60.512 75.126 L 62.012 72.126 L 68.812 72.126 L 70.312 75.126 L 72.412 75.126 L 72.412 74.926 L 71.012 72.126 L 72.412 72.126 L 72.412 70.126 Z M 63.012 70.126 L 64.512 67.126 L 66.312 67.126 L 67.812 70.126 L 63.012 70.126 Z" style="stroke-width: 1; visibility: hidden;"/>
    <g id="svg-1" transform="matrix(2.146628, 0, 0, 1.970259, -107.470813, -62.536039)" style="">
      <path d="M 82.167 65.822 C 82.485 65.902 82.847 66.245 82.847 66.642 L 82.847 69.522 C 82.847 69.628 82.711 69.787 82.621 69.787 L 81.261 69.787 C 81.17 69.787 81.034 69.628 81.034 69.522 L 81.034 66.642 C 81.034 66.245 81.397 65.902 81.714 65.822 L 81.714 64.501 L 82.167 64.501 L 82.167 65.822 Z" style="stroke-width: 0.245;"/>
      <path d="M 80.218 69.602 L 79.379 69.417 L 79.379 67.593 L 80.626 66.113 L 77.86 66.113 L 79.107 67.593 L 79.107 69.417 L 78.268 69.602 C 78.268 69.602 78.178 69.628 78.178 69.787 L 80.331 69.787 C 80.309 69.628 80.218 69.602 80.218 69.602 Z" style="stroke-width: 0.245;"/>
    </g>
  </g>
  <g id="svg-2" transform="matrix(1.667213, 0, 0, 1.513209, -211.6892, -61.194357)" style="">
    <g transform="matrix(1, 0, 0, 1, 132.955158, 49.113637)">
      <polygon points="11.9,22 10,22 10,0 12,0 &#9;"/>
      <g>
        <path d="M6.9,13.8c0.1,0.8,0.4,1.4,0.7,1.7c0.7,0.7,1.8,1,3.4,1c1,0,1.7-0.1,2.3-0.3c1.1-0.4,1.7-1,1.7-2c0-0.6-0.3-1-0.8-1.3 c-0.6-0.3-1.4-0.6-2.6-0.8l-2-0.4c-2-0.4-3.4-0.8-4.1-1.3c-1.3-0.8-1.9-2-1.9-3.7c0-1.5,0.6-2.8,1.9-3.8s3.1-1.5,5.5-1.5 c2,0,3.7,0.5,5.1,1.4c1.4,0.9,2.2,2.3,2.2,4.1h-3.8c-0.1-1-0.6-1.7-1.5-2.2c-0.6-0.3-1.4-0.4-2.3-0.4c-1,0-1.9,0.2-2.5,0.6 C7.4,5.4,7.1,6,7.1,6.6c0,0.6,0.3,1.1,0.9,1.4c0.4,0.2,1.2,0.4,2.5,0.7l3.3,0.7c1.5,0.3,2.5,0.7,3.3,1.2c1.1,0.8,1.7,2,1.7,3.5 c0,1.5-0.7,2.8-2,3.9c-1.3,1-3.2,1.5-5.6,1.5c-2.5,0-4.4-0.5-5.9-1.5c-1.4-1-2.1-2.4-2.1-4.2H6.9z"/>
      </g>
    </g>
  </g>
</svg>