<?xml version="1.0" encoding="utf-8"?>
<svg xmlns="http://www.w3.org/2000/svg" viewBox="0 0 123.931 123.576">
  <g transform="matrix(1, 0, 0, 1, 123.813705, 32.91745)">
    <path class="st0" d="M -14.631 90.84 C -6.431 90.84 0.169 84.24 0.169 76.14 L 0.169 -17.86 C 0.169 -26.06 -6.431 -32.66 -14.631 -32.66 L -108.63 -32.66 C -116.83 -32.76 -123.43 -26.16 -123.43 -17.96 L -123.43 76.04 C -123.43 84.24 -116.83 90.74 -108.73 90.74 C -108.63 90.84 -14.631 90.84 -14.631 90.84 Z" style="stroke-width: 1; fill: rgb(255, 0, 0);"/>
    <path class="st1" d="M -106.1 -26.243 C -112.5 -26.243 -117.7 -21.143 -117.7 -14.743 L -117.7 72.957 C -117.7 79.257 -112.5 84.457 -106.2 84.457 L -17.196 84.457 C -10.796 84.457 -5.596 79.357 -5.596 72.957 L -5.596 -14.743 C -5.596 -21.043 -10.796 -26.243 -17.196 -26.243 C -17.296 -26.243 -106.1 -26.243 -106.1 -26.243 Z" style="fill: rgb(255, 255, 255); stroke-width: 1;"/>
    <g id="Layer_1" transform="matrix(4.490237, 0, 0, 4.908593, 328.153544, -48.772031)" style="">
      <path d="M -78.894 11.048 C -77.494 11.348 -75.894 12.648 -75.894 14.148 L -75.894 25.048 C -75.894 25.448 -76.494 26.048 -76.894 26.048 L -82.894 26.048 C -83.294 26.048 -83.894 25.448 -83.894 25.048 L -83.894 14.148 C -83.894 12.648 -82.294 11.348 -80.894 11.048 L -80.894 6.048 L -78.894 6.048 L -78.894 11.048 Z" style="stroke-width: 1;"/>
      <path d="M -87.494 25.348 L -91.194 24.648 L -91.194 17.748 L -85.694 12.148 L -97.894 12.148 L -92.394 17.748 L -92.394 24.648 L -96.094 25.348 C -96.094 25.348 -96.494 25.448 -96.494 26.048 L -86.994 26.048 C -87.094 25.448 -87.494 25.348 -87.494 25.348 Z" style="stroke-width: 1;"/>
    </g>
    <line class="st3" x1="-116.83" y1="-25.943" x2="-6.431" y2="84.757" style="fill: none; stroke: rgb(252, 3, 3); stroke-miterlimit: 10; stroke-width: 10;"/>
  </g>
</svg>