<?xml version="1.0" encoding="utf-8"?>
<svg xmlns="http://www.w3.org/2000/svg" viewBox="0 0 123.932 124.288">
  <g transform="matrix(1, 0, 0, 1, 123.813705, 32.91745)">
    <path class="st0" d="M -14.631 90.84 C -6.431 90.84 0.169 84.24 0.169 76.14 L 0.169 -17.86 C 0.169 -26.06 -6.431 -32.66 -14.631 -32.66 L -108.63 -32.66 C -116.83 -32.76 -123.43 -26.16 -123.43 -17.96 L -123.43 76.04 C -123.43 84.24 -116.83 90.74 -108.73 90.74 C -108.63 90.84 -14.631 90.84 -14.631 90.84 Z" style="stroke-width: 1;"/>
    <path class="st1" d="M -106.1 -26.243 C -112.5 -26.243 -117.7 -21.143 -117.7 -14.743 L -117.7 72.957 C -117.7 79.257 -112.5 84.457 -106.2 84.457 L -17.196 84.457 C -10.796 84.457 -5.596 79.357 -5.596 72.957 L -5.596 -14.743 C -5.596 -21.043 -10.796 -26.243 -17.196 -26.243 C -17.296 -26.243 -106.1 -26.243 -106.1 -26.243 Z" style="fill: rgb(255, 255, 255); stroke-width: 1;"/>
    <line class="st3" x1="-116.83" y1="-25.943" x2="-6.431" y2="84.757" style="fill: none; stroke: rgb(252, 3, 3); stroke-miterlimit: 10; stroke-width: 10; visibility: hidden;"/>
    <g id="svg-1" style="" transform="matrix(3.753355, 0, 0, 2.980854, 172.774526, -9.781522)">
      <path d="M -65.71 17.85 L -62.51 11.95 L -59.31 17.85 L -65.71 17.85 Z M -56.41 17.85 L -62.41 7.15 L -68.51 17.85 L -69.81 17.85 L -69.81 19.05 L -55.21 19.05 L -55.21 17.85 L -56.41 17.85 Z" style="stroke-width: 1; visibility: hidden;"/>
      <rect x="-70.51" y="1.15" width="16" height="2" style="stroke-width: 1;"/>
      <rect x="-70.51" y="4.15" width="12" height="2" style="stroke-width: 1;"/>
      <rect x="-70.51" y="-1.85" width="16" height="2" style="stroke-width: 1;"/>
    </g>
    <g id="Layer_1" style="" transform="matrix(2.29475, 0, 0, 2.211918, 105.955882, -47.525987)">
      <path d="M -65.125 39.398 C -63.725 39.698 -62.125 40.998 -62.125 42.498 L -62.125 53.398 C -62.125 53.798 -62.725 54.398 -63.125 54.398 L -69.125 54.398 C -69.525 54.398 -70.125 53.798 -70.125 53.398 L -70.125 42.498 C -70.125 40.998 -68.525 39.698 -67.125 39.398 L -67.125 34.398 L -65.125 34.398 L -65.125 39.398 Z" style="stroke-width: 1;"/>
      <path d="M -73.725 53.698 L -77.425 52.998 L -77.425 46.098 L -71.925 40.498 L -84.125 40.498 L -78.625 46.098 L -78.625 52.998 L -82.325 53.698 C -82.325 53.698 -82.725 53.798 -82.725 54.398 L -73.225 54.398 C -73.325 53.798 -73.725 53.698 -73.725 53.698 Z" style="stroke-width: 1;"/>
    </g>
  </g>
</svg>