<?xml version="1.0" encoding="utf-8"?>
<svg xmlns="http://www.w3.org/2000/svg" viewBox="0 0 123.931 123.576">
  <g transform="matrix(1, 0, 0, 1, 123.813705, 32.91745)">
    <path class="st0" d="M -14.631 90.84 C -6.431 90.84 0.169 84.24 0.169 76.14 L 0.169 -17.86 C 0.169 -26.06 -6.431 -32.66 -14.631 -32.66 L -108.63 -32.66 C -116.83 -32.76 -123.43 -26.16 -123.43 -17.96 L -123.43 76.04 C -123.43 84.24 -116.83 90.74 -108.73 90.74 C -108.63 90.84 -14.631 90.84 -14.631 90.84 Z" style="stroke-width: 1;"/>
    <path class="st1" d="M -106.1 -26.243 C -112.5 -26.243 -117.7 -21.143 -117.7 -14.743 L -117.7 72.957 C -117.7 79.257 -112.5 84.457 -106.2 84.457 L -17.196 84.457 C -10.796 84.457 -5.596 79.357 -5.596 72.957 L -5.596 -14.743 C -5.596 -21.043 -10.796 -26.243 -17.196 -26.243 C -17.296 -26.243 -106.1 -26.243 -106.1 -26.243 Z" style="fill: rgb(255, 255, 255); stroke-width: 1;"/>
    <line class="st3" x1="-116.83" y1="-25.943" x2="-6.431" y2="84.757" style="fill: none; stroke: rgb(252, 3, 3); stroke-miterlimit: 10; stroke-width: 10; visibility: hidden;"/>
    <g id="Layer_1" transform="matrix(4.64781, 0, 0, 4.353754, 234.7322, -108.04623)" style="">
      <title>all-terrain-trail-22-rev</title>
      <g transform="matrix(1, 0, 0, 1, -74.754839, 20.695637)">
        <path d="M17.4,7.1V4.3h-0.3c-0.8,0-1.4,0.6-1.4,1.4s0.6,1.4,1.4,1.4L17.4,7.1z"/>
        <path d="M15.3,6.4l-1.2-2.4c-0.2-0.5-0.7-0.8-1.3-0.8H10c-0.3,0-0.5,0.2-0.5,0.5c0,0.3,0.2,0.4,0.5,0.4h2.8 c0.3,0,0.5,0.2,0.6,0.4l0.8,1.5L15.3,6.4z"/>
        <path d="M20.8,9.1c0.4,0.1,0.6,0.4,0.6,0.8h-2c-2.7,0-4.8,2.1-4.8,4.8l0,0H8.1c0-2.1-1.4-3.9-3.3-4.6L1.1,8.9L1.7,8 c0.2-0.3,0.6-0.5,1-0.5H3l8.1,2.5h0.3c0.4,0,0.7-0.2,0.9-0.5l1.8-2.6L20.8,9.1z"/>
        <path d="M15.4,15.4c0-1.8,1.5-3.3,3.3-3.3c1.8,0,3.3,1.5,3.3,3.3s-1.5,3.3-3.3,3.3l0,0 C16.9,18.8,15.4,17.3,15.4,15.4z M18.7,16.8c0.7,0,1.2-0.5,1.2-1.2c0,0,0,0,0,0c0-0.7-0.5-1.2-1.2-1.2c-0.7,0-1.2,0.5-1.2,1.2 C17.5,16.2,18,16.8,18.7,16.8C18.7,16.8,18.7,16.8,18.7,16.8z"/>
        <path d="M0,15.1c0-2,1.6-3.6,3.6-3.6s3.6,1.6,3.6,3.6s-1.6,3.6-3.6,3.6S0,17.1,0,15.1C0,15.1,0,15.1,0,15.1z M3.6,16.4c0.7,0,1.3-0.6,1.3-1.3s-0.6-1.3-1.3-1.3l0,0c-0.7,0-1.3,0.6-1.3,1.3S2.9,16.4,3.6,16.4z"/>
      </g>
    </g>
  </g>
</svg>