<?xml version="1.0" encoding="utf-8"?>
<svg xmlns="http://www.w3.org/2000/svg" viewBox="0 0 123.931 123.576">
  <g transform="matrix(1, 0, 0, 1, 123.813705, 32.91745)">
    <path class="st0" d="M -14.631 90.84 C -6.431 90.84 0.169 84.24 0.169 76.14 L 0.169 -17.86 C 0.169 -26.06 -6.431 -32.66 -14.631 -32.66 L -108.63 -32.66 C -116.83 -32.76 -123.43 -26.16 -123.43 -17.96 L -123.43 76.04 C -123.43 84.24 -116.83 90.74 -108.73 90.74 C -108.63 90.84 -14.631 90.84 -14.631 90.84 Z" style="stroke-width: 1;"/>
    <path class="st1" d="M -106.1 -26.243 C -112.5 -26.243 -117.7 -21.143 -117.7 -14.743 L -117.7 72.957 C -117.7 79.257 -112.5 84.457 -106.2 84.457 L -17.196 84.457 C -10.796 84.457 -5.596 79.357 -5.596 72.957 L -5.596 -14.743 C -5.596 -21.043 -10.796 -26.243 -17.196 -26.243 C -17.296 -26.243 -106.1 -26.243 -106.1 -26.243 Z" style="fill: rgb(255, 255, 255); stroke-width: 1;"/>
    <line class="st3" x1="-116.83" y1="-25.943" x2="-6.431" y2="84.757" style="fill: none; stroke: rgb(252, 3, 3); stroke-miterlimit: 10; stroke-width: 10; visibility: hidden;"/>
    <g id="Layer_1" style="" transform="matrix(4.288178, 0, 0, 4.17913, 205.536078, 44.558214)">
      <g transform="matrix(1, 0, 0, 1, -73.477114, -14.724626)">
        <g>
          <ellipse cx="11" cy="3.1" rx="3.1" ry="3.1"/>
        </g>
        <g>
          <path d="M11,12.7H7.7v-2.4l-2.5,2.5c-1.1,1.1-2.7-0.3-1.5-1.5l4.2-4.2c0.3-0.3,0.7-0.5,1.3-0.5H11l0,0h1.9c0.6,0,1,0.2,1.3,0.5 l4.2,4.2c1.1,1.1-0.5,2.6-1.5,1.5l-2.6-2.6v2.4H11L11,12.7z"/>
        </g>
        <g>
          <path d="M14.3,13.9l-2.5,2.5l1.8,1.8l-1.9,1.9c-1.1,1.1,0.4,2.7,1.5,1.5l2.9-3.1c0.6-0.6,0.8-1.8,0.1-2.5 C16.4,16,14.3,13.9,14.3,13.9z"/>
        </g>
        <g>
          <path d="M7.7,13.9l2.5,2.5l-1.8,1.8l1.9,1.9c1.1,1.1-0.4,2.7-1.6,1.5l-2.9-3.1c-0.6-0.6-0.8-1.8-0.1-2.5L7.7,13.9z"/>
        </g>
      </g>
    </g>
  </g>
</svg>