<?xml version="1.0" encoding="utf-8"?>
<svg xmlns="http://www.w3.org/2000/svg" viewBox="0 0 123.932 123.932">
  <g transform="matrix(1, 0, 0, 1, 123.813705, 32.91745)">
    <path class="st0" d="M -14.631 90.84 C -6.431 90.84 0.169 84.24 0.169 76.14 L 0.169 -17.86 C 0.169 -26.06 -6.431 -32.66 -14.631 -32.66 L -108.63 -32.66 C -116.83 -32.76 -123.43 -26.16 -123.43 -17.96 L -123.43 76.04 C -123.43 84.24 -116.83 90.74 -108.73 90.74 C -108.63 90.84 -14.631 90.84 -14.631 90.84 Z" style="stroke-width: 1;"/>
    <path class="st1" d="M -106.1 -26.243 C -112.5 -26.243 -117.7 -21.143 -117.7 -14.743 L -117.7 72.957 C -117.7 79.257 -112.5 84.457 -106.2 84.457 L -17.196 84.457 C -10.796 84.457 -5.596 79.357 -5.596 72.957 L -5.596 -14.743 C -5.596 -21.043 -10.796 -26.243 -17.196 -26.243 C -17.296 -26.243 -106.1 -26.243 -106.1 -26.243 Z" style="fill: rgb(255, 255, 255); stroke-width: 1;"/>
    <text style="font-family: Arial, sans-serif; font-size: 28px; font-weight: 700; white-space: pre; visibility: hidden;" transform="matrix(3.117827, 0, 0, 3.622723, 161.590856, 16.823082)" x="-89.643" y="14.443">VS</text>
    <g transform="matrix(4.853253, 0, 0, 5.024656, -113.493898, -22.156527)" style="visibility: hidden;">
      <path d="M10,14c-1.1,0-2,0.9-2,2c0,1.1,0.9,2,2,2s2-0.9,2-2C12,14.9,11.1,14,10,14z M10,17c-0.6,0-1-0.4-1-1c0-0.6,0.4-1,1-1 s1,0.4,1,1C11,16.6,10.6,17,10,17z"/>
      <path d="M21.3,15H19V8.1c0-2-1.2-4.1-3.2-4.1H3.6C1.6,4,0,6.1,0,8.1l0,4.6C0,14.1,1.2,16,2.7,16H7c0-1.7,1.3-3,3-3s3,1.3,3,3h9 C22,15.6,21.7,15,21.3,15z M10,8c0,0.5-0.5,1-1,1H4C3.5,9,3,8.5,3,8V7c0-0.5,0.5-1,1-1h5c0.5,0,1,0.5,1,1V8z M17,8c0,0.5-0.5,1-1,1 h-2c-0.5,0-1-0.5-1-1V7c0-0.5,0.5-1,1-1h2c0.5,0,1,0.5,1,1V8z"/>
    </g>
    <line class="st3" x1="-116.83" y1="-25.943" x2="-6.431" y2="84.757" style="fill: none; stroke: rgb(252, 3, 3); stroke-miterlimit: 10; stroke-width: 10; visibility: hidden;"/>
  </g>
  <g id="Layer_1" style="" transform="matrix(4.528065, 0, 0, 4.253353, -232.338615, -202.802618)">
    <path d="M 56.65 63.22 C 56.35 62.72 56.05 62.12 56.05 61.42 C 55.95 61.42 55.95 61.42 55.85 61.42 C 55.25 61.42 54.85 61.02 54.85 60.52 C 54.85 60.22 55.05 59.92 55.25 59.72 L 57.95 57.82 C 58.55 57.52 59.15 57.32 59.85 57.32 L 66.45 57.32 L 71.35 56.52 C 71.35 56.52 71.35 56.42 71.35 56.42 C 71.35 55.92 71.75 55.52 72.25 55.52 C 72.75 55.52 73.15 55.92 73.15 56.42 C 73.15 56.52 73.15 56.62 73.15 56.62 L 73.55 56.72 C 74.05 56.82 74.45 57.32 74.45 57.82 C 74.45 57.82 74.45 57.92 74.45 57.92 L 75.85 58.72 C 76.05 58.82 76.25 59.02 76.25 59.32 C 76.25 59.42 76.25 59.52 76.25 59.52 L 75.85 60.32 C 75.65 60.62 75.35 60.82 75.05 60.82 L 71.75 61.22 L 68.75 64.72 L 70.45 67.62 L 71.55 68.12 C 71.75 68.22 71.85 68.42 71.85 68.72 C 71.85 69.12 71.55 69.42 71.15 69.42 L 68.95 69.42 C 68.35 69.42 67.95 69.12 67.65 68.62 L 65.85 65.32 L 61.65 65.32 L 63.15 67.62 L 64.25 68.12 C 64.45 68.22 64.55 68.42 64.55 68.72 C 64.55 69.12 64.25 69.42 63.85 69.42 L 61.65 69.42 C 61.15 69.42 60.65 69.12 60.45 68.72 L 58.45 65.52 L 57.05 66.92 L 56.95 67.82 L 57.45 68.12 C 57.55 68.12 57.65 68.22 57.65 68.32 C 57.85 68.62 57.85 69.02 57.55 69.32 C 57.45 69.42 57.25 69.52 57.15 69.52 L 56.25 69.52 C 55.95 69.52 55.75 69.32 55.55 69.12 L 54.45 67.22 C 54.35 66.82 54.25 66.62 54.25 66.32 C 54.25 65.92 54.35 65.62 54.65 65.32 L 56.65 63.22 Z" style="stroke-width: 1;"/>
  </g>
</svg>