<?xml version="1.0" encoding="utf-8"?>
<svg xmlns="http://www.w3.org/2000/svg" viewBox="0 0 123.932 124.288">
  <g transform="matrix(1, 0, 0, 1, 123.813705, 32.91745)">
    <path class="st0" d="M -14.631 90.84 C -6.431 90.84 0.169 84.24 0.169 76.14 L 0.169 -17.86 C 0.169 -26.06 -6.431 -32.66 -14.631 -32.66 L -108.63 -32.66 C -116.83 -32.76 -123.43 -26.16 -123.43 -17.96 L -123.43 76.04 C -123.43 84.24 -116.83 90.74 -108.73 90.74 C -108.63 90.84 -14.631 90.84 -14.631 90.84 Z" style="stroke-width: 1;"/>
    <path class="st1" d="M -106.1 -26.243 C -112.5 -26.243 -117.7 -21.143 -117.7 -14.743 L -117.7 72.957 C -117.7 79.257 -112.5 84.457 -106.2 84.457 L -17.196 84.457 C -10.796 84.457 -5.596 79.357 -5.596 72.957 L -5.596 -14.743 C -5.596 -21.043 -10.796 -26.243 -17.196 -26.243 C -17.296 -26.243 -106.1 -26.243 -106.1 -26.243 Z" style="fill: rgb(255, 255, 255); stroke-width: 1;"/>
    <path d="M -91.943 -3.155 C -87.071 -3.599 -83.661 -7.602 -84.635 -12.048 C -85.122 -16.495 -89.507 -19.609 -94.379 -18.719 C -99.25 -18.274 -102.66 -14.272 -101.69 -9.825 C -101.2 -5.378 -96.815 -2.265 -91.943 -3.155 Z" style="stroke-width: 1;"/>
    <path d="M -16.432 56.437 C -18.867 57.77 -20.816 59.993 -24.226 59.993 C -27.637 59.993 -29.585 57.77 -32.021 56.437 C -33.969 55.102 -36.892 52.879 -39.816 52.879 C -42.738 52.879 -45.662 54.658 -47.611 56.437 C -49.072 57.77 -51.995 59.993 -55.405 59.993 C -58.815 59.993 -61.251 57.77 -63.2 56.437 C -65.148 55.102 -67.097 52.879 -70.995 52.879 C -74.405 52.879 -76.841 55.102 -78.789 56.437 C -80.737 57.77 -82.686 59.993 -86.584 59.993 C -89.994 59.993 -92.43 57.77 -94.379 56.437 C -96.327 55.547 -97.789 52.879 -102.17 52.879 C -106.07 52.879 -108.02 55.102 -109.97 56.437 C -109.97 57.77 -115.81 59.993 -115.81 59.993 L -115.81 67.109 L -115.81 74.224 C -115.81 74.224 -109.97 72.001 -108.02 70.667 C -106.07 69.333 -104.12 67.109 -100.22 67.109 C -95.84 67.109 -94.379 69.333 -92.43 70.667 C -90.481 72.001 -88.045 74.224 -84.635 74.224 C -80.737 74.224 -78.789 72.001 -76.841 70.667 C -74.892 69.333 -72.943 67.109 -69.046 67.109 C -65.148 67.109 -63.2 69.333 -61.251 70.667 C -59.302 72.001 -56.866 74.224 -53.456 74.224 C -50.046 74.224 -47.611 72.001 -45.662 70.667 C -43.713 69.333 -40.79 67.109 -37.867 67.109 C -34.944 67.109 -32.021 69.333 -30.072 70.667 C -27.637 72.001 -25.688 74.224 -22.277 74.224 C -19.354 74.224 -17.406 72.001 -14.483 70.667 C -12.047 69.333 -6.688 67.109 -6.688 67.109 L -6.688 59.993 L -6.688 52.879 C -8.637 52.879 -13.508 55.102 -16.432 56.437 Z" style="stroke-width: 1;"/>
    <path d="M -13.508 31.978 C -19.354 31.978 -22.764 23.528 -25.201 20.415 C -25.688 19.971 -50.046 18.636 -52.482 23.528 L -63.2 11.966 C -63.2 11.966 -64.175 11.076 -66.122 11.076 C -67.097 11.076 -68.071 11.521 -69.046 11.966 L -81.225 21.304 L -87.071 4.85 C -88.532 1.293 -92.43 -0.931 -96.327 -0.486 C -101.2 -0.041 -104.61 3.961 -103.64 8.408 C -103.64 8.852 -103.64 9.297 -103.15 9.742 C -103.15 9.742 -103.15 9.742 -103.15 9.742 L -96.815 29.754 C -96.815 29.754 -95.84 30.643 -93.404 31.978 L -115.81 31.978 L -115.81 52.879 C -115.81 52.879 -109.97 50.655 -108.02 49.321 C -106.07 47.987 -104.12 45.763 -100.22 45.763 C -95.84 45.763 -94.379 47.987 -92.43 49.321 C -90.481 50.655 -88.045 52.879 -84.635 52.879 C -80.737 52.879 -78.789 50.655 -76.841 49.321 C -74.892 47.987 -72.943 45.763 -69.046 45.763 C -65.148 45.763 -63.2 47.987 -61.251 49.321 C -59.302 50.655 -56.866 52.879 -53.456 52.879 C -50.046 52.879 -47.611 50.655 -45.662 49.321 C -43.713 47.987 -40.79 45.763 -37.867 45.763 C -34.944 45.763 -32.021 47.987 -30.072 49.321 C -29.585 49.765 -28.611 50.211 -28.123 50.655 L -8.637 31.978 L -13.508 31.978 Z M -66.61 23.083 L -59.79 31.978 L -74.405 31.978 L -66.61 23.083 Z" style="stroke-width: 1;"/>
    <line class="st3" x1="-116.83" y1="-25.943" x2="-6.431" y2="84.757" style="fill: none; stroke: rgb(252, 3, 3); stroke-miterlimit: 10; stroke-width: 10; visibility: hidden;"/>
  </g>
  <line style="fill: rgb(216, 216, 216); stroke: rgb(0, 0, 0); stroke-width: 1;" x1="79.915" y1="19.509" x2="91.367" y2="58.66"/>
  <path style="stroke: rgb(0, 0, 0); stroke-width: 1;" d="M 34.057 45.838 C 34.057 45.838 80.665 19.205 80.799 19.205 C 80.933 19.205 79.201 17.074 79.201 17.074 L 32.593 42.908"/>
</svg>