<?xml version="1.0" encoding="utf-8"?>
<svg xmlns="http://www.w3.org/2000/svg" viewBox="0 0 123.931 123.576">
  <g transform="matrix(1, 0, 0, 1, 123.813705, 32.91745)">
    <path class="st0" d="M -14.631 90.84 C -6.431 90.84 0.169 84.24 0.169 76.14 L 0.169 -17.86 C 0.169 -26.06 -6.431 -32.66 -14.631 -32.66 L -108.63 -32.66 C -116.83 -32.76 -123.43 -26.16 -123.43 -17.96 L -123.43 76.04 C -123.43 84.24 -116.83 90.74 -108.73 90.74 C -108.63 90.84 -14.631 90.84 -14.631 90.84 Z" style="stroke-width: 1; fill: rgb(255, 0, 0);"/>
    <path class="st1" d="M -106.1 -26.243 C -112.5 -26.243 -117.7 -21.143 -117.7 -14.743 L -117.7 72.957 C -117.7 79.257 -112.5 84.457 -106.2 84.457 L -17.196 84.457 C -10.796 84.457 -5.596 79.357 -5.596 72.957 L -5.596 -14.743 C -5.596 -21.043 -10.796 -26.243 -17.196 -26.243 C -17.296 -26.243 -106.1 -26.243 -106.1 -26.243 Z" style="fill: rgb(255, 255, 255); stroke-width: 1;"/>
    <g id="Icons" style="" transform="matrix(4.82902, 0, 0, 4.561933, 307.545755, -160.576573)">
      <g transform="matrix(1, 0, 0, 1, -87.494601, 30.527814)">
        <circle cx="13.9" cy="3" r="2"/>
        <path d="M4.5,20C6.4,20,8,18.4,8,16.5S6.4,13,4.5,13S1,14.6,1,16.5S2.6,20,4.5,20z M0,16.5C0,14,2,12,4.5,12S9,14,9,16.5 S7,21,4.5,21S0,19,0,16.5z"/>
        <path d="M17.5,20c1.9,0,3.5-1.6,3.5-3.5S19.4,13,17.5,13S14,14.6,14,16.5S15.6,20,17.5,20z M13,16.5c0-2.5,2-4.5,4.5-4.5 s4.5,2,4.5,4.5S20,21,17.5,21S13,19,13,16.5z"/>
        <path d="M13.1,9.8c-0.2,0-0.5-0.1-0.7-0.4l-1.1-1.7L9.1,9.9l2.1,1.1c0.9,0.4,0.9,1,0.9,1v5c0,0.5-0.6,0.9-1.2,0.9S10,17.6,10,17v-4 l-3.8-1.9c-0.4-0.3-0.7-0.7-0.7-1.2C5.6,9.5,5.7,9.2,6,9l3.5-3.5C9.9,4.9,10.6,5,10.6,5c0.7,0,1.1,0.6,1.1,0.6l1.8,2.9h2.8 c1,0,1,1.3,0,1.3H13.1L13.1,9.8z"/>
      </g>
    </g>
    <line class="st3" x1="-116.83" y1="-25.943" x2="-6.431" y2="84.757" style="fill: none; stroke: rgb(252, 3, 3); stroke-miterlimit: 10; stroke-width: 10;"/>
  </g>
</svg>