<?xml version="1.0" encoding="utf-8"?>
<svg xmlns="http://www.w3.org/2000/svg" viewBox="0 0 123.931 123.576">
  <g transform="matrix(1, 0, 0, 1, 123.813705, 32.91745)">
    <path class="st0" d="M -14.631 90.84 C -6.431 90.84 0.169 84.24 0.169 76.14 L 0.169 -17.86 C 0.169 -26.06 -6.431 -32.66 -14.631 -32.66 L -108.63 -32.66 C -116.83 -32.76 -123.43 -26.16 -123.43 -17.96 L -123.43 76.04 C -123.43 84.24 -116.83 90.74 -108.73 90.74 C -108.63 90.84 -14.631 90.84 -14.631 90.84 Z" style="fill: rgb(255, 0, 0); stroke-width: 1;"/>
    <path class="st1" d="M -106.1 -26.243 C -112.5 -26.243 -117.7 -21.143 -117.7 -14.743 L -117.7 72.957 C -117.7 79.257 -112.5 84.457 -106.2 84.457 L -17.196 84.457 C -10.796 84.457 -5.596 79.357 -5.596 72.957 L -5.596 -14.743 C -5.596 -21.043 -10.796 -26.243 -17.196 -26.243 C -17.296 -26.243 -106.1 -26.243 -106.1 -26.243 Z" style="fill: rgb(255, 255, 255); stroke-width: 1;"/>
    <g transform="matrix(4.899384, 0, 0, 4.830161, -115.523973, -25.121128)" style="">
      <path d="M10.081,9.896c-0.359,0-0.709,0.037-1.047,0.098l-2.579-8.17C6.113,0.748,4.891,0.031,3.816,0.022 C3.139,0.016,1.839-0.199,1.839,0.848c0,1.113,1.394,0.783,2.074,0.818c0.376,0.02,0.881,0.402,0.996,0.766L5.557,4H0l0,2h6.082 l0.077,0.382L0,12.593c0.069,0.746-0.003,1.543,0,2.295l6.724-6.727l0.734,2.338c-2.028,0.978-3.431,3.047-3.431,5.451 c0,3.342,2.711,6.05,6.053,6.05c3.342,0,6.053-2.708,6.053-6.05C16.134,12.605,13.423,9.896,10.081,9.896 M10.081,20.436 c-2.479,0-4.487-2.008-4.487-4.487c0-1.701,0.952-3.161,2.344-3.922l1.32,4.2c0.138,0.436,0.608,0.674,1.044,0.536 c0.43-0.138,0.677-0.608,0.539-1.041l-1.328-4.206c0.189-0.023,0.373-0.057,0.568-0.057c2.479,0,4.487,2.011,4.487,4.49 C14.568,18.428,12.56,20.436,10.081,20.436"/>
      <path d="M17.8,8.974c1.13,0,2.048,1.298,2.2,2.667V22h2V11.641c0-2.556-1.882-4.636-4.2-4.636h-2.6c-2.318,0-4.2,2.08-4.2,4.636V22 h1.974V11.641c0.177-1.368,1.095-2.667,2.226-2.667H17.8z"/>
    </g>
    <line class="st3" x1="-116.83" y1="-25.943" x2="-6.431" y2="84.757" style="fill: none; stroke: rgb(252, 3, 3); stroke-miterlimit: 10; stroke-width: 10;"/>
  </g>
</svg>