<?xml version="1.0" encoding="utf-8"?>
<svg xmlns="http://www.w3.org/2000/svg" viewBox="0 0 123.931 123.576">
  <g transform="matrix(1, 0, 0, 1, 123.813705, 32.91745)">
    <path class="st0" d="M -14.631 90.84 C -6.431 90.84 0.169 84.24 0.169 76.14 L 0.169 -17.86 C 0.169 -26.06 -6.431 -32.66 -14.631 -32.66 L -108.63 -32.66 C -116.83 -32.76 -123.43 -26.16 -123.43 -17.96 L -123.43 76.04 C -123.43 84.24 -116.83 90.74 -108.73 90.74 C -108.63 90.84 -14.631 90.84 -14.631 90.84 Z" style="stroke-width: 1;"/>
    <path class="st1" d="M -106.1 -26.243 C -112.5 -26.243 -117.7 -21.143 -117.7 -14.743 L -117.7 72.957 C -117.7 79.257 -112.5 84.457 -106.2 84.457 L -17.196 84.457 C -10.796 84.457 -5.596 79.357 -5.596 72.957 L -5.596 -14.743 C -5.596 -21.043 -10.796 -26.243 -17.196 -26.243 C -17.296 -26.243 -106.1 -26.243 -106.1 -26.243 Z" style="fill: rgb(255, 255, 255); stroke-width: 1;"/>
    <line class="st3" x1="-116.83" y1="-25.943" x2="-6.431" y2="84.757" style="fill: none; stroke: rgb(252, 3, 3); stroke-miterlimit: 10; stroke-width: 10; visibility: hidden;"/>
    <g id="Layer_1" style="" transform="matrix(4.412919, 0, 0, 4.199939, 358.834331, 52.782999)">
      <path fill="#000000" d="M -105.14 -16.495 C -103.84 -16.495 -99.04 -14.695 -97.438 -11.895 L -99.14 -10.495 C -99.14 -10.495 -101.74 -12.995 -105.14 -13.595 L -105.14 -16.495 Z" style="stroke-width: 1;"/>
      <path fill="#000000" d="M -99.24 -5.895 C -99.24 -5.095 -98.538 -4.395 -97.738 -4.395 C -96.938 -4.395 -96.238 -5.095 -96.238 -5.895 C -96.238 -6.695 -97.738 -10.095 -97.738 -10.095 C -97.738 -10.095 -99.24 -6.795 -99.24 -5.895 Z" style="stroke-width: 1;"/>
      <path fill="#000000" d="M -90.338 -13.995 C -90.538 -13.995 -90.638 -14.195 -90.638 -14.395 C -90.638 -14.495 -90.538 -14.695 -90.438 -14.695 C -90.538 -14.795 -90.638 -14.995 -90.638 -15.095 C -90.638 -15.295 -90.438 -15.495 -90.238 -15.495 L -88.038 -15.495 C -87.838 -15.495 -87.638 -15.295 -87.638 -15.095 C -87.638 -14.995 -87.738 -14.795 -87.838 -14.795 C -87.738 -14.695 -87.638 -14.595 -87.638 -14.395 C -87.638 -14.195 -87.738 -13.995 -87.938 -13.995 L -85.838 -7.795 C -85.738 -7.395 -85.638 -6.995 -85.638 -6.495 L -85.638 4.805 C -85.638 5.205 -85.938 5.605 -86.438 5.605 L -91.938 5.605 C -92.338 5.605 -92.738 5.305 -92.738 4.805 L -92.738 -6.495 C -92.738 -6.995 -92.638 -7.395 -92.538 -7.795 L -90.338 -13.995 Z" style="stroke-width: 1;"/>
    </g>
  </g>
</svg>