<?xml version="1.0" encoding="utf-8"?>
<svg xmlns="http://www.w3.org/2000/svg" viewBox="0 0 123.575 123.219">
  <g transform="matrix(1, 0, 0, 1, 123.813705, 32.91745)">
    <path class="st0" d="M -14.631 90.84 C -6.431 90.84 0.169 84.24 0.169 76.14 L 0.169 -17.86 C 0.169 -26.06 -6.431 -32.66 -14.631 -32.66 L -108.63 -32.66 C -116.83 -32.76 -123.43 -26.16 -123.43 -17.96 L -123.43 76.04 C -123.43 84.24 -116.83 90.74 -108.73 90.74 C -108.63 90.84 -14.631 90.84 -14.631 90.84 Z" style="stroke-width: 1;"/>
    <path class="st1" d="M -106.1 -26.243 C -112.5 -26.243 -117.7 -21.143 -117.7 -14.743 L -117.7 72.957 C -117.7 79.257 -112.5 84.457 -106.2 84.457 L -17.196 84.457 C -10.796 84.457 -5.596 79.357 -5.596 72.957 L -5.596 -14.743 C -5.596 -21.043 -10.796 -26.243 -17.196 -26.243 C -17.296 -26.243 -106.1 -26.243 -106.1 -26.243 Z" style="fill: rgb(255, 255, 255); stroke-width: 1;"/>
    <g transform="matrix(4.959391, 0, 0, 4.922473, -115.422846, -24.72679)" style="visibility: hidden;">
      <path d="M10.7,8H7.8c-1.1,0-1.1,1.4,0,1.4H11c0.2,0,0.5-0.1,0.7-0.4L13,6.5V21c0,0.6,0.4,1,1,1s1-0.4,1-1v-8h1v8c0,0.6,0.4,1,1,1 s1-0.4,1-1V7h1.5v4.9c0,1.1,1.5,1.1,1.5,0V6.4C21,5.2,19.8,4,18.3,4H17v1h-2V4c-0.8,0-2,0.5-2.4,1.1L10.7,8L10.7,8z"/>
      <polygon points="1,13 2,13 4,21 7,21 9,13 10,13 8,22 3,22 &#9;"/>
      <polygon points="15,0 17,0 17,1 18,1 18,3 17,3 17,4 15,4 15,3 14,3 14,1 15,1 &#9;"/>
      <circle cx="4" cy="10" r="1"/>
      <circle cx="6" cy="13" r="1"/>
      <circle cx="5" cy="16" r="1"/>
    </g>
    <path d="M -61.592 -5.305 L -65.241 -5.305 C -67.978 -5.305 -70.259 -7.407 -70.259 -9.93 L -70.259 -13.294 C -70.259 -15.817 -67.978 -17.92 -65.241 -17.92 C -65.241 -17.92 -65.241 -17.92 -65.241 -17.92 L -61.592 -17.92 C -58.856 -17.92 -56.575 -15.817 -56.575 -13.294 L -56.575 -9.93 C -56.575 -7.407 -58.856 -5.305 -61.592 -5.305 Z" style="stroke-width: 1; visibility: hidden;"/>
    <polygon points="-70.259 24.131 -56.575 24.131 -56.575 7.311 -52.014 7.311 -52.014 19.926 -47.452 19.926 -47.452 3.106 -56.575 -1.099 -70.259 -1.099 -79.381 3.106 -79.381 19.926 -74.82 19.926 -74.82 7.311 -70.259 7.311" style="stroke-width: 1; visibility: hidden;"/>
    <path d="M -10.962 71.649 L -13.699 62.818 C -29.664 64.501 -45.172 65.342 -61.136 65.342 C -76.644 65.342 -92.609 64.501 -108.12 62.818 L -111.31 71.649 C -94.433 73.331 -78.013 74.593 -61.136 74.593 C -44.26 74.593 -27.839 73.331 -10.962 71.649 Z" style="stroke-width: 1; visibility: hidden;"/>
    <path d="M -102.64 46.418 L -105.38 55.249 C -91.24 56.511 -76.644 57.352 -61.136 57.352 C -45.628 57.352 -31.032 56.511 -16.892 55.249 L -19.629 46.418 C -33.313 47.68 -47.452 48.521 -61.136 48.521 C -74.82 48.521 -88.96 47.68 -102.64 46.418 Z" style="stroke-width: 1; visibility: hidden;"/>
    <path d="M -61.136 40.531 C -48.365 40.531 -35.593 40.111 -22.822 38.849 L -25.558 30.018 C -36.962 30.859 -48.821 31.701 -61.136 31.701 C -73.452 31.701 -84.855 30.859 -96.258 30.018 L -98.995 38.849 C -87.135 39.69 -74.364 40.531 -61.136 40.531 Z" style="stroke-width: 1; visibility: hidden;"/>
    <path fill="none" d="M -37.559 5.925 C -38.004 5.192 -38.894 4.459 -39.783 4.459 L -84.271 4.459 C -85.161 4.459 -86.05 5.192 -86.495 5.925 L -94.5 20.955 L -29.554 20.955 L -37.559 5.925 Z" style="stroke-width: 1; visibility: hidden;"/>
    <path d="M -13.098 30.854 C -13.098 26.454 -16.656 22.422 -21.993 21.322 L -30.888 3.725 C -32.222 1.159 -35.336 -0.674 -38.894 -0.674 L -85.161 -0.674 C -88.719 -0.674 -91.832 1.159 -93.166 3.725 L -102.06 21.322 C -106.96 22.422 -110.96 26.088 -110.96 30.854 L -110.96 42.951 L -110.96 50.283 L -102.06 50.283 L -102.06 57.615 C -102.06 57.615 -102.06 58.715 -102.06 59.448 C -102.06 62.381 -98.948 64.947 -95.39 64.947 C -91.832 64.947 -88.719 62.381 -88.719 59.448 C -88.719 58.715 -88.719 57.615 -88.719 57.615 L -88.719 50.283 L -35.336 50.283 L -35.336 57.615 C -35.336 57.615 -35.336 58.715 -35.336 59.448 C -35.336 62.381 -32.222 64.947 -28.664 64.947 C -25.106 64.947 -21.993 62.381 -21.993 59.448 C -21.993 58.715 -21.993 57.615 -21.993 57.615 L -21.993 50.283 L -13.098 50.283 L -13.098 42.951 L -13.098 30.854 Z M -95.39 39.285 C -98.948 39.285 -102.06 36.719 -102.06 33.786 C -102.06 30.854 -98.948 28.287 -95.39 28.287 C -91.832 28.287 -88.719 30.854 -88.719 33.786 C -88.719 36.719 -91.832 39.285 -95.39 39.285 Z M -94.5 20.955 L -86.94 5.558 C -86.495 5.192 -85.605 4.459 -84.271 4.459 L -39.783 4.459 C -38.894 4.459 -38.004 5.192 -37.559 5.925 L -29.554 20.955 L -94.5 20.955 Z M -28.664 39.285 C -32.222 39.285 -35.336 36.719 -35.336 33.786 C -35.336 30.854 -32.222 28.287 -28.664 28.287 C -25.106 28.287 -21.993 30.854 -21.993 33.786 C -21.993 36.719 -25.106 39.285 -28.664 39.285 Z" style="stroke-width: 1; visibility: hidden;"/>
    <line class="st3" x1="-116.83" y1="-25.943" x2="-6.431" y2="84.757" style="fill: none; stroke: rgb(252, 3, 3); stroke-miterlimit: 10; stroke-width: 10; pointer-events: none; visibility: hidden;"/>
    <g transform="matrix(3.987496, 0, 0, 4.205128, -107.312923, -15.189167)" style="">
      <path d="M14,0H8c0,0-6,0.1-6,8c0,2.6,0,11,0,11h2v3h2v-3h10v3h2v-3h2c0,0,0-3.2,0-11C20,0.1,14,0,14,0z M7,2h8v1H7V2z M6,16H4v-2h2 V16z M18,16h-2v-2h2V16z M18,11H4V5.2C4,4.5,4.5,4,5.2,4H17c0.6,0,1,0.4,1,1V11z"/>
    </g>
  </g>
</svg>