<?xml version="1.0" encoding="utf-8"?>
<svg xmlns="http://www.w3.org/2000/svg" viewBox="0 0 123.931 123.576">
  <g transform="matrix(1, 0, 0, 1, 123.813705, 32.91745)">
    <path class="st0" d="M -14.631 90.84 C -6.431 90.84 0.169 84.24 0.169 76.14 L 0.169 -17.86 C 0.169 -26.06 -6.431 -32.66 -14.631 -32.66 L -108.63 -32.66 C -116.83 -32.76 -123.43 -26.16 -123.43 -17.96 L -123.43 76.04 C -123.43 84.24 -116.83 90.74 -108.73 90.74 C -108.63 90.84 -14.631 90.84 -14.631 90.84 Z" style="stroke-width: 1; fill: rgb(255, 0, 0);"/>
    <path class="st1" d="M -106.1 -26.243 C -112.5 -26.243 -117.7 -21.143 -117.7 -14.743 L -117.7 72.957 C -117.7 79.257 -112.5 84.457 -106.2 84.457 L -17.196 84.457 C -10.796 84.457 -5.596 79.357 -5.596 72.957 L -5.596 -14.743 C -5.596 -21.043 -10.796 -26.243 -17.196 -26.243 C -17.296 -26.243 -106.1 -26.243 -106.1 -26.243 Z" style="fill: rgb(255, 255, 255); stroke-width: 1;"/>
    <g id="Icons" transform="matrix(4.348422, 0, 0, 4.301525, 328.701578, 1.300877)" style="">
      <g transform="matrix(1, 0, 0, 1, -100.754352, -5.331523)">
        <path d="M3,17l2,1h1l2-1h1l2,1h1l2-1h1l2,1h1l2-1h0.2c0.1-0.1,0.1-0.2,0.2-0.1c0.6-0.7,1-1.5,1-2.5c0-2.1-1.7-3.7-3.7-3.7h-0.4 c-0.5,1.9-2.3,1.9-2.3,1.9H6.5l-0.7-0.4l1.7-2.9l1.9,1.1c1.1,0.7,1.7-0.3,1.7-0.3l1.9-3c0.8-1.4-1-2.4-1.8-1.1L9.9,8.1L6.8,6.4 C4.6,5.2,3.7,7.2,3.7,7.2l-2.5,4.2c-0.4,0.9,0,1.2,0,1.2H0V18l2-1H3z"/>
        <polygon points="21,19 20,19 18,20 17,20 15,19 14,19 12,20 11,20 9,19 8,19 6,20 5,20 3,19 2,19 0,20 0,22 2,21 3,21 5,22 6,22 &#10;&#9;&#9;8,21 9,21 11,22 12,22 14,21 15,21 17,22 18,22 20,21 21,21 22,21.5 22,19.5 &#9;"/>
        <circle cx="8" cy="3" r="2"/>
      </g>
    </g>
    <line class="st3" x1="-116.83" y1="-25.943" x2="-6.431" y2="84.757" style="fill: none; stroke: rgb(252, 3, 3); stroke-miterlimit: 10; stroke-width: 10;"/>
  </g>
</svg>