<?xml version="1.0" encoding="utf-8"?>
<svg xmlns="http://www.w3.org/2000/svg" viewBox="0 0 123.931 123.576">
  <g transform="matrix(1, 0, 0, 1, 123.813705, 32.91745)">
    <path class="st0" d="M -14.631 90.84 C -6.431 90.84 0.169 84.24 0.169 76.14 L 0.169 -17.86 C 0.169 -26.06 -6.431 -32.66 -14.631 -32.66 L -108.63 -32.66 C -116.83 -32.76 -123.43 -26.16 -123.43 -17.96 L -123.43 76.04 C -123.43 84.24 -116.83 90.74 -108.73 90.74 C -108.63 90.84 -14.631 90.84 -14.631 90.84 Z" style="stroke-width: 1;"/>
    <path class="st1" d="M -106.1 -26.243 C -112.5 -26.243 -117.7 -21.143 -117.7 -14.743 L -117.7 72.957 C -117.7 79.257 -112.5 84.457 -106.2 84.457 L -17.196 84.457 C -10.796 84.457 -5.596 79.357 -5.596 72.957 L -5.596 -14.743 C -5.596 -21.043 -10.796 -26.243 -17.196 -26.243 C -17.296 -26.243 -106.1 -26.243 -106.1 -26.243 Z" style="fill: rgb(255, 255, 255); stroke-width: 1;"/>
    <line class="st3" x1="-116.83" y1="-25.943" x2="-6.431" y2="84.757" style="fill: none; stroke: rgb(252, 3, 3); stroke-miterlimit: 10; stroke-width: 10; visibility: hidden;"/>
    <g id="Layer_1" transform="matrix(4.525954, 0, 0, 4.632976, 345.636332, 12.428667)" style="">
      <path d="M -92.135 -2.802 C -91.935 -3.002 -91.835 -3.302 -92.035 -3.502 L -92.935 -4.502 C -93.035 -4.802 -93.335 -4.802 -93.535 -4.602 L -97.335 -1.502 C -97.535 -1.402 -97.635 -1.102 -97.435 -0.902 L -96.535 0.198 C -96.335 0.398 -96.035 0.398 -95.835 0.298 L -92.135 -2.802 Z" style="stroke-width: 1;"/>
      <path d="M -95.835 1.498 C -96.035 1.698 -96.235 1.898 -96.335 2.198 C -96.435 2.398 -96.535 2.698 -96.635 2.898 L -97.735 7.498 L -100.73 10.398 C -100.83 10.498 -100.94 10.598 -100.94 10.698 C -101.23 11.198 -101.03 11.898 -100.53 12.298 C -100.14 12.598 -99.53 12.498 -99.23 12.198 L -95.935 8.998 C -95.935 8.898 -95.835 8.898 -95.835 8.798 C -95.835 8.698 -95.735 8.598 -95.735 8.498 L -95.035 5.598 L -92.035 8.198 L -92.035 11.898 C -92.035 12.298 -91.835 12.698 -91.435 12.898 C -90.935 13.198 -90.235 12.998 -89.835 12.498 C -89.735 12.298 -89.635 12.098 -89.735 11.898 L -89.735 7.798 C -89.735 7.498 -89.835 7.198 -90.035 6.998 L -93.035 4.098 L -90.335 1.898 L -89.735 3.698 C -89.635 3.798 -89.635 3.898 -89.535 3.998 L -86.935 5.998 C -86.535 6.198 -86.135 6.198 -85.835 5.798 C -85.535 5.398 -85.535 4.898 -85.835 4.498 L -88.135 2.698 L -89.235 -0.402 C -89.435 -0.802 -89.735 -1.202 -90.135 -1.402 C -90.735 -1.902 -91.635 -1.802 -92.235 -1.402 L -95.835 1.498 Z" style="stroke-width: 1;"/>
      <path d="M -85.635 -4.202 C -85.735 -4.302 -85.735 -4.402 -85.735 -4.502 C -85.735 -4.702 -85.535 -4.902 -85.335 -4.902 L -79.635 -4.902 C -79.035 -4.902 -78.735 -3.302 -79.135 -2.002 C -79.535 -0.802 -80.535 0.698 -81.035 0.198 L -85.635 -4.202 Z" style="stroke-width: 1;"/>
      <path d="M -88.035 -4.902 L -86.335 -4.902 C -86.635 -5.502 -87.335 -5.902 -88.035 -5.902 C -89.135 -5.902 -90.035 -5.002 -90.035 -3.902 C -90.035 -2.802 -89.135 -1.902 -88.035 -1.902 C -86.935 -1.902 -86.035 -2.802 -86.035 -3.902 L -88.035 -3.902 L -88.035 -4.902 Z" style="stroke-width: 1;"/>
    </g>
  </g>
</svg>