<?xml version="1.0" encoding="utf-8"?>
<svg xmlns="http://www.w3.org/2000/svg" viewBox="0 0 123.931 123.576">
  <g transform="matrix(1, 0, 0, 1, 123.813705, 32.91745)">
    <path class="st0" d="M -14.631 90.84 C -6.431 90.84 0.169 84.24 0.169 76.14 L 0.169 -17.86 C 0.169 -26.06 -6.431 -32.66 -14.631 -32.66 L -108.63 -32.66 C -116.83 -32.76 -123.43 -26.16 -123.43 -17.96 L -123.43 76.04 C -123.43 84.24 -116.83 90.74 -108.73 90.74 C -108.63 90.84 -14.631 90.84 -14.631 90.84 Z" style="stroke-width: 1; fill: rgb(255, 0, 0);"/>
    <path class="st1" d="M -106.1 -26.243 C -112.5 -26.243 -117.7 -21.143 -117.7 -14.743 L -117.7 72.957 C -117.7 79.257 -112.5 84.457 -106.2 84.457 L -17.196 84.457 C -10.796 84.457 -5.596 79.357 -5.596 72.957 L -5.596 -14.743 C -5.596 -21.043 -10.796 -26.243 -17.196 -26.243 C -17.296 -26.243 -106.1 -26.243 -106.1 -26.243 Z" style="fill: rgb(255, 255, 255); stroke-width: 1;"/>
    <g id="Layer_1" style="" transform="matrix(4.711514, 0, 0, 4.927586, 423.496381, -315.661203)">
      <path d="M -95.214 60.467 L -96.614 61.867 C -95.014 63.567 -94.014 65.767 -94.014 68.267 C -94.014 70.767 -95.014 72.967 -96.614 74.667 L -95.214 76.067 C -93.214 74.067 -92.014 71.367 -92.014 68.267 C -92.014 65.267 -93.214 62.467 -95.214 60.467 Z" style="stroke-width: 1;"/>
      <path d="M -112.01 68.267 C -112.01 65.767 -111.01 63.567 -109.41 61.867 L -110.81 60.467 C -112.81 62.467 -114.01 65.267 -114.01 68.267 C -114.01 71.267 -112.81 74.067 -110.81 76.067 L -109.41 74.667 C -111.01 72.967 -112.01 70.767 -112.01 68.267 Z" style="stroke-width: 1;"/>
      <path d="M -107.91 73.167 L -106.51 71.767 C -107.41 70.867 -108.01 69.667 -108.01 68.267 C -108.01 66.867 -107.41 65.667 -106.51 64.767 L -107.91 63.367 C -109.21 64.567 -110.01 66.367 -110.01 68.267 C -110.01 70.167 -109.21 71.967 -107.91 73.167 Z" style="stroke-width: 1;"/>
      <path d="M -98.014 68.267 C -98.014 69.667 -98.614 70.867 -99.51 71.767 L -98.114 73.167 C -96.814 71.867 -96.014 70.167 -96.014 68.267 C -96.014 66.367 -96.814 64.567 -98.114 63.367 L -99.51 64.767 C -98.614 65.667 -98.014 66.867 -98.014 68.267 Z" style="stroke-width: 1;"/>
      <path d="M -102.01 71.067 C -100.81 70.667 -100.01 69.567 -100.01 68.267 C -100.01 66.567 -101.31 65.267 -103.01 65.267 C -104.71 65.267 -106.01 66.567 -106.01 68.267 C -106.01 69.567 -105.21 70.667 -104.01 71.067 L -105.11 77.267 L -106.01 77.267 L -106.01 79.267 L -105.41 79.267 L -104.41 79.267 L -101.51 79.267 L -100.51 79.267 L -100.01 79.267 L -100.01 77.267 L -100.91 77.267 L -102.01 71.067 Z M -104.11 77.267 L -103.01 71.267 C -103.01 71.267 -103.01 71.267 -103.01 71.267 C -103.01 71.267 -103.01 71.267 -103.01 71.267 L -101.91 77.267 L -104.11 77.267 Z" style="stroke-width: 1;"/>
    </g>
    <line class="st3" x1="-116.83" y1="-25.943" x2="-6.431" y2="84.757" style="fill: none; stroke: rgb(252, 3, 3); stroke-miterlimit: 10; stroke-width: 10;"/>
  </g>
</svg>