<?xml version="1.0" encoding="utf-8"?>
<svg xmlns="http://www.w3.org/2000/svg" viewBox="0 0 123.932 123.932">
  <g transform="matrix(1, 0, 0, 1, 123.813705, 32.91745)">
    <path class="st0" d="M -14.631 90.84 C -6.431 90.84 0.169 84.24 0.169 76.14 L 0.169 -17.86 C 0.169 -26.06 -6.431 -32.66 -14.631 -32.66 L -108.63 -32.66 C -116.83 -32.76 -123.43 -26.16 -123.43 -17.96 L -123.43 76.04 C -123.43 84.24 -116.83 90.74 -108.73 90.74 C -108.63 90.84 -14.631 90.84 -14.631 90.84 Z" style="stroke-width: 1;"/>
    <path class="st1" d="M -106.1 -26.243 C -112.5 -26.243 -117.7 -21.143 -117.7 -14.743 L -117.7 72.957 C -117.7 79.257 -112.5 84.457 -106.2 84.457 L -17.196 84.457 C -10.796 84.457 -5.596 79.357 -5.596 72.957 L -5.596 -14.743 C -5.596 -21.043 -10.796 -26.243 -17.196 -26.243 C -17.296 -26.243 -106.1 -26.243 -106.1 -26.243 Z" style="fill: rgb(255, 255, 255); stroke-width: 1;"/>
    <text style="font-family: Arial, sans-serif; font-size: 28px; font-weight: 700; white-space: pre; visibility: hidden;" transform="matrix(3.117827, 0, 0, 3.622723, 161.590856, 16.823082)" x="-89.643" y="14.443">VS</text>
    <g transform="matrix(4.853253, 0, 0, 5.024656, -113.493898, -22.156527)" style="visibility: hidden;">
      <path d="M10,14c-1.1,0-2,0.9-2,2c0,1.1,0.9,2,2,2s2-0.9,2-2C12,14.9,11.1,14,10,14z M10,17c-0.6,0-1-0.4-1-1c0-0.6,0.4-1,1-1 s1,0.4,1,1C11,16.6,10.6,17,10,17z"/>
      <path d="M21.3,15H19V8.1c0-2-1.2-4.1-3.2-4.1H3.6C1.6,4,0,6.1,0,8.1l0,4.6C0,14.1,1.2,16,2.7,16H7c0-1.7,1.3-3,3-3s3,1.3,3,3h9 C22,15.6,21.7,15,21.3,15z M10,8c0,0.5-0.5,1-1,1H4C3.5,9,3,8.5,3,8V7c0-0.5,0.5-1,1-1h5c0.5,0,1,0.5,1,1V8z M17,8c0,0.5-0.5,1-1,1 h-2c-0.5,0-1-0.5-1-1V7c0-0.5,0.5-1,1-1h2c0.5,0,1,0.5,1,1V8z"/>
    </g>
    <line class="st3" x1="-116.83" y1="-25.943" x2="-6.431" y2="84.757" style="fill: none; stroke: rgb(252, 3, 3); stroke-miterlimit: 10; stroke-width: 10; visibility: hidden;"/>
  </g>
  <g id="Layer_1" transform="matrix(4.848142, 0, 0, 4.628867, -80.226702, -61.73879)" style="">
    <path d="M 39.476 15.697 L 39.276 15.797 C 33.276 20.297 29.076 27.197 28.176 28.897 C 27.176 25.497 26.076 25.097 25.976 24.997 L 25.876 24.997 L 22.876 27.597 L 23.076 27.697 C 25.776 29.497 26.876 34.697 26.876 34.797 L 26.976 35.097 L 29.976 32.797 C 33.676 23.397 40.076 17.297 40.076 17.197 L 40.176 17.097 L 39.476 15.697 Z" style="stroke-width: 1;"/>
    <path d="M 36.676 34.697 C 36.676 35.797 35.776 36.697 34.676 36.697 L 21.676 36.697 C 20.576 36.697 19.676 35.797 19.676 34.697 L 19.676 21.697 C 19.676 20.597 20.576 19.697 21.676 19.697 L 33.676 19.697 C 33.976 19.397 34.276 18.997 34.676 18.697 L 21.676 18.697 C 19.976 18.697 18.676 19.997 18.676 21.697 L 18.676 34.697 C 18.676 36.297 19.976 37.697 21.676 37.697 L 34.676 37.697 C 36.376 37.697 37.676 36.297 37.676 34.697 L 37.676 21.697 C 37.676 21.597 37.676 21.597 37.676 21.497 C 37.376 21.897 37.076 22.297 36.676 22.797 L 36.676 34.697 Z" style="stroke-width: 1;"/>
  </g>
</svg>