<?xml version="1.0" encoding="utf-8"?>
<svg xmlns="http://www.w3.org/2000/svg" viewBox="0 0 123.932 123.932">
  <g transform="matrix(1, 0, 0, 1, 123.813705, 32.91745)">
    <path class="st0" d="M -14.631 90.84 C -6.431 90.84 0.169 84.24 0.169 76.14 L 0.169 -17.86 C 0.169 -26.06 -6.431 -32.66 -14.631 -32.66 L -108.63 -32.66 C -116.83 -32.76 -123.43 -26.16 -123.43 -17.96 L -123.43 76.04 C -123.43 84.24 -116.83 90.74 -108.73 90.74 C -108.63 90.84 -14.631 90.84 -14.631 90.84 Z" style="stroke-width: 1; fill: rgb(255, 0, 0);"/>
    <path class="st1" d="M -106.1 -26.243 C -112.5 -26.243 -117.7 -21.143 -117.7 -14.743 L -117.7 72.957 C -117.7 79.257 -112.5 84.457 -106.2 84.457 L -17.196 84.457 C -10.796 84.457 -5.596 79.357 -5.596 72.957 L -5.596 -14.743 C -5.596 -21.043 -10.796 -26.243 -17.196 -26.243 C -17.296 -26.243 -106.1 -26.243 -106.1 -26.243 Z" style="fill: rgb(255, 255, 255); stroke-width: 1;"/>
    <text style="font-family: Arial, sans-serif; font-size: 28px; font-weight: 700; white-space: pre; visibility: hidden;" transform="matrix(3.117827, 0, 0, 3.622723, 161.590856, 16.823082)" x="-89.643" y="14.443">VS</text>
    <g id="Layer_1" style="" transform="matrix(4.905535, 0, 0, 4.572207, -156.119405, -433.023908)">
      <path d="M 10.711 99.486 C 10.611 99.686 10.511 99.886 10.511 100.186 C 10.511 100.286 10.511 100.386 10.511 100.586 L 10.611 106.086 L 8.711 110.186 C 8.611 110.286 8.611 110.486 8.611 110.586 C 8.511 111.286 9.011 111.886 9.611 111.986 C 10.111 112.086 10.611 111.786 10.911 111.386 L 13.011 106.886 C 13.011 106.786 13.111 106.686 13.111 106.586 C 13.111 106.486 13.111 106.486 13.111 106.386 L 13.111 102.986 L 16.311 104.386 L 16.811 107.786 C 16.911 108.286 17.311 108.686 17.811 108.786 C 18.511 108.886 19.111 108.386 19.211 107.786 C 19.211 107.686 19.211 107.586 19.211 107.486 L 18.611 103.386 C 18.511 102.986 18.311 102.686 17.911 102.486 L 15.011 101.086 L 16.811 97.886 L 17.711 99.086 C 17.911 99.086 18.011 99.186 18.211 99.286 L 21.711 100.286 C 22.211 100.386 22.611 100.186 22.811 99.686 C 23.011 99.186 22.811 98.586 22.311 98.386 C 22.311 98.386 22.311 98.386 22.311 98.386 L 19.311 97.486 L 16.911 94.786 C 16.511 94.386 16.111 94.186 15.511 94.086 C 14.611 93.886 13.711 94.386 13.311 95.086 L 10.711 99.486 Z" style="stroke-width: 1;"/>
      <path d="M 20.711 107.486 L 20.511 109.186 L 14.511 110.686 L 14.611 111.686 L 29.211 111.686 C 29.711 111.686 30.111 111.286 30.111 110.786 L 30.111 91.086 L 28.111 90.586 L 26.911 95.786 L 25.011 96.586 L 23.311 101.386 L 24.911 105.086 L 24.411 106.486 L 20.711 107.486 Z" style="stroke-width: 1;"/>
      <ellipse transform="matrix(0.987085, -0.160198, 0.160198, 0.987085, 8.02067, 91.465755)" cx="8.5" cy="1.9" rx="1.9" ry="1.9" style="stroke-width: 1;"/>
      <path d="M 12.911 94.086 C 13.011 93.786 13.011 93.486 12.711 93.386 L 11.811 92.886 C 11.611 92.686 11.311 92.786 11.111 93.086 L 8.311 97.886 C 8.211 98.086 8.311 98.486 8.511 98.586 L 9.411 99.086 C 9.711 99.286 10.011 99.186 10.211 98.886 L 12.911 94.086 Z" style="stroke-width: 1;"/>
    </g>
    <g transform="matrix(4.853253, 0, 0, 5.024656, -113.493898, -22.156527)" style="visibility: hidden;">
      <path d="M10,14c-1.1,0-2,0.9-2,2c0,1.1,0.9,2,2,2s2-0.9,2-2C12,14.9,11.1,14,10,14z M10,17c-0.6,0-1-0.4-1-1c0-0.6,0.4-1,1-1 s1,0.4,1,1C11,16.6,10.6,17,10,17z"/>
      <path d="M21.3,15H19V8.1c0-2-1.2-4.1-3.2-4.1H3.6C1.6,4,0,6.1,0,8.1l0,4.6C0,14.1,1.2,16,2.7,16H7c0-1.7,1.3-3,3-3s3,1.3,3,3h9 C22,15.6,21.7,15,21.3,15z M10,8c0,0.5-0.5,1-1,1H4C3.5,9,3,8.5,3,8V7c0-0.5,0.5-1,1-1h5c0.5,0,1,0.5,1,1V8z M17,8c0,0.5-0.5,1-1,1 h-2c-0.5,0-1-0.5-1-1V7c0-0.5,0.5-1,1-1h2c0.5,0,1,0.5,1,1V8z"/>
    </g>
    <line class="st3" x1="-116.83" y1="-25.943" x2="-6.431" y2="84.757" style="fill: none; stroke: rgb(252, 3, 3); stroke-miterlimit: 10; stroke-width: 10;"/>
  </g>
</svg>