<?xml version="1.0" encoding="utf-8"?>
<svg xmlns="http://www.w3.org/2000/svg" viewBox="0 0 123.932 123.932">
  <g transform="matrix(1, 0, 0, 1, 123.813705, 32.91745)">
    <path class="st0" d="M -14.631 90.84 C -6.431 90.84 0.169 84.24 0.169 76.14 L 0.169 -17.86 C 0.169 -26.06 -6.431 -32.66 -14.631 -32.66 L -108.63 -32.66 C -116.83 -32.76 -123.43 -26.16 -123.43 -17.96 L -123.43 76.04 C -123.43 84.24 -116.83 90.74 -108.73 90.74 C -108.63 90.84 -14.631 90.84 -14.631 90.84 Z" style="stroke-width: 1;"/>
    <path class="st1" d="M -106.1 -26.243 C -112.5 -26.243 -117.7 -21.143 -117.7 -14.743 L -117.7 72.957 C -117.7 79.257 -112.5 84.457 -106.2 84.457 L -17.196 84.457 C -10.796 84.457 -5.596 79.357 -5.596 72.957 L -5.596 -14.743 C -5.596 -21.043 -10.796 -26.243 -17.196 -26.243 C -17.296 -26.243 -106.1 -26.243 -106.1 -26.243 Z" style="fill: rgb(255, 255, 255); stroke-width: 1;"/>
    <text style="font-family: Arial, sans-serif; font-size: 28px; font-weight: 700; white-space: pre; visibility: hidden;" transform="matrix(3.117827, 0, 0, 3.622723, 161.590856, 16.823082)" x="-89.643" y="14.443">VS</text>
    <g transform="matrix(4.853253, 0, 0, 5.024656, -113.493898, -22.156527)" style="visibility: hidden;">
      <path d="M10,14c-1.1,0-2,0.9-2,2c0,1.1,0.9,2,2,2s2-0.9,2-2C12,14.9,11.1,14,10,14z M10,17c-0.6,0-1-0.4-1-1c0-0.6,0.4-1,1-1 s1,0.4,1,1C11,16.6,10.6,17,10,17z"/>
      <path d="M21.3,15H19V8.1c0-2-1.2-4.1-3.2-4.1H3.6C1.6,4,0,6.1,0,8.1l0,4.6C0,14.1,1.2,16,2.7,16H7c0-1.7,1.3-3,3-3s3,1.3,3,3h9 C22,15.6,21.7,15,21.3,15z M10,8c0,0.5-0.5,1-1,1H4C3.5,9,3,8.5,3,8V7c0-0.5,0.5-1,1-1h5c0.5,0,1,0.5,1,1V8z M17,8c0,0.5-0.5,1-1,1 h-2c-0.5,0-1-0.5-1-1V7c0-0.5,0.5-1,1-1h2c0.5,0,1,0.5,1,1V8z"/>
    </g>
    <line class="st3" x1="-116.83" y1="-25.943" x2="-6.431" y2="84.757" style="fill: none; stroke: rgb(252, 3, 3); stroke-miterlimit: 10; stroke-width: 10; visibility: hidden;"/>
  </g>
  <g id="Icons" style="" transform="matrix(4.785301, 0, 0, 4.566834, -35.778665, -41.38598)">
    <title>cross-country-ski-trail-22-rev</title>
    <path d="M 19.752 17.103 L 17.152 20.103 C 16.974 20.302 16.718 20.411 16.452 20.403 C 15.972 20.463 15.548 20.087 15.552 19.603 C 15.52 19.36 15.639 19.123 15.852 19.003 L 18.652 15.803 C 18.829 15.604 19.086 15.494 19.352 15.503 L 23.452 15.503 C 23.748 15.491 24.037 15.599 24.252 15.803 L 26.852 18.403 L 29.052 16.203 C 29.228 16.079 29.437 16.009 29.652 16.003 C 30.149 16.003 30.552 16.406 30.552 16.903 C 30.532 17.116 30.463 17.321 30.352 17.503 L 27.752 20.103 C 26.952 20.903 26.352 20.203 26.352 20.203 L 24.752 18.603 L 22.252 21.503 L 24.552 23.803 C 24.899 24.144 24.98 24.673 24.752 25.103 L 23.452 30.803 C 23.354 31.331 22.889 31.712 22.352 31.703 C 21.744 31.703 21.252 31.21 21.252 30.603 L 21.252 30.303 L 22.352 25.603 L 19.752 23.103 L 17.552 25.603 C 17.183 25.892 16.72 26.035 16.252 26.003 L 11.752 26.003 C 11.245 26.022 10.79 25.691 10.652 25.203 C 10.526 24.625 10.879 24.051 11.452 23.903 L 15.652 23.903 L 21.452 17.203 L 19.752 17.103 Z" style="stroke-width: 1;"/>
    <circle cx="25.452" cy="13.603" r="2" style="stroke-width: 1;"/>
    <polygon points="30.452 33.603 12.452 33.603 12.452 32.603 30.452 32.603 30.452 31.603 31.452 31.603 30.452 33.603" style="stroke-width: 1;"/>
    <rect y="19.603" width="5" height="1" x="9.452" style="stroke-width: 1;"/>
    <rect x="11.5" y="12.7" width="15" height="1" transform="matrix(0.34202, -0.939693, 0.939693, 0.34202, 9.551866, 38.102876)" style="stroke-width: 1;"/>
    <polygon points="16.452 30.603 14.452 30.603 14.452 30.603 10.252 25.603 9.452 26.203 13.952 31.603 16.452 31.603 16.452 30.603" style="stroke-width: 1;"/>
  </g>
</svg>