<?xml version="1.0" encoding="utf-8"?>
<svg xmlns="http://www.w3.org/2000/svg" viewBox="0 0 123.932 123.932">
  <g transform="matrix(1, 0, 0, 1, 123.813705, 32.91745)">
    <path class="st0" d="M -14.631 90.84 C -6.431 90.84 0.169 84.24 0.169 76.14 L 0.169 -17.86 C 0.169 -26.06 -6.431 -32.66 -14.631 -32.66 L -108.63 -32.66 C -116.83 -32.76 -123.43 -26.16 -123.43 -17.96 L -123.43 76.04 C -123.43 84.24 -116.83 90.74 -108.73 90.74 C -108.63 90.84 -14.631 90.84 -14.631 90.84 Z" style="stroke-width: 1;"/>
    <path class="st1" d="M -106.1 -26.243 C -112.5 -26.243 -117.7 -21.143 -117.7 -14.743 L -117.7 72.957 C -117.7 79.257 -112.5 84.457 -106.2 84.457 L -17.196 84.457 C -10.796 84.457 -5.596 79.357 -5.596 72.957 L -5.596 -14.743 C -5.596 -21.043 -10.796 -26.243 -17.196 -26.243 C -17.296 -26.243 -106.1 -26.243 -106.1 -26.243 Z" style="fill: rgb(255, 255, 255); stroke-width: 1;"/>
    <text style="font-family: Arial, sans-serif; font-size: 28px; font-weight: 700; white-space: pre; visibility: hidden;" transform="matrix(3.117827, 0, 0, 3.622723, 161.590856, 16.823082)" x="-89.643" y="14.443">VS</text>
    <g transform="matrix(4.853253, 0, 0, 5.024656, -113.493898, -22.156527)" style="visibility: hidden;">
      <path d="M10,14c-1.1,0-2,0.9-2,2c0,1.1,0.9,2,2,2s2-0.9,2-2C12,14.9,11.1,14,10,14z M10,17c-0.6,0-1-0.4-1-1c0-0.6,0.4-1,1-1 s1,0.4,1,1C11,16.6,10.6,17,10,17z"/>
      <path d="M21.3,15H19V8.1c0-2-1.2-4.1-3.2-4.1H3.6C1.6,4,0,6.1,0,8.1l0,4.6C0,14.1,1.2,16,2.7,16H7c0-1.7,1.3-3,3-3s3,1.3,3,3h9 C22,15.6,21.7,15,21.3,15z M10,8c0,0.5-0.5,1-1,1H4C3.5,9,3,8.5,3,8V7c0-0.5,0.5-1,1-1h5c0.5,0,1,0.5,1,1V8z M17,8c0,0.5-0.5,1-1,1 h-2c-0.5,0-1-0.5-1-1V7c0-0.5,0.5-1,1-1h2c0.5,0,1,0.5,1,1V8z"/>
    </g>
    <line class="st3" x1="-116.83" y1="-25.943" x2="-6.431" y2="84.757" style="fill: none; stroke: rgb(252, 3, 3); stroke-miterlimit: 10; stroke-width: 10; visibility: hidden;"/>
  </g>
  <g id="Layer_1" transform="matrix(4.765981, 0, 0, 4.972591, -51.970876, -74.136729)" style="">
    <path d="M 29.159 19.615 L 31.159 19.615 C 31.459 19.615 31.659 19.815 31.659 20.115 C 31.659 20.415 31.459 20.615 31.159 20.615 L 29.159 20.615 C 29.059 20.615 28.859 20.615 28.859 20.715 C 28.759 20.915 28.659 21.115 28.759 21.215 C 28.859 21.415 28.959 21.515 29.059 21.715 L 30.159 21.715 C 30.259 21.715 30.359 21.715 30.459 21.815 L 33.159 23.215 C 33.259 23.415 33.459 23.615 33.459 23.915 C 33.459 24.315 33.059 24.715 32.659 24.715 L 30.959 24.715 L 28.559 30.415 L 27.259 31.415 L 27.259 37.415 C 27.259 38.015 26.559 38.415 26.059 38.415 C 25.459 38.415 25.259 38.015 25.259 37.415 L 25.259 31.415 L 21.259 31.415 L 20.059 32.915 L 22.259 36.815 C 22.559 37.315 22.359 37.915 21.859 38.215 C 21.359 38.515 20.759 38.315 20.459 37.815 L 18.259 33.815 L 18.259 32.115 L 17.259 33.415 L 17.259 37.415 C 17.259 38.015 16.659 38.315 16.159 38.315 C 15.559 38.315 15.259 38.015 15.259 37.415 L 15.259 33.415 L 16.059 31.915 L 16.059 30.115 L 15.359 31.215 C 15.359 31.215 15.259 31.315 15.259 31.315 C 15.159 31.315 15.159 31.315 15.159 31.215 L 15.259 27.415 C 15.259 26.615 15.459 25.415 16.259 25.415 L 26.259 25.415 L 28.059 23.415 L 26.759 22.115 C 26.759 22.115 26.659 22.015 26.659 22.015 C 26.659 21.915 26.759 21.815 26.859 21.815 L 27.859 21.815 C 27.659 21.315 27.459 20.815 27.459 20.215 C 27.459 18.115 29.159 16.515 31.159 16.515 C 31.459 16.515 31.659 16.715 31.659 17.015 C 31.659 17.315 31.459 17.515 31.159 17.515 C 29.759 17.515 28.559 18.615 28.459 19.915 C 28.659 19.715 28.859 19.615 29.159 19.615 Z" style="stroke-width: 1;"/>
  </g>
</svg>