<?xml version="1.0" encoding="utf-8"?>
<svg xmlns="http://www.w3.org/2000/svg" viewBox="0 0 123.931 123.576" xmlns:bx="https://boxy-svg.com">
  <g transform="matrix(1, 0, 0, 1, 123.813705, 32.91745)">
    <path class="st0" d="M -14.631 90.84 C -6.431 90.84 0.169 84.24 0.169 76.14 L 0.169 -17.86 C 0.169 -26.06 -6.431 -32.66 -14.631 -32.66 L -108.63 -32.66 C -116.83 -32.76 -123.43 -26.16 -123.43 -17.96 L -123.43 76.04 C -123.43 84.24 -116.83 90.74 -108.73 90.74 C -108.63 90.84 -14.631 90.84 -14.631 90.84 Z" style="stroke-width: 1;"/>
    <path class="st1" d="M -106.1 -26.243 C -112.5 -26.243 -117.7 -21.143 -117.7 -14.743 L -117.7 72.957 C -117.7 79.257 -112.5 84.457 -106.2 84.457 L -17.196 84.457 C -10.796 84.457 -5.596 79.357 -5.596 72.957 L -5.596 -14.743 C -5.596 -21.043 -10.796 -26.243 -17.196 -26.243 C -17.296 -26.243 -106.1 -26.243 -106.1 -26.243 Z" style="fill: rgb(255, 255, 255); stroke-width: 1;"/>
    <line class="st3" x1="-116.83" y1="-25.943" x2="-6.431" y2="84.757" style="fill: none; stroke: rgb(252, 3, 3); stroke-miterlimit: 10; stroke-width: 10; visibility: hidden;"/>
    <g id="Icons" style="visibility: hidden;" transform="matrix(4.348422, 0, 0, 4.128196, 273.04374, -72.799212)">
      <g transform="matrix(1, 0, 0, 1, -88.01459, 13.128131)">
        <polygon points="3,12 3,21 4,21 4,22 5,22 5,21 6,21 6,18 9,22 10,22 11,20 8,16 14,16 14,21 15,21 15,22 16,22 16,21 17,21 17,11 &#10;&#9;&#9;13,9 3,9 2,8 1,9 &#9;"/>
        <polygon points="13,7 13,1 14,1 14,2 22,6 22,8 17,9 &#9;"/>
        <polygon points="0,1 0,2.5 13,8.5 13,7 &#9;"/>
      </g>
    </g>
  </g>
  <g transform="matrix(1, 0, 0, 1, -0.000502, 9.9665)">
    <path d="M 61.966 21.322 L 76.966 51.322 L 46.966 51.322 L 61.966 21.322 Z" bx:shape="triangle 46.966 21.322 30 30 0.5 0 1@a5ab1f39" style="stroke: rgb(0, 0, 0);"/>
    <path d="M 61.966 -82.321 L 76.966 -52.321 L 46.966 -52.321 L 61.966 -82.321 Z" bx:shape="triangle 46.966 -82.321 30 30 0.5 0 1@71a968c0" style="stroke: rgb(0, 0, 0); stroke-width: 1;" transform="matrix(1, 0, 0, -1, 0, 0)"/>
  </g>
</svg>