<?xml version="1.0" encoding="utf-8"?>
<svg xmlns="http://www.w3.org/2000/svg" viewBox="0 0 123.932 124.288">
  <g transform="matrix(1, 0, 0, 1, 123.813705, 32.91745)">
    <path class="st0" d="M -14.631 90.84 C -6.431 90.84 0.169 84.24 0.169 76.14 L 0.169 -17.86 C 0.169 -26.06 -6.431 -32.66 -14.631 -32.66 L -108.63 -32.66 C -116.83 -32.76 -123.43 -26.16 -123.43 -17.96 L -123.43 76.04 C -123.43 84.24 -116.83 90.74 -108.73 90.74 C -108.63 90.84 -14.631 90.84 -14.631 90.84 Z" style="stroke-width: 1;"/>
    <path class="st1" d="M -106.1 -26.243 C -112.5 -26.243 -117.7 -21.143 -117.7 -14.743 L -117.7 72.957 C -117.7 79.257 -112.5 84.457 -106.2 84.457 L -17.196 84.457 C -10.796 84.457 -5.596 79.357 -5.596 72.957 L -5.596 -14.743 C -5.596 -21.043 -10.796 -26.243 -17.196 -26.243 C -17.296 -26.243 -106.1 -26.243 -106.1 -26.243 Z" style="fill: rgb(255, 255, 255); stroke-width: 1;"/>
    <line class="st3" x1="-116.83" y1="-25.943" x2="-6.431" y2="84.757" style="fill: none; stroke: rgb(252, 3, 3); stroke-miterlimit: 10; stroke-width: 10; visibility: hidden;"/>
  </g>
  <g id="Layer_1" style="" transform="matrix(4.277278, 0, 0, 4.090827, -194.572302, -240.025291)">
    <path d="M 70.477 84.884 C 69.977 84.884 69.577 84.784 69.177 84.584 C 68.777 84.384 68.277 84.284 67.877 84.284 C 67.377 84.284 66.977 84.384 66.577 84.584 C 66.177 84.784 65.777 84.884 65.277 84.884 C 64.777 84.884 64.377 84.784 63.977 84.584 C 63.577 84.384 63.077 84.284 62.677 84.284 C 62.277 84.284 61.777 84.384 61.377 84.584 C 60.877 84.784 60.477 84.884 59.977 84.884 C 59.477 84.884 59.077 84.784 58.677 84.584 C 58.277 84.384 57.777 84.284 57.377 84.284 C 56.877 84.284 56.477 84.384 56.077 84.584 C 55.677 84.784 55.177 84.884 54.777 84.884 C 54.277 84.884 53.877 84.784 53.477 84.584 C 53.077 84.384 52.577 84.284 52.177 84.284 C 51.677 84.284 51.277 84.384 50.877 84.584 C 50.377 84.784 49.977 84.884 49.477 84.884 L 49.477 82.984 C 49.977 82.984 50.377 82.884 50.777 82.684 C 51.177 82.484 51.677 82.384 52.077 82.384 C 52.577 82.384 52.977 82.484 53.377 82.684 C 53.777 82.884 54.177 82.984 54.677 82.984 C 55.177 82.984 55.577 82.884 55.977 82.684 C 56.377 82.484 56.877 82.384 57.277 82.384 C 57.777 82.384 58.177 82.484 58.577 82.684 C 58.977 82.884 59.377 82.984 59.877 82.984 C 60.377 82.984 60.777 82.884 61.177 82.684 C 61.577 82.484 62.077 82.384 62.477 82.384 C 62.877 82.384 63.377 82.484 63.777 82.684 C 64.177 82.884 64.577 82.984 65.077 82.984 C 65.577 82.984 65.977 82.884 66.377 82.684 C 66.777 82.484 67.277 82.384 67.677 82.384 C 68.177 82.384 68.577 82.484 68.977 82.684 C 69.377 82.884 69.777 82.984 70.277 82.984 L 70.277 84.884 L 70.477 84.884 Z" style="stroke-width: 1;"/>
    <path d="M 55.377 75.384 C 56.377 75.384 57.177 74.584 57.177 73.584 C 57.177 72.584 56.377 71.784 55.377 71.784 C 54.377 71.784 53.577 72.584 53.577 73.584 C 53.677 74.584 54.477 75.384 55.377 75.384 Z" style="stroke-width: 1;"/>
    <path d="M 55.677 81.484 C 55.377 81.984 54.777 82.084 54.277 81.884 C 53.777 81.584 53.677 80.984 53.877 80.484 L 57.977 73.384 C 58.177 73.084 58.377 72.884 58.577 72.784 L 63.977 69.584 L 67.577 63.484 C 67.877 62.884 68.677 62.684 69.277 62.984 C 69.877 63.284 70.077 64.084 69.777 64.684 L 65.477 71.984 C 65.377 72.284 65.077 72.484 64.877 72.584 L 58.677 76.484 L 55.677 81.484 Z" style="stroke-width: 1;"/>
  </g>
</svg>