<?xml version="1.0" encoding="utf-8"?>
<svg xmlns="http://www.w3.org/2000/svg" viewBox="0 0 123.931 123.576" xmlns:bx="https://boxy-svg.com">
  <g transform="matrix(1, 0, 0, 1, 123.813705, 32.91745)">
    <path class="st0" d="M -14.631 90.84 C -6.431 90.84 0.169 84.24 0.169 76.14 L 0.169 -17.86 C 0.169 -26.06 -6.431 -32.66 -14.631 -32.66 L -108.63 -32.66 C -116.83 -32.76 -123.43 -26.16 -123.43 -17.96 L -123.43 76.04 C -123.43 84.24 -116.83 90.74 -108.73 90.74 C -108.63 90.84 -14.631 90.84 -14.631 90.84 Z" style="stroke-width: 1;"/>
    <path class="st1" d="M -106.1 -26.243 C -112.5 -26.243 -117.7 -21.143 -117.7 -14.743 L -117.7 72.957 C -117.7 79.257 -112.5 84.457 -106.2 84.457 L -17.196 84.457 C -10.796 84.457 -5.596 79.357 -5.596 72.957 L -5.596 -14.743 C -5.596 -21.043 -10.796 -26.243 -17.196 -26.243 C -17.296 -26.243 -106.1 -26.243 -106.1 -26.243 Z" style="stroke-width: 1; fill: rgb(255, 255, 255);"/>
    <line class="st3" x1="-116.83" y1="-25.943" x2="-6.431" y2="84.757" style="fill: none; stroke: rgb(252, 3, 3); stroke-miterlimit: 10; stroke-width: 10; visibility: hidden;"/>
    <g id="Icons" style="" transform="matrix(2.156905, 0, 0, 1.973492, 77.973885, -45.477871)">
      <g transform="matrix(1, 0, 0, 1, -88.01459, 13.128131)">
        <polygon points="3,12 3,21 4,21 4,22 5,22 5,21 6,21 6,18 9,22 10,22 11,20 8,16 14,16 14,21 15,21 15,22 16,22 16,21 17,21 17,11 &#10;&#9;&#9;13,9 3,9 2,8 1,9 &#9;" style=""/>
        <polygon points="13,7 13,1 14,1 14,2 22,6 22,8 17,9 &#9;" style=""/>
        <polygon points="0,1 0,2.5 13,8.5 13,7 &#9;" style=""/>
      </g>
    </g>
    <rect x="-106.65" y="-30.21" width="8.738" height="132.207" style="stroke: rgb(0, 0, 0); transform-box: fill-box; transform-origin: 50% 50%;" transform="matrix(0.711132, 0.703058, -0.703058, 0.711132, 40.861045, -5.630729)"/>
    <path d="M 55.332 -5.915 H 66.727 V 15.973 H 89.517 V 26.917 H 66.727 V 48.804 H 55.332 V 26.917 H 32.541 V 15.973 H 55.332 Z" bx:shape="cross 32.541 -5.915 56.976 54.719 10.944 11.395 0.5 1@8baabbe5" style="stroke: rgb(0, 0, 0); paint-order: stroke; transform-box: fill-box; transform-origin: 50% 50%;" transform="matrix(0.734525, 0.678582, -0.678582, 0.734525, -96.441682, 34.168978)"/>
  </g>
</svg>