<?xml version="1.0" encoding="utf-8"?>
<svg xmlns="http://www.w3.org/2000/svg" viewBox="0 0 123.931 123.576">
  <g transform="matrix(1, 0, 0, 1, 123.813705, 32.91745)">
    <path class="st0" d="M -14.631 90.84 C -6.431 90.84 0.169 84.24 0.169 76.14 L 0.169 -17.86 C 0.169 -26.06 -6.431 -32.66 -14.631 -32.66 L -108.63 -32.66 C -116.83 -32.76 -123.43 -26.16 -123.43 -17.96 L -123.43 76.04 C -123.43 84.24 -116.83 90.74 -108.73 90.74 C -108.63 90.84 -14.631 90.84 -14.631 90.84 Z" style="stroke-width: 1; fill: rgb(255, 0, 0);"/>
    <path class="st1" d="M -106.1 -26.243 C -112.5 -26.243 -117.7 -21.143 -117.7 -14.743 L -117.7 72.957 C -117.7 79.257 -112.5 84.457 -106.2 84.457 L -17.196 84.457 C -10.796 84.457 -5.596 79.357 -5.596 72.957 L -5.596 -14.743 C -5.596 -21.043 -10.796 -26.243 -17.196 -26.243 C -17.296 -26.243 -106.1 -26.243 -106.1 -26.243 Z" style="fill: rgb(255, 255, 255); stroke-width: 1;"/>
    <line class="st3" x1="-116.83" y1="-25.943" x2="-6.431" y2="84.757" style="fill: none; stroke: rgb(252, 3, 3); stroke-miterlimit: 10; stroke-width: 10; visibility: hidden;"/>
    <g id="Layer_1" transform="matrix(1, 0, 0, 1, 1.81997, 1.339143)">
      <g transform="matrix(1, 0, 0, 1, -125.768177, -34.018598)">
        <path class="st0" d="M109.1,123.3c8.2,0,14.8-6.6,14.8-14.7v-94c0-8.2-6.6-14.8-14.8-14.8h-94C6.9-0.2,0.3,6.4,0.3,14.6v94 c0,8.2,6.6,14.7,14.8,14.7L109.1,123.3L109.1,123.3z" style="fill: rgb(255, 0, 0); visibility: hidden;"/>
        <path class="st1" d="M16.9,5.8c-6.4,0-11.6,5.1-11.6,11.5V105c0,6.3,5.2,11.5,11.6,11.5h88.9c6.4,0,11.6-5.1,11.6-11.5V17.3 c0-6.3-5.2-11.5-11.6-11.5C105.8,5.8,16.9,5.8,16.9,5.8z" style="fill: rgb(255, 255, 255); visibility: hidden;"/>
        <g>
          <path class="st2" d="M 63.411 39.958 C 57.725 39.958 46.396 42.118 39.36 49.384 C 32.784 56.175 29.016 65.415 29.016 76.79 C 29.016 87.896 32.267 96.562 38.496 102.791 C 44.725 109.02 53.391 112 64.225 112 C 72.891 112 79.932 110.104 85.35 106.313 C 90.765 102.52 94.558 97.104 96.725 90.062 L 83.724 88.708 C 81.829 93.584 79.121 97.104 75.87 99.541 C 72.621 101.708 68.556 102.791 63.954 102.791 C 57.725 102.791 52.579 100.896 48.516 96.833 C 44.453 92.77 42.016 87.082 41.746 79.5 L 96.994 79.5 C 97.267 77.332 97.267 76.249 97.267 75.708 C 97.267 64.333 94.016 55.666 87.787 49.438 C 81.558 43.209 73.434 39.958 63.411 39.958 M 49.038 55.087 C 50.612 53.648 56.772 49.63 63.411 49.829 C 70.175 50.03 74.696 51.876 78.487 56.478 C 81.196 59.458 82.912 63.792 83.724 69.48 L 42.558 69.48 C 43.002 64.587 45.03 58.756 49.038 55.087 Z" id="path26" style="display: inline; stroke-width: 2.88; stroke-dasharray: none; stroke-opacity: 1; stroke-miterlimit: 10; stroke: rgb(35, 31, 32); paint-order: fill; fill-rule: nonzero; fill: rgb(255, 255, 255);"/>
          <path class="st3" d="M 44.183 25.604 C 42.288 28.853 40.662 31.562 38.765 34.813 C 36.87 28.313 34.703 22.084 32.808 15.854 C 30.912 18.833 29.287 21.811 27.663 24.791 C 26.036 19.103 24.141 13.687 22.516 8 C 14.805 16.68 14.989 16.952 15.003 16.951 C 16.357 19.389 24.683 32.646 26.849 36.438 C 28.203 33.999 29.558 31.833 30.912 29.395 C 33.62 35.082 36.329 40.5 39.037 46.187 C 40.121 43.478 41.203 41.042 42.288 38.333 C 43.099 39.958 51.283 54.819 53.236 58.61 C 51.612 53.194 45.537 30.751 44.183 25.604 Z" id="path30" style="display: inline; stroke-miterlimit: 10; stroke-width: 0.4013px; paint-order: fill; fill-rule: evenodd; stroke: rgb(35, 31, 32);"/>
        </g>
      </g>
      <line class="st3" x1="-119.97" y1="-28.219" x2="-7.068" y2="84.581" style="fill: none; stroke: rgb(252, 3, 3); stroke-miterlimit: 10; stroke-width: 10;"/>
    </g>
  </g>
</svg>