<?xml version="1.0" encoding="utf-8"?>
<svg xmlns="http://www.w3.org/2000/svg" viewBox="0 0 123.932 124.288">
  <g transform="matrix(1, 0, 0, 1, 123.813705, 32.91745)">
    <path class="st0" d="M -14.631 90.84 C -6.431 90.84 0.169 84.24 0.169 76.14 L 0.169 -17.86 C 0.169 -26.06 -6.431 -32.66 -14.631 -32.66 L -108.63 -32.66 C -116.83 -32.76 -123.43 -26.16 -123.43 -17.96 L -123.43 76.04 C -123.43 84.24 -116.83 90.74 -108.73 90.74 C -108.63 90.84 -14.631 90.84 -14.631 90.84 Z" style="stroke-width: 1;"/>
    <path class="st1" d="M -106.1 -26.243 C -112.5 -26.243 -117.7 -21.143 -117.7 -14.743 L -117.7 72.957 C -117.7 79.257 -112.5 84.457 -106.2 84.457 L -17.196 84.457 C -10.796 84.457 -5.596 79.357 -5.596 72.957 L -5.596 -14.743 C -5.596 -21.043 -10.796 -26.243 -17.196 -26.243 C -17.296 -26.243 -106.1 -26.243 -106.1 -26.243 Z" style="fill: rgb(255, 255, 255); stroke-width: 1;"/>
    <line class="st3" x1="-116.83" y1="-25.943" x2="-6.431" y2="84.757" style="fill: none; stroke: rgb(252, 3, 3); stroke-miterlimit: 10; stroke-width: 10; visibility: hidden;"/>
  </g>
  <g id="Layer_1" style="" transform="matrix(3.897252, 0, 0, 3.581459, -85.934725, -238.519477)">
    <path d="M 43 79.25 L 43 74.05 C 43 73.45 42.2 72.95 41.5 72.95 C 40.8 72.95 40 73.45 40 74.05 L 40 79.25 L 35.8 79.25 L 35.8 74.05 C 35.8 73.45 35.2 72.95 34.5 72.95 C 33.8 72.95 33 73.45 33 74.05 L 33 79.25 L 30.5 79.25 C 30.5 79.25 30.5 80.65 30.5 81.45 C 30.5 84.55 33 87.15 36.2 87.85 L 36.5 87.85 L 36.5 94.95 L 39.4 94.95 L 39.4 87.85 L 39.5 87.85 C 42.9 87.15 45.4 84.65 45.4 81.45 C 45.4 80.65 45.4 79.25 45.4 79.25 L 43 79.25 Z" style="stroke-width: 1;"/>
  </g>
</svg>