<?xml version="1.0" encoding="utf-8"?>
<svg xmlns="http://www.w3.org/2000/svg" viewBox="0 0 123.932 124.288">
  <g transform="matrix(1, 0, 0, 1, 123.813705, 32.91745)">
    <path class="st0" d="M -14.631 90.84 C -6.431 90.84 0.169 84.24 0.169 76.14 L 0.169 -17.86 C 0.169 -26.06 -6.431 -32.66 -14.631 -32.66 L -108.63 -32.66 C -116.83 -32.76 -123.43 -26.16 -123.43 -17.96 L -123.43 76.04 C -123.43 84.24 -116.83 90.74 -108.73 90.74 C -108.63 90.84 -14.631 90.84 -14.631 90.84 Z" style="stroke-width: 1;"/>
    <path class="st1" d="M -106.1 -26.243 C -112.5 -26.243 -117.7 -21.143 -117.7 -14.743 L -117.7 72.957 C -117.7 79.257 -112.5 84.457 -106.2 84.457 L -17.196 84.457 C -10.796 84.457 -5.596 79.357 -5.596 72.957 L -5.596 -14.743 C -5.596 -21.043 -10.796 -26.243 -17.196 -26.243 C -17.296 -26.243 -106.1 -26.243 -106.1 -26.243 Z" style="fill: rgb(255, 255, 255); stroke-width: 1;"/>
    <line class="st3" x1="-116.83" y1="-25.943" x2="-6.431" y2="84.757" style="fill: none; stroke: rgb(252, 3, 3); stroke-miterlimit: 10; stroke-width: 10; visibility: hidden;"/>
  </g>
  <g id="Layer_1" style="" transform="matrix(4.687436, 0, 0, 4.047891, -219.172355, -178.843145)">
    <path d="M 68.477 52.534 L 68.477 50.434 C 68.477 50.134 68.277 49.934 67.977 49.934 C 67.677 49.934 67.477 50.134 67.477 50.434 L 67.477 52.534 L 65.477 52.534 L 65.477 50.434 C 65.477 50.134 65.277 49.934 64.977 49.934 C 64.677 49.934 64.477 50.134 64.477 50.434 L 64.477 52.534 L 63.477 52.534 C 63.477 52.534 63.477 53.234 63.477 53.534 C 63.477 54.834 64.477 56.034 65.877 56.334 L 65.977 56.334 L 65.977 56.534 L 66.477 61.434 L 66.477 63.134 L 67.477 68.234 C 67.477 69.034 66.577 69.534 65.977 69.534 C 65.477 69.534 64.477 69.034 64.477 68.534 L 64.477 59.634 C 64.477 58.534 63.877 57.534 62.877 57.534 L 60.477 57.534 L 60.477 49.534 L 59.477 49.534 L 59.477 48.534 L 51.477 48.534 L 51.477 49.534 L 50.477 49.534 L 50.477 70.534 L 60.477 70.534 L 60.477 58.934 L 62.877 58.934 C 63.277 58.934 63.477 59.234 63.477 59.634 L 63.477 68.534 C 63.477 69.734 64.677 70.534 65.977 70.534 C 67.177 70.534 68.477 69.734 68.477 68.534 C 68.477 68.234 67.477 62.934 67.477 62.934 L 67.477 61.434 L 66.977 56.534 L 66.977 56.334 C 68.377 56.034 69.477 55.034 69.477 53.634 C 69.477 53.334 69.477 52.534 69.477 52.534 L 68.477 52.534 Z M 58.477 61.534 L 52.477 67.534 L 54.477 63.534 L 52.477 63.534 L 55.477 57.534 L 58.477 57.534 L 56.477 61.534 L 58.477 61.534 Z M 58.977 54.334 L 58.077 55.134 L 52.877 55.134 L 51.977 54.334 L 51.977 50.734 L 52.877 49.834 L 58.077 49.834 L 58.977 50.734 L 58.977 54.334 L 58.977 54.334 Z" style="stroke-width: 1;"/>
  </g>
</svg>