<?xml version="1.0" encoding="utf-8"?>
<svg xmlns="http://www.w3.org/2000/svg" viewBox="0 0 123.932 123.932">
  <g transform="matrix(1, 0, 0, 1, 123.813705, 32.91745)">
    <path class="st0" d="M -14.631 90.84 C -6.431 90.84 0.169 84.24 0.169 76.14 L 0.169 -17.86 C 0.169 -26.06 -6.431 -32.66 -14.631 -32.66 L -108.63 -32.66 C -116.83 -32.76 -123.43 -26.16 -123.43 -17.96 L -123.43 76.04 C -123.43 84.24 -116.83 90.74 -108.73 90.74 C -108.63 90.84 -14.631 90.84 -14.631 90.84 Z" style="stroke-width: 1;"/>
    <path class="st1" d="M -106.1 -26.243 C -112.5 -26.243 -117.7 -21.143 -117.7 -14.743 L -117.7 72.957 C -117.7 79.257 -112.5 84.457 -106.2 84.457 L -17.196 84.457 C -10.796 84.457 -5.596 79.357 -5.596 72.957 L -5.596 -14.743 C -5.596 -21.043 -10.796 -26.243 -17.196 -26.243 C -17.296 -26.243 -106.1 -26.243 -106.1 -26.243 Z" style="fill: rgb(255, 255, 255); stroke-width: 1;"/>
    <text style="font-family: Arial, sans-serif; font-size: 28px; font-weight: 700; white-space: pre; visibility: hidden;" transform="matrix(3.117827, 0, 0, 3.622723, 161.590856, 16.823082)" x="-89.643" y="14.443">VS</text>
    <g transform="matrix(4.853253, 0, 0, 5.024656, -113.493898, -22.156527)" style="visibility: hidden;">
      <path d="M10,14c-1.1,0-2,0.9-2,2c0,1.1,0.9,2,2,2s2-0.9,2-2C12,14.9,11.1,14,10,14z M10,17c-0.6,0-1-0.4-1-1c0-0.6,0.4-1,1-1 s1,0.4,1,1C11,16.6,10.6,17,10,17z"/>
      <path d="M21.3,15H19V8.1c0-2-1.2-4.1-3.2-4.1H3.6C1.6,4,0,6.1,0,8.1l0,4.6C0,14.1,1.2,16,2.7,16H7c0-1.7,1.3-3,3-3s3,1.3,3,3h9 C22,15.6,21.7,15,21.3,15z M10,8c0,0.5-0.5,1-1,1H4C3.5,9,3,8.5,3,8V7c0-0.5,0.5-1,1-1h5c0.5,0,1,0.5,1,1V8z M17,8c0,0.5-0.5,1-1,1 h-2c-0.5,0-1-0.5-1-1V7c0-0.5,0.5-1,1-1h2c0.5,0,1,0.5,1,1V8z"/>
    </g>
    <line class="st3" x1="-116.83" y1="-25.943" x2="-6.431" y2="84.757" style="fill: none; stroke: rgb(252, 3, 3); stroke-miterlimit: 10; stroke-width: 10; visibility: hidden;"/>
  </g>
  <g id="Layer_1" transform="matrix(4.745176, 0, 0, 4.683145, -22.133731, -33.400312)" style="">
    <polygon points="16.212 11.6 17.712 10.9 17.012 9.4 15.512 10.1" style="stroke-width: 1;"/>
    <rect x="5.7" y="3.1" transform="matrix(0.319016, -0.947749, 0.947749, 0.319016, 7.512913, 18.909539)" width="2.6" height="2.6" style="stroke-width: 1;"/>
    <polygon points="15.612 13.9 20.112 13.5 20.512 17.8 17.212 18.2 15.912 16.4" style="stroke-width: 1;"/>
    <polygon points="21.212 21.2 22.812 22.1 23.712 22 24.812 20.2 24.812 20.1 23.212 19.2 22.312 19.3 21.212 21.1" style="stroke-width: 1;"/>
    <polygon points="21.912 23.4 24.812 23.8 24.412 26.8 22.312 26.5 21.612 25" style="stroke-width: 1;"/>
    <path d="M 18.912 23.7 L 10.912 14.1 L 9.212 9.8 L 6.912 9.3 L 6.912 30.3 C 6.912 30.9 7.312 31.3 7.912 31.3 L 22.912 31.3 L 21.712 27.1 L 18.912 23.7" style="stroke-width: 1;"/>
    <polygon points="17.812 20.3 18.412 19.8 17.512 18.5 16.812 19 16.812 20.3" style="stroke-width: 1;"/>
    <polygon points="28.912 31.3 25.612 31.3 25.612 29.5 26.712 28.4 28.912 29.3" style="stroke-width: 1;"/>
  </g>
</svg>