<?xml version="1.0" encoding="utf-8"?>
<svg xmlns="http://www.w3.org/2000/svg" viewBox="0 0 123.932 124.288">
  <g transform="matrix(1, 0, 0, 1, 123.813705, 32.91745)">
    <path class="st0" d="M -14.631 90.84 C -6.431 90.84 0.169 84.24 0.169 76.14 L 0.169 -17.86 C 0.169 -26.06 -6.431 -32.66 -14.631 -32.66 L -108.63 -32.66 C -116.83 -32.76 -123.43 -26.16 -123.43 -17.96 L -123.43 76.04 C -123.43 84.24 -116.83 90.74 -108.73 90.74 C -108.63 90.84 -14.631 90.84 -14.631 90.84 Z" style="stroke-width: 1;"/>
    <path class="st1" d="M -106.1 -26.243 C -112.5 -26.243 -117.7 -21.143 -117.7 -14.743 L -117.7 72.957 C -117.7 79.257 -112.5 84.457 -106.2 84.457 L -17.196 84.457 C -10.796 84.457 -5.596 79.357 -5.596 72.957 L -5.596 -14.743 C -5.596 -21.043 -10.796 -26.243 -17.196 -26.243 C -17.296 -26.243 -106.1 -26.243 -106.1 -26.243 Z" style="fill: rgb(255, 255, 255); stroke-width: 1;"/>
    <line class="st3" x1="-116.83" y1="-25.943" x2="-6.431" y2="84.757" style="fill: none; stroke: rgb(252, 3, 3); stroke-miterlimit: 10; stroke-width: 10; visibility: hidden;"/>
  </g>
  <g id="Layer_1" style="" transform="matrix(4.136352, 0, 0, 4.214089, -166.360631, -202.159445)">
    <polygon points="65.2 58.719 65.2 57.719 64.2 57.719 63.2 57.719 62.2 57.719 61.2 57.719 60.2 57.719 60.2 58.719 59.2 58.719 59.2 59.719 59.2 64.719 60.2 64.719 60.2 59.719 61.2 59.719 61.2 71.719 62.2 71.719 62.2 65.719 63.2 65.719 63.2 71.719 64.2 71.719 64.2 59.719 65.2 59.719 65.2 64.719 66.2 64.719 66.2 59.719 66.2 58.719" style="stroke-width: 1;"/>
    <polygon points="52.2 58.719 50.2 57.719 47.2 57.719 45.2 58.719 45.2 59.719 44.2 63.719 45.2 63.719 46.2 59.719 47.2 59.719 47.2 60.719 45.2 66.719 47.2 66.719 47.2 71.719 48.2 71.719 48.2 66.719 49.2 66.719 49.2 71.719 50.2 71.719 50.2 66.719 52.2 66.719 50.2 60.719 50.2 59.719 51.2 59.719 52.2 63.719 53.2 63.719 52.2 59.719" style="stroke-width: 1;"/>
    <circle cx="48.7" cy="55.219" r="1.5" style="stroke-width: 1;"/>
    <circle cx="55.7" cy="61.219" r="1.5" style="stroke-width: 1;"/>
    <circle cx="62.7" cy="55.219" r="1.5" style="stroke-width: 1;"/>
    <rect x="54.2" y="63.719" width="3" height="4" style="stroke-width: 1;"/>
    <rect x="54.2" y="67.719" width="1" height="4" style="stroke-width: 1;"/>
    <rect x="56.2" y="67.719" width="1" height="4" style="stroke-width: 1;"/>
    <rect x="53.7" y="63.719" width="4" height="4" style="stroke-width: 1;"/>
  </g>
</svg>