<?xml version="1.0" encoding="utf-8"?>
<svg xmlns="http://www.w3.org/2000/svg" viewBox="0 0 123.931 123.576">
  <g transform="matrix(1, 0, 0, 1, 123.813705, 32.91745)">
    <path class="st0" d="M -14.631 90.84 C -6.431 90.84 0.169 84.24 0.169 76.14 L 0.169 -17.86 C 0.169 -26.06 -6.431 -32.66 -14.631 -32.66 L -108.63 -32.66 C -116.83 -32.76 -123.43 -26.16 -123.43 -17.96 L -123.43 76.04 C -123.43 84.24 -116.83 90.74 -108.73 90.74 C -108.63 90.84 -14.631 90.84 -14.631 90.84 Z" style="stroke-width: 1;"/>
    <path class="st1" d="M -106.1 -26.243 C -112.5 -26.243 -117.7 -21.143 -117.7 -14.743 L -117.7 72.957 C -117.7 79.257 -112.5 84.457 -106.2 84.457 L -17.196 84.457 C -10.796 84.457 -5.596 79.357 -5.596 72.957 L -5.596 -14.743 C -5.596 -21.043 -10.796 -26.243 -17.196 -26.243 C -17.296 -26.243 -106.1 -26.243 -106.1 -26.243 Z" style="fill: rgb(255, 255, 255); stroke-width: 1;"/>
    <line class="st3" x1="-116.83" y1="-25.943" x2="-6.431" y2="84.757" style="fill: none; stroke: rgb(252, 3, 3); stroke-miterlimit: 10; stroke-width: 10; visibility: hidden;"/>
    <g id="Layer_1" style="" transform="matrix(4.833261, 0, 0, 4.561145, 296.430581, -37.787839)">
      <g transform="matrix(1, 0, 0, 1, -85.414645, 3.748317)">
        <polygon points="11.9,22 10,22 10,0 12,0 &#9;"/>
        <g>
          <path d="M6.9,13.8c0.1,0.8,0.4,1.4,0.7,1.7c0.7,0.7,1.8,1,3.4,1c1,0,1.7-0.1,2.3-0.3c1.1-0.4,1.7-1,1.7-2c0-0.6-0.3-1-0.8-1.3 c-0.6-0.3-1.4-0.6-2.6-0.8l-2-0.4c-2-0.4-3.4-0.8-4.1-1.3c-1.3-0.8-1.9-2-1.9-3.7c0-1.5,0.6-2.8,1.9-3.8s3.1-1.5,5.5-1.5 c2,0,3.7,0.5,5.1,1.4c1.4,0.9,2.2,2.3,2.2,4.1h-3.8c-0.1-1-0.6-1.7-1.5-2.2c-0.6-0.3-1.4-0.4-2.3-0.4c-1,0-1.9,0.2-2.5,0.6 C7.4,5.4,7.1,6,7.1,6.6c0,0.6,0.3,1.1,0.9,1.4c0.4,0.2,1.2,0.4,2.5,0.7l3.3,0.7c1.5,0.3,2.5,0.7,3.3,1.2c1.1,0.8,1.7,2,1.7,3.5 c0,1.5-0.7,2.8-2,3.9c-1.3,1-3.2,1.5-5.6,1.5c-2.5,0-4.4-0.5-5.9-1.5c-1.4-1-2.1-2.4-2.1-4.2H6.9z"/>
        </g>
      </g>
    </g>
  </g>
</svg>