<?xml version="1.0" encoding="utf-8"?>
<svg xmlns="http://www.w3.org/2000/svg" viewBox="0 0 123.932 123.932">
  <g transform="matrix(1, 0, 0, 1, 123.813705, 32.91745)">
    <path class="st0" d="M -14.631 90.84 C -6.431 90.84 0.169 84.24 0.169 76.14 L 0.169 -17.86 C 0.169 -26.06 -6.431 -32.66 -14.631 -32.66 L -108.63 -32.66 C -116.83 -32.76 -123.43 -26.16 -123.43 -17.96 L -123.43 76.04 C -123.43 84.24 -116.83 90.74 -108.73 90.74 C -108.63 90.84 -14.631 90.84 -14.631 90.84 Z" style="stroke-width: 1;"/>
    <path class="st1" d="M -106.1 -26.243 C -112.5 -26.243 -117.7 -21.143 -117.7 -14.743 L -117.7 72.957 C -117.7 79.257 -112.5 84.457 -106.2 84.457 L -17.196 84.457 C -10.796 84.457 -5.596 79.357 -5.596 72.957 L -5.596 -14.743 C -5.596 -21.043 -10.796 -26.243 -17.196 -26.243 C -17.296 -26.243 -106.1 -26.243 -106.1 -26.243 Z" style="fill: rgb(255, 255, 255); stroke-width: 1;"/>
    <text style="font-family: Arial, sans-serif; font-size: 28px; font-weight: 700; white-space: pre; visibility: hidden;" transform="matrix(3.117827, 0, 0, 3.622723, 161.590856, 16.823082)" x="-89.643" y="14.443">VS</text>
    <g transform="matrix(4.853253, 0, 0, 5.024656, -113.493898, -22.156527)" style="visibility: hidden;">
      <path d="M10,14c-1.1,0-2,0.9-2,2c0,1.1,0.9,2,2,2s2-0.9,2-2C12,14.9,11.1,14,10,14z M10,17c-0.6,0-1-0.4-1-1c0-0.6,0.4-1,1-1 s1,0.4,1,1C11,16.6,10.6,17,10,17z"/>
      <path d="M21.3,15H19V8.1c0-2-1.2-4.1-3.2-4.1H3.6C1.6,4,0,6.1,0,8.1l0,4.6C0,14.1,1.2,16,2.7,16H7c0-1.7,1.3-3,3-3s3,1.3,3,3h9 C22,15.6,21.7,15,21.3,15z M10,8c0,0.5-0.5,1-1,1H4C3.5,9,3,8.5,3,8V7c0-0.5,0.5-1,1-1h5c0.5,0,1,0.5,1,1V8z M17,8c0,0.5-0.5,1-1,1 h-2c-0.5,0-1-0.5-1-1V7c0-0.5,0.5-1,1-1h2c0.5,0,1,0.5,1,1V8z"/>
    </g>
    <line class="st3" x1="-116.83" y1="-25.943" x2="-6.431" y2="84.757" style="fill: none; stroke: rgb(252, 3, 3); stroke-miterlimit: 10; stroke-width: 10; visibility: hidden;"/>
  </g>
  <g id="Layer_1" transform="matrix(4.811165, 0, 0, 5.212472, -26.202218, -35.662896)" style="">
    <path d="M 22.157 14.209 L 18.757 11.009 L 20.957 8.709 L 28.257 15.509 C 26.657 17.209 25.257 18.409 22.857 18.609 L 22.157 14.209 Z" style="stroke-width: 1;"/>
    <path d="M 23.157 25.309 C 23.157 25.709 23.257 26.009 23.457 26.409 C 24.157 28.009 26.057 28.709 27.557 27.909 C 29.157 27.209 29.857 25.309 29.057 23.809 C 28.657 22.809 27.757 22.209 26.757 22.009 L 26.257 25.109 L 23.157 25.309 Z" style="stroke-width: 1;"/>
    <path d="M 25.557 24.609 L 23.557 21.809 C 22.857 22.309 22.257 23.209 22.157 24.209 L 25.557 24.609 Z" style="stroke-width: 1;"/>
    <path d="M 16.657 16.109 L 17.157 14.109 L 18.657 12.409 L 20.957 14.509 L 11.157 25.309 C 10.357 26.109 9.757 27.209 9.457 28.309 L 7.457 27.709 C 7.857 26.309 8.557 25.009 9.557 24.009 L 16.657 16.109 Z" style="stroke-width: 1;"/>
    <path d="M 20.157 25.309 C 20.957 25.909 21.457 26.909 21.457 28.009 L 18.057 28.009 L 20.157 25.309 Z" style="stroke-width: 1;"/>
  </g>
</svg>