<?xml version="1.0" encoding="utf-8"?>
<svg xmlns="http://www.w3.org/2000/svg" viewBox="0 0 123.575 123.219">
  <g transform="matrix(1, 0, 0, 1, 123.813705, 32.91745)">
    <path class="st0" d="M -14.631 90.84 C -6.431 90.84 0.169 84.24 0.169 76.14 L 0.169 -17.86 C 0.169 -26.06 -6.431 -32.66 -14.631 -32.66 L -108.63 -32.66 C -116.83 -32.76 -123.43 -26.16 -123.43 -17.96 L -123.43 76.04 C -123.43 84.24 -116.83 90.74 -108.73 90.74 C -108.63 90.84 -14.631 90.84 -14.631 90.84 Z" style="stroke-width: 1;"/>
    <path class="st1" d="M -106.1 -26.243 C -112.5 -26.243 -117.7 -21.143 -117.7 -14.743 L -117.7 72.957 C -117.7 79.257 -112.5 84.457 -106.2 84.457 L -17.196 84.457 C -10.796 84.457 -5.596 79.357 -5.596 72.957 L -5.596 -14.743 C -5.596 -21.043 -10.796 -26.243 -17.196 -26.243 C -17.296 -26.243 -106.1 -26.243 -106.1 -26.243 Z" style="fill: rgb(255, 255, 255); stroke-width: 1;"/>
    <line class="st3" x1="-116.83" y1="-25.943" x2="-6.431" y2="84.757" style="fill: none; stroke: rgb(252, 3, 3); stroke-miterlimit: 10; stroke-width: 10; visibility: hidden;"/>
    <path d="M -61.592 -5.305 L -65.241 -5.305 C -67.978 -5.305 -70.259 -7.407 -70.259 -9.93 L -70.259 -13.294 C -70.259 -15.817 -67.978 -17.92 -65.241 -17.92 C -65.241 -17.92 -65.241 -17.92 -65.241 -17.92 L -61.592 -17.92 C -58.856 -17.92 -56.575 -15.817 -56.575 -13.294 L -56.575 -9.93 C -56.575 -7.407 -58.856 -5.305 -61.592 -5.305 Z" style="stroke-width: 1; visibility: hidden;"/>
    <polygon points="-70.259 24.131 -56.575 24.131 -56.575 7.311 -52.014 7.311 -52.014 19.926 -47.452 19.926 -47.452 3.106 -56.575 -1.099 -70.259 -1.099 -79.381 3.106 -79.381 19.926 -74.82 19.926 -74.82 7.311 -70.259 7.311" style="stroke-width: 1; visibility: hidden;"/>
    <path d="M -10.962 71.649 L -13.699 62.818 C -29.664 64.501 -45.172 65.342 -61.136 65.342 C -76.644 65.342 -92.609 64.501 -108.12 62.818 L -111.31 71.649 C -94.433 73.331 -78.013 74.593 -61.136 74.593 C -44.26 74.593 -27.839 73.331 -10.962 71.649 Z" style="stroke-width: 1; visibility: hidden;"/>
    <path d="M -102.64 46.418 L -105.38 55.249 C -91.24 56.511 -76.644 57.352 -61.136 57.352 C -45.628 57.352 -31.032 56.511 -16.892 55.249 L -19.629 46.418 C -33.313 47.68 -47.452 48.521 -61.136 48.521 C -74.82 48.521 -88.96 47.68 -102.64 46.418 Z" style="stroke-width: 1; visibility: hidden;"/>
    <path d="M -61.136 40.531 C -48.365 40.531 -35.593 40.111 -22.822 38.849 L -25.558 30.018 C -36.962 30.859 -48.821 31.701 -61.136 31.701 C -73.452 31.701 -84.855 30.859 -96.258 30.018 L -98.995 38.849 C -87.135 39.69 -74.364 40.531 -61.136 40.531 Z" style="stroke-width: 1; visibility: hidden;"/>
    <g id="Layer_1" transform="matrix(4.656354, 0, 0, 4, -195.472041, -79.103949)">
      <path d="M 25.105 19.649 C 23.405 20.049 22.405 20.949 21.905 21.649 C 21.405 22.449 20.405 21.849 20.805 21.049 C 21.105 20.249 22.805 19.049 23.805 18.649 C 23.505 18.549 23.305 18.149 23.305 17.649 C 23.305 16.649 24.105 15.949 25.005 15.949 C 25.905 15.949 26.505 16.649 26.505 17.249 L 27.205 17.249 L 27.205 18.149 L 29.805 18.149 L 36.605 16.949 L 36.605 20.949 L 29.705 19.549 L 27.205 19.549 L 27.205 20.849 C 27.905 20.949 29.605 21.749 29.605 23.949 L 29.605 36.949 C 29.605 37.249 29.205 37.949 28.605 37.949 L 23.605 37.949 C 23.005 37.949 22.605 37.249 22.605 36.949 L 22.605 23.949 C 22.605 21.749 24.405 20.949 25.105 20.849 L 25.105 19.649 Z M 24.905 18.249 C 25.305 18.249 25.605 17.949 25.605 17.549 C 25.605 17.149 25.305 16.849 24.905 16.849 C 24.505 16.849 24.205 17.149 24.205 17.549 C 24.205 17.949 24.505 18.249 24.905 18.249 Z" style="stroke-width: 1;"/>
    </g>
  </g>
</svg>