<?xml version="1.0" encoding="utf-8"?>
<svg xmlns="http://www.w3.org/2000/svg" viewBox="0 0 123.931 123.576">
  <g transform="matrix(1, 0, 0, 1, 123.813705, 32.91745)">
    <path class="st0" d="M -14.631 90.84 C -6.431 90.84 0.169 84.24 0.169 76.14 L 0.169 -17.86 C 0.169 -26.06 -6.431 -32.66 -14.631 -32.66 L -108.63 -32.66 C -116.83 -32.76 -123.43 -26.16 -123.43 -17.96 L -123.43 76.04 C -123.43 84.24 -116.83 90.74 -108.73 90.74 C -108.63 90.84 -14.631 90.84 -14.631 90.84 Z" style="stroke-width: 1; fill: rgb(255, 0, 0);"/>
    <path class="st1" d="M -106.1 -26.243 C -112.5 -26.243 -117.7 -21.143 -117.7 -14.743 L -117.7 72.957 C -117.7 79.257 -112.5 84.457 -106.2 84.457 L -17.196 84.457 C -10.796 84.457 -5.596 79.357 -5.596 72.957 L -5.596 -14.743 C -5.596 -21.043 -10.796 -26.243 -17.196 -26.243 C -17.296 -26.243 -106.1 -26.243 -106.1 -26.243 Z" style="stroke-width: 1;"/>
    <g style="" transform="matrix(0.281763, 0, 0, 0.283063, -29.870571, 39.664875)">
      <rect width="400" height="400" fill="#000000" x="-312.72" y="-241.32" style="stroke-width: 1; stroke-linejoin: round; stroke-linecap: round; visibility: hidden;"/>
      <g transform="matrix(1, 0, 0, 1, -160.703262, 11.949403)">
        <circle cx="0" cy="0" r="3" fill="#ffffff" style="stroke-linejoin: round; stroke-linecap: round;"/>
        <g stroke-width="2" stroke-linecap="round" stroke="#ffffff">
          <line x1="0" y1="0" x2="0" y2="-60" style="stroke-linejoin: round;"/>
          <line x1="0" y1="0" x2="42" y2="-42" style="stroke-linejoin: round;"/>
          <line x1="0" y1="0" x2="60" y2="0" style="stroke-linejoin: round;"/>
          <line x1="0" y1="0" x2="42" y2="42" style="stroke-linejoin: round;"/>
          <line x1="0" y1="0" x2="0" y2="60" style="stroke-linejoin: round;"/>
          <line x1="0" y1="0" x2="-42" y2="42" style="stroke-linejoin: round;"/>
          <line x1="0" y1="0" x2="-60" y2="0" style="stroke-linejoin: round;"/>
          <line x1="0" y1="0" x2="-42" y2="-42" style="stroke-linejoin: round;"/>
          <line x1="0" y1="0" x2="21" y2="-52" style="stroke-linejoin: round;"/>
          <line x1="0" y1="0" x2="52" y2="-21" style="stroke-linejoin: round;"/>
          <line x1="0" y1="0" x2="52" y2="21" style="stroke-linejoin: round;"/>
          <line x1="0" y1="0" x2="21" y2="52" style="stroke-linejoin: round;"/>
          <line x1="0" y1="0" x2="-21" y2="52" style="stroke-linejoin: round;"/>
          <line x1="0" y1="0" x2="-52" y2="21" style="stroke-linejoin: round;"/>
          <line x1="0" y1="0" x2="-52" y2="-21" style="stroke-linejoin: round;"/>
          <line x1="0" y1="0" x2="-21" y2="-52" style="stroke-linejoin: round;"/>
        </g>
        <g fill="#ffffff">
          <circle cx="45" cy="-35" r="1.5" style="stroke-linejoin: round; stroke-linecap: round;"/>
          <circle cx="-38" cy="28" r="1" style="stroke-linejoin: round; stroke-linecap: round;"/>
          <circle cx="25" cy="48" r="1.2" style="stroke-linejoin: round; stroke-linecap: round;"/>
          <circle cx="-55" cy="-15" r="0.8" style="stroke-linejoin: round; stroke-linecap: round;"/>
          <circle cx="15" cy="-58" r="1" style="stroke-linejoin: round; stroke-linecap: round;"/>
          <circle cx="58" cy="8" r="1.3" style="stroke-linejoin: round; stroke-linecap: round;"/>
          <circle cx="-25" cy="-45" r="1.1" style="stroke-linejoin: round; stroke-linecap: round;"/>
          <circle cx="-8" cy="55" r="0.9" style="stroke-linejoin: round; stroke-linecap: round;"/>
        </g>
        <g stroke-width="1" stroke-linecap="round" opacity="0.7" stroke="#ffffff">
          <line x1="35" y1="-25" x2="40" y2="-30" style="stroke-linejoin: round;"/>
          <line x1="-28" y1="18" x2="-33" y2="23" style="stroke-linejoin: round;"/>
          <line x1="15" y1="38" x2="20" y2="43" style="stroke-linejoin: round;"/>
          <line x1="-45" y1="-5" x2="-50" y2="-10" style="stroke-linejoin: round;"/>
        </g>
      </g>
      <g transform="matrix(1, 0, 0, 1, -151.197098, -128.464874)">
        <circle cx="0" cy="0" r="2" fill="#ffffff" style="stroke-linejoin: round; stroke-linecap: round;"/>
        <g stroke-width="1.5" stroke-linecap="round" stroke="#ffffff">
          <line x1="0" y1="0" x2="0" y2="-35" style="stroke-linejoin: round;"/>
          <line x1="0" y1="0" x2="25" y2="-25" style="stroke-linejoin: round;"/>
          <line x1="0" y1="0" x2="35" y2="0" style="stroke-linejoin: round;"/>
          <line x1="0" y1="0" x2="25" y2="25" style="stroke-linejoin: round;"/>
          <line x1="0" y1="0" x2="0" y2="35" style="stroke-linejoin: round;"/>
          <line x1="0" y1="0" x2="-25" y2="25" style="stroke-linejoin: round;"/>
          <line x1="0" y1="0" x2="-35" y2="0" style="stroke-linejoin: round;"/>
          <line x1="0" y1="0" x2="-25" y2="-25" style="stroke-linejoin: round;"/>
        </g>
        <g fill="#ffffff">
          <circle cx="20" cy="-20" r="0.8" style="stroke-linejoin: round; stroke-linecap: round;"/>
          <circle cx="-18" cy="15" r="0.6" style="stroke-linejoin: round; stroke-linecap: round;"/>
          <circle cx="12" cy="28" r="0.7" style="stroke-linejoin: round; stroke-linecap: round;"/>
        </g>
      </g>
      <g transform="matrix(1, 0, 0, 1, 7.279421, -91.323954)">
        <circle cx="0" cy="0" r="1.5" fill="#ffffff" style="stroke-linejoin: round; stroke-linecap: round;"/>
        <g stroke-width="1" stroke-linecap="round" stroke="#ffffff">
          <line x1="0" y1="0" x2="0" y2="-25" style="stroke-linejoin: round;"/>
          <line x1="0" y1="0" x2="18" y2="-18" style="stroke-linejoin: round;"/>
          <line x1="0" y1="0" x2="25" y2="0" style="stroke-linejoin: round;"/>
          <line x1="0" y1="0" x2="18" y2="18" style="stroke-linejoin: round;"/>
          <line x1="0" y1="0" x2="0" y2="25" style="stroke-linejoin: round;"/>
          <line x1="0" y1="0" x2="-18" y2="18" style="stroke-linejoin: round;"/>
          <line x1="0" y1="0" x2="-25" y2="0" style="stroke-linejoin: round;"/>
          <line x1="0" y1="0" x2="-18" y2="-18" style="stroke-linejoin: round;"/>
        </g>
      </g>
      <g fill="#ffffff" opacity="0.6" transform="matrix(1, 0, 0, 1, -312.72059, -241.323982)">
        <circle cx="50" cy="50" r="1" style="stroke-linejoin: round; stroke-linecap: round;"/>
        <circle cx="350" cy="80" r="0.8" style="stroke-linejoin: round; stroke-linecap: round;"/>
        <circle cx="80" cy="300" r="1.2" style="stroke-linejoin: round; stroke-linecap: round;"/>
        <circle cx="320" cy="320" r="0.9" style="stroke-linejoin: round; stroke-linecap: round;"/>
        <circle cx="30" cy="250" r="0.7" style="stroke-linejoin: round; stroke-linecap: round;"/>
        <circle cx="370" cy="250" r="1.1" style="stroke-linejoin: round; stroke-linecap: round;"/>
      </g>
      <g fill="#ffffff" opacity="0.8" transform="matrix(1, 0, 0, 1, -312.72059, -241.323982)">
        <polygon points="150,30 152,36 158,36 153,40 155,46 150,42 145,46 147,40 142,36 148,36" style="stroke-linejoin: round; stroke-linecap: round;"/>
        <polygon points="300,50 301.5,54 305.5,54 302.5,56.5 304,60.5 300,57.5 296,60.5 297.5,56.5 294.5,54 298.5,54" style="stroke-linejoin: round; stroke-linecap: round;"/>
      </g>
    </g>
    <line class="st3" x1="-116.83" y1="-25.943" x2="-6.431" y2="84.757" style="fill: none; stroke: rgb(252, 3, 3); stroke-miterlimit: 10; stroke-width: 10;"/>
    <title>Paragliding</title>
    <title>Bottle Rocket</title>
  </g>
</svg>