<?xml version="1.0" encoding="utf-8"?>
<svg xmlns="http://www.w3.org/2000/svg" viewBox="0 0 124.288 124.644">
  <g transform="matrix(1, 0, 0, 1, 123.813705, 32.91745)">
    <path class="st0" d="M -14.631 90.84 C -6.431 90.84 0.169 84.24 0.169 76.14 L 0.169 -17.86 C 0.169 -26.06 -6.431 -32.66 -14.631 -32.66 L -108.63 -32.66 C -116.83 -32.76 -123.43 -26.16 -123.43 -17.96 L -123.43 76.04 C -123.43 84.24 -116.83 90.74 -108.73 90.74 C -108.63 90.84 -14.631 90.84 -14.631 90.84 Z" style="fill: rgb(255, 0, 0); stroke-width: 1;"/>
    <path class="st1" d="M -106.1 -26.243 C -112.5 -26.243 -117.7 -21.143 -117.7 -14.743 L -117.7 72.957 C -117.7 79.257 -112.5 84.457 -106.2 84.457 L -17.196 84.457 C -10.796 84.457 -5.596 79.357 -5.596 72.957 L -5.596 -14.743 C -5.596 -21.043 -10.796 -26.243 -17.196 -26.243 C -17.296 -26.243 -106.1 -26.243 -106.1 -26.243 Z" style="fill: rgb(255, 255, 255); stroke-width: 1;"/>
    <g transform="matrix(4.79164, 0, 0, 4.400439, -1371.046529, -744.927684)" style="">
      <path d="M 271.019 176.193 C 270.619 175.793 268.219 172.693 270.619 170.493 C 272.919 168.493 273.219 165.993 272.519 165.193 C 272.519 165.193 276.919 168.093 274.519 173.193 C 273.719 174.093 272.719 175.193 273.419 177.193 L 271.019 176.193 Z" style="stroke-width: 1;"/>
      <path d="M 275.519 177.193 C 275.519 176.293 274.619 176.993 276.019 174.093 C 277.219 172.993 276.819 172.293 276.519 171.193 C 276.519 171.193 280.119 172.593 277.319 176.493 L 275.519 177.193 Z" style="stroke-width: 1;"/>
      <polygon points="262.419 181.193 264.419 181.193 264.419 185.193 282.419 185.193 282.419 181.193 284.419 181.193 284.419 185.193 282.419 187.193 264.419 187.193 262.419 185.193" style="stroke-width: 1;"/>
      <polygon points="266.419 177.193 280.419 182.193 280.419 184.193 266.419 179.193" style="stroke-width: 1;"/>
      <polygon points="266.419 182.193 266.419 184.193 270.319 182.693 267.719 181.693" style="stroke-width: 1;"/>
      <polygon points="281.319 177.193 277.419 178.693 280.019 179.693 281.319 179.193" style="stroke-width: 1;"/>
    </g>
    <line class="st3" x1="-116.83" y1="-25.943" x2="-6.431" y2="84.757" style="fill: none; stroke: rgb(252, 3, 3); stroke-miterlimit: 10; stroke-width: 10;"/>
  </g>
</svg>
