<?xml version="1.0" encoding="utf-8"?>
<svg xmlns="http://www.w3.org/2000/svg" viewBox="0 0 123.932 123.932">
  <g transform="matrix(1, 0, 0, 1, 123.813705, 32.91745)">
    <path class="st0" d="M -14.631 90.84 C -6.431 90.84 0.169 84.24 0.169 76.14 L 0.169 -17.86 C 0.169 -26.06 -6.431 -32.66 -14.631 -32.66 L -108.63 -32.66 C -116.83 -32.76 -123.43 -26.16 -123.43 -17.96 L -123.43 76.04 C -123.43 84.24 -116.83 90.74 -108.73 90.74 C -108.63 90.84 -14.631 90.84 -14.631 90.84 Z" style="stroke-width: 1;"/>
    <path class="st1" d="M -106.1 -26.243 C -112.5 -26.243 -117.7 -21.143 -117.7 -14.743 L -117.7 72.957 C -117.7 79.257 -112.5 84.457 -106.2 84.457 L -17.196 84.457 C -10.796 84.457 -5.596 79.357 -5.596 72.957 L -5.596 -14.743 C -5.596 -21.043 -10.796 -26.243 -17.196 -26.243 C -17.296 -26.243 -106.1 -26.243 -106.1 -26.243 Z" style="fill: rgb(255, 255, 255); stroke-width: 1;"/>
    <text style="font-family: Arial, sans-serif; font-size: 28px; font-weight: 700; white-space: pre; visibility: hidden;" transform="matrix(3.117827, 0, 0, 3.622723, 161.590856, 16.823082)" x="-89.643" y="14.443">VS</text>
    <g transform="matrix(4.853253, 0, 0, 5.024656, -113.493898, -22.156527)" style="visibility: hidden;">
      <path d="M10,14c-1.1,0-2,0.9-2,2c0,1.1,0.9,2,2,2s2-0.9,2-2C12,14.9,11.1,14,10,14z M10,17c-0.6,0-1-0.4-1-1c0-0.6,0.4-1,1-1 s1,0.4,1,1C11,16.6,10.6,17,10,17z"/>
      <path d="M21.3,15H19V8.1c0-2-1.2-4.1-3.2-4.1H3.6C1.6,4,0,6.1,0,8.1l0,4.6C0,14.1,1.2,16,2.7,16H7c0-1.7,1.3-3,3-3s3,1.3,3,3h9 C22,15.6,21.7,15,21.3,15z M10,8c0,0.5-0.5,1-1,1H4C3.5,9,3,8.5,3,8V7c0-0.5,0.5-1,1-1h5c0.5,0,1,0.5,1,1V8z M17,8c0,0.5-0.5,1-1,1 h-2c-0.5,0-1-0.5-1-1V7c0-0.5,0.5-1,1-1h2c0.5,0,1,0.5,1,1V8z"/>
    </g>
    <line class="st3" x1="-116.83" y1="-25.943" x2="-6.431" y2="84.757" style="fill: none; stroke: rgb(252, 3, 3); stroke-miterlimit: 10; stroke-width: 10; visibility: hidden;"/>
  </g>
  <g id="Layer_1" transform="matrix(5.018653, 0, 0, 4.629858, -59.307211, -47.547369)" style="">
    <circle cx="23.509" cy="14.076" r="1.4" style="stroke-width: 1;"/>
    <path d="M 33.609 32.376 C 33.209 32.176 32.709 32.076 32.309 32.076 C 31.909 32.076 31.409 32.176 31.009 32.376 C 30.609 32.576 30.109 32.676 29.709 32.676 C 29.309 32.676 28.809 32.576 28.409 32.376 C 28.009 32.176 27.509 32.076 27.109 32.076 C 26.709 32.076 26.209 32.176 25.809 32.376 C 25.409 32.576 24.909 32.676 24.509 32.676 C 24.109 32.676 23.609 32.576 23.209 32.376 C 22.809 32.176 22.309 32.076 21.909 32.076 C 21.509 32.076 21.009 32.176 20.609 32.376 C 20.209 32.576 19.709 32.676 19.309 32.676 C 18.909 32.676 18.409 32.576 18.009 32.376 C 17.609 32.176 17.109 32.076 16.709 32.076 C 16.309 32.076 15.809 32.176 15.409 32.376 C 15.009 32.576 14.309 32.676 13.909 32.676 L 13.909 34.576 C 14.309 34.576 14.809 34.476 15.209 34.276 C 15.609 34.076 16.109 33.976 16.509 33.976 C 16.909 33.976 17.409 34.076 17.809 34.276 C 18.309 34.476 18.709 34.576 19.109 34.576 C 19.509 34.576 20.009 34.476 20.409 34.276 C 20.809 34.076 21.309 33.976 21.709 33.976 C 22.109 33.976 22.609 34.076 23.009 34.276 C 23.409 34.476 23.909 34.576 24.309 34.576 C 24.709 34.576 25.209 34.476 25.609 34.276 C 26.009 34.076 26.509 33.976 26.909 33.976 C 27.309 33.976 27.809 34.076 28.209 34.276 C 28.609 34.476 29.109 34.576 29.509 34.576 C 29.909 34.576 30.409 34.476 30.809 34.276 C 31.209 34.076 31.709 33.976 32.109 33.976 C 32.509 33.976 33.009 34.076 33.409 34.276 C 33.809 34.476 34.309 34.576 34.709 34.576 L 34.709 32.576 C 34.409 32.576 33.909 32.476 33.609 32.376 Z" style="stroke-width: 1;"/>
    <path d="M 32.209 12.676 L 27.309 17.676 C 27.209 17.676 27.109 17.576 27.109 17.576 C 27.109 17.576 25.609 17.576 25.209 17.576 C 24.909 17.276 23.109 15.476 23.109 15.476 C 22.809 15.376 22.709 15.376 22.609 15.276 C 22.209 14.976 21.509 14.976 21.209 15.276 L 18.109 18.276 C 18.009 18.376 17.909 18.676 17.909 18.876 L 17.909 21.576 L 13.909 21.576 L 13.909 22.576 L 17.909 22.576 L 17.909 27.776 C 17.909 28.476 18.409 28.976 18.909 28.976 C 19.409 28.976 19.909 28.476 19.909 27.776 L 19.909 22.576 L 23.909 22.576 L 23.909 28.576 L 13.909 28.576 L 13.909 29.576 L 24.909 29.576 L 24.909 22.576 L 25.909 22.576 L 25.909 21.576 L 19.909 21.576 L 19.909 20.976 L 23.109 18.276 L 24.409 19.376 C 24.509 19.476 24.709 19.576 25.009 19.576 L 26.109 19.576 C 26.609 19.576 26.909 19.276 26.909 18.876 C 26.909 18.776 26.909 18.676 26.909 18.676 C 28.109 17.576 31.209 14.876 31.909 14.276 C 31.909 15.376 31.909 29.576 31.909 29.576 L 32.909 29.576 L 32.909 12.776 C 32.909 12.676 32.209 12.676 32.209 12.676 Z" style="stroke-width: 1;"/>
  </g>
</svg>