<?xml version="1.0" encoding="utf-8"?>
<svg xmlns="http://www.w3.org/2000/svg" viewBox="0 0 123.932 123.932">
  <g transform="matrix(1, 0, 0, 1, 123.813705, 32.91745)">
    <path class="st0" d="M -14.631 90.84 C -6.431 90.84 0.169 84.24 0.169 76.14 L 0.169 -17.86 C 0.169 -26.06 -6.431 -32.66 -14.631 -32.66 L -108.63 -32.66 C -116.83 -32.76 -123.43 -26.16 -123.43 -17.96 L -123.43 76.04 C -123.43 84.24 -116.83 90.74 -108.73 90.74 C -108.63 90.84 -14.631 90.84 -14.631 90.84 Z" style="stroke-width: 1;"/>
    <path class="st1" d="M -106.1 -26.243 C -112.5 -26.243 -117.7 -21.143 -117.7 -14.743 L -117.7 72.957 C -117.7 79.257 -112.5 84.457 -106.2 84.457 L -17.196 84.457 C -10.796 84.457 -5.596 79.357 -5.596 72.957 L -5.596 -14.743 C -5.596 -21.043 -10.796 -26.243 -17.196 -26.243 C -17.296 -26.243 -106.1 -26.243 -106.1 -26.243 Z" style="fill: rgb(255, 255, 255); stroke-width: 1;"/>
    <text style="font-family: Arial, sans-serif; font-size: 28px; font-weight: 700; white-space: pre; visibility: hidden;" transform="matrix(3.117827, 0, 0, 3.622723, 161.590856, 16.823082)" x="-89.643" y="14.443">VS</text>
    <g transform="matrix(4.853253, 0, 0, 5.024656, -113.493898, -22.156527)" style="visibility: hidden;">
      <path d="M10,14c-1.1,0-2,0.9-2,2c0,1.1,0.9,2,2,2s2-0.9,2-2C12,14.9,11.1,14,10,14z M10,17c-0.6,0-1-0.4-1-1c0-0.6,0.4-1,1-1 s1,0.4,1,1C11,16.6,10.6,17,10,17z"/>
      <path d="M21.3,15H19V8.1c0-2-1.2-4.1-3.2-4.1H3.6C1.6,4,0,6.1,0,8.1l0,4.6C0,14.1,1.2,16,2.7,16H7c0-1.7,1.3-3,3-3s3,1.3,3,3h9 C22,15.6,21.7,15,21.3,15z M10,8c0,0.5-0.5,1-1,1H4C3.5,9,3,8.5,3,8V7c0-0.5,0.5-1,1-1h5c0.5,0,1,0.5,1,1V8z M17,8c0,0.5-0.5,1-1,1 h-2c-0.5,0-1-0.5-1-1V7c0-0.5,0.5-1,1-1h2c0.5,0,1,0.5,1,1V8z"/>
    </g>
    <line class="st3" x1="-116.83" y1="-25.943" x2="-6.431" y2="84.757" style="fill: none; stroke: rgb(252, 3, 3); stroke-miterlimit: 10; stroke-width: 10; visibility: hidden;"/>
  </g>
  <g id="Layer_1" transform="matrix(4.801225, 0, 0, 4.678966, -97.789012, -111.653926)" style="">
    <path d="M 25.815 32.062 C 26.415 32.062 26.915 32.562 26.915 33.162 L 26.915 34.762 C 26.915 36.462 28.315 37.962 30.115 37.962 L 32.815 37.962 C 33.415 37.962 33.915 38.462 33.915 39.062 L 33.915 40.662 C 33.915 42.362 35.315 43.862 37.115 43.862 L 39.815 43.862 C 40.415 43.862 40.915 44.362 40.915 44.962 L 40.915 48.062 L 42.915 48.062 L 42.915 44.962 C 42.915 43.262 41.515 41.762 39.715 41.762 L 37.015 41.762 C 36.415 41.762 35.915 41.262 35.915 40.662 L 35.915 39.062 C 35.915 37.362 34.515 35.862 32.715 35.862 L 30.115 35.862 C 29.515 35.862 29.015 35.362 29.015 34.762 L 29.015 33.162 C 29.015 31.462 27.615 29.962 25.815 29.962 L 22.315 29.962 L 22.315 31.962 L 25.815 32.062 Z" style="stroke-width: 1;"/>
    <path d="M 31.015 26.962 C 31.015 26.962 30.915 26.862 30.915 26.762 C 30.915 26.662 31.015 26.562 31.115 26.562 C 31.815 26.362 35.015 25.562 39.015 28.562 L 40.615 28.262 L 42.215 30.462 L 41.115 30.662 C 42.715 33.062 42.715 36.062 42.515 37.262 L 44.215 39.962 C 44.215 39.962 44.215 40.062 44.215 40.062 C 44.215 40.162 44.115 40.262 44.015 40.262 C 44.015 40.262 43.915 40.262 43.915 40.262 L 41.615 39.262 L 39.315 40.262 C 39.315 40.262 39.215 40.262 39.215 40.262 C 39.115 40.262 39.015 40.162 39.015 40.062 C 39.015 40.062 39.015 39.962 39.015 39.962 L 40.715 37.262 C 40.715 34.362 37.415 33.062 36.615 32.762 C 34.915 32.262 31.015 29.762 30.215 27.762 C 30.215 27.762 30.215 27.662 30.215 27.662 C 30.215 27.562 30.315 27.462 30.415 27.462 C 30.515 27.462 30.515 27.462 30.615 27.562 L 31.715 28.262 C 31.715 28.262 31.815 28.262 31.815 28.262 C 31.915 28.262 31.915 28.162 31.915 28.162 C 31.915 28.162 31.915 28.062 31.815 28.062 L 31.015 26.962 Z" style="stroke-width: 1;"/>
  </g>
</svg>