<?xml version="1.0" encoding="utf-8"?>
<svg xmlns="http://www.w3.org/2000/svg" viewBox="0 0 123.932 123.932">
  <g transform="matrix(1, 0, 0, 1, 123.813705, 32.91745)">
    <path class="st0" d="M -14.631 90.84 C -6.431 90.84 0.169 84.24 0.169 76.14 L 0.169 -17.86 C 0.169 -26.06 -6.431 -32.66 -14.631 -32.66 L -108.63 -32.66 C -116.83 -32.76 -123.43 -26.16 -123.43 -17.96 L -123.43 76.04 C -123.43 84.24 -116.83 90.74 -108.73 90.74 C -108.63 90.84 -14.631 90.84 -14.631 90.84 Z" style="stroke-width: 1;"/>
    <path class="st1" d="M -106.1 -26.243 C -112.5 -26.243 -117.7 -21.143 -117.7 -14.743 L -117.7 72.957 C -117.7 79.257 -112.5 84.457 -106.2 84.457 L -17.196 84.457 C -10.796 84.457 -5.596 79.357 -5.596 72.957 L -5.596 -14.743 C -5.596 -21.043 -10.796 -26.243 -17.196 -26.243 C -17.296 -26.243 -106.1 -26.243 -106.1 -26.243 Z" style="fill: rgb(255, 255, 255); stroke-width: 1;"/>
    <text style="font-family: Arial, sans-serif; font-size: 28px; font-weight: 700; white-space: pre; visibility: hidden;" transform="matrix(3.117827, 0, 0, 3.622723, 161.590856, 16.823082)" x="-89.643" y="14.443">VS</text>
    <g transform="matrix(4.853253, 0, 0, 5.024656, -113.493898, -22.156527)" style="visibility: hidden;">
      <path d="M10,14c-1.1,0-2,0.9-2,2c0,1.1,0.9,2,2,2s2-0.9,2-2C12,14.9,11.1,14,10,14z M10,17c-0.6,0-1-0.4-1-1c0-0.6,0.4-1,1-1 s1,0.4,1,1C11,16.6,10.6,17,10,17z"/>
      <path d="M21.3,15H19V8.1c0-2-1.2-4.1-3.2-4.1H3.6C1.6,4,0,6.1,0,8.1l0,4.6C0,14.1,1.2,16,2.7,16H7c0-1.7,1.3-3,3-3s3,1.3,3,3h9 C22,15.6,21.7,15,21.3,15z M10,8c0,0.5-0.5,1-1,1H4C3.5,9,3,8.5,3,8V7c0-0.5,0.5-1,1-1h5c0.5,0,1,0.5,1,1V8z M17,8c0,0.5-0.5,1-1,1 h-2c-0.5,0-1-0.5-1-1V7c0-0.5,0.5-1,1-1h2c0.5,0,1,0.5,1,1V8z"/>
    </g>
    <line class="st3" x1="-116.83" y1="-25.943" x2="-6.431" y2="84.757" style="fill: none; stroke: rgb(252, 3, 3); stroke-miterlimit: 10; stroke-width: 10; visibility: hidden;"/>
  </g>
  <g id="Layer_1" transform="matrix(5.141475, 0, 0, 4.636077, -48.159688, -36.43147)" style="">
    <path d="M 28.548 21.968 L 25.048 21.068 L 28.248 20.368 L 28.448 20.368 C 28.448 20.368 31.948 19.668 31.448 16.968 C 31.448 16.468 31.348 16.068 31.048 15.668 C 28.948 11.868 25.848 15.468 25.848 15.468 L 25.748 15.568 L 23.348 17.968 L 24.348 14.568 C 24.348 14.568 25.748 10.168 21.548 10.068 C 21.548 10.068 21.548 10.068 21.448 10.068 C 21.448 10.068 21.448 10.068 21.448 10.068 C 17.148 9.968 18.648 14.468 18.648 14.468 L 19.548 17.968 L 17.248 15.368 L 17.148 15.368 C 17.148 15.368 15.448 13.468 13.648 13.968 C 13.048 14.168 12.448 14.568 11.948 15.468 C 9.748 19.168 14.348 20.068 14.348 20.068 L 17.748 21.068 L 14.548 21.768 L 14.348 21.768 C 14.348 21.768 10.848 22.468 11.348 25.168 C 11.448 25.668 11.548 26.068 11.848 26.468 C 13.948 30.268 17.048 26.668 17.048 26.668 L 17.148 26.568 L 19.548 24.168 L 18.548 27.568 C 18.548 27.568 17.148 31.968 21.348 32.068 C 21.348 32.068 21.348 32.068 21.448 32.068 C 21.448 32.068 21.448 32.068 21.448 32.068 C 25.748 32.168 24.248 27.668 24.248 27.668 L 23.348 24.168 L 25.748 26.668 L 25.848 26.768 C 25.848 26.768 27.348 28.368 28.948 28.268 C 29.648 28.168 30.448 27.768 31.148 26.668 C 33.248 22.968 28.548 21.968 28.548 21.968 Z M 21.448 23.468 C 20.148 23.468 19.048 22.368 19.048 21.068 C 19.048 19.768 20.148 18.668 21.448 18.668 C 22.748 18.668 23.848 19.768 23.848 21.068 C 23.848 22.368 22.748 23.468 21.448 23.468 Z" style="stroke-width: 1;"/>
  </g>
</svg>