<?xml version="1.0" encoding="utf-8"?>
<svg xmlns="http://www.w3.org/2000/svg" viewBox="0 0 123.932 123.932">
  <g transform="matrix(1, 0, 0, 1, 123.813705, 32.91745)">
    <path class="st0" d="M -14.631 90.84 C -6.431 90.84 0.169 84.24 0.169 76.14 L 0.169 -17.86 C 0.169 -26.06 -6.431 -32.66 -14.631 -32.66 L -108.63 -32.66 C -116.83 -32.76 -123.43 -26.16 -123.43 -17.96 L -123.43 76.04 C -123.43 84.24 -116.83 90.74 -108.73 90.74 C -108.63 90.84 -14.631 90.84 -14.631 90.84 Z" style="stroke-width: 1;"/>
    <path class="st1" d="M -106.1 -26.243 C -112.5 -26.243 -117.7 -21.143 -117.7 -14.743 L -117.7 72.957 C -117.7 79.257 -112.5 84.457 -106.2 84.457 L -17.196 84.457 C -10.796 84.457 -5.596 79.357 -5.596 72.957 L -5.596 -14.743 C -5.596 -21.043 -10.796 -26.243 -17.196 -26.243 C -17.296 -26.243 -106.1 -26.243 -106.1 -26.243 Z" style="fill: rgb(255, 255, 255); stroke-width: 1;"/>
    <text style="font-family: Arial, sans-serif; font-size: 28px; font-weight: 700; white-space: pre; visibility: hidden;" transform="matrix(3.117827, 0, 0, 3.622723, 161.590856, 16.823082)" x="-89.643" y="14.443">VS</text>
    <g transform="matrix(4.853253, 0, 0, 5.024656, -113.493898, -22.156527)" style="visibility: hidden;">
      <path d="M10,14c-1.1,0-2,0.9-2,2c0,1.1,0.9,2,2,2s2-0.9,2-2C12,14.9,11.1,14,10,14z M10,17c-0.6,0-1-0.4-1-1c0-0.6,0.4-1,1-1 s1,0.4,1,1C11,16.6,10.6,17,10,17z"/>
      <path d="M21.3,15H19V8.1c0-2-1.2-4.1-3.2-4.1H3.6C1.6,4,0,6.1,0,8.1l0,4.6C0,14.1,1.2,16,2.7,16H7c0-1.7,1.3-3,3-3s3,1.3,3,3h9 C22,15.6,21.7,15,21.3,15z M10,8c0,0.5-0.5,1-1,1H4C3.5,9,3,8.5,3,8V7c0-0.5,0.5-1,1-1h5c0.5,0,1,0.5,1,1V8z M17,8c0,0.5-0.5,1-1,1 h-2c-0.5,0-1-0.5-1-1V7c0-0.5,0.5-1,1-1h2c0.5,0,1,0.5,1,1V8z"/>
    </g>
    <line class="st3" x1="-116.83" y1="-25.943" x2="-6.431" y2="84.757" style="fill: none; stroke: rgb(252, 3, 3); stroke-miterlimit: 10; stroke-width: 10; visibility: hidden;"/>
  </g>
  <g id="Layer_1" style="" transform="matrix(4.907168, 0, 0, 4.03924, -29.824752, -302.727426)">
    <path d="M 20.377 89.931 C 20.977 90.131 21.577 89.831 21.777 89.231 C 21.977 88.631 21.677 88.031 21.077 87.831 C 20.477 87.631 19.877 87.931 19.677 88.531 C 19.477 89.131 19.777 89.731 20.377 89.931 Z" style="stroke-width: 1;"/>
    <path d="M 29.277 82.831 C 29.277 82.831 25.577 82.431 17.877 82.431 C 12.277 82.431 7.677 82.831 7.677 82.831 C 7.677 82.831 9.577 83.631 9.277 86.331 C 9.277 86.331 12.077 86.031 13.177 88.331 L 18.377 86.731 L 18.077 90.131 L 15.877 90.631 C 15.677 90.631 15.477 90.731 15.377 90.931 L 10.477 95.631 C 10.177 95.931 10.177 96.331 10.477 96.631 C 10.777 96.931 11.177 96.931 11.477 96.631 L 15.077 93.131 L 19.477 92.031 L 20.177 91.831 L 20.877 92.631 C 20.977 92.731 21.177 92.831 21.277 92.831 L 23.677 92.831 C 23.977 92.831 24.177 92.631 24.177 92.331 C 24.177 92.031 23.977 91.831 23.777 91.831 L 22.077 85.631 L 29.477 83.431 C 29.777 83.231 29.777 82.931 29.277 82.831 Z M 23.277 91.831 C 22.777 91.831 21.877 91.831 21.577 91.831 C 21.277 91.531 20.277 90.331 20.277 90.331 C 20.277 90.331 20.277 90.331 20.177 90.331 C 19.877 90.031 19.477 89.831 19.077 89.931 L 18.477 90.131 L 18.877 86.631 L 21.577 85.831 L 23.277 91.831 Z" style="stroke-width: 1;"/>
  </g>
</svg>