<?xml version="1.0" encoding="utf-8"?>
<svg xmlns="http://www.w3.org/2000/svg" viewBox="0 0 123.932 124.288">
  <g transform="matrix(1, 0, 0, 1, 123.813705, 32.91745)">
    <path class="st0" d="M -14.631 90.84 C -6.431 90.84 0.169 84.24 0.169 76.14 L 0.169 -17.86 C 0.169 -26.06 -6.431 -32.66 -14.631 -32.66 L -108.63 -32.66 C -116.83 -32.76 -123.43 -26.16 -123.43 -17.96 L -123.43 76.04 C -123.43 84.24 -116.83 90.74 -108.73 90.74 C -108.63 90.84 -14.631 90.84 -14.631 90.84 Z" style="stroke-width: 1; fill: rgb(255, 0, 0);"/>
    <path class="st1" d="M -106.1 -26.243 C -112.5 -26.243 -117.7 -21.143 -117.7 -14.743 L -117.7 72.957 C -117.7 79.257 -112.5 84.457 -106.2 84.457 L -17.196 84.457 C -10.796 84.457 -5.596 79.357 -5.596 72.957 L -5.596 -14.743 C -5.596 -21.043 -10.796 -26.243 -17.196 -26.243 C -17.296 -26.243 -106.1 -26.243 -106.1 -26.243 Z" style="fill: rgb(255, 255, 255); stroke-width: 1;"/>
    <g id="Icons" style="" transform="matrix(5.739847, 0, 0, 4.964068, 370.067241, -156.914418)">
      <g transform="matrix(1, 0, 0, 1, -86.235804, 26.495999)">
        <path d="M17,6.8c-0.1-0.3-0.4-0.5-0.4-0.6L7,0L6.1,1.2C5.9,1.4,6,2.7,6.2,2.9C6.5,3.1,6.8,2,7,1.8L7.5,1l7.8,5.1L8.9,8 C8.5,8,7.9,7.8,8,8.3l1.6,5.4l-4.5,6.7c-0.3,0.5-0.1,1.3,0.4,1.5c0.5,0.3,1.1-0.1,1.3-0.6l4.7-7.1l0.2,1L11,20.5 c-0.1,0.5,0.3,1.3,0.9,1.4c0.5,0.1,1-0.6,1.1-1.1l0.7-5.4c0-0.1,0-0.4,0-0.6l-1.6-6.4l4.2-0.7C16.7,7.6,17.1,7.2,17,6.8L17,6.8z"/>
        <path d="M8.8,7H8.2C7.5,7,7,6.5,7,5.8V5.2C7,4.5,7.5,4,8.2,4h0.7C9.5,4,10,4.5,10,5.2v0.7C10,6.5,9.5,7,8.8,7z"/>
      </g>
    </g>
    <line class="st3" x1="-116.83" y1="-25.943" x2="-6.431" y2="84.757" style="fill: none; stroke: rgb(252, 3, 3); stroke-miterlimit: 10; stroke-width: 10;"/>
  </g>
</svg>