<?xml version="1.0" encoding="utf-8"?>
<svg xmlns="http://www.w3.org/2000/svg" viewBox="0 0 123.931 123.576">
  <g transform="matrix(1, 0, 0, 1, 123.813705, 32.91745)">
    <path class="st0" d="M -14.631 90.84 C -6.431 90.84 0.169 84.24 0.169 76.14 L 0.169 -17.86 C 0.169 -26.06 -6.431 -32.66 -14.631 -32.66 L -108.63 -32.66 C -116.83 -32.76 -123.43 -26.16 -123.43 -17.96 L -123.43 76.04 C -123.43 84.24 -116.83 90.74 -108.73 90.74 C -108.63 90.84 -14.631 90.84 -14.631 90.84 Z" style="stroke-width: 1; fill: rgb(255, 0, 0);"/>
    <path class="st1" d="M -106.1 -26.243 C -112.5 -26.243 -117.7 -21.143 -117.7 -14.743 L -117.7 72.957 C -117.7 79.257 -112.5 84.457 -106.2 84.457 L -17.196 84.457 C -10.796 84.457 -5.596 79.357 -5.596 72.957 L -5.596 -14.743 C -5.596 -21.043 -10.796 -26.243 -17.196 -26.243 C -17.296 -26.243 -106.1 -26.243 -106.1 -26.243 Z" style="fill: rgb(255, 255, 255); stroke-width: 1;"/>
    <g id="Layer_1" style="" transform="matrix(4.160281, 0, 0, 3.907218, 294.246896, -208.559363)">
      <path d="M -88.535 66.796 C -87.622 67.156 -86.635 67.369 -85.594 67.369 C -84.553 67.369 -83.566 67.156 -82.653 66.796 L -81.402 71.767 L -78.714 71.767 L -80.328 65.359 C -78.644 63.886 -77.559 61.747 -77.559 59.334 L -93.629 59.334 C -93.629 61.747 -92.544 63.886 -90.86 65.358 L -92.474 71.767 L -89.786 71.767 L -88.535 66.796 Z" style="stroke-width: 1;"/>
      <path d="M -91.149 57.575 C -91.155 57.563 -91.735 56.465 -91.482 55.491 C -91.354 55.009 -91.205 54.705 -91.071 54.437 C -90.881 54.053 -90.702 53.69 -90.702 53.068 C -90.702 52.619 -90.806 52.19 -90.919 51.735 C -91.054 51.187 -91.208 50.568 -91.208 49.767 L -92.274 49.767 C -92.274 50.696 -92.098 51.413 -91.956 51.99 C -91.854 52.398 -91.768 52.75 -91.768 53.068 C -91.768 53.44 -91.86 53.625 -92.027 53.964 C -92.176 54.262 -92.357 54.634 -92.512 55.22 C -92.754 56.143 -92.505 57.036 -92.298 57.577 L -91.154 57.577 L -91.149 57.575 Z" style="stroke-width: 1;"/>
      <path d="M -87.106 57.572 C -87.112 57.563 -87.696 56.464 -87.44 55.491 C -87.312 55.009 -87.163 54.705 -87.029 54.437 C -86.838 54.053 -86.66 53.69 -86.66 53.068 C -86.66 52.619 -86.767 52.19 -86.877 51.735 C -87.014 51.187 -87.169 50.568 -87.169 49.767 L -88.234 49.767 C -88.234 50.696 -88.055 51.416 -87.913 51.993 C -87.812 52.398 -87.725 52.749 -87.725 53.068 C -87.725 53.44 -87.817 53.625 -87.984 53.964 C -88.133 54.262 -88.314 54.634 -88.469 55.217 C -88.714 56.141 -88.465 57.035 -88.257 57.577 L -87.117 57.577 L -87.106 57.572 Z" style="stroke-width: 1;"/>
      <path d="M -83.065 57.575 C -83.071 57.563 -83.651 56.465 -83.398 55.491 C -83.27 55.009 -83.121 54.705 -82.987 54.437 C -82.797 54.053 -82.618 53.69 -82.618 53.068 C -82.618 52.619 -82.722 52.19 -82.835 51.735 C -82.97 51.187 -83.125 50.568 -83.125 49.767 L -84.191 49.767 C -84.191 50.696 -84.015 51.413 -83.873 51.99 C -83.772 52.398 -83.685 52.749 -83.685 53.068 C -83.685 53.44 -83.777 53.625 -83.944 53.964 C -84.093 54.262 -84.274 54.634 -84.429 55.22 C -84.671 56.143 -84.422 57.036 -84.215 57.577 L -83.071 57.577 L -83.065 57.575 Z" style="stroke-width: 1;"/>
      <path d="M -79.023 57.572 C -79.029 57.563 -79.612 56.465 -79.356 55.491 C -79.228 55.009 -79.079 54.705 -78.945 54.437 C -78.754 54.053 -78.576 53.69 -78.576 53.068 C -78.576 52.619 -78.683 52.19 -78.793 51.735 C -78.93 51.187 -79.085 50.568 -79.085 49.767 L -80.151 49.767 C -80.151 50.696 -79.972 51.416 -79.83 51.993 C -79.729 52.398 -79.642 52.749 -79.642 53.068 C -79.642 53.44 -79.734 53.625 -79.901 53.964 C -80.05 54.262 -80.231 54.634 -80.386 55.217 C -80.63 56.141 -80.381 57.035 -80.173 57.577 L -79.033 57.577 L -79.023 57.572 Z" style="stroke-width: 1;"/>
    </g>
    <line class="st3" x1="-116.83" y1="-25.943" x2="-6.431" y2="84.757" style="fill: none; stroke: rgb(252, 3, 3); stroke-miterlimit: 10; stroke-width: 10;"/>
  </g>
</svg>