<?xml version="1.0" encoding="utf-8"?>
<svg xmlns="http://www.w3.org/2000/svg" viewBox="0 0 123.931 123.576">
  <g transform="matrix(1, 0, 0, 1, 123.813705, 32.91745)">
    <path class="st0" d="M -14.631 90.84 C -6.431 90.84 0.169 84.24 0.169 76.14 L 0.169 -17.86 C 0.169 -26.06 -6.431 -32.66 -14.631 -32.66 L -108.63 -32.66 C -116.83 -32.76 -123.43 -26.16 -123.43 -17.96 L -123.43 76.04 C -123.43 84.24 -116.83 90.74 -108.73 90.74 C -108.63 90.84 -14.631 90.84 -14.631 90.84 Z" style="stroke-width: 1; fill: rgb(255, 0, 0);"/>
    <path class="st1" d="M -106.1 -26.243 C -112.5 -26.243 -117.7 -21.143 -117.7 -14.743 L -117.7 72.957 C -117.7 79.257 -112.5 84.457 -106.2 84.457 L -17.196 84.457 C -10.796 84.457 -5.596 79.357 -5.596 72.957 L -5.596 -14.743 C -5.596 -21.043 -10.796 -26.243 -17.196 -26.243 C -17.296 -26.243 -106.1 -26.243 -106.1 -26.243 Z" style="fill: rgb(255, 255, 255); stroke-width: 1;"/>
    <g id="Layer_1" transform="matrix(4.434224, 0, 0, 4.464448, 336.132273, 26.867528)" style="">
      <path d="M -92.484 -7.145 C -91.784 -7.145 -91.184 -7.845 -91.284 -8.545 C -91.384 -9.345 -91.984 -9.845 -92.784 -9.745 C -93.484 -9.745 -94.084 -9.045 -93.984 -8.345 C -93.884 -7.545 -93.284 -7.045 -92.484 -7.145 Z" style="stroke-width: 1;"/>
      <path d="M -89.784 -2.945 L -93.284 -6.745 C -93.284 -6.845 -93.384 -6.845 -93.484 -6.945 C -93.984 -7.345 -94.584 -7.445 -95.184 -7.045 L -98.384 -5.045 C -98.784 -4.845 -98.984 -4.445 -98.984 -3.945 C -98.984 -3.845 -98.984 -3.745 -98.984 -3.645 C -98.984 -3.645 -98.984 -3.645 -98.984 -3.645 C -98.984 -3.545 -98.984 -3.545 -98.984 -3.445 C -98.984 -3.345 -98.884 -3.245 -98.884 -3.145 C -98.884 -3.145 -98.884 -3.145 -98.884 -3.045 L -98.084 -1.445 L -99.78 0.655 C -100.08 1.055 -99.98 1.555 -99.68 1.855 C -99.28 2.155 -98.784 2.055 -98.484 1.755 L -96.484 -0.745 C -96.484 -0.745 -96.484 -0.845 -96.384 -0.845 C -96.384 -0.945 -96.284 -0.945 -96.284 -1.045 C -96.284 -1.145 -96.284 -1.145 -96.284 -1.245 C -96.284 -1.345 -96.284 -1.345 -96.284 -1.445 C -96.284 -1.545 -96.284 -1.545 -96.284 -1.645 C -95.784 -1.245 -95.284 -0.945 -95.084 -0.745 C -95.084 -0.045 -95.184 2.455 -95.184 2.455 C -95.184 2.955 -94.784 3.255 -94.384 3.255 C -93.884 3.255 -93.584 2.855 -93.484 2.455 L -93.384 -1.145 C -93.384 -1.445 -93.484 -1.645 -93.684 -1.845 L -95.784 -3.345 L -93.384 -4.845 L -90.784 -2.045 C -90.584 -1.745 -90.084 -1.745 -89.884 -2.045 C -89.584 -2.245 -89.584 -2.645 -89.784 -2.945 Z" style="stroke-width: 1;"/>
      <path d="M -100.68 10.655 C -100.18 10.655 -99.78 10.555 -99.38 10.355 C -98.984 10.155 -98.484 10.055 -97.984 10.055 C -97.484 10.055 -96.984 10.155 -96.584 10.355 C -96.184 10.555 -95.684 10.655 -95.284 10.655 C -94.784 10.655 -94.384 10.555 -93.984 10.355 C -93.584 10.155 -93.084 10.055 -92.584 10.055 C -92.084 10.055 -91.584 10.155 -91.184 10.355 C -90.784 10.555 -90.284 10.655 -89.884 10.655 C -89.384 10.655 -88.984 10.555 -88.584 10.355 C -88.184 10.155 -87.684 10.055 -87.184 10.055 C -86.684 10.055 -86.184 10.155 -85.784 10.355 C -85.384 10.555 -84.884 10.655 -84.484 10.655 C -83.984 10.655 -83.584 10.555 -83.184 10.355 C -82.784 10.155 -82.284 10.055 -81.784 10.055 C -81.284 10.055 -80.784 10.155 -80.384 10.355 C -79.984 10.555 -79.484 10.655 -79.084 10.655 L -79.084 8.655 C -79.584 8.655 -79.984 8.555 -80.384 8.355 C -80.784 8.155 -81.284 8.055 -81.784 8.055 C -82.284 8.055 -82.784 8.155 -83.184 8.355 C -83.584 8.555 -84.084 8.655 -84.484 8.655 C -84.984 8.655 -85.384 8.555 -85.784 8.355 C -86.184 8.155 -86.684 8.055 -87.184 8.055 C -87.684 8.055 -88.184 8.155 -88.584 8.355 C -88.984 8.555 -89.384 8.655 -89.884 8.655 C -90.384 8.655 -90.784 8.555 -91.184 8.355 C -91.584 8.155 -92.084 8.055 -92.584 8.055 C -93.084 8.055 -93.584 8.155 -93.984 8.355 C -94.384 8.555 -94.784 8.655 -95.284 8.655 C -95.784 8.655 -96.184 8.555 -96.584 8.355 C -96.984 8.155 -97.484 8.055 -97.984 8.055 C -98.484 8.055 -98.884 8.155 -99.38 8.355 C -99.78 8.555 -100.28 8.655 -100.68 8.655 L -100.68 10.655 L -100.68 10.655 Z" style="stroke-width: 1;"/>
      <path d="M -100.68 7.055 C -100.28 7.055 -99.98 6.955 -99.68 6.855 C -99.18 6.655 -98.584 6.455 -97.984 6.455 C -97.384 6.455 -96.884 6.555 -96.384 6.855 C -96.084 6.955 -95.684 7.055 -95.384 7.055 C -94.984 7.055 -94.684 6.955 -94.384 6.855 C -93.784 6.655 -93.184 6.455 -92.684 6.455 C -92.084 6.455 -91.584 6.555 -91.084 6.855 C -90.784 6.955 -90.384 7.055 -90.084 7.055 C -89.684 7.055 -89.384 6.955 -89.084 6.855 C -88.784 6.655 -88.384 6.555 -87.984 6.555 L -89.784 5.255 L -92.384 5.155 L -94.184 3.855 L -97.584 2.555 L -100.78 2.155 L -100.68 7.055 Z" style="stroke-width: 1;"/>
      <path d="M -79.684 3.855 L -84.384 1.555 C -84.084 1.455 -83.884 1.255 -83.884 0.955 C -83.884 0.555 -84.184 0.355 -84.484 0.355 C -84.784 0.355 -85.084 0.655 -85.084 0.955 C -85.084 1.055 -85.084 1.155 -84.984 1.255 L -89.784 -1.045 C -90.584 -1.445 -91.484 -1.145 -91.884 -0.345 L -78.784 5.855 C -78.584 5.055 -78.884 4.155 -79.684 3.855 Z M -84.884 0.955 C -84.884 0.755 -84.784 0.655 -84.584 0.655 C -84.384 0.655 -84.284 0.755 -84.284 0.955 C -84.284 1.155 -84.384 1.255 -84.584 1.255 C -84.684 1.255 -84.884 1.155 -84.884 0.955 Z" style="stroke-width: 1;"/>
      <path d="M -92.184 0.155 C -92.284 0.855 -91.984 1.555 -91.284 1.855 L -81.084 6.755 C -80.384 7.055 -79.684 6.855 -79.184 6.355 L -92.184 0.155 Z" style="stroke-width: 1;"/>
    </g>
    <line class="st3" x1="-116.83" y1="-25.943" x2="-6.431" y2="84.757" style="fill: none; stroke: rgb(252, 3, 3); stroke-miterlimit: 10; stroke-width: 10;"/>
  </g>
</svg>