<?xml version="1.0" encoding="utf-8"?>
<svg xmlns="http://www.w3.org/2000/svg" viewBox="0 0 123.932 124.288">
  <g transform="matrix(1, 0, 0, 1, 123.813705, 32.91745)">
    <path class="st0" d="M -14.631 90.84 C -6.431 90.84 0.169 84.24 0.169 76.14 L 0.169 -17.86 C 0.169 -26.06 -6.431 -32.66 -14.631 -32.66 L -108.63 -32.66 C -116.83 -32.76 -123.43 -26.16 -123.43 -17.96 L -123.43 76.04 C -123.43 84.24 -116.83 90.74 -108.73 90.74 C -108.63 90.84 -14.631 90.84 -14.631 90.84 Z" style="stroke-width: 1;"/>
    <path class="st1" d="M -106.1 -26.243 C -112.5 -26.243 -117.7 -21.143 -117.7 -14.743 L -117.7 72.957 C -117.7 79.257 -112.5 84.457 -106.2 84.457 L -17.196 84.457 C -10.796 84.457 -5.596 79.357 -5.596 72.957 L -5.596 -14.743 C -5.596 -21.043 -10.796 -26.243 -17.196 -26.243 C -17.296 -26.243 -106.1 -26.243 -106.1 -26.243 Z" style="fill: rgb(255, 255, 255); stroke-width: 1;"/>
    <line class="st3" x1="-116.83" y1="-25.943" x2="-6.431" y2="84.757" style="fill: none; stroke: rgb(252, 3, 3); stroke-miterlimit: 10; stroke-width: 10; visibility: hidden;"/>
    <g id="Layer_1" style="" transform="matrix(4.811874, 0, 0, 4.713971, 222.341575, -95.134768)">
      <path d="M -64.26 19.706 C -63.46 19.506 -63.06 18.606 -63.36 17.806 C -63.66 17.006 -64.56 16.606 -65.36 16.906 C -66.16 17.206 -66.56 18.106 -66.26 18.806 C -65.96 19.606 -65.06 20.006 -64.26 19.706 Z" style="stroke-width: 1;"/>
      <g transform="matrix(1, 0, 0, 1, -70.060106, 15.505607)">
        <polygon fill-rule="evenodd" clip-rule="evenodd" points="17,13 17,16 14,16 14,19 9,19 9,20 15,20 15,17 18,17 18,14 22,14 22,13 &#10;&#9;&#9;&#9;"/>
      </g>
      <path fill-rule="evenodd" clip-rule="evenodd" d="M -58.86 28.306 C -58.86 28.306 -58.96 27.906 -59.46 27.406 L -60.66 26.806 L -48.06 21.806 L -48.36 21.106 L -61.66 26.406 L -63.06 25.706 L -63.06 23.006 L -61.96 24.406 C -61.76 24.606 -61.56 24.806 -61.26 24.806 L -58.46 24.806 C -58.46 24.806 -57.76 24.806 -57.76 24.106 C -57.76 23.406 -58.46 23.406 -58.46 23.406 L -60.86 23.406 L -62.96 20.606 C -62.96 20.606 -63.16 20.206 -64.06 20.206 L -65.86 20.206 C -65.86 20.206 -66.66 20.106 -67.16 20.806 L -69.46 23.206 C -69.46 23.206 -69.66 23.406 -69.76 24.106 L -70.06 27.006 C -70.06 27.006 -70.06 27.606 -69.36 27.806 C -69.36 27.806 -68.56 27.906 -68.46 27.106 L -68.16 24.406 L -66.66 22.506 L -66.66 26.706 L -66.36 28.306 L -69.76 29.706 L -69.46 30.406 L -66.16 29.106 L -65.56 31.906 L -66.56 34.406 C -66.56 34.406 -67.16 35.606 -66.26 35.906 C -65.66 36.106 -65.06 35.706 -64.76 34.806 L -63.66 31.906 C -63.56 31.706 -63.46 31.206 -63.46 30.906 L -64.06 28.206 L -63.76 28.106 L -60.46 29.606 C -60.46 29.606 -59.26 32.906 -59.26 32.906 C -58.96 33.706 -58.46 33.706 -57.96 33.506 C -57.46 33.306 -57.26 32.806 -57.56 32.206 L -58.86 28.306 Z" style="stroke-width: 1;"/>
    </g>
  </g>
</svg>