<?xml version="1.0" encoding="utf-8"?>
<svg xmlns="http://www.w3.org/2000/svg" viewBox="0 0 123.932 123.932">
  <g transform="matrix(1, 0, 0, 1, 123.813705, 32.91745)">
    <path class="st0" d="M -14.631 90.84 C -6.431 90.84 0.169 84.24 0.169 76.14 L 0.169 -17.86 C 0.169 -26.06 -6.431 -32.66 -14.631 -32.66 L -108.63 -32.66 C -116.83 -32.76 -123.43 -26.16 -123.43 -17.96 L -123.43 76.04 C -123.43 84.24 -116.83 90.74 -108.73 90.74 C -108.63 90.84 -14.631 90.84 -14.631 90.84 Z" style="stroke-width: 1;"/>
    <path class="st1" d="M -106.1 -26.243 C -112.5 -26.243 -117.7 -21.143 -117.7 -14.743 L -117.7 72.957 C -117.7 79.257 -112.5 84.457 -106.2 84.457 L -17.196 84.457 C -10.796 84.457 -5.596 79.357 -5.596 72.957 L -5.596 -14.743 C -5.596 -21.043 -10.796 -26.243 -17.196 -26.243 C -17.296 -26.243 -106.1 -26.243 -106.1 -26.243 Z" style="fill: rgb(255, 255, 255); stroke-width: 1;"/>
    <text style="font-family: Arial, sans-serif; font-size: 28px; font-weight: 700; white-space: pre; visibility: hidden;" transform="matrix(3.117827, 0, 0, 3.622723, 161.590856, 16.823082)" x="-89.643" y="14.443">VS</text>
    <g transform="matrix(4.853253, 0, 0, 5.024656, -113.493898, -22.156527)" style="visibility: hidden;">
      <path d="M10,14c-1.1,0-2,0.9-2,2c0,1.1,0.9,2,2,2s2-0.9,2-2C12,14.9,11.1,14,10,14z M10,17c-0.6,0-1-0.4-1-1c0-0.6,0.4-1,1-1 s1,0.4,1,1C11,16.6,10.6,17,10,17z"/>
      <path d="M21.3,15H19V8.1c0-2-1.2-4.1-3.2-4.1H3.6C1.6,4,0,6.1,0,8.1l0,4.6C0,14.1,1.2,16,2.7,16H7c0-1.7,1.3-3,3-3s3,1.3,3,3h9 C22,15.6,21.7,15,21.3,15z M10,8c0,0.5-0.5,1-1,1H4C3.5,9,3,8.5,3,8V7c0-0.5,0.5-1,1-1h5c0.5,0,1,0.5,1,1V8z M17,8c0,0.5-0.5,1-1,1 h-2c-0.5,0-1-0.5-1-1V7c0-0.5,0.5-1,1-1h2c0.5,0,1,0.5,1,1V8z"/>
    </g>
    <line class="st3" x1="-116.83" y1="-25.943" x2="-6.431" y2="84.757" style="fill: none; stroke: rgb(252, 3, 3); stroke-miterlimit: 10; stroke-width: 10; visibility: hidden;"/>
  </g>
  <g id="Icons" style="" transform="matrix(4.884748, 0, 0, 4.322399, -233.483604, -218.18093)">
    <g transform="matrix(1, 0, 0, 1, 49.388059, 54.579221)">
      <path d="M2.8,4.8L1.6,4.5C1.3,4.4,1.1,4.6,1,4.8L0,9.1c0,0.2,0.1,0.4,0.3,0.5l1.2,0.3c0.2,0,0.3,0,0.4-0.2V7h0.7L3,5.7V5h0.1 C3,4.9,2.9,4.8,2.8,4.8z"/>
      <path d="M9.1,9.4L7,8.9L6.4,6.5C5.7,6,4.9,6,4.9,6C4.5,6,4.2,6.8,4,7H3.3L3,8.3V10H2.6l-2.3,9.6l0,0v0.2c0,0.6,0.5,1,1,1 s0.9-0.3,1-0.7l1.8-7.4l1.7,7.4c0.1,0.5,0.5,0.8,1,0.8c0.6,0,1-0.5,1-1v-0.2L5.5,9.9L5.7,9l0.1,0.7c0.1,0.4,0.5,0.5,0.5,0.5 l2.4,0.6h0.1c0.4,0,0.7-0.3,0.7-0.7C9.6,9.7,9.4,9.5,9.1,9.4z"/>
      <polygon points="11.436 -2.25 11.436 2.397 8.267 0.074" style="visibility: hidden;"/>
      <path d="M 11.436 22.145 C 11.436 22.145 11.436 14.71 11.436 13.897 C 11.858 13.433 14.711 10.064 14.711 10.064 C 14.922 9.832 14.922 9.599 14.922 9.367 C 14.922 9.134 14.816 8.902 14.711 8.669 C 14.394 8.321 13.76 8.321 13.443 8.669 L 9.323 12.852 L 9.323 22.145 L 11.436 22.145 Z" style="visibility: hidden;"/>
      <path d="M 14.605 22.145 C 13.971 22.145 13.549 21.68 13.549 20.983 C 13.549 20.286 13.971 19.822 14.605 19.822 C 15.239 19.822 15.662 20.286 15.662 20.983 C 15.662 21.68 15.239 22.145 14.605 22.145 Z" style="visibility: hidden;"/>
      <path d="M 17.774 22.145 C 17.14 22.145 16.718 21.68 16.718 20.983 C 16.718 20.286 17.14 19.822 17.774 19.822 C 18.408 19.822 18.831 20.286 18.831 20.983 C 18.831 21.68 18.408 22.145 17.774 22.145 Z" style="visibility: hidden;"/>
      <path d="M 20.944 18.66 C 20.31 18.66 19.887 18.195 19.887 17.499 C 19.887 16.801 20.31 16.336 20.944 16.336 C 21.577 16.336 22 16.801 22 17.499 C 22 18.195 21.577 18.66 20.944 18.66 Z" style="visibility: hidden;"/>
      <path d="M 20.944 22.145 C 20.31 22.145 19.887 21.68 19.887 20.983 C 19.887 20.286 20.31 19.822 20.944 19.822 C 21.577 19.822 22 20.286 22 20.983 C 22 21.68 21.577 22.145 20.944 22.145 Z" style="visibility: hidden;"/>
      <path d="M 20.944 15.175 C 20.31 15.175 19.887 14.71 19.887 14.013 C 19.887 13.316 20.31 12.852 20.944 12.852 C 21.577 12.852 22 13.316 22 14.013 C 22 14.71 21.577 15.175 20.944 15.175 Z" style="visibility: hidden;"/>
      <path d="M 20.944 4.72 C 20.31 4.72 19.887 4.255 19.887 3.559 C 19.887 2.862 20.31 2.397 20.944 2.397 C 21.577 2.397 22 2.862 22 3.559 C 22 4.255 21.577 4.72 20.944 4.72 Z" style="visibility: hidden;"/>
      <path d="M 14.605 1.236 C 13.971 1.236 13.549 0.771 13.549 0.074 C 13.549 -0.624 13.971 -1.087 14.605 -1.087 C 15.239 -1.087 15.662 -0.624 15.662 0.074 C 15.662 0.771 15.239 1.236 14.605 1.236 Z" style="visibility: hidden;"/>
      <path d="M 17.774 1.236 C 17.14 1.236 16.718 0.771 16.718 0.074 C 16.718 -0.624 17.14 -1.087 17.774 -1.087 C 18.408 -1.087 18.831 -0.624 18.831 0.074 C 18.831 0.771 18.408 1.236 17.774 1.236 Z" style="visibility: hidden;"/>
      <path d="M 20.944 8.206 C 20.31 8.206 19.887 7.741 19.887 7.043 C 19.887 6.346 20.31 5.882 20.944 5.882 C 21.577 5.882 22 6.346 22 7.043 C 22 7.741 21.577 8.206 20.944 8.206 Z" style="visibility: hidden;"/>
      <path d="M 20.944 1.236 C 20.31 1.236 19.887 0.771 19.887 0.074 C 19.887 -0.624 20.31 -1.087 20.944 -1.087 C 21.577 -1.087 22 -0.624 22 0.074 C 22 0.771 21.577 1.236 20.944 1.236 Z" style="visibility: hidden;"/>
      <path d="M 20.944 11.69 C 20.31 11.69 19.887 11.225 19.887 10.529 C 19.887 9.832 20.31 9.367 20.944 9.367 C 21.577 9.367 22 9.832 22 10.529 C 22 11.225 21.577 11.69 20.944 11.69 Z" style="visibility: hidden;"/>
      <path d="M5.7,5H5.3C4.6,5,4,4.4,4,3.7V3.3C4,2.6,4.6,2,5.3,2h0.4C6.4,2,7,2.6,7,3.3v0.4C7,4.4,6.4,5,5.7,5z" style=""/>
    </g>
  </g>
  <text style="font-family: Arial, sans-serif; font-size: 28px; font-weight: 700; white-space: pre;" transform="matrix(0.959125, 0, 0, 0.967981, 13.910745, -50.50015)" x="44.012" y="90.156">HCA</text>
  <g id="Layer_1" transform="matrix(3.462861, 0, 0, 2.918093, -83.72449, -189.41007)" style="">
    <path d="M 45.929 99.15 L 49.129 93.25 L 52.329 99.15 L 45.929 99.15 Z M 55.229 99.15 L 49.229 88.45 L 43.129 99.15 L 41.829 99.15 L 41.829 100.35 L 56.429 100.35 L 56.429 99.15 L 55.229 99.15 Z" style="stroke-width: 1; visibility: hidden;"/>
    <rect x="41.129" y="82.45" width="16" height="2" style="stroke-width: 1;"/>
    <rect x="41.129" y="85.45" width="12" height="2" style="stroke-width: 1;"/>
    <rect x="41.129" y="79.45" width="16" height="2" style="stroke-width: 1;"/>
  </g>
</svg>