<?xml version="1.0" encoding="utf-8"?>
<svg xmlns="http://www.w3.org/2000/svg" viewBox="0 0 123.575 123.219">
  <g transform="matrix(1, 0, 0, 1, 123.813705, 32.91745)">
    <path class="st0" d="M -14.631 90.84 C -6.431 90.84 0.169 84.24 0.169 76.14 L 0.169 -17.86 C 0.169 -26.06 -6.431 -32.66 -14.631 -32.66 L -108.63 -32.66 C -116.83 -32.76 -123.43 -26.16 -123.43 -17.96 L -123.43 76.04 C -123.43 84.24 -116.83 90.74 -108.73 90.74 C -108.63 90.84 -14.631 90.84 -14.631 90.84 Z" style="stroke-width: 1; fill: rgb(255, 0, 0);"/>
    <path class="st1" d="M -106.1 -26.243 C -112.5 -26.243 -117.7 -21.143 -117.7 -14.743 L -117.7 72.957 C -117.7 79.257 -112.5 84.457 -106.2 84.457 L -17.196 84.457 C -10.796 84.457 -5.596 79.357 -5.596 72.957 L -5.596 -14.743 C -5.596 -21.043 -10.796 -26.243 -17.196 -26.243 C -17.296 -26.243 -106.1 -26.243 -106.1 -26.243 Z" style="fill: rgb(255, 255, 255); stroke-width: 1;"/>
    <g id="Icons" transform="matrix(3.993075, 0, 0, 4, -143.814732, -57.661024)">
      <g transform="matrix(1, 0, 0, 1, 8.995597, 10.588267)">
        <path d="M7.6,3.7c0.1-0.3-0.1-0.5-0.4-0.6L5.8,2.8C5.6,2.7,5.3,2.9,5.2,3.2L4,8.2C3.9,8.4,4.1,8.7,4.4,8.8l1.4,0.3 C6.1,9.2,6.4,9,6.4,8.8L7.6,3.7z"/>
        <path d="M5,20.5v0.2C5,21.5,5.5,22,6.2,22c0.6,0,1-0.4,1.2-0.9l2.1-8.7l2,8.6c0.1,0.5,0.6,0.9,1.2,0.9c0.7,0,1.2-0.5,1.2-1.2 c0-0.1,0-0.2,0-0.3L11.1,9.1l0.2-1l0.2,0.8c0.2,0.5,0.6,0.6,0.6,0.6l2.8,0.7h0.2c0.5,0,0.8-0.4,0.8-0.8c0-0.4-0.3-0.7-0.6-0.8 L12.9,8l-0.7-2.7C11.8,4.1,10,4,10,4C9.3,4,8.7,5.2,8.7,5.2L5,20.5z"/>
        <path d="M11.9,3h-0.8C10.5,3,10,2.5,10,1.9V1.1C10,0.5,10.5,0,11.1,0h0.8C12.5,0,13,0.5,13,1.1v0.8C13,2.5,12.5,3,11.9,3z"/>
        <rect x="17.8" y="5" width="1.2" height="17"/>
      </g>
    </g>
    <line class="st3" x1="-116.83" y1="-25.943" x2="-6.431" y2="84.757" style="fill: none; stroke: rgb(252, 3, 3); stroke-miterlimit: 10; stroke-width: 10;"/>
    <path d="M -61.592 -5.305 L -65.241 -5.305 C -67.978 -5.305 -70.259 -7.407 -70.259 -9.93 L -70.259 -13.294 C -70.259 -15.817 -67.978 -17.92 -65.241 -17.92 C -65.241 -17.92 -65.241 -17.92 -65.241 -17.92 L -61.592 -17.92 C -58.856 -17.92 -56.575 -15.817 -56.575 -13.294 L -56.575 -9.93 C -56.575 -7.407 -58.856 -5.305 -61.592 -5.305 Z" style="stroke-width: 1; visibility: hidden;"/>
    <polygon points="-70.259 24.131 -56.575 24.131 -56.575 7.311 -52.014 7.311 -52.014 19.926 -47.452 19.926 -47.452 3.106 -56.575 -1.099 -70.259 -1.099 -79.381 3.106 -79.381 19.926 -74.82 19.926 -74.82 7.311 -70.259 7.311" style="stroke-width: 1; visibility: hidden;"/>
    <path d="M -10.962 71.649 L -13.699 62.818 C -29.664 64.501 -45.172 65.342 -61.136 65.342 C -76.644 65.342 -92.609 64.501 -108.12 62.818 L -111.31 71.649 C -94.433 73.331 -78.013 74.593 -61.136 74.593 C -44.26 74.593 -27.839 73.331 -10.962 71.649 Z" style="stroke-width: 1; visibility: hidden;"/>
    <path d="M -102.64 46.418 L -105.38 55.249 C -91.24 56.511 -76.644 57.352 -61.136 57.352 C -45.628 57.352 -31.032 56.511 -16.892 55.249 L -19.629 46.418 C -33.313 47.68 -47.452 48.521 -61.136 48.521 C -74.82 48.521 -88.96 47.68 -102.64 46.418 Z" style="stroke-width: 1; visibility: hidden;"/>
    <path d="M -61.136 40.531 C -48.365 40.531 -35.593 40.111 -22.822 38.849 L -25.558 30.018 C -36.962 30.859 -48.821 31.701 -61.136 31.701 C -73.452 31.701 -84.855 30.859 -96.258 30.018 L -98.995 38.849 C -87.135 39.69 -74.364 40.531 -61.136 40.531 Z" style="stroke-width: 1; visibility: hidden;"/>
  </g>
</svg>