<?xml version="1.0" encoding="utf-8"?>
<svg xmlns="http://www.w3.org/2000/svg" viewBox="0 0 123.575 123.219">
  <g transform="matrix(1, 0, 0, 1, 123.813705, 32.91745)">
    <path class="st0" d="M -14.631 90.84 C -6.431 90.84 0.169 84.24 0.169 76.14 L 0.169 -17.86 C 0.169 -26.06 -6.431 -32.66 -14.631 -32.66 L -108.63 -32.66 C -116.83 -32.76 -123.43 -26.16 -123.43 -17.96 L -123.43 76.04 C -123.43 84.24 -116.83 90.74 -108.73 90.74 C -108.63 90.84 -14.631 90.84 -14.631 90.84 Z" style="stroke-width: 1; fill: rgb(255, 0, 0);"/>
    <path class="st1" d="M -106.1 -26.243 C -112.5 -26.243 -117.7 -21.143 -117.7 -14.743 L -117.7 72.957 C -117.7 79.257 -112.5 84.457 -106.2 84.457 L -17.196 84.457 C -10.796 84.457 -5.596 79.357 -5.596 72.957 L -5.596 -14.743 C -5.596 -21.043 -10.796 -26.243 -17.196 -26.243 C -17.296 -26.243 -106.1 -26.243 -106.1 -26.243 Z" style="fill: rgb(255, 255, 255); stroke-width: 1;"/>
    <g id="Layer_1" transform="matrix(1, 0, 0, 1, -44.097476, -0.000309)">
      <g transform="matrix(1, 0, 0, 1, -33.973724, -34.57014)">
        <path style="fill: rgb(35, 31, 32); visibility: hidden;" d="M 18.971 125.028 C 27.096 125.028 33.713 118.442 33.713 110.286 L 33.713 16.239 C 33.713 8.091 27.096 1.497 18.971 1.497 L -75.044 1.497 C -83.2 1.497 -89.817 8.091 -89.817 16.239 L -89.817 110.286 C -89.817 118.442 -83.2 125.028 -75.044 125.028 L 18.971 125.028 Z"/>
        <path style="fill: rgb(255, 255, 255); visibility: hidden;" d="M15.641,2.246c-6.766,0-12.266,5.492-12.266,12.25v94.047c0,6.734,5.5,12.234,12.266,12.234h94.016 c6.758,0,12.25-5.5,12.25-12.234V14.496c0-6.758-5.492-12.25-12.25-12.25H15.641z"/>
        <g transform="matrix(1, 0, 0, 1, -50.060126, 1.742499)">
          <path style="fill:#231F20;" d="M64.023,25.488c4.562,0,8.25-3.711,8.25-8.281c0-4.562-3.688-8.25-8.25-8.25 s-8.273,3.688-8.273,8.25C55.75,21.777,59.461,25.488,64.023,25.488z"/>
          <path style="fill:#231F20;" d="M50.062,26.855c0.32-1.273-0.484-2.539-1.734-2.859l-6.883-1.656 c-1.289-0.297-2.562,0.461-2.852,1.727L32.805,48.02c-0.32,1.273,0.461,2.539,1.734,2.859l6.906,1.656 c1.25,0.32,2.539-0.461,2.836-1.734L50.062,26.855z"/>
          <path style="fill:#231F20;" d="M81.844,112.035c0,0.047-0.023,0.094-0.023,0.117c0,1.055,0.859,1.906,1.906,1.906 c0.953,0,1.758-0.734,1.875-1.656l13.875-75.219c0-0.055,0-0.102,0-0.148c0-1.023-0.836-1.883-1.883-1.883 c-0.953,0-1.688,0.734-1.883,1.664L81.844,112.035z"/>
          <path style="fill:#231F20;" d="M35.711,107.105c-0.078,0.391-0.102,0.781-0.102,1.172c0,3.219,2.594,5.805,5.812,5.805 c2.641,0,4.859-1.758,5.57-4.148l9.984-41.336l9.516,41.094c0.609,2.539,2.906,4.391,5.609,4.391c3.227,0,5.812-2.586,5.812-5.805 c0-0.445-0.047-0.859-0.125-1.273L64.734,52.418l1.094-4.812l0.859,3.781c0.781,2.469,3.023,2.711,3.023,2.711l13.453,3.422 c0.266,0.047,0.539,0.07,0.805,0.07c2.195,0,3.977-1.758,3.977-3.953c0-1.883-1.289-3.469-3.047-3.883l-11.648-2.93l-3.195-12.992 c-1.516-7.25-8.445-7.078-8.445-7.078c-6.734-0.172-8.422,6.914-8.422,6.914L35.711,107.105z"/>
        </g>
      </g>
    </g>
    <line class="st3" x1="-116.83" y1="-25.943" x2="-6.431" y2="84.757" style="fill: none; stroke: rgb(252, 3, 3); stroke-miterlimit: 10; stroke-width: 10;"/>
    <path d="M -61.592 -5.305 L -65.241 -5.305 C -67.978 -5.305 -70.259 -7.407 -70.259 -9.93 L -70.259 -13.294 C -70.259 -15.817 -67.978 -17.92 -65.241 -17.92 C -65.241 -17.92 -65.241 -17.92 -65.241 -17.92 L -61.592 -17.92 C -58.856 -17.92 -56.575 -15.817 -56.575 -13.294 L -56.575 -9.93 C -56.575 -7.407 -58.856 -5.305 -61.592 -5.305 Z" style="stroke-width: 1; visibility: hidden;"/>
    <polygon points="-70.259 24.131 -56.575 24.131 -56.575 7.311 -52.014 7.311 -52.014 19.926 -47.452 19.926 -47.452 3.106 -56.575 -1.099 -70.259 -1.099 -79.381 3.106 -79.381 19.926 -74.82 19.926 -74.82 7.311 -70.259 7.311" style="stroke-width: 1; visibility: hidden;"/>
    <path d="M -10.962 71.649 L -13.699 62.818 C -29.664 64.501 -45.172 65.342 -61.136 65.342 C -76.644 65.342 -92.609 64.501 -108.12 62.818 L -111.31 71.649 C -94.433 73.331 -78.013 74.593 -61.136 74.593 C -44.26 74.593 -27.839 73.331 -10.962 71.649 Z" style="stroke-width: 1; visibility: hidden;"/>
    <path d="M -102.64 46.418 L -105.38 55.249 C -91.24 56.511 -76.644 57.352 -61.136 57.352 C -45.628 57.352 -31.032 56.511 -16.892 55.249 L -19.629 46.418 C -33.313 47.68 -47.452 48.521 -61.136 48.521 C -74.82 48.521 -88.96 47.68 -102.64 46.418 Z" style="stroke-width: 1; visibility: hidden;"/>
    <path d="M -61.136 40.531 C -48.365 40.531 -35.593 40.111 -22.822 38.849 L -25.558 30.018 C -36.962 30.859 -48.821 31.701 -61.136 31.701 C -73.452 31.701 -84.855 30.859 -96.258 30.018 L -98.995 38.849 C -87.135 39.69 -74.364 40.531 -61.136 40.531 Z" style="stroke-width: 1; visibility: hidden;"/>
  </g>
</svg>