<?xml version="1.0" encoding="utf-8"?>
<svg xmlns="http://www.w3.org/2000/svg" viewBox="0 0 123.931 123.576">
  <g transform="matrix(1, 0, 0, 1, 123.813705, 32.91745)">
    <path class="st0" d="M -14.631 90.84 C -6.431 90.84 0.169 84.24 0.169 76.14 L 0.169 -17.86 C 0.169 -26.06 -6.431 -32.66 -14.631 -32.66 L -108.63 -32.66 C -116.83 -32.76 -123.43 -26.16 -123.43 -17.96 L -123.43 76.04 C -123.43 84.24 -116.83 90.74 -108.73 90.74 C -108.63 90.84 -14.631 90.84 -14.631 90.84 Z" style="stroke-width: 1;"/>
    <path class="st1" d="M -106.1 -26.243 C -112.5 -26.243 -117.7 -21.143 -117.7 -14.743 L -117.7 72.957 C -117.7 79.257 -112.5 84.457 -106.2 84.457 L -17.196 84.457 C -10.796 84.457 -5.596 79.357 -5.596 72.957 L -5.596 -14.743 C -5.596 -21.043 -10.796 -26.243 -17.196 -26.243 C -17.296 -26.243 -106.1 -26.243 -106.1 -26.243 Z" style="fill: rgb(255, 255, 255); stroke-width: 1;"/>
    <line class="st3" x1="-116.83" y1="-25.943" x2="-6.431" y2="84.757" style="fill: none; stroke: rgb(252, 3, 3); stroke-miterlimit: 10; stroke-width: 10; visibility: hidden;"/>
    <g id="Icons" style="" transform="matrix(4.41145, 0, 0, 4.175092, 346.715129, -217.240638)">
      <g transform="matrix(1, 0, 0, 1, -103.614299, 47.947484)">
        <polygon points="20,7 20,9 18,11 16,11 16,10 18,10 19,9 19,7 &#9;"/>
        <path d="M18,4V2l-2,2l-3,3.8V7l-3-1V5L9,4H8L7,5v4H1l-1,1v5h1v-4l1-1h1l-1,2v1v8l1,1l1-1v-6l3,6l1,1l1-1l-3-7h7v7l1,1l1-1v-8l3-6 l3,1l1-1L18,4z M10,9V7l2.8,0.9L12,9H10z"/>
        <circle cx="8.5" cy="1.5" r="1.5"/>
      </g>
    </g>
  </g>
</svg>