<?xml version="1.0" encoding="utf-8"?>
<svg xmlns="http://www.w3.org/2000/svg" viewBox="0 0 123.931 123.576">
  <g transform="matrix(1, 0, 0, 1, 123.813705, 32.91745)">
    <path class="st0" d="M -14.631 90.84 C -6.431 90.84 0.169 84.24 0.169 76.14 L 0.169 -17.86 C 0.169 -26.06 -6.431 -32.66 -14.631 -32.66 L -108.63 -32.66 C -116.83 -32.76 -123.43 -26.16 -123.43 -17.96 L -123.43 76.04 C -123.43 84.24 -116.83 90.74 -108.73 90.74 C -108.63 90.84 -14.631 90.84 -14.631 90.84 Z" style="stroke-width: 1; fill: rgb(255, 0, 0);"/>
    <path class="st1" d="M -106.1 -26.243 C -112.5 -26.243 -117.7 -21.143 -117.7 -14.743 L -117.7 72.957 C -117.7 79.257 -112.5 84.457 -106.2 84.457 L -17.196 84.457 C -10.796 84.457 -5.596 79.357 -5.596 72.957 L -5.596 -14.743 C -5.596 -21.043 -10.796 -26.243 -17.196 -26.243 C -17.296 -26.243 -106.1 -26.243 -106.1 -26.243 Z" style="fill: rgb(255, 255, 255); stroke-width: 1;"/>
    <g id="Layer_1" style="" transform="matrix(4.442966, 0, 0, 3.977451, 381.959698, 37.428067)">
      <rect y="-13.154" width="3" height="3" x="-110.89" style="stroke-width: 1;"/>
      <rect x="-102.89" y="-13.154" width="14" height="3" style="stroke-width: 1;"/>
      <path d="M -105.69 -8.354 C -105.99 -8.154 -106.29 -7.854 -106.29 -7.454 C -106.29 -7.054 -105.99 -6.754 -105.69 -6.654 L -105.69 -1.254 C -105.69 -0.554 -106.29 0.046 -106.99 0.046 C -107.69 0.046 -108.29 -0.554 -108.29 -1.254 C -108.29 -1.454 -108.29 -1.554 -108.19 -1.754 L -108.09 -1.754 L -107.69 -1.354 L -107.89 -3.754 L -108.59 -2.054 C -108.79 -1.554 -108.79 -1.254 -108.79 -1.254 C -108.79 -0.254 -107.99 0.546 -106.99 0.546 C -105.99 0.546 -105.19 -0.254 -105.19 -1.254 L -105.19 -6.654 C -104.79 -6.754 -104.49 -7.154 -104.49 -7.454 C -104.49 -7.854 -104.69 -8.154 -105.09 -8.254 L -105.09 -13.154 L -105.69 -13.154 L -105.69 -8.354 Z" style="stroke-width: 1;"/>
      <path d="M -103.39 1.146 C -103.39 1.146 -103.49 1.246 -103.49 1.346 C -103.49 1.446 -103.49 1.546 -103.39 1.546 L -99.69 3.346 C -99.49 3.446 -99.49 3.546 -99.49 3.646 C -99.49 3.846 -99.69 4.046 -99.89 4.046 L -103.99 4.046 C -104.09 4.046 -104.09 4.146 -104.09 4.146 C -104.09 4.146 -104.09 4.246 -104.09 4.246 C -99.89 7.546 -94.094 8.946 -88.894 8.846 L -88.894 -2.754 C -98.594 -2.854 -103.39 1.146 -103.39 1.146 Z M -97.494 3.346 C -98.394 3.346 -99.09 2.646 -99.09 1.746 C -99.09 0.846 -98.394 0.146 -97.494 0.146 C -96.594 0.146 -95.894 0.846 -95.894 1.746 C -95.994 2.646 -96.694 3.346 -97.494 3.346 Z" style="stroke-width: 1;"/>
    </g>
    <line class="st3" x1="-116.83" y1="-25.943" x2="-6.431" y2="84.757" style="fill: none; stroke: rgb(252, 3, 3); stroke-miterlimit: 10; stroke-width: 10;"/>
  </g>
</svg>