<?xml version="1.0" encoding="utf-8"?>
<svg xmlns="http://www.w3.org/2000/svg" viewBox="0 0 123.931 123.576">
  <g transform="matrix(1, 0, 0, 1, 123.813705, 32.91745)">
    <path class="st0" d="M -14.631 90.84 C -6.431 90.84 0.169 84.24 0.169 76.14 L 0.169 -17.86 C 0.169 -26.06 -6.431 -32.66 -14.631 -32.66 L -108.63 -32.66 C -116.83 -32.76 -123.43 -26.16 -123.43 -17.96 L -123.43 76.04 C -123.43 84.24 -116.83 90.74 -108.73 90.74 C -108.63 90.84 -14.631 90.84 -14.631 90.84 Z" style="stroke-width: 1;"/>
    <path class="st1" d="M -106.1 -26.243 C -112.5 -26.243 -117.7 -21.143 -117.7 -14.743 L -117.7 72.957 C -117.7 79.257 -112.5 84.457 -106.2 84.457 L -17.196 84.457 C -10.796 84.457 -5.596 79.357 -5.596 72.957 L -5.596 -14.743 C -5.596 -21.043 -10.796 -26.243 -17.196 -26.243 C -17.296 -26.243 -106.1 -26.243 -106.1 -26.243 Z" style="fill: rgb(255, 255, 255); stroke-width: 1;"/>
    <line class="st3" x1="-116.83" y1="-25.943" x2="-6.431" y2="84.757" style="fill: none; stroke: rgb(252, 3, 3); stroke-miterlimit: 10; stroke-width: 10; visibility: hidden;"/>
  </g>
  <g id="Layer_1" style="" transform="matrix(4.131895, 0, 0, 4.093637, -157.186086, -194.004965)">
    <path d="M 60.839 65.148 C 60.339 65.148 59.939 65.248 59.539 65.448 C 59.139 65.648 58.739 65.748 58.239 65.748 C 57.739 65.748 57.339 65.648 56.939 65.448 C 56.539 65.248 56.039 65.148 55.639 65.148 C 55.139 65.148 54.739 65.248 54.339 65.448 C 53.939 65.648 53.539 65.748 53.039 65.748 C 52.539 65.748 52.139 65.648 51.739 65.448 C 51.339 65.248 50.839 65.148 50.439 65.148 C 49.939 65.148 49.539 65.248 49.139 65.448 C 48.739 65.648 48.339 65.748 47.839 65.748 C 47.339 65.748 46.939 65.648 46.539 65.448 C 46.139 65.248 45.739 65.148 45.239 65.148 C 44.739 65.148 44.239 65.248 43.839 65.448 C 43.439 65.648 43.039 65.748 42.539 65.748 L 42.539 67.648 C 43.039 67.648 43.439 67.548 43.839 67.348 C 44.239 67.148 44.739 67.048 45.139 67.048 C 45.539 67.048 46.039 67.148 46.439 67.348 C 46.739 67.448 47.139 67.548 47.539 67.648 L 45.939 69.248 C 45.439 68.948 44.739 68.948 44.339 69.448 L 42.539 71.248 C 42.039 71.748 42.039 72.548 42.539 73.148 C 43.039 73.648 43.839 73.648 44.439 73.148 L 46.239 71.348 C 46.639 70.948 46.739 70.348 46.439 69.848 L 48.639 67.448 C 48.739 67.448 48.939 67.448 49.039 67.348 C 49.439 67.148 49.939 67.048 50.339 67.048 C 50.839 67.048 51.239 67.148 51.639 67.348 C 52.039 67.548 52.439 67.648 52.939 67.648 C 53.439 67.648 53.839 67.548 54.239 67.348 C 54.639 67.148 55.139 67.048 55.539 67.048 C 56.039 67.048 56.439 67.148 56.839 67.348 C 57.239 67.548 57.639 67.648 58.139 67.648 C 58.639 67.648 59.039 67.548 59.439 67.348 C 59.839 67.148 60.339 67.048 60.739 67.048 C 61.239 67.048 61.639 67.148 62.039 67.348 C 62.439 67.548 62.839 67.648 63.339 67.648 L 63.339 65.748 C 62.839 65.748 62.439 65.648 62.039 65.448 C 61.739 65.248 61.339 65.148 60.839 65.148 Z" style="stroke-width: 1;"/>
    <path d="M 61.739 55.648 L 63.539 53.848 C 64.039 53.348 64.039 52.548 63.539 51.948 C 63.039 51.448 62.239 51.448 61.739 51.948 L 59.939 53.748 C 59.539 54.148 59.439 54.848 59.739 55.348 L 57.439 57.648 L 52.939 55.948 C 52.839 55.848 52.739 55.848 52.539 55.748 C 51.539 55.448 50.539 56.048 50.239 57.048 L 48.839 61.748 C 48.839 61.848 48.839 61.848 48.839 61.848 L 42.539 61.848 L 42.539 64.448 C 42.839 64.448 43.239 64.348 43.539 64.248 C 44.039 64.048 44.639 63.848 45.139 63.848 C 45.639 63.848 46.239 63.948 46.739 64.248 C 47.039 64.348 47.439 64.448 47.739 64.448 C 48.039 64.448 48.439 64.348 48.739 64.248 C 49.239 64.048 49.839 63.848 50.339 63.848 C 50.939 63.848 51.439 63.948 51.939 64.248 C 52.239 64.348 52.639 64.448 52.939 64.448 C 53.239 64.448 53.639 64.348 53.939 64.248 C 54.439 64.048 55.039 63.848 55.539 63.848 C 56.139 63.848 56.639 63.948 57.139 64.248 C 57.439 64.348 57.839 64.448 58.139 64.448 C 58.439 64.448 58.839 64.348 59.139 64.248 C 59.639 64.048 60.239 63.848 60.739 63.848 C 60.839 63.848 61.239 63.848 61.639 63.648 C 62.339 63.348 62.539 63.148 63.139 62.848 C 63.639 62.548 64.039 61.948 62.939 61.948 C 62.639 61.948 54.039 61.948 54.039 61.948 L 56.639 59.348 L 57.139 59.448 C 57.539 59.648 58.039 59.348 58.239 58.948 C 58.339 58.648 58.239 58.248 58.039 58.048 L 60.239 55.848 C 60.739 56.148 61.339 56.048 61.739 55.648 Z M 53.239 61.948 L 52.639 61.948 L 53.739 58.248 L 56.039 59.048 L 53.239 61.948 Z" style="stroke-width: 1;"/>
    <path d="M 53.139 53.548 L 52.939 54.048 C 52.739 54.348 52.439 54.548 52.139 54.548 L 51.539 54.548 C 51.839 55.048 52.439 55.348 53.039 55.348 C 54.039 55.348 54.839 54.548 54.839 53.548 L 53.139 53.548 C 53.239 53.548 53.239 53.548 53.139 53.548 Z" style="stroke-width: 1;"/>
    <path d="M 52.139 54.148 C 52.339 54.148 52.539 54.048 52.539 53.848 L 52.739 53.448 C 52.839 53.248 53.039 53.148 53.239 53.148 L 55.039 53.148 C 54.839 52.148 54.039 51.448 52.939 51.448 C 51.739 51.448 50.839 52.448 50.839 53.648 C 50.839 53.848 50.839 54.048 50.939 54.248 L 52.139 54.248 L 52.139 54.148 Z" style="stroke-width: 1;"/>
  </g>
</svg>