<?xml version="1.0" encoding="utf-8"?>
<svg xmlns="http://www.w3.org/2000/svg" viewBox="0 0 123.931 123.576">
  <g transform="matrix(1, 0, 0, 1, 123.813705, 32.91745)">
    <path class="st0" d="M -14.631 90.84 C -6.431 90.84 0.169 84.24 0.169 76.14 L 0.169 -17.86 C 0.169 -26.06 -6.431 -32.66 -14.631 -32.66 L -108.63 -32.66 C -116.83 -32.76 -123.43 -26.16 -123.43 -17.96 L -123.43 76.04 C -123.43 84.24 -116.83 90.74 -108.73 90.74 C -108.63 90.84 -14.631 90.84 -14.631 90.84 Z" style="stroke-width: 1;"/>
    <path class="st1" d="M -106.1 -26.243 C -112.5 -26.243 -117.7 -21.143 -117.7 -14.743 L -117.7 72.957 C -117.7 79.257 -112.5 84.457 -106.2 84.457 L -17.196 84.457 C -10.796 84.457 -5.596 79.357 -5.596 72.957 L -5.596 -14.743 C -5.596 -21.043 -10.796 -26.243 -17.196 -26.243 C -17.296 -26.243 -106.1 -26.243 -106.1 -26.243 Z" style="fill: rgb(255, 255, 255); stroke-width: 1;"/>
    <line class="st3" x1="-116.83" y1="-25.943" x2="-6.431" y2="84.757" style="fill: none; stroke: rgb(252, 3, 3); stroke-miterlimit: 10; stroke-width: 10; visibility: hidden;"/>
    <g id="Layer_1" style="" transform="matrix(4.537581, 0, 0, 4.448162, 295.87098, -239.119926)">
      <path d="M -69.835 51.247 L -76.835 51.247 L -78.835 51.247 L -78.835 69.247 L -76.835 69.247 L -76.835 58.247 L -69.835 58.247 L -69.835 69.247 L -67.835 69.247 L -67.835 51.247 L -69.835 51.247 Z M -69.835 57.247 L -76.835 57.247 L -76.835 56.247 L -69.835 56.247 L -69.835 57.247 Z M -69.835 55.247 L -76.835 55.247 L -76.835 54.247 L -69.835 54.247 L -69.835 55.247 Z M -69.835 53.247 L -76.835 53.247 L -76.835 52.247 L -69.835 52.247 L -69.835 53.247 Z" style="stroke-width: 1;"/>
      <g transform="matrix(1, 0, 0, 1, -89.834559, 49.247461)">
        <path d="M5.6,4.6C6.4,4.6,7,3.9,7,3.1c0-0.8-0.7-1.5-1.5-1.5c-0.8,0-1.5,0.7-1.5,1.5C4.1,3.9,4.8,4.6,5.6,4.6z"/>
        <path d="M3.1,4.8C3.1,4.6,3,4.4,2.8,4.3L1.6,4C1.3,4,1.1,4.1,1,4.3L0,8.6C0,8.8,0.1,9.1,0.3,9.1l1.2,0.3C1.8,9.5,2,9.3,2.1,9.1 L3.1,4.8z"/>
        <path d="M0.5,19.1c0,0.1,0,0.1,0,0.2c0,0.6,0.5,1,1,1c0.5,0,0.9-0.3,1-0.7l1.8-7.4L6,19.6c0.1,0.5,0.5,0.8,1,0.8c0.6,0,1-0.5,1-1 c0-0.1,0-0.2,0-0.2L5.7,9.4l0.2-0.9L6,9.2c0.1,0.4,0.5,0.5,0.5,0.5L9,10.3c0,0,0.1,0,0.1,0c0.4,0,0.7-0.3,0.7-0.7 c0-0.3-0.2-0.6-0.5-0.7L7.2,8.4L6.6,6.1C6.4,4.8,5.1,4.8,5.1,4.8C3.9,4.8,3.6,6,3.6,6L0.5,19.1z"/>
      </g>
    </g>
  </g>
</svg>