<?xml version="1.0" encoding="utf-8"?>
<svg xmlns="http://www.w3.org/2000/svg" viewBox="0 0 123.575 123.219">
  <g transform="matrix(1, 0, 0, 1, 123.813705, 32.91745)">
    <path class="st0" d="M -14.631 90.84 C -6.431 90.84 0.169 84.24 0.169 76.14 L 0.169 -17.86 C 0.169 -26.06 -6.431 -32.66 -14.631 -32.66 L -108.63 -32.66 C -116.83 -32.76 -123.43 -26.16 -123.43 -17.96 L -123.43 76.04 C -123.43 84.24 -116.83 90.74 -108.73 90.74 C -108.63 90.84 -14.631 90.84 -14.631 90.84 Z" style="stroke-width: 1; fill: rgb(255, 0, 0);"/>
    <path class="st1" d="M -106.1 -26.243 C -112.5 -26.243 -117.7 -21.143 -117.7 -14.743 L -117.7 72.957 C -117.7 79.257 -112.5 84.457 -106.2 84.457 L -17.196 84.457 C -10.796 84.457 -5.596 79.357 -5.596 72.957 L -5.596 -14.743 C -5.596 -21.043 -10.796 -26.243 -17.196 -26.243 C -17.296 -26.243 -106.1 -26.243 -106.1 -26.243 Z" style="fill: rgb(255, 255, 255); stroke-width: 1;"/>
    <g id="Layer_1" transform="matrix(4.038461, 0, 0, 4.545455, -592.348863, -240.953425)">
      <path d="M 141.718 70.322 C 141.218 70.322 140.818 70.222 140.418 70.022 C 140.018 69.822 139.518 69.222 139.118 69.222 C 138.618 69.222 138.218 69.822 137.818 70.022 C 137.418 70.222 137.018 70.322 136.518 70.322 C 136.018 70.322 135.618 70.222 135.218 70.022 C 134.818 69.822 134.318 69.222 133.918 69.222 C 133.418 69.222 133.018 69.822 132.618 70.022 C 132.218 70.222 131.818 70.322 131.318 70.322 C 130.818 70.322 130.418 70.222 130.018 70.022 C 129.618 69.822 129.218 69.322 128.718 69.322 C 128.218 69.322 127.818 69.922 127.418 70.122 C 127.018 70.222 126.518 70.322 126.118 70.322 C 125.618 70.322 125.218 70.222 124.818 70.022 C 124.418 69.822 123.918 69.322 123.518 69.322 C 123.018 69.322 122.618 69.922 122.218 70.122 C 121.818 70.222 121.318 70.322 120.918 70.322 L 120.918 68.422 C 121.418 68.422 121.818 68.322 122.218 68.122 C 122.518 67.922 123.018 67.322 123.518 67.322 C 124.018 67.322 124.418 67.922 124.818 68.122 C 125.218 68.322 125.618 68.422 126.118 68.422 C 126.618 68.422 127.018 68.322 127.418 68.122 C 127.818 67.922 128.218 67.322 128.718 67.322 C 129.218 67.322 129.618 67.922 130.018 68.122 C 130.418 68.322 130.818 68.422 131.318 68.422 C 131.818 68.422 132.218 68.322 132.618 68.122 C 133.018 67.922 133.518 67.322 133.918 67.322 C 134.418 67.322 134.818 67.922 135.218 68.122 C 135.618 68.322 136.018 68.422 136.518 68.422 C 137.018 68.422 137.418 68.322 137.818 68.122 C 138.218 67.922 138.718 67.322 139.118 67.322 C 139.618 67.322 140.018 67.922 140.418 68.122 C 140.818 68.322 141.218 68.422 141.718 68.422 L 141.718 70.322 L 141.718 70.322 Z" style="stroke-width: 1;"/>
      <path d="M 130.818 50.922 C 131.518 50.922 132.118 50.322 132.118 49.622 C 132.118 48.922 131.518 48.322 130.818 48.322 C 130.118 48.322 129.518 48.922 129.518 49.622 C 129.518 50.322 130.118 50.922 130.818 50.922 Z" style="stroke-width: 1;"/>
      <path d="M 135.318 66.822 L 136.518 66.822 L 135.118 61.322 C 135.218 61.322 135.318 61.322 135.418 61.322 C 136.118 61.122 136.518 60.422 136.418 59.722 L 135.618 56.522 C 135.518 55.922 134.918 55.522 134.318 55.522 L 132.218 55.522 L 132.218 52.722 C 132.218 52.022 131.518 51.422 130.818 51.422 C 130.118 51.422 129.418 52.022 129.418 52.722 L 129.418 56.822 C 129.418 56.922 129.418 56.922 129.418 57.022 L 128.618 57.022 L 127.818 52.222 C 127.718 51.922 127.418 51.722 127.118 51.722 C 126.718 51.822 126.518 52.122 126.618 52.422 L 127.518 57.722 C 127.618 58.122 127.818 58.322 128.118 58.322 L 128.318 58.322 L 126.118 66.922 L 127.318 66.922 L 128.018 64.322 L 134.618 64.322 L 135.318 66.822 Z M 133.118 58.322 L 133.618 60.422 L 129.018 60.422 L 129.518 58.322 L 133.118 58.322 Z M 128.218 63.322 L 128.718 61.322 L 133.818 61.322 L 134.318 63.322 L 128.218 63.322 Z" style="stroke-width: 1;"/>
    </g>
    <line class="st3" x1="-116.83" y1="-25.943" x2="-6.431" y2="84.757" style="fill: none; stroke: rgb(252, 3, 3); stroke-miterlimit: 10; stroke-width: 10;"/>
    <path d="M -61.592 -5.305 L -65.241 -5.305 C -67.978 -5.305 -70.259 -7.407 -70.259 -9.93 L -70.259 -13.294 C -70.259 -15.817 -67.978 -17.92 -65.241 -17.92 C -65.241 -17.92 -65.241 -17.92 -65.241 -17.92 L -61.592 -17.92 C -58.856 -17.92 -56.575 -15.817 -56.575 -13.294 L -56.575 -9.93 C -56.575 -7.407 -58.856 -5.305 -61.592 -5.305 Z" style="stroke-width: 1; visibility: hidden;"/>
    <polygon points="-70.259 24.131 -56.575 24.131 -56.575 7.311 -52.014 7.311 -52.014 19.926 -47.452 19.926 -47.452 3.106 -56.575 -1.099 -70.259 -1.099 -79.381 3.106 -79.381 19.926 -74.82 19.926 -74.82 7.311 -70.259 7.311" style="stroke-width: 1; visibility: hidden;"/>
    <path d="M -10.962 71.649 L -13.699 62.818 C -29.664 64.501 -45.172 65.342 -61.136 65.342 C -76.644 65.342 -92.609 64.501 -108.12 62.818 L -111.31 71.649 C -94.433 73.331 -78.013 74.593 -61.136 74.593 C -44.26 74.593 -27.839 73.331 -10.962 71.649 Z" style="stroke-width: 1; visibility: hidden;"/>
    <path d="M -102.64 46.418 L -105.38 55.249 C -91.24 56.511 -76.644 57.352 -61.136 57.352 C -45.628 57.352 -31.032 56.511 -16.892 55.249 L -19.629 46.418 C -33.313 47.68 -47.452 48.521 -61.136 48.521 C -74.82 48.521 -88.96 47.68 -102.64 46.418 Z" style="stroke-width: 1; visibility: hidden;"/>
    <path d="M -61.136 40.531 C -48.365 40.531 -35.593 40.111 -22.822 38.849 L -25.558 30.018 C -36.962 30.859 -48.821 31.701 -61.136 31.701 C -73.452 31.701 -84.855 30.859 -96.258 30.018 L -98.995 38.849 C -87.135 39.69 -74.364 40.531 -61.136 40.531 Z" style="stroke-width: 1; visibility: hidden;"/>
  </g>
</svg>