<?xml version="1.0" encoding="utf-8"?>
<svg xmlns="http://www.w3.org/2000/svg" viewBox="0 0 123.931 123.576">
  <g transform="matrix(1, 0, 0, 1, 123.813705, 32.91745)">
    <path class="st0" d="M -14.631 90.84 C -6.431 90.84 0.169 84.24 0.169 76.14 L 0.169 -17.86 C 0.169 -26.06 -6.431 -32.66 -14.631 -32.66 L -108.63 -32.66 C -116.83 -32.76 -123.43 -26.16 -123.43 -17.96 L -123.43 76.04 C -123.43 84.24 -116.83 90.74 -108.73 90.74 C -108.63 90.84 -14.631 90.84 -14.631 90.84 Z" style="stroke-width: 1;"/>
    <path class="st1" d="M -106.1 -26.243 C -112.5 -26.243 -117.7 -21.143 -117.7 -14.743 L -117.7 72.957 C -117.7 79.257 -112.5 84.457 -106.2 84.457 L -17.196 84.457 C -10.796 84.457 -5.596 79.357 -5.596 72.957 L -5.596 -14.743 C -5.596 -21.043 -10.796 -26.243 -17.196 -26.243 C -17.296 -26.243 -106.1 -26.243 -106.1 -26.243 Z" style="fill: rgb(255, 255, 255); stroke-width: 1;"/>
    <line class="st3" x1="-116.83" y1="-25.943" x2="-6.431" y2="84.757" style="fill: none; stroke: rgb(252, 3, 3); stroke-miterlimit: 10; stroke-width: 10; visibility: hidden;"/>
    <g id="Layer_1" style="" transform="matrix(3.985012, 0, 0, 3.83631, 338.29484, 69.040552)">
      <path d="M -101.26 -6.471 L -101.26 -0.871 C -101.26 -0.871 -101.06 0.529 -102.76 0.529 L -109.56 0.529 C -111.26 0.529 -111.06 -0.871 -111.06 -0.871 L -111.06 -6.471 L -101.26 -6.471 Z" style="stroke-width: 1;"/>
      <path d="M -104.36 -20.871 C -104.66 -21.171 -105.06 -21.471 -105.56 -21.471 L -107.76 -21.471 C -108.46 -21.471 -109.06 -20.871 -109.06 -20.071 C -109.06 -19.771 -108.96 -19.571 -108.86 -19.371 C -108.26 -18.471 -107.86 -17.371 -107.86 -16.171 C -107.86 -14.171 -108.96 -12.371 -110.56 -11.371 C -110.86 -11.171 -111.06 -10.871 -111.06 -10.471 L -111.06 -8.471 L -101.16 -8.471 L -101.16 -14.771 C -101.16 -14.771 -101.16 -15.371 -101.56 -16.071 L -104.36 -20.871 Z" style="stroke-width: 1;"/>
      <path d="M -96.564 -20.871 C -96.264 -21.171 -95.864 -21.471 -95.364 -21.471 L -93.164 -21.471 C -92.364 -21.471 -91.764 -20.871 -91.764 -20.071 C -91.764 -19.771 -91.864 -19.571 -91.964 -19.371 C -92.564 -18.471 -92.964 -17.371 -92.964 -16.171 C -92.964 -14.171 -91.864 -12.371 -90.264 -11.371 C -89.964 -11.171 -89.764 -10.871 -89.764 -10.471 L -89.764 -8.471 L -99.66 -8.471 L -99.66 -14.771 C -99.66 -14.771 -99.66 -15.371 -99.26 -16.071 L -96.564 -20.871 Z" style="stroke-width: 1;"/>
      <path d="M -89.764 -6.471 L -89.764 -0.871 C -89.764 -0.871 -89.564 0.529 -91.264 0.529 L -98.064 0.529 C -99.76 0.529 -99.56 -0.871 -99.56 -0.871 L -99.56 -6.471 L -89.764 -6.471 Z" style="stroke-width: 1;"/>
      <path d="M -99.66 -6.871 C -99.36 -6.871 -99.16 -7.071 -99.16 -7.371 C -99.16 -7.671 -99.36 -7.871 -99.66 -7.871 L -101.26 -7.871 C -101.56 -7.871 -101.76 -7.671 -101.76 -7.371 C -101.76 -7.071 -101.56 -6.871 -101.26 -6.871 L -99.66 -6.871 Z" style="stroke-width: 1;"/>
    </g>
  </g>
</svg>