<?xml version="1.0" encoding="utf-8"?>
<svg xmlns="http://www.w3.org/2000/svg" viewBox="0 0 123.932 123.932">
  <g transform="matrix(1, 0, 0, 1, 123.813705, 32.91745)">
    <path class="st0" d="M -14.631 90.84 C -6.431 90.84 0.169 84.24 0.169 76.14 L 0.169 -17.86 C 0.169 -26.06 -6.431 -32.66 -14.631 -32.66 L -108.63 -32.66 C -116.83 -32.76 -123.43 -26.16 -123.43 -17.96 L -123.43 76.04 C -123.43 84.24 -116.83 90.74 -108.73 90.74 C -108.63 90.84 -14.631 90.84 -14.631 90.84 Z" style="stroke-width: 1;"/>
    <path class="st1" d="M -106.1 -26.243 C -112.5 -26.243 -117.7 -21.143 -117.7 -14.743 L -117.7 72.957 C -117.7 79.257 -112.5 84.457 -106.2 84.457 L -17.196 84.457 C -10.796 84.457 -5.596 79.357 -5.596 72.957 L -5.596 -14.743 C -5.596 -21.043 -10.796 -26.243 -17.196 -26.243 C -17.296 -26.243 -106.1 -26.243 -106.1 -26.243 Z" style="fill: rgb(255, 255, 255); stroke-width: 1;"/>
    <text style="font-family: Arial, sans-serif; font-size: 28px; font-weight: 700; white-space: pre; visibility: hidden;" transform="matrix(3.117827, 0, 0, 3.622723, 161.590856, 16.823082)" x="-89.643" y="14.443">VS</text>
    <g transform="matrix(4.853253, 0, 0, 5.024656, -113.493898, -22.156527)" style="visibility: hidden;">
      <path d="M10,14c-1.1,0-2,0.9-2,2c0,1.1,0.9,2,2,2s2-0.9,2-2C12,14.9,11.1,14,10,14z M10,17c-0.6,0-1-0.4-1-1c0-0.6,0.4-1,1-1 s1,0.4,1,1C11,16.6,10.6,17,10,17z"/>
      <path d="M21.3,15H19V8.1c0-2-1.2-4.1-3.2-4.1H3.6C1.6,4,0,6.1,0,8.1l0,4.6C0,14.1,1.2,16,2.7,16H7c0-1.7,1.3-3,3-3s3,1.3,3,3h9 C22,15.6,21.7,15,21.3,15z M10,8c0,0.5-0.5,1-1,1H4C3.5,9,3,8.5,3,8V7c0-0.5,0.5-1,1-1h5c0.5,0,1,0.5,1,1V8z M17,8c0,0.5-0.5,1-1,1 h-2c-0.5,0-1-0.5-1-1V7c0-0.5,0.5-1,1-1h2c0.5,0,1,0.5,1,1V8z"/>
    </g>
    <line class="st3" x1="-116.83" y1="-25.943" x2="-6.431" y2="84.757" style="fill: none; stroke: rgb(252, 3, 3); stroke-miterlimit: 10; stroke-width: 10; visibility: hidden;"/>
  </g>
  <g id="Layer_1" transform="matrix(4.760684, 0, 0, 4.628867, -32.046887, -36.876603)" style="">
    <path d="M 17.103 14.268 C 17.603 13.968 18.103 13.768 18.703 13.668 L 18.703 10.068 L 8.703 13.168 L 8.703 32.068 L 18.703 29.068 L 18.703 14.968 C 18.403 15.068 18.103 15.168 17.803 15.368 L 17.103 14.268 Z M 9.903 23.668 L 9.903 22.468 C 9.903 22.468 10.703 22.468 11.503 22.068 L 12.003 23.068 C 10.903 23.668 9.903 23.668 9.903 23.668 Z M 13.003 22.468 L 12.203 21.468 C 12.603 21.168 13.003 20.668 13.303 20.168 L 14.403 20.768 C 14.003 21.468 13.503 22.068 13.003 22.468 Z M 14.803 19.868 L 13.703 19.368 C 13.903 18.668 14.203 18.068 14.403 17.568 L 15.503 18.068 C 15.303 18.568 15.103 19.168 14.803 19.868 Z M 16.003 17.268 L 14.903 16.568 C 15.303 15.868 15.703 15.368 16.203 14.868 L 17.003 15.768 C 16.703 16.168 16.303 16.668 16.003 17.268 Z" style="stroke-width: 1;"/>
    <path d="M 19.703 10.068 L 19.703 28.968 L 30.703 32.068 L 30.703 13.168 L 19.703 10.068 Z M 27.403 20.868 C 27.403 21.068 27.403 21.368 27.303 21.568 L 26.103 21.368 C 26.103 21.268 26.103 21.068 26.103 20.968 C 26.103 20.568 26.003 20.168 25.903 19.668 L 27.103 19.368 C 27.403 19.868 27.403 20.368 27.403 20.868 Z M 26.903 18.268 L 25.803 18.768 C 25.603 18.168 25.303 17.668 24.903 17.168 L 25.903 16.468 C 26.303 16.968 26.603 17.668 26.903 18.268 Z M 22.003 15.168 C 21.503 14.968 20.903 14.868 20.203 14.868 L 20.303 13.668 C 21.003 13.668 21.703 13.868 22.403 14.068 L 22.003 15.168 Z M 23.403 14.368 C 24.003 14.668 24.603 15.068 25.203 15.568 L 24.303 16.468 C 23.903 16.068 23.403 15.668 22.903 15.468 L 23.403 14.368 Z M 27.103 27.368 L 26.403 25.768 L 25.603 26.868 L 24.003 26.268 L 25.403 24.568 L 24.003 22.068 L 25.803 22.668 L 26.403 24.068 L 27.103 23.168 L 28.703 23.768 L 27.403 25.268 L 28.803 27.968 L 27.103 27.368 Z" style="stroke-width: 1;"/>
  </g>
</svg>