<?xml version="1.0" encoding="utf-8"?>
<svg xmlns="http://www.w3.org/2000/svg" viewBox="0 0 123.931 123.576">
  <g transform="matrix(1, 0, 0, 1, 123.813705, 32.91745)">
    <path class="st0" d="M -14.631 90.84 C -6.431 90.84 0.169 84.24 0.169 76.14 L 0.169 -17.86 C 0.169 -26.06 -6.431 -32.66 -14.631 -32.66 L -108.63 -32.66 C -116.83 -32.76 -123.43 -26.16 -123.43 -17.96 L -123.43 76.04 C -123.43 84.24 -116.83 90.74 -108.73 90.74 C -108.63 90.84 -14.631 90.84 -14.631 90.84 Z" style="stroke-width: 1;"/>
    <path class="st1" d="M -106.1 -26.243 C -112.5 -26.243 -117.7 -21.143 -117.7 -14.743 L -117.7 72.957 C -117.7 79.257 -112.5 84.457 -106.2 84.457 L -17.196 84.457 C -10.796 84.457 -5.596 79.357 -5.596 72.957 L -5.596 -14.743 C -5.596 -21.043 -10.796 -26.243 -17.196 -26.243 C -17.296 -26.243 -106.1 -26.243 -106.1 -26.243 Z" style="fill: rgb(255, 255, 255); stroke-width: 1;"/>
    <line class="st3" x1="-116.83" y1="-25.943" x2="-6.431" y2="84.757" style="fill: none; stroke: rgb(252, 3, 3); stroke-miterlimit: 10; stroke-width: 10; visibility: hidden;"/>
    <g id="Layer_1" transform="matrix(4.490237, 0, 0, 4.908593, 328.153544, -48.772031)" style="visibility: hidden;">
      <path d="M -78.894 11.048 C -77.494 11.348 -75.894 12.648 -75.894 14.148 L -75.894 25.048 C -75.894 25.448 -76.494 26.048 -76.894 26.048 L -82.894 26.048 C -83.294 26.048 -83.894 25.448 -83.894 25.048 L -83.894 14.148 C -83.894 12.648 -82.294 11.348 -80.894 11.048 L -80.894 6.048 L -78.894 6.048 L -78.894 11.048 Z" style="stroke-width: 1;"/>
      <path d="M -87.494 25.348 L -91.194 24.648 L -91.194 17.748 L -85.694 12.148 L -97.894 12.148 L -92.394 17.748 L -92.394 24.648 L -96.094 25.348 C -96.094 25.348 -96.494 25.448 -96.494 26.048 L -86.994 26.048 C -87.094 25.448 -87.494 25.348 -87.494 25.348 Z" style="stroke-width: 1;"/>
    </g>
  </g>
  <g id="svg-1" transform="matrix(3.743232, 0.023814, -0.023599, 3.70928, -44.607692, 3.44226)" style="transform-origin: 161.069px 59.5543px;">
    <g id="svg-2" transform="matrix(0.303392, 0, 0, 0.309532, 126.465215, 42.029906)">
      <g transform="matrix(1, 0, 0, 1, 150.6031, 39.111812)">
        <g id="svg-3" transform="matrix(1, 0, 0, 1, -150.602993, -39.111999)">
          <path d="M 150.415 52.64 C 149.415 52.64 148.615 51.84 148.615 50.84 C 148.615 49.84 149.415 49.04 150.415 49.04 C 151.415 49.04 152.215 49.84 152.215 50.84 C 152.215 51.84 151.415 52.64 150.415 52.64 Z" style="stroke-width: 1; visibility: hidden;"/>
          <path d="M 158.815 56.04 C 158.815 56.04 156.515 56.04 156.015 56.04 C 155.715 55.74 153.915 54.14 153.515 53.64 C 153.515 53.64 153.315 53.44 153.315 53.44 C 152.915 53.24 152.415 53.04 151.815 53.04 L 148.115 53.04 C 146.715 53.04 145.515 54.14 145.515 55.34 L 145.515 60.84 C 145.515 61.94 146.915 61.94 146.915 60.84 L 146.915 55.44 L 147.915 55.44 L 147.915 70.04 C 147.915 70.64 148.315 71.04 148.915 71.04 C 149.515 71.04 149.915 70.54 149.915 70.04 L 149.915 62.04 L 150.915 62.04 L 150.915 70.04 C 150.915 70.64 151.415 71.04 151.915 71.04 C 152.515 71.04 152.915 70.54 152.915 70.04 L 152.915 55.04 L 155.215 57.24 C 155.315 57.34 155.515 57.44 155.715 57.44 L 158.815 57.44 C 159.215 57.44 159.515 57.14 159.515 56.74 C 159.515 56.34 159.215 56.04 158.815 56.04 Z" style="stroke-width: 1; visibility: hidden;"/>
          <path d="M 206.648 45.309 L 193.735 54.9 C 193.442 55.113 193.442 55.54 193.735 55.753 C 194.029 55.966 194.616 55.966 194.909 55.753 L 197.844 53.621 L 197.844 55.966 L 194.322 58.524 C 194.029 58.737 194.029 58.95 194.322 59.163 C 194.616 59.376 194.909 59.376 195.203 59.163 L 197.844 57.245 L 197.844 63 C 197.844 63.213 198.137 63.426 198.431 63.426 C 198.724 63.426 199.018 63.213 199.018 63 L 199.018 60.016 L 201.072 61.508 C 201.072 61.508 201.366 61.508 201.659 61.508 C 201.659 61.508 201.659 61.295 201.659 61.081 L 199.311 59.376 L 199.311 52.556 L 207.822 46.374 L 206.648 45.309 Z" style="stroke-width: 1; visibility: hidden;"/>
          <path d="M 99.575 32.898 C 99.951 32.552 99.951 32.205 99.575 31.859 C 99.199 31.512 98.823 31.512 98.447 31.859 L 94.308 35.671 L 94.308 31.859 C 94.308 31.512 93.932 31.512 93.932 31.512 C 93.556 31.512 93.556 31.859 93.556 31.859 L 93.556 36.018 L 83.398 45.376 L 74.745 45.376 C 74.745 45.376 83.774 37.058 84.151 36.711 C 84.527 36.018 84.527 35.325 84.527 35.325 L 84.527 30.819 L 92.051 25.273 L 97.318 25.273 C 97.694 25.273 97.694 24.927 97.694 24.927 C 97.694 24.58 97.318 24.58 97.318 24.58 L 92.051 24.58 L 96.942 21.114 C 97.318 20.768 97.318 20.421 96.942 20.074 C 96.566 19.728 96.189 19.728 95.813 20.074 L 88.289 25.273 L 88.289 17.648 C 88.289 17.302 87.913 16.955 87.536 16.955 C 87.16 16.955 86.784 17.302 86.784 17.648 L 86.784 26.313 L 83.022 29.086 L 83.022 23.887 C 83.022 23.54 82.646 23.194 82.269 23.194 C 81.893 23.194 81.517 23.54 81.517 23.887 L 81.517 33.938 L 63.835 50.228 L 66.092 52.308 L 71.359 47.456 L 93.18 47.456 C 93.932 47.456 94.308 47.109 94.308 46.416 C 94.308 45.723 93.932 45.376 93.18 45.376 L 85.279 45.376 L 89.418 41.563 L 96.566 41.563 C 96.942 41.563 97.318 41.217 97.318 40.87 C 97.318 40.524 96.942 40.177 96.566 40.177 L 90.922 40.177 L 99.575 32.898 Z" style="stroke-width: 1;"/>
        </g>
        <path d="M -89.52 27.321 C -89.52 24.52 -80.705 22.379 -69.569 22.379 C -58.434 22.379 -49.619 24.52 -49.619 27.321 C -49.619 30.121 -58.434 32.263 -69.569 32.263 C -80.705 32.263 -89.52 30.121 -89.52 27.321 Z M -69.569 28.474 C -65.162 28.474 -61.682 27.65 -61.682 26.497 C -61.682 25.344 -65.162 24.52 -69.569 24.52 C -73.977 24.52 -77.457 25.509 -77.457 26.497 C -77.457 27.486 -73.977 28.474 -69.569 28.474 Z" style=""/>
        <path d="M -49.619 30.031 C -51.707 32.584 -58.898 33.945 -69.569 33.945 C -80.241 33.945 -87.432 32.923 -89.52 30.031 L -89.52 53.515 C -89.288 56.408 -80.473 58.62 -69.569 58.62 C -58.666 58.62 -49.851 56.408 -49.619 53.685 L -49.619 30.031 Z" style=""/>
        <path d="M -46.371 53.513 L -38.948 55.325 L -38.948 28.474 L -47.299 26.168 C -47.299 26.168 -46.371 26.991 -46.371 27.65 C -46.139 29.298 -46.371 53.513 -46.371 53.513 Z" style="visibility: hidden;"/>
        <path d="M -82.825 26.97 C -82.825 25.366 -76.714 24.138 -68.994 24.138 C -61.276 24.138 -55.166 25.366 -55.166 26.97 C -55.166 28.575 -61.276 29.802 -68.994 29.802 C -76.714 29.802 -82.825 28.575 -82.825 26.97 Z M -68.994 27.631 C -65.939 27.631 -63.529 27.158 -63.529 26.497 C -63.529 25.837 -65.939 25.366 -68.994 25.366 C -72.049 25.366 -74.462 25.931 -74.462 26.497 C -74.462 27.064 -72.049 27.631 -68.994 27.631 Z" style="paint-order: fill; fill-rule: evenodd; stroke: rgb(255, 255, 255);"/>
        <path d="M -82.029 27.006 C -82.029 25.674 -76.153 24.654 -68.73 24.654 C -61.306 24.654 -55.428 25.674 -55.428 27.006 C -55.428 28.339 -61.306 29.359 -68.73 29.359 C -76.153 29.359 -82.029 28.339 -82.029 27.006 Z M -68.73 27.555 C -65.79 27.555 -63.471 27.163 -63.471 26.614 C -63.471 26.066 -65.79 25.674 -68.73 25.674 C -71.667 25.674 -73.986 26.143 -73.986 26.614 C -73.986 27.085 -71.667 27.555 -68.73 27.555 Z" style="stroke-width: 1;"/>
        <path d="M -98.762 53.055 C -98.762 50.255 -85.681 48.113 -69.156 48.113 C -52.635 48.113 -39.553 50.255 -39.553 53.055 C -39.553 55.856 -52.635 57.997 -69.156 57.997 C -85.681 57.997 -98.762 55.856 -98.762 53.055 Z M -69.156 54.208 C -62.617 54.208 -57.453 53.385 -57.453 52.232 C -57.453 51.079 -62.617 50.255 -69.156 50.255 C -75.698 50.255 -80.86 51.243 -80.86 52.232 C -80.86 53.22 -75.698 54.208 -69.156 54.208 Z" style="stroke-width: 1;"/>
      </g>
    </g>
    <path d="M 135.061 58.525 C 134.961 58.725 134.861 58.925 134.861 59.225 C 134.861 59.325 134.861 59.425 134.861 59.625 L 134.961 65.125 L 133.061 69.225 C 132.961 69.325 132.961 69.525 132.961 69.625 C 132.861 70.325 133.361 70.925 133.961 71.025 C 134.461 71.125 134.961 70.825 135.261 70.425 L 137.361 65.925 C 137.361 65.825 137.461 65.725 137.461 65.625 C 137.461 65.525 137.461 65.525 137.461 65.425 L 137.461 62.025 L 140.661 63.425 L 141.161 66.825 C 141.261 67.325 141.661 67.725 142.161 67.825 C 142.861 67.925 143.461 67.425 143.561 66.825 C 143.561 66.725 143.561 66.625 143.561 66.525 L 142.961 62.425 C 142.861 62.025 142.661 61.725 142.261 61.525 L 139.361 60.125 L 141.161 56.925 L 142.061 58.125 C 142.261 58.125 142.361 58.225 142.561 58.325 L 146.061 59.325 C 146.561 59.425 146.961 59.225 147.161 58.725 C 147.361 58.225 147.161 57.625 146.661 57.425 C 146.661 57.425 146.661 57.425 146.661 57.425 L 143.661 56.525 L 141.261 53.825 C 140.861 53.425 140.461 53.225 139.861 53.125 C 138.961 52.925 138.061 53.425 137.661 54.125 L 135.061 58.525 Z" style="stroke-width: 1;"/>
    <path d="M 145.061 66.525 L 144.861 68.225 L 138.861 69.725 L 138.961 70.725 L 153.561 70.725 C 154.061 70.725 154.461 70.325 154.461 69.825 L 154.461 50.125 L 152.461 49.625 L 151.261 54.825 L 149.361 55.625 L 147.661 60.425 L 149.261 64.125 L 148.761 65.525 L 145.061 66.525 Z" style="stroke-width: 1; visibility: hidden;"/>
    <ellipse transform="matrix(0.987085, -0.160198, 0.160198, 0.987085, 132.371201, 50.504064)" cx="8.5" cy="1.9" rx="1.9" ry="1.9" style="stroke-width: 1;"/>
    <path d="M 137.261 53.125 C 137.361 52.825 137.361 52.525 137.061 52.425 L 136.161 51.925 C 135.961 51.725 135.661 51.825 135.461 52.125 L 132.661 56.925 C 132.561 57.125 132.661 57.525 132.861 57.625 L 133.761 58.125 C 134.061 58.325 134.361 58.225 134.561 57.925 L 137.261 53.125 Z" style="stroke-width: 1; visibility: hidden;"/>
  </g>
</svg>