<?xml version="1.0" encoding="utf-8"?>
<svg xmlns="http://www.w3.org/2000/svg" viewBox="0 0 123.931 123.576">
  <g transform="matrix(1, 0, 0, 1, 123.813705, 32.91745)">
    <path class="st0" d="M -14.631 90.84 C -6.431 90.84 0.169 84.24 0.169 76.14 L 0.169 -17.86 C 0.169 -26.06 -6.431 -32.66 -14.631 -32.66 L -108.63 -32.66 C -116.83 -32.76 -123.43 -26.16 -123.43 -17.96 L -123.43 76.04 C -123.43 84.24 -116.83 90.74 -108.73 90.74 C -108.63 90.84 -14.631 90.84 -14.631 90.84 Z" style="stroke-width: 1;"/>
    <path class="st1" d="M -106.1 -26.243 C -112.5 -26.243 -117.7 -21.143 -117.7 -14.743 L -117.7 72.957 C -117.7 79.257 -112.5 84.457 -106.2 84.457 L -17.196 84.457 C -10.796 84.457 -5.596 79.357 -5.596 72.957 L -5.596 -14.743 C -5.596 -21.043 -10.796 -26.243 -17.196 -26.243 C -17.296 -26.243 -106.1 -26.243 -106.1 -26.243 Z" style="stroke-width: 1;"/>
    <line class="st3" x1="-116.83" y1="-25.943" x2="-6.431" y2="84.757" style="fill: none; stroke: rgb(252, 3, 3); stroke-miterlimit: 10; stroke-width: 10; visibility: hidden;"/>
    <g id="Layer_1" transform="matrix(3.879298, 0, 0, 3.57933, -178.855678, -116.726239)" style="">
      <path d="M 34.101 32.071 C 35.101 32.271 36.001 31.571 36.201 30.671 C 36.401 29.671 35.701 28.771 34.801 28.571 C 33.801 28.371 32.901 29.071 32.701 29.971 C 32.401 30.971 33.101 31.871 34.101 32.071 Z" style="stroke-width: 1; fill: rgb(255, 255, 255);"/>
      <path d="M 29.101 36.071 L 33.101 34.871 L 36.001 38.671 C 36.101 38.871 36.301 38.971 36.601 38.971 C 37.101 39.071 37.501 38.771 37.601 38.271 C 37.601 38.071 37.601 37.771 37.401 37.571 L 33.301 32.171 C 33.101 32.071 33.001 31.971 32.801 31.771 L 29.201 29.771 L 29.201 26.371 C 29.101 26.171 28.901 25.971 28.701 25.971 C 28.201 25.771 27.701 25.971 27.601 26.471 C 27.501 26.671 27.601 26.871 27.601 27.071 L 27.601 30.571 C 27.701 30.571 27.801 30.671 27.901 30.771 L 29.801 31.971 L 26.101 33.071 C 25.601 33.271 25.201 33.671 25.001 34.271 L 24.501 37.371 L 21.101 38.171 C 20.701 38.271 20.401 38.571 20.301 38.971 C 20.201 39.571 20.501 40.171 21.101 40.271 C 21.301 40.271 21.501 40.271 21.601 40.271 L 25.801 39.171 C 26.101 39.071 26.401 38.871 26.501 38.571 L 26.801 36.771 L 29.001 39.671 L 27.801 43.671 C 27.801 43.671 27.801 43.671 27.801 43.771 C 27.701 44.371 28.001 44.971 28.601 45.071 C 29.201 45.171 29.701 44.871 29.901 44.371 L 31.301 39.871 C 31.301 39.871 31.301 39.871 31.301 39.771 C 31.401 39.471 31.301 39.171 31.101 38.871 L 29.101 36.071 Z" style="stroke-width: 1; fill: rgb(255, 255, 255);"/>
      <polygon fill-rule="evenodd" clip-rule="evenodd" points="18.101 47.771 40.101 47.771 40.101 44.771 35.801 46.971 32.101 44.771 29.401 47.071 26.101 44.771 22.301 47.071 18.101 44.771" style="stroke-width: 1; visibility: hidden; fill: rgb(255, 255, 255);"/>
    </g>
    <g id="svg-1" style="" transform="matrix(1.353425, 0, 0, 1.29758, 16.301317, -9.164683)">
      <path d="M -61.153 46.277 C -65.264 46.277 -68.407 49.145 -68.407 52.896 L -68.407 61.5 L -53.899 61.5 L -53.899 52.896 C -53.899 49.366 -57.043 46.277 -61.153 46.277 Z" style="stroke-width: 1; fill: rgb(255, 255, 255);"/>
      <path d="M -28.972 50.172 C -34.97 50.172 -39.555 54.016 -39.555 59.043 L -39.555 70.574 L -18.389 70.574 L -18.389 59.043 C -18.389 54.312 -22.976 50.172 -28.972 50.172 Z" style="stroke-width: 1; fill: rgb(255, 255, 255);"/>
      <path d="M -88.062 44.069 C -91.282 44.069 -93.744 46.345 -93.744 49.321 L -93.744 56.148 L -82.38 56.148 L -82.38 49.321 C -82.38 46.52 -84.843 44.069 -88.062 44.069 Z" style="stroke-width: 1; fill: rgb(255, 255, 255);"/>
    </g>
  </g>
</svg>