<?xml version="1.0" encoding="utf-8"?>
<svg xmlns="http://www.w3.org/2000/svg" viewBox="0 0 124.644 124.288">
  <g transform="matrix(1, 0, 0, 1, 123.813705, 32.91745)">
    <path class="st0" d="M -14.631 90.84 C -6.431 90.84 0.169 84.24 0.169 76.14 L 0.169 -17.86 C 0.169 -26.06 -6.431 -32.66 -14.631 -32.66 L -108.63 -32.66 C -116.83 -32.76 -123.43 -26.16 -123.43 -17.96 L -123.43 76.04 C -123.43 84.24 -116.83 90.74 -108.73 90.74 C -108.63 90.84 -14.631 90.84 -14.631 90.84 Z" style="fill: rgb(255, 0, 0); stroke-width: 1;"/>
    <path class="st1" d="M -106.1 -26.243 C -112.5 -26.243 -117.7 -21.143 -117.7 -14.743 L -117.7 72.957 C -117.7 79.257 -112.5 84.457 -106.2 84.457 L -17.196 84.457 C -10.796 84.457 -5.596 79.357 -5.596 72.957 L -5.596 -14.743 C -5.596 -21.043 -10.796 -26.243 -17.196 -26.243 C -17.296 -26.243 -106.1 -26.243 -106.1 -26.243 Z" style="fill: rgb(255, 255, 255); stroke-width: 1;"/>
    <g transform="matrix(5.005239, 0, 0, 4.959392, -116.81138, -23.15886)" style="">
      <path d="M6.1,13.6L6,13.8L6.1,14l3.9,1c0.2,0.1,0.2,1,0,1H6.1L6,16.1v0.1c4.3,3.4,9.2,4.8,15,4.8V9C11,9,6.1,13.6,6.1,13.6z M13,14 h-1v-1h1V14z"/>
      <path d="M19,1c-3.3,0-5.7,1.5-9.3,4.5c-0.1,0-0.4-0.1-0.4-0.1c-0.6,0-1,0.5-1,1c0,0,0,0.2,0.1,0.3C8.1,6.8,5.3,9.5,5.3,9.5L3,12 c-0.2,0.2-0.7,0-1,0s-0.6,0-0.8-0.3c-0.2-0.2-0.3-0.5-0.3-0.8S1,10.3,1.3,10c0,0,0.2-0.1,0.3-0.2c0,0.2,0.1,0.9,0.1,0.9L4,8 L1.5,8.9C0.9,9.1,0.7,9.4,0.6,9.4c-0.8,0.7-0.9,1.8-0.1,2.9C2,12.9,1.4,12.8,3,13l1-1l1.8-1.8c0,0,2.9-2.8,3-2.8 c0.1,0,0.4,0.1,0.4,0.1c0.6,0,1-0.5,1-1c0,0,0-0.2,0-0.3C13.7,3.3,15.9,2,19,2c0.6,0,3,0,3,0V1H19z"/>
    </g>
    <line class="st3" x1="-116.83" y1="-25.943" x2="-6.431" y2="84.757" style="fill: none; stroke: rgb(252, 3, 3); stroke-miterlimit: 10; stroke-width: 10;"/>
  </g>
</svg>