<?xml version="1.0" encoding="utf-8"?>
<svg xmlns="http://www.w3.org/2000/svg" viewBox="0 0 124.644 125">
  <g transform="matrix(1, 0, 0, 1, 123.813705, 32.91745)">
    <path class="st0" d="M -14.631 90.84 C -6.431 90.84 0.169 84.24 0.169 76.14 L 0.169 -17.86 C 0.169 -26.06 -6.431 -32.66 -14.631 -32.66 L -108.63 -32.66 C -116.83 -32.76 -123.43 -26.16 -123.43 -17.96 L -123.43 76.04 C -123.43 84.24 -116.83 90.74 -108.73 90.74 C -108.63 90.84 -14.631 90.84 -14.631 90.84 Z" style="fill: rgb(255, 0, 0); stroke-width: 1;"/>
    <path class="st1" d="M -106.1 -26.243 C -112.5 -26.243 -117.7 -21.143 -117.7 -14.743 L -117.7 72.957 C -117.7 79.257 -112.5 84.457 -106.2 84.457 L -17.196 84.457 C -10.796 84.457 -5.596 79.357 -5.596 72.957 L -5.596 -14.743 C -5.596 -21.043 -10.796 -26.243 -17.196 -26.243 C -17.296 -26.243 -106.1 -26.243 -106.1 -26.243 Z" style="fill: rgb(255, 255, 255); stroke-width: 1;"/>
    <rect x="-70.914" y="5.299" fill-rule="evenodd" clip-rule="evenodd" width="28.921" height="4.807" style="stroke-width: 1;"/>
    <path d="M -77.181 22.604 L -87.303 22.123 C -91.159 22.123 -91.159 18.758 -91.159 18.758 L -114.3 18.758 L -114.3 12.99 L -111.89 12.99 C -111.89 12.99 -111.41 12.99 -111.41 13.47 L -110.93 14.913 L -41.989 14.913 C -41.025 14.913 -40.543 15.393 -40.061 15.874 L -35.722 19.72 L -14.996 19.72 C -7.283 20.2 -8.247 29.333 -8.247 29.333 L -8.247 67.786 L -41.025 67.786 L -41.025 40.869 L -48.737 44.234 C -53.08 47.118 -55.49 44.714 -55.49 44.714 L -75.735 28.371 C -79.109 25.487 -77.663 22.123 -77.181 22.604 Z M -64.648 23.084 L -53.562 32.217 L -43.917 27.89 C -47.773 27.41 -47.291 23.566 -47.291 23.566 L -64.648 23.084 Z" style="stroke-width: 1;"/>
    <circle cx="-93.809" cy="56.934" r="2.5" style="stroke-width: 1;" transform="matrix(4.820169, 0, 0, 4.806686, 427.057166, -270.768254)"/>
    <line class="st3" x1="-116.83" y1="-25.943" x2="-6.431" y2="84.757" style="fill: none; stroke: rgb(252, 3, 3); stroke-miterlimit: 10; stroke-width: 10;"/>
  </g>
</svg>