<?xml version="1.0" encoding="utf-8"?>
<svg xmlns="http://www.w3.org/2000/svg" viewBox="0 0 124.288 123.576">
  <g transform="matrix(1, 0, 0, 1, 123.813705, 32.91745)">
    <path class="st0" d="M -14.631 90.84 C -6.431 90.84 0.169 84.24 0.169 76.14 L 0.169 -17.86 C 0.169 -26.06 -6.431 -32.66 -14.631 -32.66 L -108.63 -32.66 C -116.83 -32.76 -123.43 -26.16 -123.43 -17.96 L -123.43 76.04 C -123.43 84.24 -116.83 90.74 -108.73 90.74 C -108.63 90.84 -14.631 90.84 -14.631 90.84 Z" style="fill: rgb(255, 0, 0); stroke-width: 1;"/>
    <path class="st1" d="M -106.1 -26.243 C -112.5 -26.243 -117.7 -21.143 -117.7 -14.743 L -117.7 72.957 C -117.7 79.257 -112.5 84.457 -106.2 84.457 L -17.196 84.457 C -10.796 84.457 -5.596 79.357 -5.596 72.957 L -5.596 -14.743 C -5.596 -21.043 -10.796 -26.243 -17.196 -26.243 C -17.296 -26.243 -106.1 -26.243 -106.1 -26.243 Z" style="fill: rgb(255, 255, 255); stroke-width: 1;"/>
    <g transform="matrix(4.545499, 0, 0, 4.477056, -112.502878, -18.515082)" style="">
      <path d="M15,22v-1.4V20h2.8c0.2,0,0.5,0,0.7-0.1s0.4-0.3,0.5-0.5c0,0,1.2-1.8,2.1-3.4c-0.2,0.1-6.1,0-6.1,0v-0.7v-2l-3.1,4.6L15,22 z"/>
      <path d="M0,9.8l1.4,0.4l0.5,0.2L1.1,13C1,13.2,1,13.5,1,13.7c0.1,0.2,0.2,0.4,0.3,0.6c0,0,1.4,2.4,2.7,3.7v-2l1-2l0.7-2.5l0.6,0.2 l1.9,0.6L4.8,8L0,9.8z"/>
      <path d="M18.2,15c0.5,0,2.1,0,2.1,0c0.3,0,0.3,0.1,0.6,0c0.2-0.1,0.6-0.6,0.8-0.8c0.3-0.5,0.5-1.1,0.2-1.6c0,0-2.4-3.9-2.8-4.6 c-0.6,0.4-2.4,1.8-3,2.2C16.5,10.8,17.9,14.6,18.2,15z"/>
      <path d="M19.3,2l-1.2,0.8L17.6,3l-1.5-2.4c-0.1-0.2-0.3-0.4-0.5-0.5C15.5,0.1,15.3,0,15,0c0,0-2.1-0.1-4,0c0.2,0.2,3.2,5.1,3.2,5.1 l-0.6,0.4l-1.7,1l5.5,0.2L19.3,2z"/>
      <path d="M11,3.5c-0.2-0.4-1.1-1.8-1.1-1.8C9.7,1.5,9.8,1.4,9.6,1.2C9.3,1.1,8.7,1,8.4,1C7.9,1,7.3,1.2,7,1.7c0,0-2,4.1-2.4,4.8 c0.7,0.3,2.8,1,3.4,1.4C8.4,7.2,10.8,3.9,11,3.5z"/>
      <path d="M5,16c0.1,1.3,0,1.7,0,2s-0.1,0.7,0,1c0.3,0.5,0.4,1,1,1c0,0,4.2,0,5,0c0-0.8,0-3.3,0-4C10.2,16,6,16.1,5,16z"/>
    </g>
    <line class="st3" x1="-116.83" y1="-25.943" x2="-6.431" y2="84.757" style="fill: none; stroke: rgb(252, 3, 3); stroke-miterlimit: 10; stroke-width: 10;"/>
  </g>
</svg>