<?xml version="1.0" encoding="utf-8"?>
<svg xmlns="http://www.w3.org/2000/svg" viewBox="0 0 123.932 123.932">
  <g transform="matrix(1, 0, 0, 1, 123.813705, 32.91745)">
    <path class="st0" d="M -14.631 90.84 C -6.431 90.84 0.169 84.24 0.169 76.14 L 0.169 -17.86 C 0.169 -26.06 -6.431 -32.66 -14.631 -32.66 L -108.63 -32.66 C -116.83 -32.76 -123.43 -26.16 -123.43 -17.96 L -123.43 76.04 C -123.43 84.24 -116.83 90.74 -108.73 90.74 C -108.63 90.84 -14.631 90.84 -14.631 90.84 Z" style="stroke-width: 1;"/>
    <path class="st1" d="M -106.1 -26.243 C -112.5 -26.243 -117.7 -21.143 -117.7 -14.743 L -117.7 72.957 C -117.7 79.257 -112.5 84.457 -106.2 84.457 L -17.196 84.457 C -10.796 84.457 -5.596 79.357 -5.596 72.957 L -5.596 -14.743 C -5.596 -21.043 -10.796 -26.243 -17.196 -26.243 C -17.296 -26.243 -106.1 -26.243 -106.1 -26.243 Z" style="fill: rgb(255, 255, 255); stroke-width: 1;"/>
    <text style="font-family: Arial, sans-serif; font-size: 28px; font-weight: 700; white-space: pre; visibility: hidden;" transform="matrix(3.117827, 0, 0, 3.622723, 161.590856, 16.823082)" x="-89.643" y="14.443">VS</text>
    <g transform="matrix(4.853253, 0, 0, 5.024656, -113.493898, -22.156527)" style="visibility: hidden;">
      <path d="M10,14c-1.1,0-2,0.9-2,2c0,1.1,0.9,2,2,2s2-0.9,2-2C12,14.9,11.1,14,10,14z M10,17c-0.6,0-1-0.4-1-1c0-0.6,0.4-1,1-1 s1,0.4,1,1C11,16.6,10.6,17,10,17z"/>
      <path d="M21.3,15H19V8.1c0-2-1.2-4.1-3.2-4.1H3.6C1.6,4,0,6.1,0,8.1l0,4.6C0,14.1,1.2,16,2.7,16H7c0-1.7,1.3-3,3-3s3,1.3,3,3h9 C22,15.6,21.7,15,21.3,15z M10,8c0,0.5-0.5,1-1,1H4C3.5,9,3,8.5,3,8V7c0-0.5,0.5-1,1-1h5c0.5,0,1,0.5,1,1V8z M17,8c0,0.5-0.5,1-1,1 h-2c-0.5,0-1-0.5-1-1V7c0-0.5,0.5-1,1-1h2c0.5,0,1,0.5,1,1V8z"/>
    </g>
    <line class="st3" x1="-116.83" y1="-25.943" x2="-6.431" y2="84.757" style="fill: none; stroke: rgb(252, 3, 3); stroke-miterlimit: 10; stroke-width: 10; visibility: hidden;"/>
    <g id="Layer_1" transform="matrix(4.690899, 0, 0, 4.56529, 413.293805, 77.665156)" style="">
      <path d="M -100.5 -18.622 C -99.6 -18.522 -98.896 -19.222 -98.796 -20.122 C -98.696 -21.022 -99.3 -21.722 -100.2 -21.822 C -101.1 -21.922 -101.8 -21.222 -101.9 -20.322 C -102 -19.422 -101.4 -18.722 -100.5 -18.622 Z" style="stroke-width: 1;"/>
      <path d="M -101.8 -18.022 C -101.5 -18.222 -101.1 -18.422 -100.7 -18.322 C -100.1 -18.322 -99.7 -17.922 -99.4 -17.522 L -97.796 -14.322 L -95.596 -12.822 C -95.396 -12.622 -95.296 -12.422 -95.296 -12.222 C -95.296 -11.822 -95.696 -11.522 -96.096 -11.522 C -96.196 -11.522 -96.296 -11.622 -96.396 -11.622 L -98.796 -13.322 C -98.896 -13.422 -98.896 -13.422 -98.996 -13.522 L -99.6 -14.722 L -100.3 -11.522 L -97.496 -8.222 C -97.396 -8.122 -97.396 -8.022 -97.396 -7.922 L -96.596 -3.922 C -96.596 -3.822 -96.596 -3.822 -96.596 -3.722 C -96.596 -3.122 -97.196 -2.722 -97.796 -2.722 C -98.296 -2.722 -98.696 -3.122 -98.796 -3.622 L -99.5 -7.422 L -101.8 -9.922 L -102.3 -7.222 C -102.3 -7.122 -102.5 -6.822 -102.5 -6.722 L -104.7 -3.022 C -104.9 -2.722 -105.3 -2.422 -105.7 -2.522 C -106.3 -2.522 -106.7 -3.122 -106.7 -3.722 C -106.7 -3.922 -106.6 -4.022 -106.6 -4.222 L -104.5 -7.622 L -102.8 -15.222 L -104 -14.322 L -104.6 -11.622 C -104.7 -11.322 -105 -11.022 -105.4 -11.022 C -105.8 -11.022 -106.1 -11.422 -106.1 -11.822 C -106.1 -11.822 -106.1 -11.922 -106.1 -11.922 L -105.3 -15.022 C -105.3 -15.122 -105.2 -15.322 -105.1 -15.322 L -101.8 -18.022 Z" style="stroke-width: 1;"/>
      <rect y="-1.822" width="22" height="2" x="-112.3" style="stroke-width: 1;"/>
    </g>
  </g>
</svg>