<?xml version="1.0" encoding="utf-8"?>
<svg xmlns="http://www.w3.org/2000/svg" viewBox="0 0 123.931 123.576">
  <g transform="matrix(1, 0, 0, 1, 123.813705, 32.91745)">
    <path class="st0" d="M -14.631 90.84 C -6.431 90.84 0.169 84.24 0.169 76.14 L 0.169 -17.86 C 0.169 -26.06 -6.431 -32.66 -14.631 -32.66 L -108.63 -32.66 C -116.83 -32.76 -123.43 -26.16 -123.43 -17.96 L -123.43 76.04 C -123.43 84.24 -116.83 90.74 -108.73 90.74 C -108.63 90.84 -14.631 90.84 -14.631 90.84 Z" style="stroke-width: 1;"/>
    <path class="st1" d="M -106.1 -26.243 C -112.5 -26.243 -117.7 -21.143 -117.7 -14.743 L -117.7 72.957 C -117.7 79.257 -112.5 84.457 -106.2 84.457 L -17.196 84.457 C -10.796 84.457 -5.596 79.357 -5.596 72.957 L -5.596 -14.743 C -5.596 -21.043 -10.796 -26.243 -17.196 -26.243 C -17.296 -26.243 -106.1 -26.243 -106.1 -26.243 Z" style="stroke-width: 1;"/>
    <line class="st3" x1="-116.83" y1="-25.943" x2="-6.431" y2="84.757" style="fill: none; stroke: rgb(252, 3, 3); stroke-miterlimit: 10; stroke-width: 10; visibility: hidden;"/>
    <title>Paragliding</title>
    <g transform="matrix(1, 0, 0, 1, -0.692207, -2.689226)">
      <path d="M -104.91 14.643 C -93.536 -12.981 -49.949 -20.143 -26.477 1.758 C -22.442 5.516 -19.361 9.9 -17.402 14.643 L -17.402 23.229 C -28.786 1.132 -72.353 -4.601 -95.82 12.92 C -99.86 15.931 -102.92 19.436 -104.91 23.229 L -104.91 14.643 Z" style="stroke-width: 1; fill: rgb(255, 255, 255);"/>
      <path d="M -84.981 23.229 L -80.12 23.229 L -69.898 42.423 L -74.273 44.948 L -84.981 23.229 Z" style="stroke-width: 1; fill: rgb(255, 255, 255);"/>
      <path d="M -37.331 23.229 L -42.192 23.229 L -52.399 42.423 L -48.024 44.948 L -37.331 23.229 Z" style="stroke-width: 1; fill: rgb(255, 255, 255);"/>
      <circle cx="-95.907" cy="0.178" r="1.2" style="stroke-width: 1; fill: rgb(255, 255, 255);" transform="matrix(4.860764, 0, 0, 5.0509, 405.032757, 45.059286)"/>
      <path d="M -69.898 53.03 L -52.399 53.03 L -48.511 61.111 L -38.789 65.152 L -40.733 70.708 L -50.941 66.667 L -55.316 74.243 L -61.635 74.243 L -64.065 66.162 L -74.273 69.698 L -76.231 64.142 L -67.468 60.606 L -69.898 53.03 Z" style="stroke-width: 1; fill: rgb(255, 255, 255);"/>
      <path d="M -69.898 44.948 L -65.037 53.03 L -69.898 53.03 L -69.898 44.948 Z M -52.399 44.948 L -57.26 53.03 L -52.399 53.03 L -52.399 44.948 Z" style="stroke-width: 1; fill: rgb(255, 255, 255);"/>
    </g>
  </g>
</svg>