<?xml version="1.0" encoding="utf-8"?>
<svg xmlns="http://www.w3.org/2000/svg" viewBox="0 0 123.932 123.932">
  <g transform="matrix(1, 0, 0, 1, 123.813705, 32.91745)">
    <path class="st0" d="M -14.631 90.84 C -6.431 90.84 0.169 84.24 0.169 76.14 L 0.169 -17.86 C 0.169 -26.06 -6.431 -32.66 -14.631 -32.66 L -108.63 -32.66 C -116.83 -32.76 -123.43 -26.16 -123.43 -17.96 L -123.43 76.04 C -123.43 84.24 -116.83 90.74 -108.73 90.74 C -108.63 90.84 -14.631 90.84 -14.631 90.84 Z" style="stroke-width: 1;"/>
    <path class="st1" d="M -106.1 -26.243 C -112.5 -26.243 -117.7 -21.143 -117.7 -14.743 L -117.7 72.957 C -117.7 79.257 -112.5 84.457 -106.2 84.457 L -17.196 84.457 C -10.796 84.457 -5.596 79.357 -5.596 72.957 L -5.596 -14.743 C -5.596 -21.043 -10.796 -26.243 -17.196 -26.243 C -17.296 -26.243 -106.1 -26.243 -106.1 -26.243 Z" style="fill: rgb(255, 255, 255); stroke-width: 1;"/>
    <text style="font-family: Arial, sans-serif; font-size: 28px; font-weight: 700; white-space: pre; visibility: hidden;" transform="matrix(3.117827, 0, 0, 3.622723, 161.590856, 16.823082)" x="-89.643" y="14.443">VS</text>
    <g transform="matrix(4.853253, 0, 0, 5.024656, -113.493898, -22.156527)" style="visibility: hidden;">
      <path d="M10,14c-1.1,0-2,0.9-2,2c0,1.1,0.9,2,2,2s2-0.9,2-2C12,14.9,11.1,14,10,14z M10,17c-0.6,0-1-0.4-1-1c0-0.6,0.4-1,1-1 s1,0.4,1,1C11,16.6,10.6,17,10,17z"/>
      <path d="M21.3,15H19V8.1c0-2-1.2-4.1-3.2-4.1H3.6C1.6,4,0,6.1,0,8.1l0,4.6C0,14.1,1.2,16,2.7,16H7c0-1.7,1.3-3,3-3s3,1.3,3,3h9 C22,15.6,21.7,15,21.3,15z M10,8c0,0.5-0.5,1-1,1H4C3.5,9,3,8.5,3,8V7c0-0.5,0.5-1,1-1h5c0.5,0,1,0.5,1,1V8z M17,8c0,0.5-0.5,1-1,1 h-2c-0.5,0-1-0.5-1-1V7c0-0.5,0.5-1,1-1h2c0.5,0,1,0.5,1,1V8z"/>
    </g>
    <line class="st3" x1="-116.83" y1="-25.943" x2="-6.431" y2="84.757" style="fill: none; stroke: rgb(252, 3, 3); stroke-miterlimit: 10; stroke-width: 10; visibility: hidden;"/>
  </g>
  <g id="Layer_1" transform="matrix(4.363016, 0, 0, 4.55908, -170.119237, -143.557621)" style="">
    <path d="M 48.923 35.465 L 48.723 35.465 L 48.723 36.665 L 49.023 36.665 C 49.423 36.665 49.723 36.565 49.723 36.065 C 49.623 35.665 49.323 35.465 48.923 35.465 Z" style="stroke-width: 1;"/>
    <path d="M 51.623 37.865 C 51.623 38.065 51.823 38.165 52.123 38.165 C 52.323 38.165 52.523 38.065 52.623 37.965 C 52.723 37.765 52.823 37.565 52.823 37.365 L 52.523 37.365 C 52.023 37.365 51.623 37.465 51.623 37.865 Z" style="stroke-width: 1;"/>
    <path d="M 46.223 33.865 L 46.223 40.865 L 60.223 40.865 L 60.223 33.865 L 46.223 33.865 Z M 49.023 37.265 L 48.723 37.265 L 48.723 38.665 L 47.923 38.665 L 47.923 34.865 L 48.923 34.865 C 49.723 34.865 50.523 35.065 50.523 35.965 C 50.423 36.965 49.823 37.265 49.023 37.265 Z M 52.723 38.665 C 52.723 38.565 52.723 38.365 52.723 38.265 C 52.523 38.565 52.223 38.765 51.823 38.765 C 51.323 38.765 50.823 38.465 50.823 37.965 C 50.823 37.565 51.023 37.265 51.323 37.165 C 51.623 37.065 51.923 36.965 52.223 36.965 L 52.623 36.965 C 52.623 36.565 52.423 36.365 52.023 36.365 C 51.723 36.365 51.423 36.465 51.223 36.665 L 51.223 36.065 C 51.423 35.865 51.823 35.865 52.123 35.865 C 52.923 35.865 53.323 36.265 53.323 37.065 L 53.323 37.465 C 53.323 37.765 53.323 37.965 53.323 38.165 C 53.323 38.365 53.323 38.565 53.323 38.765 L 52.723 38.765 L 52.723 38.665 Z M 54.923 38.765 C 54.623 38.765 54.323 38.765 54.123 38.665 L 54.123 38.065 C 54.323 38.165 54.623 38.265 54.823 38.265 C 55.023 38.265 55.323 38.165 55.323 37.965 C 55.323 37.465 54.023 37.765 54.023 36.765 C 54.023 36.165 54.523 35.865 55.123 35.865 C 55.423 35.865 55.723 35.965 55.923 35.965 L 55.923 36.465 C 55.723 36.365 55.523 36.365 55.323 36.365 C 55.123 36.365 54.923 36.465 54.923 36.665 C 54.923 37.065 56.223 36.865 56.223 37.865 C 56.023 38.465 55.423 38.765 54.923 38.765 Z M 57.423 38.765 C 57.123 38.765 56.823 38.765 56.623 38.665 L 56.623 38.065 C 56.823 38.165 57.123 38.265 57.323 38.265 C 57.523 38.265 57.823 38.165 57.823 37.965 C 57.823 37.465 56.523 37.765 56.523 36.765 C 56.523 36.165 57.023 35.865 57.623 35.865 C 58.023 35.865 58.223 35.865 58.423 35.965 L 58.423 36.465 C 58.223 36.365 58.023 36.365 57.823 36.365 C 57.623 36.365 57.423 36.465 57.423 36.665 C 57.423 37.065 58.723 36.865 58.723 37.865 C 58.623 38.465 58.023 38.765 57.423 38.765 Z" style="stroke-width: 1;"/>
    <path d="M 46.223 41.865 L 46.223 55.865 L 60.223 55.865 L 60.223 41.865 L 46.223 41.865 Z M 58.223 53.865 L 48.223 53.865 L 48.223 52.865 L 58.223 52.865 L 58.223 53.865 Z M 58.223 50.865 L 48.223 50.865 L 48.223 49.865 L 58.223 49.865 L 58.223 50.865 Z M 58.223 47.865 L 48.223 47.865 L 48.223 46.865 L 58.223 46.865 L 58.223 47.865 Z M 58.223 44.865 L 48.223 44.865 L 48.223 43.865 L 58.223 43.865 L 58.223 44.865 Z" style="stroke-width: 1;"/>
  </g>
</svg>