<?xml version="1.0" encoding="utf-8"?>
<svg xmlns="http://www.w3.org/2000/svg" viewBox="0 0 123.932 123.932">
  <g transform="matrix(1, 0, 0, 1, 123.813705, 32.91745)">
    <path class="st0" d="M -14.631 90.84 C -6.431 90.84 0.169 84.24 0.169 76.14 L 0.169 -17.86 C 0.169 -26.06 -6.431 -32.66 -14.631 -32.66 L -108.63 -32.66 C -116.83 -32.76 -123.43 -26.16 -123.43 -17.96 L -123.43 76.04 C -123.43 84.24 -116.83 90.74 -108.73 90.74 C -108.63 90.84 -14.631 90.84 -14.631 90.84 Z" style="stroke-width: 1;"/>
    <path class="st1" d="M -106.1 -26.243 C -112.5 -26.243 -117.7 -21.143 -117.7 -14.743 L -117.7 72.957 C -117.7 79.257 -112.5 84.457 -106.2 84.457 L -17.196 84.457 C -10.796 84.457 -5.596 79.357 -5.596 72.957 L -5.596 -14.743 C -5.596 -21.043 -10.796 -26.243 -17.196 -26.243 C -17.296 -26.243 -106.1 -26.243 -106.1 -26.243 Z" style="fill: rgb(255, 255, 255); stroke-width: 1;"/>
    <text style="font-family: Arial, sans-serif; font-size: 28px; font-weight: 700; white-space: pre; visibility: hidden;" transform="matrix(3.117827, 0, 0, 3.622723, 161.590856, 16.823082)" x="-89.643" y="14.443">VS</text>
    <g transform="matrix(4.853253, 0, 0, 5.024656, -113.493898, -22.156527)" style="visibility: hidden;">
      <path d="M10,14c-1.1,0-2,0.9-2,2c0,1.1,0.9,2,2,2s2-0.9,2-2C12,14.9,11.1,14,10,14z M10,17c-0.6,0-1-0.4-1-1c0-0.6,0.4-1,1-1 s1,0.4,1,1C11,16.6,10.6,17,10,17z"/>
      <path d="M21.3,15H19V8.1c0-2-1.2-4.1-3.2-4.1H3.6C1.6,4,0,6.1,0,8.1l0,4.6C0,14.1,1.2,16,2.7,16H7c0-1.7,1.3-3,3-3s3,1.3,3,3h9 C22,15.6,21.7,15,21.3,15z M10,8c0,0.5-0.5,1-1,1H4C3.5,9,3,8.5,3,8V7c0-0.5,0.5-1,1-1h5c0.5,0,1,0.5,1,1V8z M17,8c0,0.5-0.5,1-1,1 h-2c-0.5,0-1-0.5-1-1V7c0-0.5,0.5-1,1-1h2c0.5,0,1,0.5,1,1V8z"/>
    </g>
    <line class="st3" x1="-116.83" y1="-25.943" x2="-6.431" y2="84.757" style="fill: none; stroke: rgb(252, 3, 3); stroke-miterlimit: 10; stroke-width: 10; visibility: hidden;"/>
  </g>
  <g id="Layer_1" transform="matrix(4.698653, 0, 0, 4.574589, -75.82783, -53.693906)" style="">
    <path d="M 39.426 29.162 L 36.826 29.162 L 38.626 27.362 C 39.026 26.962 39.026 26.362 38.626 25.962 C 38.226 25.562 37.626 25.562 37.226 25.962 L 35.426 27.762 L 35.426 25.162 C 35.426 24.662 34.926 24.162 34.426 24.162 C 33.926 24.162 33.426 24.662 33.426 25.162 L 33.426 27.762 L 31.626 25.962 C 31.226 25.562 30.626 25.562 30.226 25.962 C 29.826 26.362 29.826 26.962 30.226 27.362 L 32.026 29.162 L 29.426 29.162 C 28.926 29.162 28.426 29.662 28.426 30.162 C 28.426 30.662 28.926 31.162 29.426 31.162 L 32.026 31.162 L 30.226 32.962 C 29.826 33.362 29.826 33.962 30.226 34.362 C 30.626 34.762 31.226 34.762 31.626 34.362 L 33.426 32.562 L 33.426 35.162 C 33.426 35.662 33.926 36.162 34.426 36.162 C 34.926 36.162 35.426 35.662 35.426 35.162 L 35.426 32.562 L 37.226 34.362 C 37.626 34.762 38.226 34.762 38.626 34.362 C 39.026 33.962 39.026 33.362 38.626 32.962 L 36.826 31.162 L 39.426 31.162 C 39.926 31.162 40.426 30.662 40.426 30.162 C 40.426 29.662 39.926 29.162 39.426 29.162 Z" style="stroke-width: 1;"/>
    <path d="M 27.426 15.162 C 26.926 15.162 26.426 15.662 26.426 16.162 L 26.426 20.762 L 20.126 14.462 C 19.926 14.262 19.726 14.162 19.426 14.162 C 18.826 14.162 18.426 14.562 18.426 15.162 C 18.426 15.462 18.526 15.662 18.726 15.862 L 25.026 22.162 L 20.426 22.162 C 19.926 22.162 19.426 22.662 19.426 23.162 C 19.426 23.662 19.926 24.162 20.426 24.162 L 26.426 24.162 L 27.026 24.162 L 27.426 24.162 C 27.926 24.162 28.426 23.662 28.426 23.162 L 28.426 22.762 L 28.426 22.162 L 28.426 16.162 C 28.426 15.662 27.926 15.162 27.426 15.162 Z" style="stroke-width: 1;"/>
  </g>
</svg>