<?xml version="1.0" encoding="utf-8"?>
<svg xmlns="http://www.w3.org/2000/svg" viewBox="0 0 123.575 123.219">
  <g transform="matrix(1, 0, 0, 1, 123.813705, 32.91745)">
    <path class="st0" d="M -14.631 90.84 C -6.431 90.84 0.169 84.24 0.169 76.14 L 0.169 -17.86 C 0.169 -26.06 -6.431 -32.66 -14.631 -32.66 L -108.63 -32.66 C -116.83 -32.76 -123.43 -26.16 -123.43 -17.96 L -123.43 76.04 C -123.43 84.24 -116.83 90.74 -108.73 90.74 C -108.63 90.84 -14.631 90.84 -14.631 90.84 Z" style="stroke-width: 1;"/>
    <path class="st1" d="M -106.1 -26.243 C -112.5 -26.243 -117.7 -21.143 -117.7 -14.743 L -117.7 72.957 C -117.7 79.257 -112.5 84.457 -106.2 84.457 L -17.196 84.457 C -10.796 84.457 -5.596 79.357 -5.596 72.957 L -5.596 -14.743 C -5.596 -21.043 -10.796 -26.243 -17.196 -26.243 C -17.296 -26.243 -106.1 -26.243 -106.1 -26.243 Z" style="fill: rgb(255, 255, 255); stroke-width: 1;"/>
    <g transform="matrix(4.959391, 0, 0, 4.922473, -115.422846, -24.72679)" style="visibility: hidden;">
      <path d="M10.7,8H7.8c-1.1,0-1.1,1.4,0,1.4H11c0.2,0,0.5-0.1,0.7-0.4L13,6.5V21c0,0.6,0.4,1,1,1s1-0.4,1-1v-8h1v8c0,0.6,0.4,1,1,1 s1-0.4,1-1V7h1.5v4.9c0,1.1,1.5,1.1,1.5,0V6.4C21,5.2,19.8,4,18.3,4H17v1h-2V4c-0.8,0-2,0.5-2.4,1.1L10.7,8L10.7,8z"/>
      <polygon points="1,13 2,13 4,21 7,21 9,13 10,13 8,22 3,22 &#9;"/>
      <polygon points="15,0 17,0 17,1 18,1 18,3 17,3 17,4 15,4 15,3 14,3 14,1 15,1 &#9;"/>
      <circle cx="4" cy="10" r="1"/>
      <circle cx="6" cy="13" r="1"/>
      <circle cx="5" cy="16" r="1"/>
    </g>
    <line class="st3" x1="-116.83" y1="-25.943" x2="-6.431" y2="84.757" style="fill: none; stroke: rgb(252, 3, 3); stroke-miterlimit: 10; stroke-width: 10; visibility: hidden;"/>
    <g transform="matrix(5.006411, 0, 0, 4.528878, -116.74036, -20.530924)" style="">
      <polygon points="20,13 13,8.3 13,4 15,4 15,5 18,5 18,1 15,1 15,0 13,0 12,0 12,7.7 11,7 2,13 1,13 1,14 3,14 3,22 9,22 9,16 &#10;&#9;&#9;13,16 13,22 19,22 19,14 21,14 21,13 &#9;"/>
    </g>
  </g>
</svg>