<?xml version="1.0" encoding="utf-8"?>
<svg xmlns="http://www.w3.org/2000/svg" viewBox="0 0 124.378 124.235">
  <g transform="matrix(1, 0, 0, 1, 123.813705, 32.91745)">
    <g transform="matrix(1, 0, 0, 1, -123.096451, -32.043148)">
      <path class="st0" d="M 108.465 122.883 C 116.665 122.883 123.265 116.283 123.265 108.183 L 123.265 14.183 C 123.265 5.983 116.665 -0.617 108.465 -0.617 L 14.465 -0.617 C 6.265 -0.717 -0.335 5.883 -0.335 14.083 L -0.335 108.083 C -0.335 116.283 6.265 122.783 14.365 122.783 C 14.465 122.883 108.465 122.883 108.465 122.883 Z" style="fill: rgb(255, 0, 0);"/>
      <path class="st1" d="M17,5.8c-6.4,0-11.6,5.1-11.6,11.5V105c0,6.3,5.2,11.5,11.5,11.5h89c6.4,0,11.6-5.1,11.6-11.5V17.3 c0-6.3-5.2-11.5-11.6-11.5C105.8,5.8,17,5.8,17,5.8z" style="fill: rgb(255, 255, 255);"/>
      <g id="Layer_1_1_" transform="matrix(4.850369, 0, 0, 4.792685, -2597.460205, -1014.578491)" style="">
        <path d="M 548.223 213.408 L 542.223 215.008 L 542.223 213.408 L 540.223 213.408 L 540.223 215.608 L 537.223 216.408 L 537.223 219.408 L 539.223 218.908 L 539.223 235.408 L 557.223 235.408 L 557.223 218.908 L 559.223 219.408 L 559.223 216.408 L 548.223 213.408 Z M 548.223 229.408 C 546.023 229.408 544.223 227.608 544.223 225.408 C 544.223 223.208 546.023 221.408 548.223 221.408 C 548.423 221.408 548.523 221.408 548.723 221.508 C 547.323 221.708 546.223 222.908 546.223 224.408 C 546.223 226.108 547.523 227.408 549.223 227.408 C 550.723 227.408 551.923 226.308 552.123 224.908 C 552.123 225.108 552.223 225.208 552.223 225.408 C 552.223 227.608 550.423 229.408 548.223 229.408 Z" style="stroke-width: 1;"/>
      </g>
      <line class="st3" x1="6.265" y1="6.1" x2="116.665" y2="116.8" style="fill: none; stroke: rgb(252, 3, 3); stroke-miterlimit: 10; stroke-width: 10;"/>
    </g>
  </g>
</svg>