<?xml version="1.0" encoding="utf-8"?>
<svg xmlns="http://www.w3.org/2000/svg" viewBox="0 0 123.932 123.932">
  <g transform="matrix(1, 0, 0, 1, 123.813705, 32.91745)">
    <path class="st0" d="M -14.631 90.84 C -6.431 90.84 0.169 84.24 0.169 76.14 L 0.169 -17.86 C 0.169 -26.06 -6.431 -32.66 -14.631 -32.66 L -108.63 -32.66 C -116.83 -32.76 -123.43 -26.16 -123.43 -17.96 L -123.43 76.04 C -123.43 84.24 -116.83 90.74 -108.73 90.74 C -108.63 90.84 -14.631 90.84 -14.631 90.84 Z" style="stroke-width: 1;"/>
    <path class="st1" d="M -106.1 -26.243 C -112.5 -26.243 -117.7 -21.143 -117.7 -14.743 L -117.7 72.957 C -117.7 79.257 -112.5 84.457 -106.2 84.457 L -17.196 84.457 C -10.796 84.457 -5.596 79.357 -5.596 72.957 L -5.596 -14.743 C -5.596 -21.043 -10.796 -26.243 -17.196 -26.243 C -17.296 -26.243 -106.1 -26.243 -106.1 -26.243 Z" style="fill: rgb(255, 255, 255); stroke-width: 1;"/>
    <text style="font-family: Arial, sans-serif; font-size: 28px; font-weight: 700; white-space: pre; visibility: hidden;" transform="matrix(3.117827, 0, 0, 3.622723, 161.590856, 16.823082)" x="-89.643" y="14.443">VS</text>
    <g transform="matrix(4.853253, 0, 0, 5.024656, -113.493898, -22.156527)" style="visibility: hidden;">
      <path d="M10,14c-1.1,0-2,0.9-2,2c0,1.1,0.9,2,2,2s2-0.9,2-2C12,14.9,11.1,14,10,14z M10,17c-0.6,0-1-0.4-1-1c0-0.6,0.4-1,1-1 s1,0.4,1,1C11,16.6,10.6,17,10,17z"/>
      <path d="M21.3,15H19V8.1c0-2-1.2-4.1-3.2-4.1H3.6C1.6,4,0,6.1,0,8.1l0,4.6C0,14.1,1.2,16,2.7,16H7c0-1.7,1.3-3,3-3s3,1.3,3,3h9 C22,15.6,21.7,15,21.3,15z M10,8c0,0.5-0.5,1-1,1H4C3.5,9,3,8.5,3,8V7c0-0.5,0.5-1,1-1h5c0.5,0,1,0.5,1,1V8z M17,8c0,0.5-0.5,1-1,1 h-2c-0.5,0-1-0.5-1-1V7c0-0.5,0.5-1,1-1h2c0.5,0,1,0.5,1,1V8z"/>
    </g>
    <line class="st3" x1="-116.83" y1="-25.943" x2="-6.431" y2="84.757" style="fill: none; stroke: rgb(252, 3, 3); stroke-miterlimit: 10; stroke-width: 10; visibility: hidden;"/>
  </g>
  <g id="Layer_1" style="" transform="matrix(5.018061, 0, 0, 4.504803, -137.438725, -125.067684)">
    <path d="M 39.706 44.882 C 39.506 44.982 39.306 44.982 39.006 44.982 C 38.706 44.982 38.506 44.982 38.306 44.882 L 35.706 50.882 C 35.406 51.382 34.806 51.582 34.206 51.282 C 33.606 50.982 33.406 50.282 33.606 49.682 L 36.806 42.382 L 40.906 42.382 L 40.906 41.682 L 43.006 40.682 C 43.506 40.382 44.206 40.882 44.406 41.482 L 45.406 45.482 C 45.506 46.082 45.206 46.682 44.606 46.782 C 44.006 46.882 43.406 46.582 43.306 45.982 L 42.706 43.382 L 39.706 44.882 Z" style="stroke-width: 1;"/>
    <path d="M 41.506 40.682 C 46.006 38.482 47.706 30.882 47.706 30.282 L 47.106 30.282 C 46.906 31.882 45.006 38.182 41.506 39.982 L 41.506 40.682 Z" style="stroke-width: 1;"/>
    <path d="M 33.306 38.982 C 33.506 39.382 34.006 39.582 34.406 39.382 L 36.806 38.482 L 36.806 41.282 L 40.906 41.282 L 40.906 37.982 L 44.506 32.182 C 44.806 31.782 44.606 31.182 44.206 30.882 C 43.806 30.582 43.206 30.782 43.006 31.182 L 39.906 36.182 L 38.006 36.182 C 37.906 36.182 37.806 36.182 37.606 36.282 L 34.406 37.382 L 32.806 34.882 C 32.506 34.482 31.906 34.382 31.506 34.582 C 31.106 34.882 31.006 35.482 31.206 35.882 L 33.306 38.982 Z" style="stroke-width: 1;"/>
    <path d="M 38.506 35.782 C 39.406 35.782 40.106 35.082 40.106 34.182 C 40.106 33.282 39.406 32.482 38.506 32.482 C 37.606 32.482 36.906 33.282 36.906 34.182 C 36.906 35.082 37.606 35.782 38.506 35.782 Z" style="stroke-width: 1;"/>
    <rect x="40.406" y="45.282" width="1" height="7" style="stroke-width: 1;"/>
  </g>
</svg>