<?xml version="1.0" encoding="utf-8"?>
<svg xmlns="http://www.w3.org/2000/svg" viewBox="0 0 123.575 123.219">
  <g transform="matrix(1, 0, 0, 1, 123.813705, 32.91745)">
    <path class="st0" d="M -14.631 90.84 C -6.431 90.84 0.169 84.24 0.169 76.14 L 0.169 -17.86 C 0.169 -26.06 -6.431 -32.66 -14.631 -32.66 L -108.63 -32.66 C -116.83 -32.76 -123.43 -26.16 -123.43 -17.96 L -123.43 76.04 C -123.43 84.24 -116.83 90.74 -108.73 90.74 C -108.63 90.84 -14.631 90.84 -14.631 90.84 Z" style="stroke-width: 1;"/>
    <path class="st1" d="M -106.1 -26.243 C -112.5 -26.243 -117.7 -21.143 -117.7 -14.743 L -117.7 72.957 C -117.7 79.257 -112.5 84.457 -106.2 84.457 L -17.196 84.457 C -10.796 84.457 -5.596 79.357 -5.596 72.957 L -5.596 -14.743 C -5.596 -21.043 -10.796 -26.243 -17.196 -26.243 C -17.296 -26.243 -106.1 -26.243 -106.1 -26.243 Z" style="fill: rgb(255, 255, 255); stroke-width: 1;"/>
    <g transform="matrix(4.959391, 0, 0, 4.922473, -115.422846, -24.72679)" style="visibility: hidden;">
      <path d="M10.7,8H7.8c-1.1,0-1.1,1.4,0,1.4H11c0.2,0,0.5-0.1,0.7-0.4L13,6.5V21c0,0.6,0.4,1,1,1s1-0.4,1-1v-8h1v8c0,0.6,0.4,1,1,1 s1-0.4,1-1V7h1.5v4.9c0,1.1,1.5,1.1,1.5,0V6.4C21,5.2,19.8,4,18.3,4H17v1h-2V4c-0.8,0-2,0.5-2.4,1.1L10.7,8L10.7,8z"/>
      <polygon points="1,13 2,13 4,21 7,21 9,13 10,13 8,22 3,22 &#9;"/>
      <polygon points="15,0 17,0 17,1 18,1 18,3 17,3 17,4 15,4 15,3 14,3 14,1 15,1 &#9;"/>
      <circle cx="4" cy="10" r="1"/>
      <circle cx="6" cy="13" r="1"/>
      <circle cx="5" cy="16" r="1"/>
    </g>
    <line class="st3" x1="-116.83" y1="-25.943" x2="-6.431" y2="84.757" style="fill: none; stroke: rgb(252, 3, 3); stroke-miterlimit: 10; stroke-width: 10; visibility: hidden;"/>
    <path d="M -61.592 -5.305 L -65.241 -5.305 C -67.978 -5.305 -70.259 -7.407 -70.259 -9.93 L -70.259 -13.294 C -70.259 -15.817 -67.978 -17.92 -65.241 -17.92 C -65.241 -17.92 -65.241 -17.92 -65.241 -17.92 L -61.592 -17.92 C -58.856 -17.92 -56.575 -15.817 -56.575 -13.294 L -56.575 -9.93 C -56.575 -7.407 -58.856 -5.305 -61.592 -5.305 Z" style="stroke-width: 1; visibility: hidden;"/>
    <polygon points="-70.259 24.131 -56.575 24.131 -56.575 7.311 -52.014 7.311 -52.014 19.926 -47.452 19.926 -47.452 3.106 -56.575 -1.099 -70.259 -1.099 -79.381 3.106 -79.381 19.926 -74.82 19.926 -74.82 7.311 -70.259 7.311" style="stroke-width: 1; visibility: hidden;"/>
    <path d="M -10.962 71.649 L -13.699 62.818 C -29.664 64.501 -45.172 65.342 -61.136 65.342 C -76.644 65.342 -92.609 64.501 -108.12 62.818 L -111.31 71.649 C -94.433 73.331 -78.013 74.593 -61.136 74.593 C -44.26 74.593 -27.839 73.331 -10.962 71.649 Z" style="stroke-width: 1; visibility: hidden;"/>
    <path d="M -102.64 46.418 L -105.38 55.249 C -91.24 56.511 -76.644 57.352 -61.136 57.352 C -45.628 57.352 -31.032 56.511 -16.892 55.249 L -19.629 46.418 C -33.313 47.68 -47.452 48.521 -61.136 48.521 C -74.82 48.521 -88.96 47.68 -102.64 46.418 Z" style="stroke-width: 1; visibility: hidden;"/>
    <path d="M -61.136 40.531 C -48.365 40.531 -35.593 40.111 -22.822 38.849 L -25.558 30.018 C -36.962 30.859 -48.821 31.701 -61.136 31.701 C -73.452 31.701 -84.855 30.859 -96.258 30.018 L -98.995 38.849 C -87.135 39.69 -74.364 40.531 -61.136 40.531 Z" style="stroke-width: 1; visibility: hidden;"/>
    <g id="Icons" transform="matrix(3.636364, 0, 0, 3.25, -126.280209, -46.157098)">
      <g transform="matrix(1, 0, 0, 1, 8.313259, 15.85034)">
        <polygon points="22,3 22,1 0,11 0,13 2,12.1 2,21 22,21 22,19 4,19 4,11.2 &#9;"/>
      </g>
    </g>
  </g>
  <g id="Layer_1" transform="matrix(1.74208, 0, 0, 1.661739, -220.923697, -65.948473)" style="">
    <g transform="matrix(1, 0, 0, 1, 132.126957, 48.767793)">
      <polygon points="11.9,22 10,22 10,0 12,0 &#9;"/>
      <g>
        <path d="M6.9,13.8c0.1,0.8,0.4,1.4,0.7,1.7c0.7,0.7,1.8,1,3.4,1c1,0,1.7-0.1,2.3-0.3c1.1-0.4,1.7-1,1.7-2c0-0.6-0.3-1-0.8-1.3 c-0.6-0.3-1.4-0.6-2.6-0.8l-2-0.4c-2-0.4-3.4-0.8-4.1-1.3c-1.3-0.8-1.9-2-1.9-3.7c0-1.5,0.6-2.8,1.9-3.8s3.1-1.5,5.5-1.5 c2,0,3.7,0.5,5.1,1.4c1.4,0.9,2.2,2.3,2.2,4.1h-3.8c-0.1-1-0.6-1.7-1.5-2.2c-0.6-0.3-1.4-0.4-2.3-0.4c-1,0-1.9,0.2-2.5,0.6 C7.4,5.4,7.1,6,7.1,6.6c0,0.6,0.3,1.1,0.9,1.4c0.4,0.2,1.2,0.4,2.5,0.7l3.3,0.7c1.5,0.3,2.5,0.7,3.3,1.2c1.1,0.8,1.7,2,1.7,3.5 c0,1.5-0.7,2.8-2,3.9c-1.3,1-3.2,1.5-5.6,1.5c-2.5,0-4.4-0.5-5.9-1.5c-1.4-1-2.1-2.4-2.1-4.2H6.9z"/>
      </g>
    </g>
  </g>
</svg>