<?xml version="1.0" encoding="utf-8"?>
<svg xmlns="http://www.w3.org/2000/svg" viewBox="0 0 123.932 123.932">
  <g transform="matrix(1, 0, 0, 1, 123.813705, 32.91745)">
    <path class="st0" d="M -14.631 90.84 C -6.431 90.84 0.169 84.24 0.169 76.14 L 0.169 -17.86 C 0.169 -26.06 -6.431 -32.66 -14.631 -32.66 L -108.63 -32.66 C -116.83 -32.76 -123.43 -26.16 -123.43 -17.96 L -123.43 76.04 C -123.43 84.24 -116.83 90.74 -108.73 90.74 C -108.63 90.84 -14.631 90.84 -14.631 90.84 Z" style="stroke-width: 1;"/>
    <path class="st1" d="M -106.1 -26.243 C -112.5 -26.243 -117.7 -21.143 -117.7 -14.743 L -117.7 72.957 C -117.7 79.257 -112.5 84.457 -106.2 84.457 L -17.196 84.457 C -10.796 84.457 -5.596 79.357 -5.596 72.957 L -5.596 -14.743 C -5.596 -21.043 -10.796 -26.243 -17.196 -26.243 C -17.296 -26.243 -106.1 -26.243 -106.1 -26.243 Z" style="fill: rgb(255, 255, 255); stroke-width: 1;"/>
    <text style="font-family: Arial, sans-serif; font-size: 28px; font-weight: 700; white-space: pre; visibility: hidden;" transform="matrix(3.117827, 0, 0, 3.622723, 161.590856, 16.823082)" x="-89.643" y="14.443">VS</text>
    <g transform="matrix(4.853253, 0, 0, 5.024656, -113.493898, -22.156527)" style="visibility: hidden;">
      <path d="M10,14c-1.1,0-2,0.9-2,2c0,1.1,0.9,2,2,2s2-0.9,2-2C12,14.9,11.1,14,10,14z M10,17c-0.6,0-1-0.4-1-1c0-0.6,0.4-1,1-1 s1,0.4,1,1C11,16.6,10.6,17,10,17z"/>
      <path d="M21.3,15H19V8.1c0-2-1.2-4.1-3.2-4.1H3.6C1.6,4,0,6.1,0,8.1l0,4.6C0,14.1,1.2,16,2.7,16H7c0-1.7,1.3-3,3-3s3,1.3,3,3h9 C22,15.6,21.7,15,21.3,15z M10,8c0,0.5-0.5,1-1,1H4C3.5,9,3,8.5,3,8V7c0-0.5,0.5-1,1-1h5c0.5,0,1,0.5,1,1V8z M17,8c0,0.5-0.5,1-1,1 h-2c-0.5,0-1-0.5-1-1V7c0-0.5,0.5-1,1-1h2c0.5,0,1,0.5,1,1V8z"/>
    </g>
    <line class="st3" x1="-116.83" y1="-25.943" x2="-6.431" y2="84.757" style="fill: none; stroke: rgb(252, 3, 3); stroke-miterlimit: 10; stroke-width: 10; visibility: hidden;"/>
  </g>
  <g id="Layer_1" style="" transform="matrix(5.29019, 0, 0, 4.850409, -182.749288, -393.170758)">
    <path d="M 53.215 101.238 C 53.015 100.138 52.015 99.238 50.815 99.238 C 49.615 99.238 48.615 100.138 48.415 101.238 C 48.415 101.438 48.315 101.538 48.315 101.738 C 48.315 103.138 49.415 104.238 50.815 104.238 C 52.215 104.238 53.315 103.138 53.315 101.738 C 53.315 101.538 53.315 101.438 53.215 101.238 Z M 50.815 102.738 C 50.215 102.738 49.815 102.338 49.815 101.738 C 49.815 101.138 50.215 100.738 50.815 100.738 C 51.415 100.738 51.815 101.138 51.815 101.738 C 51.815 102.338 51.415 102.738 50.815 102.738 Z" style="stroke-width: 1;"/>
    <polygon points="56.315 86.238 49.315 83.238 49.315 85.238 36.315 85.238 36.315 87.238 49.315 87.238 49.315 89.238" style="stroke-width: 1;"/>
    <g transform="matrix(1, 0, 0, 1, 35.314572, 82.237963)">
      <path d="M20,16v-1.3c0-0.6-0.8-1.2-1.3-1.4l-1.4-0.5L17,12.3L15.6,10L15,9c-0.1-0.2-0.8-1-1-1H1v11h11.1 c0.2-1.7,1.7-3,3.4-3s3.2,1.3,3.4,3h0.6c0.5,0,1.4-0.5,1.4-1v-2H20z M15.9,14h-3.9c-0.6,0-1.1-0.5-1.1-1.1v-1.9 c0-0.6,0.5-1.1,1.1-1.1h2.1l0.4,0.6l1.4,2.3l0.3,0.5l0.2,0.3C16.3,13.9,16.1,14,15.9,14z"/>
    </g>
  </g>
</svg>