<?xml version="1.0" encoding="utf-8"?>
<svg xmlns="http://www.w3.org/2000/svg" viewBox="0 0 123.931 123.576">
  <g transform="matrix(1, 0, 0, 1, 123.813705, 32.91745)">
    <path class="st0" d="M -14.631 90.84 C -6.431 90.84 0.169 84.24 0.169 76.14 L 0.169 -17.86 C 0.169 -26.06 -6.431 -32.66 -14.631 -32.66 L -108.63 -32.66 C -116.83 -32.76 -123.43 -26.16 -123.43 -17.96 L -123.43 76.04 C -123.43 84.24 -116.83 90.74 -108.73 90.74 C -108.63 90.84 -14.631 90.84 -14.631 90.84 Z" style="stroke-width: 1;"/>
    <path class="st1" d="M -106.1 -26.243 C -112.5 -26.243 -117.7 -21.143 -117.7 -14.743 L -117.7 72.957 C -117.7 79.257 -112.5 84.457 -106.2 84.457 L -17.196 84.457 C -10.796 84.457 -5.596 79.357 -5.596 72.957 L -5.596 -14.743 C -5.596 -21.043 -10.796 -26.243 -17.196 -26.243 C -17.296 -26.243 -106.1 -26.243 -106.1 -26.243 Z" style="fill: rgb(255, 255, 255); stroke-width: 1;"/>
    <line class="st3" x1="-116.83" y1="-25.943" x2="-6.431" y2="84.757" style="fill: none; stroke: rgb(252, 3, 3); stroke-miterlimit: 10; stroke-width: 10; visibility: hidden;"/>
  </g>
  <g id="Layer_1" transform="matrix(4.326285, 0, 0, 4.07666, -599.585435, -197.67628)" style="">
    <path d="M 151.533 55.317 C 151.833 54.317 151.333 53.317 150.333 53.017 C 149.433 52.717 148.333 53.217 148.033 54.217 C 147.733 55.217 148.233 56.217 149.233 56.517 C 150.233 56.817 151.333 56.317 151.533 55.317 Z" style="stroke-width: 1;"/>
    <path d="M 154.933 60.917 L 154.233 56.717 L 158.433 54.317 C 158.633 54.217 158.833 54.017 158.833 53.817 C 158.933 53.317 158.733 52.917 158.233 52.717 C 158.033 52.617 157.733 52.717 157.533 52.817 L 151.533 56.317 C 151.433 56.317 151.233 56.517 151.033 56.717 L 148.533 60.117 L 145.133 59.617 C 144.933 59.717 144.733 59.917 144.633 60.117 C 144.433 60.517 144.633 61.017 145.033 61.217 C 145.233 61.317 145.433 61.317 145.633 61.217 L 149.133 61.617 C 149.233 61.617 149.333 61.617 149.433 61.517 L 150.933 59.717 L 151.633 63.617 C 151.733 64.117 152.133 64.617 152.633 64.917 L 155.733 65.817 L 156.233 69.317 C 156.333 69.717 156.533 70.117 156.933 70.217 C 157.533 70.417 158.133 70.117 158.333 69.517 C 158.433 69.317 158.433 69.117 158.333 69.017 L 157.733 64.617 C 157.633 64.317 157.433 64.017 157.133 63.817 L 155.233 63.217 L 158.433 61.317 L 162.333 63.017 C 162.333 63.017 162.333 63.017 162.433 63.017 C 163.033 63.217 163.633 62.917 163.833 62.317 C 164.033 61.717 163.733 61.217 163.233 60.917 L 158.833 58.917 C 158.833 58.917 158.833 58.917 158.733 58.917 C 158.433 58.817 158.033 58.817 157.833 59.017 L 154.933 60.917 Z" style="stroke-width: 1;"/>
    <polygon points="154.933 72.617 154.933 69.617 150.933 69.617 150.933 66.617 146.933 66.617 146.933 63.617 141.933 63.617 141.933 65.617 144.933 65.617 144.933 68.617 148.933 68.617 148.933 71.617 152.933 71.617 152.933 74.617 158.933 74.617 158.933 72.617" style="stroke-width: 1;"/>
  </g>
</svg>