<?xml version="1.0" encoding="utf-8"?>
<svg xmlns="http://www.w3.org/2000/svg" viewBox="0 0 123.931 123.576">
  <g transform="matrix(1, 0, 0, 1, 123.813705, 32.91745)">
    <path class="st0" d="M -14.631 90.84 C -6.431 90.84 0.169 84.24 0.169 76.14 L 0.169 -17.86 C 0.169 -26.06 -6.431 -32.66 -14.631 -32.66 L -108.63 -32.66 C -116.83 -32.76 -123.43 -26.16 -123.43 -17.96 L -123.43 76.04 C -123.43 84.24 -116.83 90.74 -108.73 90.74 C -108.63 90.84 -14.631 90.84 -14.631 90.84 Z" style="stroke-width: 1;"/>
    <path class="st1" d="M -106.1 -26.243 C -112.5 -26.243 -117.7 -21.143 -117.7 -14.743 L -117.7 72.957 C -117.7 79.257 -112.5 84.457 -106.2 84.457 L -17.196 84.457 C -10.796 84.457 -5.596 79.357 -5.596 72.957 L -5.596 -14.743 C -5.596 -21.043 -10.796 -26.243 -17.196 -26.243 C -17.296 -26.243 -106.1 -26.243 -106.1 -26.243 Z" style="fill: rgb(255, 255, 255); stroke-width: 1;"/>
    <line class="st3" x1="-116.83" y1="-25.943" x2="-6.431" y2="84.757" style="fill: none; stroke: rgb(252, 3, 3); stroke-miterlimit: 10; stroke-width: 10; visibility: hidden;"/>
  </g>
  <g id="Layer_1" style="" transform="matrix(3.96424, 0, 0, 3.938266, -544.224414, -188.868892)">
    <path d="M 151.633 55.467 C 151.933 54.567 151.433 53.467 150.433 53.167 C 149.533 52.867 148.433 53.367 148.133 54.367 C 147.833 55.367 148.333 56.367 149.333 56.667 C 150.333 56.967 151.333 56.367 151.633 55.467 Z" style="stroke-width: 1;"/>
    <path d="M 155.033 60.967 L 154.333 56.767 L 158.533 54.367 C 158.733 54.267 158.933 54.067 158.933 53.867 C 159.033 53.367 158.833 52.967 158.333 52.767 C 158.133 52.667 157.833 52.767 157.633 52.867 L 151.633 56.367 C 151.433 56.467 151.233 56.567 151.133 56.767 L 148.633 60.167 L 145.133 59.767 C 144.933 59.867 144.733 59.967 144.633 60.267 C 144.433 60.667 144.633 61.167 145.133 61.367 C 145.333 61.467 145.533 61.467 145.733 61.367 L 149.233 61.767 C 149.333 61.767 149.433 61.667 149.533 61.567 L 150.933 59.767 L 151.633 63.667 C 151.733 64.167 152.133 64.667 152.633 64.967 L 155.733 65.867 L 156.233 69.367 C 156.333 69.767 156.533 70.167 156.933 70.267 C 157.533 70.467 158.133 70.167 158.333 69.567 C 158.433 69.367 158.433 69.167 158.333 69.067 L 157.733 64.767 C 157.633 64.467 157.433 64.167 157.133 63.967 L 155.233 63.367 L 158.433 61.467 L 162.333 63.167 C 162.333 63.167 162.333 63.167 162.433 63.167 C 163.033 63.367 163.633 63.067 163.833 62.467 C 164.033 61.967 163.733 61.367 163.233 61.067 L 158.833 59.067 C 158.833 59.067 158.833 59.067 158.733 59.067 C 158.433 58.967 158.033 58.967 157.833 59.167 L 155.033 60.967 Z" style="stroke-width: 1;"/>
    <g transform="matrix(1, 0, 0, 1, 141.933407, 52.667445)">
      <path fill-rule="evenodd" clip-rule="evenodd" d="M0,21.9l17.9,0L0,9.2L0,21.9z"/>
    </g>
  </g>
</svg>