<?xml version="1.0" encoding="utf-8"?>
<svg xmlns="http://www.w3.org/2000/svg" viewBox="0 0 123.931 123.576">
  <g transform="matrix(1, 0, 0, 1, 123.813705, 32.91745)">
    <path class="st0" d="M -14.631 90.84 C -6.431 90.84 0.169 84.24 0.169 76.14 L 0.169 -17.86 C 0.169 -26.06 -6.431 -32.66 -14.631 -32.66 L -108.63 -32.66 C -116.83 -32.76 -123.43 -26.16 -123.43 -17.96 L -123.43 76.04 C -123.43 84.24 -116.83 90.74 -108.73 90.74 C -108.63 90.84 -14.631 90.84 -14.631 90.84 Z" style="stroke-width: 1; fill: rgb(255, 0, 0);"/>
    <path class="st1" d="M -106.1 -26.243 C -112.5 -26.243 -117.7 -21.143 -117.7 -14.743 L -117.7 72.957 C -117.7 79.257 -112.5 84.457 -106.2 84.457 L -17.196 84.457 C -10.796 84.457 -5.596 79.357 -5.596 72.957 L -5.596 -14.743 C -5.596 -21.043 -10.796 -26.243 -17.196 -26.243 C -17.296 -26.243 -106.1 -26.243 -106.1 -26.243 Z" style="fill: rgb(255, 255, 255); stroke-width: 1;"/>
    <g id="Layer_1" style="" transform="matrix(4.348956, 0, 0, 3.604792, 293.439737, -35.53988)">
      <path d="M -78.345 18.618 C -79.745 18.618 -80.845 17.518 -80.845 16.118 C -80.845 15.818 -80.845 15.618 -80.745 15.318 C -82.445 15.318 -83.845 13.818 -83.845 12.118 C -83.845 10.318 -82.445 8.918 -80.645 8.918 L -80.645 9.818 C -81.845 9.818 -82.845 10.818 -82.845 12.118 C -82.845 13.418 -81.845 14.418 -80.545 14.418 C -80.345 14.418 -80.245 14.418 -80.045 14.418 C -80.045 14.418 -79.945 14.418 -79.945 14.418 C -79.645 14.418 -79.445 14.618 -79.445 14.918 C -79.445 15.018 -79.445 15.118 -79.545 15.218 C -79.745 15.518 -79.845 15.818 -79.845 16.118 C -79.845 17.018 -79.145 17.718 -78.245 17.718 L -74.945 17.718 C -73.645 17.718 -72.645 18.718 -72.645 20.018 L -72.645 21.818 L -73.545 21.818 L -73.545 20.018 C -73.545 19.218 -74.145 18.618 -74.945 18.618 L -78.345 18.618 L -78.345 18.618 Z" style="stroke-width: 1;"/>
      <path d="M -77.345 15.018 C -77.045 14.618 -76.845 14.018 -76.845 13.418 C -76.845 11.918 -78.045 10.818 -79.445 10.818 L -79.645 10.818 L -79.645 9.918 L -79.445 9.918 C -77.445 9.918 -75.845 11.518 -75.845 13.518 C -75.845 14.018 -75.945 14.518 -76.145 15.018 L -75.445 15.018 C -72.745 15.018 -70.645 17.218 -70.645 19.818 L -70.645 21.818 L -71.545 21.818 L -71.545 19.818 C -71.545 17.618 -73.245 15.918 -75.445 15.918 L -76.845 15.918 C -77.145 15.918 -77.345 15.718 -77.345 15.418 C -77.445 15.218 -77.445 15.118 -77.345 15.018 Z" style="stroke-width: 1;"/>
      <rect x="-71.745" y="22.818" width="1" height="4" style="stroke-width: 1;"/>
      <rect x="-73.745" y="22.818" width="1" height="4" style="stroke-width: 1;"/>
      <rect y="22.818" width="18" height="4" x="-92.745" style="stroke-width: 1;"/>
    </g>
    <line class="st3" x1="-116.83" y1="-25.943" x2="-6.431" y2="84.757" style="fill: none; stroke: rgb(252, 3, 3); stroke-miterlimit: 10; stroke-width: 10;"/>
  </g>
</svg>