<?xml version="1.0" encoding="utf-8"?>
<svg xmlns="http://www.w3.org/2000/svg" viewBox="0 0 123.932 123.932">
  <g transform="matrix(1, 0, 0, 1, 123.813705, 32.91745)">
    <path class="st0" d="M -14.631 90.84 C -6.431 90.84 0.169 84.24 0.169 76.14 L 0.169 -17.86 C 0.169 -26.06 -6.431 -32.66 -14.631 -32.66 L -108.63 -32.66 C -116.83 -32.76 -123.43 -26.16 -123.43 -17.96 L -123.43 76.04 C -123.43 84.24 -116.83 90.74 -108.73 90.74 C -108.63 90.84 -14.631 90.84 -14.631 90.84 Z" style="stroke-width: 1;"/>
    <path class="st1" d="M -106.1 -26.243 C -112.5 -26.243 -117.7 -21.143 -117.7 -14.743 L -117.7 72.957 C -117.7 79.257 -112.5 84.457 -106.2 84.457 L -17.196 84.457 C -10.796 84.457 -5.596 79.357 -5.596 72.957 L -5.596 -14.743 C -5.596 -21.043 -10.796 -26.243 -17.196 -26.243 C -17.296 -26.243 -106.1 -26.243 -106.1 -26.243 Z" style="fill: rgb(255, 255, 255); stroke-width: 1;"/>
    <text style="font-family: Arial, sans-serif; font-size: 28px; font-weight: 700; white-space: pre; visibility: hidden;" transform="matrix(3.117827, 0, 0, 3.622723, 161.590856, 16.823082)" x="-89.643" y="14.443">VS</text>
    <g transform="matrix(4.853253, 0, 0, 5.024656, -113.493898, -22.156527)" style="visibility: hidden;">
      <path d="M10,14c-1.1,0-2,0.9-2,2c0,1.1,0.9,2,2,2s2-0.9,2-2C12,14.9,11.1,14,10,14z M10,17c-0.6,0-1-0.4-1-1c0-0.6,0.4-1,1-1 s1,0.4,1,1C11,16.6,10.6,17,10,17z"/>
      <path d="M21.3,15H19V8.1c0-2-1.2-4.1-3.2-4.1H3.6C1.6,4,0,6.1,0,8.1l0,4.6C0,14.1,1.2,16,2.7,16H7c0-1.7,1.3-3,3-3s3,1.3,3,3h9 C22,15.6,21.7,15,21.3,15z M10,8c0,0.5-0.5,1-1,1H4C3.5,9,3,8.5,3,8V7c0-0.5,0.5-1,1-1h5c0.5,0,1,0.5,1,1V8z M17,8c0,0.5-0.5,1-1,1 h-2c-0.5,0-1-0.5-1-1V7c0-0.5,0.5-1,1-1h2c0.5,0,1,0.5,1,1V8z"/>
    </g>
    <line class="st3" x1="-116.83" y1="-25.943" x2="-6.431" y2="84.757" style="fill: none; stroke: rgb(252, 3, 3); stroke-miterlimit: 10; stroke-width: 10; visibility: hidden;"/>
  </g>
  <g id="Layer_1" style="" transform="matrix(5.036691, 0, 0, 4.888171, -209.757926, -334.484141)">
    <path d="M 58.321 73.6 C 59.321 73.6 60.121 72.8 60.121 71.8 C 60.121 70.8 59.321 70.1 58.321 70.1 C 57.321 70.1 56.521 70.9 56.521 71.9 C 56.521 72.9 57.421 73.6 58.321 73.6 Z" style="stroke-width: 1;"/>
    <path d="M 63.121 80.4 C 62.821 81.1 62.121 80.9 62.121 80.9 L 59.321 79.9 C 59.021 79.8 58.821 79.6 58.721 79.3 L 58.121 77.5 L 57.121 80.2 L 60.021 83.2 C 60.421 83.8 60.321 84.3 60.321 84.3 L 60.321 88.5 C 61.321 88.5 62.221 89.3 62.221 90.4 C 62.221 91.4 61.421 92.3 60.321 92.3 C 60.221 92.3 60.021 92.3 59.921 92.2 L 53.921 90.7 L 53.921 89.8 L 58.521 88.8 L 58.521 85 L 55.421 81.9 L 54.921 85.1 C 54.821 85.5 54.521 85.9 54.421 86.1 L 52.321 88.6 C 52.321 88.6 52.221 88.6 52.221 88.6 L 52.321 88.6 C 52.921 89 53.121 89.8 53.021 90.5 C 52.821 91.5 51.821 92.1 50.821 91.9 C 50.721 91.9 50.521 91.8 50.421 91.8 L 44.821 89.1 L 44.921 88.1 L 50.021 88.2 L 52.421 85.4 L 53.221 79.8 L 54.821 75.6 L 52.621 76.8 L 51.321 79.4 C 50.921 80.2 50.221 79.8 50.221 79.8 C 49.621 79.4 49.821 78.8 49.821 78.8 L 51.121 76.1 C 51.521 75.4 51.721 75.3 51.721 75.3 L 54.921 73.6 C 55.621 73.1 56.421 73.5 56.421 73.5 L 58.221 74.1 C 59.121 74.4 59.121 74.9 59.121 74.9 L 60.221 78.5 L 62.621 79.4 C 62.721 79.4 63.321 79.7 63.121 80.4 Z M 60.321 91.3 C 60.321 91.3 60.421 91.3 60.421 91.3 C 61.021 91.3 61.421 90.8 61.421 90.3 C 61.421 89.7 60.921 89.3 60.421 89.3 L 60.421 89.5 C 60.421 90 60.021 90.5 59.421 90.5 C 58.921 90.5 58.521 90.2 58.521 89.7 L 55.721 90.3 L 60.321 91.3 Z M 50.721 91 C 50.721 91 50.821 91 50.821 91 C 51.421 91.1 51.921 90.8 52.021 90.2 C 52.121 89.8 51.921 89.4 51.621 89.1 L 51.221 89.6 C 50.921 90.1 50.321 90.2 49.921 89.8 C 49.721 89.6 49.621 89.3 49.621 89 L 46.521 88.9 L 50.721 91 Z" style="stroke-width: 1;"/>
  </g>
</svg>