<?xml version="1.0" encoding="utf-8"?>
<svg xmlns="http://www.w3.org/2000/svg" viewBox="0 0 123.932 123.932">
  <g transform="matrix(1, 0, 0, 1, 123.813705, 32.91745)">
    <path class="st0" d="M -14.631 90.84 C -6.431 90.84 0.169 84.24 0.169 76.14 L 0.169 -17.86 C 0.169 -26.06 -6.431 -32.66 -14.631 -32.66 L -108.63 -32.66 C -116.83 -32.76 -123.43 -26.16 -123.43 -17.96 L -123.43 76.04 C -123.43 84.24 -116.83 90.74 -108.73 90.74 C -108.63 90.84 -14.631 90.84 -14.631 90.84 Z" style="stroke-width: 1;"/>
    <path class="st1" d="M -106.1 -26.243 C -112.5 -26.243 -117.7 -21.143 -117.7 -14.743 L -117.7 72.957 C -117.7 79.257 -112.5 84.457 -106.2 84.457 L -17.196 84.457 C -10.796 84.457 -5.596 79.357 -5.596 72.957 L -5.596 -14.743 C -5.596 -21.043 -10.796 -26.243 -17.196 -26.243 C -17.296 -26.243 -106.1 -26.243 -106.1 -26.243 Z" style="fill: rgb(255, 255, 255); stroke-width: 1;"/>
    <text style="font-family: Arial, sans-serif; font-size: 28px; font-weight: 700; white-space: pre; visibility: hidden;" transform="matrix(3.117827, 0, 0, 3.622723, 161.590856, 16.823082)" x="-89.643" y="14.443">VS</text>
    <g transform="matrix(4.853253, 0, 0, 5.024656, -113.493898, -22.156527)" style="visibility: hidden;">
      <path d="M10,14c-1.1,0-2,0.9-2,2c0,1.1,0.9,2,2,2s2-0.9,2-2C12,14.9,11.1,14,10,14z M10,17c-0.6,0-1-0.4-1-1c0-0.6,0.4-1,1-1 s1,0.4,1,1C11,16.6,10.6,17,10,17z"/>
      <path d="M21.3,15H19V8.1c0-2-1.2-4.1-3.2-4.1H3.6C1.6,4,0,6.1,0,8.1l0,4.6C0,14.1,1.2,16,2.7,16H7c0-1.7,1.3-3,3-3s3,1.3,3,3h9 C22,15.6,21.7,15,21.3,15z M10,8c0,0.5-0.5,1-1,1H4C3.5,9,3,8.5,3,8V7c0-0.5,0.5-1,1-1h5c0.5,0,1,0.5,1,1V8z M17,8c0,0.5-0.5,1-1,1 h-2c-0.5,0-1-0.5-1-1V7c0-0.5,0.5-1,1-1h2c0.5,0,1,0.5,1,1V8z"/>
    </g>
    <line class="st3" x1="-116.83" y1="-25.943" x2="-6.431" y2="84.757" style="fill: none; stroke: rgb(252, 3, 3); stroke-miterlimit: 10; stroke-width: 10; visibility: hidden;"/>
  </g>
  <g id="Layer_1" transform="matrix(5.352625, 0, 0, 4.582343, -27.021985, -16.14272)" style="">
    <path d="M 15.988 27.43 L 15.988 24.53 L 14.388 25.43 L 13.588 24.93 L 13.588 23.93 L 15.988 22.53 L 15.988 20.63 L 14.288 21.73 L 14.288 19.73 L 12.588 20.73 L 12.588 23.43 L 11.588 24.03 L 10.788 23.53 L 10.788 21.73 L 8.288 23.13 L 7.188 22.63 L 7.188 21.43 L 9.888 20.03 L 8.188 19.23 L 8.188 18.13 L 9.088 17.63 L 11.488 19.03 L 13.188 18.03 L 11.488 17.03 L 13.088 16.03 L 11.388 15.03 L 8.988 16.43 L 8.188 16.03 L 8.188 15.03 L 9.788 14.13 L 7.188 12.73 L 7.188 11.53 L 8.188 11.03 L 10.688 12.53 L 10.688 10.63 L 11.488 10.13 L 12.388 10.63 L 12.388 13.43 L 14.088 14.43 L 14.088 12.43 L 15.888 13.43 L 15.888 11.53 L 13.488 10.13 L 13.488 9.13 L 14.288 8.63 L 15.888 9.53 L 15.888 6.63 L 16.888 6.03 L 17.788 6.63 L 17.788 9.53 L 19.488 8.63 L 20.288 9.23 L 20.288 10.03 L 17.888 11.53 L 17.888 13.43 L 19.588 12.43 L 19.588 14.53 L 21.388 13.53 L 21.388 10.53 L 22.188 10.13 L 23.088 10.53 L 23.088 12.43 L 25.688 11.03 L 26.588 11.63 L 26.588 12.73 L 23.988 14.23 L 25.588 15.13 L 25.588 16.13 L 24.788 16.63 L 22.388 15.03 L 20.688 16.13 L 22.288 17.13 L 20.588 18.13 L 22.288 19.03 L 24.788 17.63 L 25.588 18.23 L 25.588 19.23 L 24.088 20.03 L 26.588 21.53 L 26.588 22.63 L 25.588 23.13 L 23.188 21.73 L 23.188 23.53 L 22.188 24.03 L 21.388 23.53 L 21.388 20.73 L 19.588 19.73 L 19.588 21.63 L 17.888 20.63 L 17.888 22.53 L 20.288 23.93 L 20.288 25.03 L 19.488 25.43 L 17.888 24.53 L 17.888 27.43 L 16.888 28.03 L 15.988 27.43 Z M 15.288 17.13 L 16.188 18.43 L 17.788 18.43 L 18.488 17.13 L 17.688 15.73 L 16.088 15.73 L 15.288 17.13 Z" style="stroke-width: 1;"/>
  </g>
</svg>