<?xml version="1.0" encoding="utf-8"?>
<svg xmlns="http://www.w3.org/2000/svg" viewBox="0 0 123.575 123.219">
  <g transform="matrix(1, 0, 0, 1, 123.813705, 32.91745)">
    <path class="st0" d="M -14.631 90.84 C -6.431 90.84 0.169 84.24 0.169 76.14 L 0.169 -17.86 C 0.169 -26.06 -6.431 -32.66 -14.631 -32.66 L -108.63 -32.66 C -116.83 -32.76 -123.43 -26.16 -123.43 -17.96 L -123.43 76.04 C -123.43 84.24 -116.83 90.74 -108.73 90.74 C -108.63 90.84 -14.631 90.84 -14.631 90.84 Z" style="stroke-width: 1;"/>
    <path class="st1" d="M -106.1 -26.243 C -112.5 -26.243 -117.7 -21.143 -117.7 -14.743 L -117.7 72.957 C -117.7 79.257 -112.5 84.457 -106.2 84.457 L -17.196 84.457 C -10.796 84.457 -5.596 79.357 -5.596 72.957 L -5.596 -14.743 C -5.596 -21.043 -10.796 -26.243 -17.196 -26.243 C -17.296 -26.243 -106.1 -26.243 -106.1 -26.243 Z" style="fill: rgb(255, 255, 255); stroke-width: 1;"/>
    <line class="st3" x1="-116.83" y1="-25.943" x2="-6.431" y2="84.757" style="fill: none; stroke: rgb(252, 3, 3); stroke-miterlimit: 10; stroke-width: 10; visibility: hidden;"/>
    <path d="M -61.592 -5.305 L -65.241 -5.305 C -67.978 -5.305 -70.259 -7.407 -70.259 -9.93 L -70.259 -13.294 C -70.259 -15.817 -67.978 -17.92 -65.241 -17.92 C -65.241 -17.92 -65.241 -17.92 -65.241 -17.92 L -61.592 -17.92 C -58.856 -17.92 -56.575 -15.817 -56.575 -13.294 L -56.575 -9.93 C -56.575 -7.407 -58.856 -5.305 -61.592 -5.305 Z" style="stroke-width: 1; visibility: hidden;"/>
    <polygon points="-70.259 24.131 -56.575 24.131 -56.575 7.311 -52.014 7.311 -52.014 19.926 -47.452 19.926 -47.452 3.106 -56.575 -1.099 -70.259 -1.099 -79.381 3.106 -79.381 19.926 -74.82 19.926 -74.82 7.311 -70.259 7.311" style="stroke-width: 1; visibility: hidden;"/>
    <path d="M -10.962 71.649 L -13.699 62.818 C -29.664 64.501 -45.172 65.342 -61.136 65.342 C -76.644 65.342 -92.609 64.501 -108.12 62.818 L -111.31 71.649 C -94.433 73.331 -78.013 74.593 -61.136 74.593 C -44.26 74.593 -27.839 73.331 -10.962 71.649 Z" style="stroke-width: 1; visibility: hidden;"/>
    <path d="M -102.64 46.418 L -105.38 55.249 C -91.24 56.511 -76.644 57.352 -61.136 57.352 C -45.628 57.352 -31.032 56.511 -16.892 55.249 L -19.629 46.418 C -33.313 47.68 -47.452 48.521 -61.136 48.521 C -74.82 48.521 -88.96 47.68 -102.64 46.418 Z" style="stroke-width: 1; visibility: hidden;"/>
    <path d="M -61.136 40.531 C -48.365 40.531 -35.593 40.111 -22.822 38.849 L -25.558 30.018 C -36.962 30.859 -48.821 31.701 -61.136 31.701 C -73.452 31.701 -84.855 30.859 -96.258 30.018 L -98.995 38.849 C -87.135 39.69 -74.364 40.531 -61.136 40.531 Z" style="stroke-width: 1; visibility: hidden;"/>
    <g id="Layer_1" transform="matrix(4, 0, 0, 4, -92.042196, -107.911947)">
      <polygon points="17.504 30.551 14.804 24.251 12.304 25.251 12.604 25.951 5.004 29.251 5.304 30.151 -1.496 33.051 -0.996 34.151 -2.296 34.751 -1.896 35.751 -0.596 35.251 -0.096 36.351 6.704 33.351 7.104 34.151 14.704 30.851 15.004 31.551" style="stroke-width: 1;"/>
      <path d="M 8.604 36.851 L 9.404 36.851 L 9.404 35.651 L 8.104 35.651 C 8.004 35.151 7.604 34.751 7.004 34.751 C 6.504 34.751 6.004 35.151 5.904 35.651 L 4.704 35.651 L 4.704 36.851 L 5.504 36.851 L 0.604 45.151 L 1.804 45.151 L 6.404 37.151 L 6.404 45.151 L 7.504 45.151 L 7.504 37.151 L 12.104 45.151 L 13.304 45.151 L 8.604 36.851 Z" style="stroke-width: 1;"/>
      <polygon points="-0.796 25.351 0.004 23.151 0.704 25.351 2.904 26.051 0.704 26.851 0.004 29.051 -0.796 26.851 -2.996 26.051" style="stroke-width: 1;"/>
      <path d="M 16.804 40.551 C 17.204 40.651 17.604 40.551 18.004 40.451 C 16.704 40.151 15.904 38.851 16.104 37.551 C 16.204 36.651 16.704 35.951 17.404 35.651 C 16.104 35.551 14.804 36.451 14.704 37.751 C 14.504 39.051 15.404 40.351 16.804 40.551 Z" style="stroke-width: 1;"/>
    </g>
  </g>
</svg>