<?xml version="1.0" encoding="utf-8"?>
<svg xmlns="http://www.w3.org/2000/svg" viewBox="0 0 123.932 123.932">
  <g transform="matrix(1, 0, 0, 1, 123.813705, 32.91745)">
    <path class="st0" d="M -14.631 90.84 C -6.431 90.84 0.169 84.24 0.169 76.14 L 0.169 -17.86 C 0.169 -26.06 -6.431 -32.66 -14.631 -32.66 L -108.63 -32.66 C -116.83 -32.76 -123.43 -26.16 -123.43 -17.96 L -123.43 76.04 C -123.43 84.24 -116.83 90.74 -108.73 90.74 C -108.63 90.84 -14.631 90.84 -14.631 90.84 Z" style="stroke-width: 1;"/>
    <path class="st1" d="M -106.1 -26.243 C -112.5 -26.243 -117.7 -21.143 -117.7 -14.743 L -117.7 72.957 C -117.7 79.257 -112.5 84.457 -106.2 84.457 L -17.196 84.457 C -10.796 84.457 -5.596 79.357 -5.596 72.957 L -5.596 -14.743 C -5.596 -21.043 -10.796 -26.243 -17.196 -26.243 C -17.296 -26.243 -106.1 -26.243 -106.1 -26.243 Z" style="fill: rgb(255, 255, 255); stroke-width: 1;"/>
    <text style="font-family: Arial, sans-serif; font-size: 28px; font-weight: 700; white-space: pre; visibility: hidden;" transform="matrix(3.117827, 0, 0, 3.622723, 161.590856, 16.823082)" x="-89.643" y="14.443">VS</text>
    <g transform="matrix(4.853253, 0, 0, 5.024656, -113.493898, -22.156527)" style="visibility: hidden;">
      <path d="M10,14c-1.1,0-2,0.9-2,2c0,1.1,0.9,2,2,2s2-0.9,2-2C12,14.9,11.1,14,10,14z M10,17c-0.6,0-1-0.4-1-1c0-0.6,0.4-1,1-1 s1,0.4,1,1C11,16.6,10.6,17,10,17z"/>
      <path d="M21.3,15H19V8.1c0-2-1.2-4.1-3.2-4.1H3.6C1.6,4,0,6.1,0,8.1l0,4.6C0,14.1,1.2,16,2.7,16H7c0-1.7,1.3-3,3-3s3,1.3,3,3h9 C22,15.6,21.7,15,21.3,15z M10,8c0,0.5-0.5,1-1,1H4C3.5,9,3,8.5,3,8V7c0-0.5,0.5-1,1-1h5c0.5,0,1,0.5,1,1V8z M17,8c0,0.5-0.5,1-1,1 h-2c-0.5,0-1-0.5-1-1V7c0-0.5,0.5-1,1-1h2c0.5,0,1,0.5,1,1V8z"/>
    </g>
    <line class="st3" x1="-116.83" y1="-25.943" x2="-6.431" y2="84.757" style="fill: none; stroke: rgb(252, 3, 3); stroke-miterlimit: 10; stroke-width: 10; visibility: hidden;"/>
    <g id="Layer_1" transform="matrix(4.76547, 0, 0, 4.632202, 438.161512, 53.922083)" style="">
      <path d="M -106.21 -13.654 C -105.91 -14.654 -106.41 -15.654 -107.41 -15.954 C -108.31 -16.254 -109.41 -15.754 -109.71 -14.754 C -110.01 -13.754 -109.51 -12.754 -108.51 -12.454 C -107.51 -12.154 -106.51 -12.754 -106.21 -13.654 Z" style="stroke-width: 1;"/>
      <path d="M -102.81 -8.154 L -103.51 -12.354 L -99.31 -14.754 C -99.11 -14.854 -98.91 -15.054 -98.91 -15.254 C -98.81 -15.754 -99.01 -16.154 -99.51 -16.354 C -99.71 -16.454 -100.01 -16.354 -100.21 -16.254 L -106.21 -12.754 C -106.41 -12.654 -106.61 -12.554 -106.71 -12.354 L -109.21 -8.954 L -112.71 -9.354 C -112.91 -9.354 -113.11 -9.154 -113.21 -8.954 C -113.41 -8.454 -113.21 -7.954 -112.71 -7.754 C -112.51 -7.654 -112.31 -7.654 -112.11 -7.754 L -108.61 -7.354 C -108.51 -7.354 -108.41 -7.454 -108.31 -7.554 L -106.91 -9.354 L -106.21 -5.454 C -106.11 -4.954 -105.71 -4.454 -105.21 -4.154 L -102.11 -3.254 L -101.61 0.246 C -101.51 0.646 -101.31 1.046 -100.91 1.146 C -100.31 1.346 -99.71 1.046 -99.51 0.446 C -99.41 0.246 -99.41 0.046 -99.51 -0.054 L -100.01 -4.454 C -100.11 -4.754 -100.31 -5.054 -100.61 -5.254 L -102.51 -5.854 L -99.31 -7.754 L -95.41 -6.054 C -95.41 -6.054 -95.41 -6.054 -95.31 -6.054 C -94.71 -5.854 -94.11 -6.154 -93.91 -6.754 C -93.71 -7.354 -94.01 -7.854 -94.51 -8.154 L -98.91 -10.154 C -98.91 -10.154 -98.91 -10.154 -99.01 -10.154 C -99.31 -10.254 -99.71 -10.254 -99.91 -10.054 L -102.81 -8.154 Z" style="stroke-width: 1;"/>
      <path d="M -115.91 5.446 L -115.91 -5.154 L -105.01 -1.054 L -104.01 5.446 C -104.01 5.546 -110.21 5.446 -115.91 5.446 Z" style="stroke-width: 1;"/>
    </g>
  </g>
</svg>