<?xml version="1.0" encoding="utf-8"?>
<svg xmlns="http://www.w3.org/2000/svg" viewBox="0 0 123.932 123.932">
  <g transform="matrix(1, 0, 0, 1, 123.813705, 32.91745)">
    <path class="st0" d="M -14.631 90.84 C -6.431 90.84 0.169 84.24 0.169 76.14 L 0.169 -17.86 C 0.169 -26.06 -6.431 -32.66 -14.631 -32.66 L -108.63 -32.66 C -116.83 -32.76 -123.43 -26.16 -123.43 -17.96 L -123.43 76.04 C -123.43 84.24 -116.83 90.74 -108.73 90.74 C -108.63 90.84 -14.631 90.84 -14.631 90.84 Z" style="stroke-width: 1;"/>
    <path class="st1" d="M -106.1 -26.243 C -112.5 -26.243 -117.7 -21.143 -117.7 -14.743 L -117.7 72.957 C -117.7 79.257 -112.5 84.457 -106.2 84.457 L -17.196 84.457 C -10.796 84.457 -5.596 79.357 -5.596 72.957 L -5.596 -14.743 C -5.596 -21.043 -10.796 -26.243 -17.196 -26.243 C -17.296 -26.243 -106.1 -26.243 -106.1 -26.243 Z" style="fill: rgb(255, 255, 255); stroke-width: 1;"/>
    <text style="font-family: Arial, sans-serif; font-size: 28px; font-weight: 700; white-space: pre; visibility: hidden;" transform="matrix(3.117827, 0, 0, 3.622723, 161.590856, 16.823082)" x="-89.643" y="14.443">VS</text>
    <g transform="matrix(4.853253, 0, 0, 5.024656, -113.493898, -22.156527)" style="visibility: hidden;">
      <path d="M10,14c-1.1,0-2,0.9-2,2c0,1.1,0.9,2,2,2s2-0.9,2-2C12,14.9,11.1,14,10,14z M10,17c-0.6,0-1-0.4-1-1c0-0.6,0.4-1,1-1 s1,0.4,1,1C11,16.6,10.6,17,10,17z"/>
      <path d="M21.3,15H19V8.1c0-2-1.2-4.1-3.2-4.1H3.6C1.6,4,0,6.1,0,8.1l0,4.6C0,14.1,1.2,16,2.7,16H7c0-1.7,1.3-3,3-3s3,1.3,3,3h9 C22,15.6,21.7,15,21.3,15z M10,8c0,0.5-0.5,1-1,1H4C3.5,9,3,8.5,3,8V7c0-0.5,0.5-1,1-1h5c0.5,0,1,0.5,1,1V8z M17,8c0,0.5-0.5,1-1,1 h-2c-0.5,0-1-0.5-1-1V7c0-0.5,0.5-1,1-1h2c0.5,0,1,0.5,1,1V8z"/>
    </g>
    <line class="st3" x1="-116.83" y1="-25.943" x2="-6.431" y2="84.757" style="fill: none; stroke: rgb(252, 3, 3); stroke-miterlimit: 10; stroke-width: 10; visibility: hidden;"/>
  </g>
  <g id="Layer_1" transform="matrix(4.729668, 0, 0, 4.582343, -63.515802, -53.633131)" style="">
    <polygon points="26.112 14.162 27.112 14.162 27.112 17.962 26.112 17.962 26.112 14.162" style="stroke-width: 1;"/>
    <polygon points="26.112 32.362 27.012 32.362 27.012 36.162 26.112 36.162 26.112 32.362" style="stroke-width: 1;"/>
    <polygon points="33.912 25.462 33.912 24.462 37.612 24.462 37.612 25.462 33.912 25.462" style="stroke-width: 1;"/>
    <polygon points="15.612 25.362 15.612 24.362 19.312 24.362 19.312 25.362 15.612 25.362" style="stroke-width: 1;"/>
    <polygon points="17.012 19.762 17.512 18.962 20.812 20.762 20.312 21.562 17.012 19.762" style="stroke-width: 1;"/>
    <polygon points="20.912 15.762 21.812 15.262 23.812 18.462 22.912 18.962 20.912 15.762" style="stroke-width: 1;"/>
    <polygon points="29.812 31.562 30.712 31.062 32.612 34.262 31.712 34.762 29.812 31.562" style="stroke-width: 1;"/>
    <polygon points="32.712 28.962 33.212 28.062 36.512 29.862 36.012 30.762 32.712 28.962" style="stroke-width: 1;"/>
    <polygon points="21.612 34.862 20.712 34.362 22.512 31.062 23.412 31.562 21.612 34.862" style="stroke-width: 1;"/>
    <polygon points="17.212 30.662 16.712 29.862 19.912 27.862 20.412 28.662 17.212 30.662" style="stroke-width: 1;"/>
    <polygon points="33.112 21.962 32.612 21.062 35.812 19.162 36.312 20.062 33.112 21.962" style="stroke-width: 1;"/>
    <polygon points="30.512 19.062 29.712 18.662 31.512 15.362 32.412 15.862 30.512 19.062" style="stroke-width: 1;"/>
    <path d="M 20.512 25.162 C 20.512 21.762 23.212 19.062 26.612 19.062 C 30.012 19.062 32.712 21.762 32.712 25.162 C 32.712 28.562 30.012 31.262 26.612 31.262 C 23.312 31.262 20.512 28.462 20.512 25.162 Z" style="stroke-width: 1;"/>
  </g>
</svg>