<?xml version="1.0" encoding="utf-8"?>
<svg xmlns="http://www.w3.org/2000/svg" viewBox="0 0 123.931 123.576">
  <g transform="matrix(1, 0, 0, 1, 123.813705, 32.91745)">
    <path class="st0" d="M -14.631 90.84 C -6.431 90.84 0.169 84.24 0.169 76.14 L 0.169 -17.86 C 0.169 -26.06 -6.431 -32.66 -14.631 -32.66 L -108.63 -32.66 C -116.83 -32.76 -123.43 -26.16 -123.43 -17.96 L -123.43 76.04 C -123.43 84.24 -116.83 90.74 -108.73 90.74 C -108.63 90.84 -14.631 90.84 -14.631 90.84 Z" style="stroke-width: 1;"/>
    <path class="st1" d="M -106.1 -26.243 C -112.5 -26.243 -117.7 -21.143 -117.7 -14.743 L -117.7 72.957 C -117.7 79.257 -112.5 84.457 -106.2 84.457 L -17.196 84.457 C -10.796 84.457 -5.596 79.357 -5.596 72.957 L -5.596 -14.743 C -5.596 -21.043 -10.796 -26.243 -17.196 -26.243 C -17.296 -26.243 -106.1 -26.243 -106.1 -26.243 Z" style="fill: rgb(255, 255, 255); stroke-width: 1;"/>
    <line class="st3" x1="-116.83" y1="-25.943" x2="-6.431" y2="84.757" style="fill: none; stroke: rgb(252, 3, 3); stroke-miterlimit: 10; stroke-width: 10; visibility: hidden;"/>
  </g>
  <g id="Layer_1" style="" transform="matrix(4.650329, 0, 0, 4.467789, -649.137314, -222.573374)">
    <path d="M 158.885 52.847 C 157.885 54.047 156.285 55.447 154.185 56.247 C 150.485 57.747 147.185 58.247 147.185 58.247 L 143.485 58.747 C 142.885 58.847 142.485 59.347 142.585 59.947 C 142.685 60.447 143.085 60.847 143.585 60.847 C 143.685 60.847 143.685 60.847 143.785 60.847 L 147.585 60.247 C 147.585 60.247 147.585 60.247 147.685 60.247 C 147.685 60.247 147.685 60.347 147.685 60.347 C 147.685 60.347 147.685 60.347 147.585 60.347 C 144.785 61.547 142.485 62.847 142.385 62.947 C 141.885 63.247 141.685 63.847 141.985 64.447 C 142.185 64.747 142.585 64.947 142.885 64.947 C 143.085 64.947 143.285 64.947 143.385 64.847 C 143.385 64.847 145.885 63.447 148.785 62.147 C 148.785 62.147 148.785 62.147 148.785 62.147 C 148.885 62.147 148.885 62.247 148.785 62.247 C 148.785 62.247 148.785 62.247 148.785 62.247 C 147.185 63.247 145.385 64.647 143.985 66.747 C 143.685 67.247 143.785 67.947 144.285 68.247 C 144.485 68.347 144.685 68.447 144.885 68.447 C 145.285 68.447 145.585 68.247 145.785 67.947 C 146.885 66.647 147.885 65.647 148.985 64.847 C 148.985 64.847 151.785 62.347 154.585 62.947 C 157.485 63.447 156.385 65.647 156.185 66.847 C 155.985 68.147 156.585 68.747 157.185 68.947 C 157.285 69.047 157.385 69.047 157.485 69.047 C 157.785 69.047 157.885 68.847 157.985 68.747 C 157.985 68.647 157.985 68.547 158.085 68.547 C 159.485 62.947 161.785 58.947 163.985 56.047 L 158.885 52.847 Z" style="stroke-width: 1;"/>
    <polygon points="158.485 72.747 157.385 72.747 155.685 71.147 153.885 72.747 152.785 72.747 149.985 70.147 147.185 72.747 146.185 72.747 144.385 71.547 142.685 73.447 142.685 74.447 152.785 74.447 162.985 74.447 162.985 73.447 160.585 70.047" style="stroke-width: 1;"/>
  </g>
</svg>