<?xml version="1.0" encoding="utf-8"?>
<svg xmlns="http://www.w3.org/2000/svg" viewBox="0 0 123.931 123.576">
  <g transform="matrix(1, 0, 0, 1, 123.813705, 32.91745)">
    <path class="st0" d="M -14.631 90.84 C -6.431 90.84 0.169 84.24 0.169 76.14 L 0.169 -17.86 C 0.169 -26.06 -6.431 -32.66 -14.631 -32.66 L -108.63 -32.66 C -116.83 -32.76 -123.43 -26.16 -123.43 -17.96 L -123.43 76.04 C -123.43 84.24 -116.83 90.74 -108.73 90.74 C -108.63 90.84 -14.631 90.84 -14.631 90.84 Z" style="stroke-width: 1; fill: rgb(255, 0, 0);"/>
    <path class="st1" d="M -106.1 -26.243 C -112.5 -26.243 -117.7 -21.143 -117.7 -14.743 L -117.7 72.957 C -117.7 79.257 -112.5 84.457 -106.2 84.457 L -17.196 84.457 C -10.796 84.457 -5.596 79.357 -5.596 72.957 L -5.596 -14.743 C -5.596 -21.043 -10.796 -26.243 -17.196 -26.243 C -17.296 -26.243 -106.1 -26.243 -106.1 -26.243 Z" style="fill: rgb(255, 255, 255); stroke-width: 1;"/>
    <g id="Layer_1" style="" transform="matrix(4.144378, 0, 0, 3.944236, 306.894785, 14.111212)">
      <path d="M -79.987 4.592 C -79.887 4.292 -80.087 3.792 -80.487 3.792 C -80.887 3.792 -90.987 3.792 -90.987 3.792 L -90.987 -7.208 L -97.987 -7.208 L -97.987 6.092 C -97.987 8.792 -95.887 9.792 -93.487 10.592 C -92.987 10.792 -92.687 11.092 -92.487 11.392 C -92.187 12.192 -92.687 13.392 -92.887 13.692 L -93.487 14.692 L -80.987 14.692 L -81.487 13.692 C -81.587 13.592 -83.087 10.492 -83.487 9.792 C -83.687 9.492 -83.687 9.192 -83.687 9.192 C -81.087 7.892 -80.087 4.692 -79.987 4.592 Z M -94.487 2.192 C -95.787 2.192 -96.387 1.092 -96.387 -0.208 C -96.387 -0.408 -96.387 -0.508 -96.287 -0.708 C -96.187 -0.908 -96.187 -1.208 -95.987 -1.408 C -95.987 -1.408 -95.887 -1.508 -95.887 -1.608 C -94.687 -3.508 -94.487 -7.208 -94.487 -7.208 C -94.487 -7.208 -94.287 -3.508 -93.087 -1.508 C -92.987 -1.408 -92.887 -1.308 -92.787 -1.208 C -92.687 -1.008 -92.587 -0.808 -92.487 -0.508 C -92.487 -0.308 -92.387 -0.208 -92.387 -0.008 C -92.487 1.192 -93.187 2.192 -94.487 2.192 Z" style="stroke-width: 1;"/>
    </g>
    <line class="st3" x1="-116.83" y1="-25.943" x2="-6.431" y2="84.757" style="fill: none; stroke: rgb(252, 3, 3); stroke-miterlimit: 10; stroke-width: 10;"/>
  </g>
</svg>