<?xml version="1.0" encoding="utf-8"?>
<svg xmlns="http://www.w3.org/2000/svg" viewBox="0 0 123.931 123.576">
  <g transform="matrix(1, 0, 0, 1, 123.813705, 32.91745)">
    <path class="st0" d="M -14.631 90.84 C -6.431 90.84 0.169 84.24 0.169 76.14 L 0.169 -17.86 C 0.169 -26.06 -6.431 -32.66 -14.631 -32.66 L -108.63 -32.66 C -116.83 -32.76 -123.43 -26.16 -123.43 -17.96 L -123.43 76.04 C -123.43 84.24 -116.83 90.74 -108.73 90.74 C -108.63 90.84 -14.631 90.84 -14.631 90.84 Z" style="stroke-width: 1;"/>
    <path class="st1" d="M -106.1 -26.243 C -112.5 -26.243 -117.7 -21.143 -117.7 -14.743 L -117.7 72.957 C -117.7 79.257 -112.5 84.457 -106.2 84.457 L -17.196 84.457 C -10.796 84.457 -5.596 79.357 -5.596 72.957 L -5.596 -14.743 C -5.596 -21.043 -10.796 -26.243 -17.196 -26.243 C -17.296 -26.243 -106.1 -26.243 -106.1 -26.243 Z" style="fill: rgb(255, 255, 255); stroke-width: 1;"/>
    <line class="st3" x1="-116.83" y1="-25.943" x2="-6.431" y2="84.757" style="fill: none; stroke: rgb(252, 3, 3); stroke-miterlimit: 10; stroke-width: 10; visibility: hidden;"/>
  </g>
  <g id="Layer_1" style="" transform="matrix(4.348423, 0, 0, 4.222364, -116.663372, -295.360666)">
    <path d="M 43.079 80.585 L 41.079 80.585 C 39.979 80.585 39.979 82.585 41.079 82.585 L 44.079 82.585 C 44.279 82.585 45.079 80.585 45.079 80.585 L 45.079 94.585 C 45.079 95.085 45.579 95.585 46.079 95.585 C 46.579 95.585 47.079 95.185 47.079 94.585 L 47.079 86.585 L 48.079 86.585 L 48.079 94.585 C 48.079 95.085 48.579 95.585 49.079 95.585 C 49.579 95.585 50.079 95.185 50.079 94.585 L 50.079 80.585 L 51.079 80.585 L 51.079 85.585 C 51.079 86.685 51.579 86.685 52.079 85.585 L 52.079 79.585 C 52.079 78.385 50.479 78.585 49.079 78.585 L 46.079 78.585 C 45.279 78.585 44.479 78.985 44.079 79.585 L 43.079 80.585 Z M 33.079 89.585 C 34.679 89.585 36.079 90.985 36.079 92.585 L 36.079 95.585 L 38.079 95.585 L 41.579 86.685 L 41.579 83.785 L 31.279 83.785 L 31.079 89.585 L 33.079 89.585 Z M 39.679 79.385 L 39.279 79.585 L 39.079 79.185 L 38.679 79.385 L 38.479 78.985 L 38.079 79.185 L 37.879 78.785 L 37.479 78.985 L 37.279 78.585 L 36.879 78.785 L 36.679 78.285 L 35.479 81.785 C 35.379 82.085 35.579 82.385 35.879 82.485 L 37.879 83.185 C 38.079 83.285 38.379 83.085 38.479 82.885 L 39.679 79.385 Z M 37.979 75.885 L 37.379 75.385 L 30.779 83.285 L 31.279 83.785 L 37.979 75.885 Z M 48.079 73.585 C 49.179 73.585 50.079 74.485 50.079 75.585 C 50.079 76.685 49.179 77.585 48.079 77.585 C 46.979 77.585 46.079 76.685 46.079 75.585 C 46.079 74.485 46.979 73.585 48.079 73.585 Z M 32.579 90.585 C 31.179 90.585 30.079 91.685 30.079 93.085 C 30.079 94.485 31.179 95.585 32.579 95.585 C 33.979 95.585 35.079 94.485 35.079 93.085 C 35.079 91.685 33.979 90.585 32.579 90.585 Z M 32.579 94.585 C 31.779 94.585 31.079 93.885 31.079 93.085 C 31.079 92.285 31.779 91.585 32.579 91.585 C 33.379 91.585 34.079 92.285 34.079 93.085 C 34.079 93.885 33.379 94.585 32.579 94.585 Z" style="stroke-width: 1;"/>
  </g>
</svg>