<?xml version="1.0" encoding="utf-8"?>
<svg xmlns="http://www.w3.org/2000/svg" viewBox="0 0 123.932 123.932">
  <g transform="matrix(1, 0, 0, 1, 123.813705, 32.91745)">
    <path class="st0" d="M -14.631 90.84 C -6.431 90.84 0.169 84.24 0.169 76.14 L 0.169 -17.86 C 0.169 -26.06 -6.431 -32.66 -14.631 -32.66 L -108.63 -32.66 C -116.83 -32.76 -123.43 -26.16 -123.43 -17.96 L -123.43 76.04 C -123.43 84.24 -116.83 90.74 -108.73 90.74 C -108.63 90.84 -14.631 90.84 -14.631 90.84 Z" style="stroke-width: 1;"/>
    <path class="st1" d="M -106.1 -26.243 C -112.5 -26.243 -117.7 -21.143 -117.7 -14.743 L -117.7 72.957 C -117.7 79.257 -112.5 84.457 -106.2 84.457 L -17.196 84.457 C -10.796 84.457 -5.596 79.357 -5.596 72.957 L -5.596 -14.743 C -5.596 -21.043 -10.796 -26.243 -17.196 -26.243 C -17.296 -26.243 -106.1 -26.243 -106.1 -26.243 Z" style="fill: rgb(255, 255, 255); stroke-width: 1;"/>
    <text style="font-family: Arial, sans-serif; font-size: 28px; font-weight: 700; white-space: pre; visibility: hidden;" transform="matrix(3.117827, 0, 0, 3.622723, 161.590856, 16.823082)" x="-89.643" y="14.443">VS</text>
    <g transform="matrix(4.853253, 0, 0, 5.024656, -113.493898, -22.156527)" style="visibility: hidden;">
      <path d="M10,14c-1.1,0-2,0.9-2,2c0,1.1,0.9,2,2,2s2-0.9,2-2C12,14.9,11.1,14,10,14z M10,17c-0.6,0-1-0.4-1-1c0-0.6,0.4-1,1-1 s1,0.4,1,1C11,16.6,10.6,17,10,17z"/>
      <path d="M21.3,15H19V8.1c0-2-1.2-4.1-3.2-4.1H3.6C1.6,4,0,6.1,0,8.1l0,4.6C0,14.1,1.2,16,2.7,16H7c0-1.7,1.3-3,3-3s3,1.3,3,3h9 C22,15.6,21.7,15,21.3,15z M10,8c0,0.5-0.5,1-1,1H4C3.5,9,3,8.5,3,8V7c0-0.5,0.5-1,1-1h5c0.5,0,1,0.5,1,1V8z M17,8c0,0.5-0.5,1-1,1 h-2c-0.5,0-1-0.5-1-1V7c0-0.5,0.5-1,1-1h2c0.5,0,1,0.5,1,1V8z"/>
    </g>
    <line class="st3" x1="-116.83" y1="-25.943" x2="-6.431" y2="84.757" style="fill: none; stroke: rgb(252, 3, 3); stroke-miterlimit: 10; stroke-width: 10; visibility: hidden;"/>
  </g>
  <g id="Layer_1" transform="matrix(4.693224, 0, 0, 4.832382, -81.667605, -38.989064)" style="">
    <polygon points="20.45 10.762 29.45 10.762 29.45 11.762 28.45 11.762 28.45 12.762 20.45 13.762" style="stroke-width: 1;"/>
    <path d="M 32.45 13.662 C 33.45 13.662 34.35 12.862 34.35 11.762 C 34.35 10.662 33.45 9.862 32.45 9.862 C 31.45 9.862 30.55 10.662 30.55 11.762 C 30.55 12.862 31.45 13.662 32.45 13.662 Z" style="stroke-width: 1;"/>
    <path d="M 33.85 13.462 C 34.35 12.962 35.25 12.962 35.75 13.462 L 40.15 17.562 C 40.35 17.662 40.45 17.862 40.45 18.062 L 40.45 30.262 C 40.45 31.062 39.75 31.762 38.95 31.762 C 38.15 31.762 37.45 31.062 37.45 30.262 L 37.45 20.262 L 33.25 16.462 L 31.75 17.962 C 31.55 18.162 31.35 18.262 31.05 18.262 C 30.75 18.262 30.55 18.162 30.35 17.962 L 27.75 15.362 C 27.35 14.962 27.45 14.362 27.75 14.062 C 28.15 13.762 28.75 13.762 29.05 14.162 L 31.05 16.162 L 33.85 13.462 Z" style="stroke-width: 1;"/>
    <path d="M 25.95 13.962 C 25.95 13.762 25.75 13.662 25.55 13.662 C 25.35 13.662 25.15 13.762 25.15 13.962 L 24.45 17.762 L 24.45 31.762 L 30.45 31.762 L 30.45 29.762 L 26.45 29.762 L 26.45 17.762 L 25.95 13.962 Z" style="stroke-width: 1;"/>
  </g>
</svg>