<?xml version="1.0" encoding="utf-8"?>
<svg xmlns="http://www.w3.org/2000/svg" viewBox="0 0 124.288 123.22">
  <g transform="matrix(1, 0, 0, 1, 123.813705, 32.91745)">
    <path class="st0" d="M -14.631 90.84 C -6.431 90.84 0.169 84.24 0.169 76.14 L 0.169 -17.86 C 0.169 -26.06 -6.431 -32.66 -14.631 -32.66 L -108.63 -32.66 C -116.83 -32.76 -123.43 -26.16 -123.43 -17.96 L -123.43 76.04 C -123.43 84.24 -116.83 90.74 -108.73 90.74 C -108.63 90.84 -14.631 90.84 -14.631 90.84 Z" style="fill: rgb(255, 0, 0); stroke-width: 1;"/>
    <path class="st1" d="M -106.1 -26.243 C -112.5 -26.243 -117.7 -21.143 -117.7 -14.743 L -117.7 72.957 C -117.7 79.257 -112.5 84.457 -106.2 84.457 L -17.196 84.457 C -10.796 84.457 -5.596 79.357 -5.596 72.957 L -5.596 -14.743 C -5.596 -21.043 -10.796 -26.243 -17.196 -26.243 C -17.296 -26.243 -106.1 -26.243 -106.1 -26.243 Z" style="stroke-width: 1;"/>
    <g transform="matrix(4.895398, 0, 0, 5.108011, -1167.912981, -334.282872)" style="visibility: hidden;">
      <path d="M 227.748 71.932 L 225.948 72.432 L 227.148 76.632 C 227.248 77.032 228.248 77.632 228.648 77.632 L 231.648 77.632 L 231.648 75.632 L 228.648 75.632 L 227.748 71.932 Z" style="stroke-width: 1; transform-box: fill-box; transform-origin: -5005.18% -721.079%;"/>
      <polygon points="234.748 72.632 234.748 74.632 232.748 74.632 232.748 78.632 234.748 78.632 234.748 80.632 236.748 80.632 236.748 72.632" style="stroke-width: 1; transform-box: fill-box; transform-origin: -7302.38% -522.519%;"/>
      <path d="M 235.848 69.032 L 233.748 61.232 L 217.248 65.932 C 217.048 65.932 216.848 65.932 216.748 66.032 C 215.348 66.332 214.748 68.232 215.348 70.332 C 215.648 71.232 216.148 72.132 216.748 72.632 C 217.248 73.132 217.848 73.332 218.348 73.332 C 218.548 73.332 218.648 73.332 218.848 73.232 C 218.848 73.232 218.948 73.232 218.948 73.232 L 219.248 73.732 L 235.848 69.032 Z M 217.348 71.932 C 216.848 71.532 216.448 70.832 216.248 70.032 C 215.748 68.432 216.248 67.132 216.848 66.932 C 216.948 66.932 216.948 66.932 217.048 66.932 C 217.748 66.932 218.648 67.832 219.048 69.232 C 219.548 70.832 219.048 72.132 218.448 72.332 C 218.048 72.532 217.648 72.132 217.348 71.932 Z" style="stroke-width: 1; transform-box: fill-box; transform-origin: -1323.88% -243.212%;"/>
    </g>
  </g>
  <path class="st1" d="M 31.873 21.482 C 27.381 21.482 23.73 25.231 23.73 29.934 L 23.73 94.39 C 23.73 99.02 27.381 102.841 31.803 102.841 L 94.261 102.841 C 98.752 102.841 102.401 99.094 102.401 94.39 L 102.401 29.934 C 102.401 25.304 98.752 21.482 94.261 21.482 C 94.19 21.482 31.873 21.482 31.873 21.482 Z" style="fill: rgb(255, 255, 255); stroke-width: 1;"/>
  <text style="font-family: Arial, sans-serif; font-size: 28px; font-weight: 700; white-space: pre;" transform="matrix(2.0948, 0, 0, 2.58657, 211.998129, 50.005632)" x="-89.643" y="14.443">VS</text>
  <line class="st3" x1="6.984" y1="6.974" x2="117.383" y2="117.674" style="fill: none; stroke: rgb(252, 3, 3); stroke-miterlimit: 10; stroke-width: 10;"/>
</svg>