<?xml version="1.0" encoding="utf-8"?>
<svg xmlns="http://www.w3.org/2000/svg" viewBox="0 0 123.931 123.576">
  <g transform="matrix(1, 0, 0, 1, 123.813705, 32.91745)">
    <path class="st0" d="M -14.631 90.84 C -6.431 90.84 0.169 84.24 0.169 76.14 L 0.169 -17.86 C 0.169 -26.06 -6.431 -32.66 -14.631 -32.66 L -108.63 -32.66 C -116.83 -32.76 -123.43 -26.16 -123.43 -17.96 L -123.43 76.04 C -123.43 84.24 -116.83 90.74 -108.73 90.74 C -108.63 90.84 -14.631 90.84 -14.631 90.84 Z" style="stroke-width: 1;"/>
    <path class="st1" d="M -106.1 -26.243 C -112.5 -26.243 -117.7 -21.143 -117.7 -14.743 L -117.7 72.957 C -117.7 79.257 -112.5 84.457 -106.2 84.457 L -17.196 84.457 C -10.796 84.457 -5.596 79.357 -5.596 72.957 L -5.596 -14.743 C -5.596 -21.043 -10.796 -26.243 -17.196 -26.243 C -17.296 -26.243 -106.1 -26.243 -106.1 -26.243 Z" style="stroke-width: 1;"/>
    <line class="st3" x1="-116.83" y1="-25.943" x2="-6.431" y2="84.757" style="fill: none; stroke: rgb(252, 3, 3); stroke-miterlimit: 10; stroke-width: 10; visibility: hidden;"/>
    <g id="Icons" style="" transform="matrix(2.156905, 0, 0, 1.973492, 129.931976, 8.664646)">
      <g transform="matrix(1, 0, 0, 1, -88.01459, 13.128131)">
        <polygon points="3,12 3,21 4,21 4,22 5,22 5,21 6,21 6,18 9,22 10,22 11,20 8,16 14,16 14,21 15,21 15,22 16,22 16,21 17,21 17,11 &#10;&#9;&#9;13,9 3,9 2,8 1,9 &#9;" style="fill: rgb(255, 255, 255);"/>
        <polygon points="13,7 13,1 14,1 14,2 22,6 22,8 17,9 &#9;" style="fill: rgb(255, 255, 255);"/>
        <polygon points="0,1 0,2.5 13,8.5 13,7 &#9;" style="fill: rgb(255, 255, 255);"/>
      </g>
    </g>
    <rect x="-106.65" y="-31.597" width="8.738" height="138.274" style="stroke: rgb(0, 0, 0); fill: rgb(255, 255, 255); transform-box: fill-box; transform-origin: 50% 50%;" transform="matrix(0.711132, 0.703058, -0.703058, 0.711132, 41.908718, -8.336926)"/>
    <text style="fill: rgb(255, 255, 255); font-family: Arial, sans-serif; font-size: 28px; font-weight: 700; white-space: pre;" transform="matrix(1.532884, 0, 0, 1.679559, 55.162357, 6.52791)" x="-110.71" y="7.182">VS</text>
  </g>
</svg>