<?xml version="1.0" encoding="utf-8"?>
<svg xmlns="http://www.w3.org/2000/svg" viewBox="0 0 123.932 123.932">
  <g transform="matrix(1, 0, 0, 1, 123.813705, 32.91745)">
    <path class="st0" d="M -14.631 90.84 C -6.431 90.84 0.169 84.24 0.169 76.14 L 0.169 -17.86 C 0.169 -26.06 -6.431 -32.66 -14.631 -32.66 L -108.63 -32.66 C -116.83 -32.76 -123.43 -26.16 -123.43 -17.96 L -123.43 76.04 C -123.43 84.24 -116.83 90.74 -108.73 90.74 C -108.63 90.84 -14.631 90.84 -14.631 90.84 Z" style="stroke-width: 1;"/>
    <path class="st1" d="M -106.1 -26.243 C -112.5 -26.243 -117.7 -21.143 -117.7 -14.743 L -117.7 72.957 C -117.7 79.257 -112.5 84.457 -106.2 84.457 L -17.196 84.457 C -10.796 84.457 -5.596 79.357 -5.596 72.957 L -5.596 -14.743 C -5.596 -21.043 -10.796 -26.243 -17.196 -26.243 C -17.296 -26.243 -106.1 -26.243 -106.1 -26.243 Z" style="fill: rgb(255, 255, 255); stroke-width: 1;"/>
    <text style="font-family: Arial, sans-serif; font-size: 28px; font-weight: 700; white-space: pre; visibility: hidden;" transform="matrix(3.117827, 0, 0, 3.622723, 161.590856, 16.823082)" x="-89.643" y="14.443">VS</text>
    <g id="Icons" transform="matrix(2.315963, 0, 0, 2.324086, 110.427692, -70.16173)" style="">
      <polygon points="-61.414 43.271 -61.414 37.271 -60.414 37.271 -60.414 38.271 -52.414 42.271 -52.414 44.271 -57.414 45.271" style="stroke-width: 1;"/>
      <polygon points="-56.414 52.271 -57.414 51.271 -57.414 47.271 -61.414 45.271 -71.414 45.271 -72.414 44.271 -73.414 45.271 -71.414 48.271 -71.414 57.271 -70.414 57.271 -70.414 58.271 -69.414 58.271 -69.414 57.271 -68.414 57.271 -68.414 54.271 -65.414 58.271 -64.414 58.271 -63.414 56.271 -66.414 52.271 -60.414 52.271 -60.414 57.271 -59.414 57.271 -59.414 58.271 -58.414 58.271 -58.414 57.271 -57.414 57.271 -57.414 55.604 -55.414 58.271 -54.414 58.271 -53.414 56.271" style="stroke-width: 1;"/>
    </g>
    <g id="svg-1" style="" transform="matrix(4.834581, 0, 0, 4.714108, 321.408274, -118.463741)">
      <path d="M -84.802 23.692 C -83.802 23.692 -83.002 22.892 -83.102 21.892 C -83.102 20.892 -83.902 20.092 -84.902 20.192 C -85.902 20.192 -86.702 20.992 -86.602 21.992 C -86.602 22.892 -85.702 23.692 -84.802 23.692 Z" style="stroke-width: 1;"/>
      <path d="M -78.702 29.592 L -81.302 28.092 L -83.502 24.692 C -83.802 24.292 -84.402 23.892 -85.002 23.992 C -85.502 24.092 -85.902 24.292 -86.202 24.492 L -89.402 27.792 C -89.502 27.892 -89.602 28.092 -89.602 28.192 L -90.002 31.792 C -90.002 31.792 -90.002 31.892 -90.002 31.892 C -90.002 32.292 -89.602 32.692 -89.202 32.692 C -88.802 32.692 -88.502 32.292 -88.402 31.892 L -88.102 28.792 L -87.002 27.692 L -88.002 36.292 L -89.902 40.392 C -90.002 40.492 -90.002 40.692 -90.002 40.892 C -90.002 41.592 -89.402 42.092 -88.802 42.092 C -88.302 42.092 -87.902 41.792 -87.702 41.392 L -85.702 36.992 C -85.702 36.892 -85.502 36.592 -85.502 36.492 L -85.302 34.392 L -83.202 41.292 C -83.002 41.792 -82.602 42.092 -82.002 42.092 C -81.302 42.092 -80.802 41.492 -80.802 40.892 C -80.802 40.792 -80.802 40.792 -80.802 40.692 L -83.702 31.092 L -83.302 27.992 L -82.502 29.292 C -82.402 29.392 -82.402 29.492 -82.302 29.492 L -79.502 31.092 C -79.402 31.092 -79.302 31.192 -79.102 31.192 C -78.702 31.192 -78.302 30.792 -78.302 30.392 C -78.302 29.892 -78.502 29.692 -78.702 29.592 Z" style="stroke-width: 1;"/>
    </g>
    <g id="Layer_1" transform="matrix(4.81362, 0, 0, 4.822716, -271.538613, -109.753032)" style="">
      <circle cx="43.4" cy="19.076" r="2.1" style="stroke-width: 1; visibility: hidden;"/>
      <path d="M 53.227 35.545 C 52.827 35.545 52.328 35.445 51.929 35.245 C 51.531 35.045 51.137 34.245 50.637 34.245 C 50.137 34.245 49.731 35.045 49.329 35.245 C 48.928 35.445 48.527 35.545 48.027 35.545 C 47.627 35.545 47.128 35.445 46.729 35.245 C 46.331 35.045 45.937 34.245 45.437 34.245 C 44.937 34.245 44.531 35.045 44.129 35.245 C 43.828 35.445 43.327 35.545 42.927 35.545 C 42.527 35.545 42.028 35.445 41.629 35.245 C 41.231 35.045 40.837 34.245 40.337 34.245 C 39.837 34.245 39.431 35.045 39.029 35.245 C 38.628 35.445 38.227 35.545 37.827 35.545 C 37.327 35.545 36.928 35.445 36.529 35.245 C 36.131 35.045 35.737 34.245 35.237 34.245 C 34.737 34.245 34.331 35.045 33.929 35.245 C 33.528 35.445 33.127 35.545 32.627 35.545 L 32.641 33.645 C 33.141 33.645 33.542 33.545 33.944 33.345 C 34.345 33.145 34.751 32.345 35.251 32.345 C 35.751 32.345 36.145 33.145 36.544 33.345 C 36.942 33.545 37.341 33.645 37.841 33.645 C 38.241 33.645 38.742 33.545 39.144 33.345 C 39.545 33.145 39.951 32.345 40.451 32.345 C 40.951 32.345 41.345 33.145 41.744 33.345 C 42.142 33.545 42.541 33.645 43.041 33.645 C 43.541 33.645 43.942 33.545 44.344 33.345 C 44.745 33.145 45.151 32.345 45.651 32.345 C 46.151 32.345 46.545 33.145 46.944 33.345 C 47.342 33.545 47.741 33.645 48.241 33.645 C 48.741 33.645 49.142 33.545 49.544 33.345 C 49.945 33.145 50.351 32.345 50.851 32.345 C 51.351 32.345 51.745 33.145 52.144 33.345 C 52.542 33.545 52.941 33.645 53.441 33.645 L 53.427 35.545 L 53.227 35.545 Z" style="stroke-width: 1; fill: rgb(255, 255, 255);"/>
      <path d="M 45.6 35.276 C 45.3 35.276 44.9 35.376 44.6 35.576 C 44.3 35.676 44 35.776 43.7 35.876 L 43.7 30.676 L 45.6 29.376 L 45.6 35.276 Z" style="stroke-width: 1; visibility: hidden;"/>
      <path d="M 43 35.776 C 42.7 35.776 42.4 35.676 42.1 35.476 C 41.8 35.276 41.4 35.176 41 35.176 L 41 33.576 L 38.4 33.576 L 37.8 30.976 C 37.8 30.876 37.8 30.776 37.8 30.776 C 37.8 29.976 38.3 29.276 39.1 28.976 L 39.1 23.776 C 39.1 22.476 40.1 21.476 41.3 21.476 L 45.4 21.476 C 46.7 21.476 47.6 22.576 47.6 23.776 L 47.6 29.376 C 47.6 30.376 46.3 30.376 46.3 29.376 L 46.3 23.976 L 45.3 23.976 L 45.3 27.976 L 41.4 27.976 L 41.4 23.976 L 40.4 23.976 L 40.4 28.976 C 40.5 29.076 40.7 29.076 40.9 29.176 L 43.1 30.576 L 43 35.776 Z M 38.6 30.976 L 41 30.976 C 41 30.576 40.8 29.976 40.4 29.776 C 40.2 30.376 39.4 30.376 39.1 29.776 C 38.8 29.976 38.6 30.576 38.6 30.976 Z" style="stroke-width: 1; visibility: hidden;"/>
      <path d="M 53.328 34.952 C 52.928 34.952 52.428 34.892 52.028 34.772 C 51.628 34.651 51.228 34.169 50.728 34.169 C 50.228 34.169 49.828 34.651 49.428 34.772 C 49.028 34.892 48.628 34.952 48.128 34.952 C 47.728 34.952 47.228 34.892 46.828 34.772 C 46.428 34.651 46.028 34.169 45.528 34.169 C 45.028 34.169 44.628 34.651 44.228 34.772 C 43.928 34.892 43.428 34.952 43.028 34.952 C 42.628 34.952 42.128 34.892 41.728 34.772 C 41.328 34.651 40.928 34.169 40.428 34.169 C 39.928 34.169 39.528 34.651 39.128 34.772 C 38.728 34.892 38.328 34.952 37.928 34.952 C 37.428 34.952 37.028 34.892 36.628 34.772 C 36.228 34.651 35.828 34.169 35.328 34.169 C 34.828 34.169 34.428 34.651 34.028 34.772 C 33.628 34.892 33.228 34.952 32.728 34.952 L 32.728 33.808 C 33.228 33.808 33.628 33.748 34.028 33.628 C 34.428 33.507 34.828 33.025 35.328 33.025 C 35.828 33.025 36.228 33.507 36.628 33.628 C 37.028 33.748 37.428 33.808 37.928 33.808 C 38.328 33.808 38.828 33.748 39.228 33.628 C 39.628 33.507 40.028 33.025 40.528 33.025 C 41.028 33.025 41.428 33.507 41.828 33.628 C 42.228 33.748 42.628 33.808 43.128 33.808 C 43.628 33.808 44.028 33.748 44.428 33.628 C 44.828 33.507 45.228 33.025 45.728 33.025 C 46.228 33.025 46.628 33.507 47.028 33.628 C 47.428 33.748 47.828 33.808 48.328 33.808 C 48.828 33.808 49.228 33.748 49.628 33.628 C 50.028 33.507 50.428 33.025 50.928 33.025 C 51.428 33.025 51.828 33.507 52.228 33.628 C 52.628 33.748 53.028 33.808 53.528 33.808 L 53.528 34.952 L 53.328 34.952 Z" style="stroke-width: 1;"/>
    </g>
    <g id="group-1" transform="matrix(4.81362, 0, 0, 4.822716, -271.296151, -94.558314)" style="">
      <circle cx="43.4" cy="19.076" r="2.1" style="stroke-width: 1; visibility: hidden;"/>
      <path d="M 53.227 35.545 C 52.827 35.545 52.328 35.445 51.929 35.245 C 51.531 35.045 51.137 34.245 50.637 34.245 C 50.137 34.245 49.731 35.045 49.329 35.245 C 48.928 35.445 48.527 35.545 48.027 35.545 C 47.627 35.545 47.128 35.445 46.729 35.245 C 46.331 35.045 45.937 34.245 45.437 34.245 C 44.937 34.245 44.531 35.045 44.129 35.245 C 43.828 35.445 43.327 35.545 42.927 35.545 C 42.527 35.545 42.028 35.445 41.629 35.245 C 41.231 35.045 40.837 34.245 40.337 34.245 C 39.837 34.245 39.431 35.045 39.029 35.245 C 38.628 35.445 38.227 35.545 37.827 35.545 C 37.327 35.545 36.928 35.445 36.529 35.245 C 36.131 35.045 35.737 34.245 35.237 34.245 C 34.737 34.245 34.331 35.045 33.929 35.245 C 33.528 35.445 33.127 35.545 32.627 35.545 L 32.641 33.645 C 33.141 33.645 33.542 33.545 33.944 33.345 C 34.345 33.145 34.751 32.345 35.251 32.345 C 35.751 32.345 36.145 33.145 36.544 33.345 C 36.942 33.545 37.341 33.645 37.841 33.645 C 38.241 33.645 38.742 33.545 39.144 33.345 C 39.545 33.145 39.951 32.345 40.451 32.345 C 40.951 32.345 41.345 33.145 41.744 33.345 C 42.142 33.545 42.541 33.645 43.041 33.645 C 43.541 33.645 43.942 33.545 44.344 33.345 C 44.745 33.145 45.151 32.345 45.651 32.345 C 46.151 32.345 46.545 33.145 46.944 33.345 C 47.342 33.545 47.741 33.645 48.241 33.645 C 48.741 33.645 49.142 33.545 49.544 33.345 C 49.945 33.145 50.351 32.345 50.851 32.345 C 51.351 32.345 51.745 33.145 52.144 33.345 C 52.542 33.545 52.941 33.645 53.441 33.645 L 53.427 35.545 L 53.227 35.545 Z" style="stroke-width: 1; fill: rgb(255, 255, 255);"/>
      <path d="M 45.6 35.276 C 45.3 35.276 44.9 35.376 44.6 35.576 C 44.3 35.676 44 35.776 43.7 35.876 L 43.7 30.676 L 45.6 29.376 L 45.6 35.276 Z" style="stroke-width: 1; visibility: hidden;"/>
      <path d="M 43 35.776 C 42.7 35.776 42.4 35.676 42.1 35.476 C 41.8 35.276 41.4 35.176 41 35.176 L 41 33.576 L 38.4 33.576 L 37.8 30.976 C 37.8 30.876 37.8 30.776 37.8 30.776 C 37.8 29.976 38.3 29.276 39.1 28.976 L 39.1 23.776 C 39.1 22.476 40.1 21.476 41.3 21.476 L 45.4 21.476 C 46.7 21.476 47.6 22.576 47.6 23.776 L 47.6 29.376 C 47.6 30.376 46.3 30.376 46.3 29.376 L 46.3 23.976 L 45.3 23.976 L 45.3 27.976 L 41.4 27.976 L 41.4 23.976 L 40.4 23.976 L 40.4 28.976 C 40.5 29.076 40.7 29.076 40.9 29.176 L 43.1 30.576 L 43 35.776 Z M 38.6 30.976 L 41 30.976 C 41 30.576 40.8 29.976 40.4 29.776 C 40.2 30.376 39.4 30.376 39.1 29.776 C 38.8 29.976 38.6 30.576 38.6 30.976 Z" style="stroke-width: 1; visibility: hidden;"/>
      <path d="M 53.328 34.952 C 52.928 34.952 52.428 34.892 52.028 34.772 C 51.628 34.651 51.228 34.169 50.728 34.169 C 50.228 34.169 49.828 34.651 49.428 34.772 C 49.028 34.892 48.628 34.952 48.128 34.952 C 47.728 34.952 47.228 34.892 46.828 34.772 C 46.428 34.651 46.028 34.169 45.528 34.169 C 45.028 34.169 44.628 34.651 44.228 34.772 C 43.928 34.892 43.428 34.952 43.028 34.952 C 42.628 34.952 42.128 34.892 41.728 34.772 C 41.328 34.651 40.928 34.169 40.428 34.169 C 39.928 34.169 39.528 34.651 39.128 34.772 C 38.728 34.892 38.328 34.952 37.928 34.952 C 37.428 34.952 37.028 34.892 36.628 34.772 C 36.228 34.651 35.828 34.169 35.328 34.169 C 34.828 34.169 34.428 34.651 34.028 34.772 C 33.628 34.892 33.228 34.952 32.728 34.952 L 32.728 33.808 C 33.228 33.808 33.628 33.748 34.028 33.628 C 34.428 33.507 34.828 33.025 35.328 33.025 C 35.828 33.025 36.228 33.507 36.628 33.628 C 37.028 33.748 37.428 33.808 37.928 33.808 C 38.328 33.808 38.828 33.748 39.228 33.628 C 39.628 33.507 40.028 33.025 40.528 33.025 C 41.028 33.025 41.428 33.507 41.828 33.628 C 42.228 33.748 42.628 33.808 43.128 33.808 C 43.628 33.808 44.028 33.748 44.428 33.628 C 44.828 33.507 45.228 33.025 45.728 33.025 C 46.228 33.025 46.628 33.507 47.028 33.628 C 47.428 33.748 47.828 33.808 48.328 33.808 C 48.828 33.808 49.228 33.748 49.628 33.628 C 50.028 33.507 50.428 33.025 50.928 33.025 C 51.428 33.025 51.828 33.507 52.228 33.628 C 52.628 33.748 53.028 33.808 53.528 33.808 L 53.528 34.952 L 53.328 34.952 Z" style="stroke-width: 1;"/>
    </g>
    <g transform="matrix(4.853253, 0, 0, 5.024656, -113.493898, -22.156527)" style="visibility: hidden;">
      <path d="M10,14c-1.1,0-2,0.9-2,2c0,1.1,0.9,2,2,2s2-0.9,2-2C12,14.9,11.1,14,10,14z M10,17c-0.6,0-1-0.4-1-1c0-0.6,0.4-1,1-1 s1,0.4,1,1C11,16.6,10.6,17,10,17z"/>
      <path d="M21.3,15H19V8.1c0-2-1.2-4.1-3.2-4.1H3.6C1.6,4,0,6.1,0,8.1l0,4.6C0,14.1,1.2,16,2.7,16H7c0-1.7,1.3-3,3-3s3,1.3,3,3h9 C22,15.6,21.7,15,21.3,15z M10,8c0,0.5-0.5,1-1,1H4C3.5,9,3,8.5,3,8V7c0-0.5,0.5-1,1-1h5c0.5,0,1,0.5,1,1V8z M17,8c0,0.5-0.5,1-1,1 h-2c-0.5,0-1-0.5-1-1V7c0-0.5,0.5-1,1-1h2c0.5,0,1,0.5,1,1V8z"/>
    </g>
    <line class="st3" x1="-116.83" y1="-25.943" x2="-6.431" y2="84.757" style="fill: none; stroke: rgb(252, 3, 3); stroke-miterlimit: 10; stroke-width: 10; visibility: hidden;"/>
  </g>
</svg>