<?xml version="1.0" encoding="utf-8"?>
<svg xmlns="http://www.w3.org/2000/svg" viewBox="0 0 123.932 123.932">
  <g transform="matrix(1, 0, 0, 1, 123.813705, 32.91745)">
    <path class="st0" d="M -14.631 90.84 C -6.431 90.84 0.169 84.24 0.169 76.14 L 0.169 -17.86 C 0.169 -26.06 -6.431 -32.66 -14.631 -32.66 L -108.63 -32.66 C -116.83 -32.76 -123.43 -26.16 -123.43 -17.96 L -123.43 76.04 C -123.43 84.24 -116.83 90.74 -108.73 90.74 C -108.63 90.84 -14.631 90.84 -14.631 90.84 Z" style="stroke-width: 1;"/>
    <path class="st1" d="M -106.1 -26.243 C -112.5 -26.243 -117.7 -21.143 -117.7 -14.743 L -117.7 72.957 C -117.7 79.257 -112.5 84.457 -106.2 84.457 L -17.196 84.457 C -10.796 84.457 -5.596 79.357 -5.596 72.957 L -5.596 -14.743 C -5.596 -21.043 -10.796 -26.243 -17.196 -26.243 C -17.296 -26.243 -106.1 -26.243 -106.1 -26.243 Z" style="fill: rgb(255, 255, 255); stroke-width: 1;"/>
    <text style="font-family: Arial, sans-serif; font-size: 28px; font-weight: 700; white-space: pre; visibility: hidden;" transform="matrix(3.117827, 0, 0, 3.622723, 161.590856, 16.823082)" x="-89.643" y="14.443">VS</text>
    <g transform="matrix(4.853253, 0, 0, 5.024656, -113.493898, -22.156527)" style="visibility: hidden;">
      <path d="M10,14c-1.1,0-2,0.9-2,2c0,1.1,0.9,2,2,2s2-0.9,2-2C12,14.9,11.1,14,10,14z M10,17c-0.6,0-1-0.4-1-1c0-0.6,0.4-1,1-1 s1,0.4,1,1C11,16.6,10.6,17,10,17z"/>
      <path d="M21.3,15H19V8.1c0-2-1.2-4.1-3.2-4.1H3.6C1.6,4,0,6.1,0,8.1l0,4.6C0,14.1,1.2,16,2.7,16H7c0-1.7,1.3-3,3-3s3,1.3,3,3h9 C22,15.6,21.7,15,21.3,15z M10,8c0,0.5-0.5,1-1,1H4C3.5,9,3,8.5,3,8V7c0-0.5,0.5-1,1-1h5c0.5,0,1,0.5,1,1V8z M17,8c0,0.5-0.5,1-1,1 h-2c-0.5,0-1-0.5-1-1V7c0-0.5,0.5-1,1-1h2c0.5,0,1,0.5,1,1V8z"/>
    </g>
    <line class="st3" x1="-116.83" y1="-25.943" x2="-6.431" y2="84.757" style="fill: none; stroke: rgb(252, 3, 3); stroke-miterlimit: 10; stroke-width: 10; visibility: hidden;"/>
  </g>
  <g id="Layer_1" transform="matrix(4.81362, 0, 0, 4.822716, -147.042531, -73.253229)" style="">
    <circle cx="43.4" cy="19.076" r="2.1" style="stroke-width: 1;"/>
    <path d="M 53.7 38.976 C 53.3 38.976 52.8 38.876 52.4 38.676 C 52 38.476 51.6 37.676 51.1 37.676 C 50.6 37.676 50.2 38.476 49.8 38.676 C 49.4 38.876 49 38.976 48.5 38.976 C 48.1 38.976 47.6 38.876 47.2 38.676 C 46.8 38.476 46.4 37.676 45.9 37.676 C 45.4 37.676 45 38.476 44.6 38.676 C 44.3 38.876 43.8 38.976 43.4 38.976 C 43 38.976 42.5 38.876 42.1 38.676 C 41.7 38.476 41.3 37.676 40.8 37.676 C 40.3 37.676 39.9 38.476 39.5 38.676 C 39.1 38.876 38.7 38.976 38.3 38.976 C 37.8 38.976 37.4 38.876 37 38.676 C 36.6 38.476 36.2 37.676 35.7 37.676 C 35.2 37.676 34.8 38.476 34.4 38.676 C 34 38.876 33.6 38.976 33.1 38.976 L 33.1 37.076 C 33.6 37.076 34 36.976 34.4 36.776 C 34.8 36.576 35.2 35.776 35.7 35.776 C 36.2 35.776 36.6 36.576 37 36.776 C 37.4 36.976 37.8 37.076 38.3 37.076 C 38.7 37.076 39.2 36.976 39.6 36.776 C 40 36.576 40.4 35.776 40.9 35.776 C 41.4 35.776 41.8 36.576 42.2 36.776 C 42.6 36.976 43 37.076 43.5 37.076 C 44 37.076 44.4 36.976 44.8 36.776 C 45.2 36.576 45.6 35.776 46.1 35.776 C 46.6 35.776 47 36.576 47.4 36.776 C 47.8 36.976 48.2 37.076 48.7 37.076 C 49.2 37.076 49.6 36.976 50 36.776 C 50.4 36.576 50.8 35.776 51.3 35.776 C 51.8 35.776 52.2 36.576 52.6 36.776 C 53 36.976 53.4 37.076 53.9 37.076 L 53.9 38.976 L 53.7 38.976 Z" style="stroke-width: 1;"/>
    <path d="M 45.6 35.276 C 45.3 35.276 44.9 35.376 44.6 35.576 C 44.3 35.676 44 35.776 43.7 35.876 L 43.7 30.676 L 45.6 29.376 L 45.6 35.276 Z" style="stroke-width: 1;"/>
    <path d="M 43 35.776 C 42.7 35.776 42.4 35.676 42.1 35.476 C 41.8 35.276 41.4 35.176 41 35.176 L 41 33.576 L 38.4 33.576 L 37.8 30.976 C 37.8 30.876 37.8 30.776 37.8 30.776 C 37.8 29.976 38.3 29.276 39.1 28.976 L 39.1 23.776 C 39.1 22.476 40.1 21.476 41.3 21.476 L 45.4 21.476 C 46.7 21.476 47.6 22.576 47.6 23.776 L 47.6 29.376 C 47.6 30.376 46.3 30.376 46.3 29.376 L 46.3 23.976 L 45.3 23.976 L 45.3 27.976 L 41.4 27.976 L 41.4 23.976 L 40.4 23.976 L 40.4 28.976 C 40.5 29.076 40.7 29.076 40.9 29.176 L 43.1 30.576 L 43 35.776 Z M 38.6 30.976 L 41 30.976 C 41 30.576 40.8 29.976 40.4 29.776 C 40.2 30.376 39.4 30.376 39.1 29.776 C 38.8 29.976 38.6 30.576 38.6 30.976 Z" style="stroke-width: 1;"/>
  </g>
</svg>