<?xml version="1.0" encoding="utf-8"?>
<svg xmlns="http://www.w3.org/2000/svg" viewBox="0 0 123.932 123.932">
  <g transform="matrix(1, 0, 0, 1, 123.813705, 32.91745)">
    <path class="st0" d="M -14.631 90.84 C -6.431 90.84 0.169 84.24 0.169 76.14 L 0.169 -17.86 C 0.169 -26.06 -6.431 -32.66 -14.631 -32.66 L -108.63 -32.66 C -116.83 -32.76 -123.43 -26.16 -123.43 -17.96 L -123.43 76.04 C -123.43 84.24 -116.83 90.74 -108.73 90.74 C -108.63 90.84 -14.631 90.84 -14.631 90.84 Z" style="stroke-width: 1;"/>
    <path class="st1" d="M -106.1 -26.243 C -112.5 -26.243 -117.7 -21.143 -117.7 -14.743 L -117.7 72.957 C -117.7 79.257 -112.5 84.457 -106.2 84.457 L -17.196 84.457 C -10.796 84.457 -5.596 79.357 -5.596 72.957 L -5.596 -14.743 C -5.596 -21.043 -10.796 -26.243 -17.196 -26.243 C -17.296 -26.243 -106.1 -26.243 -106.1 -26.243 Z" style="fill: rgb(255, 255, 255); stroke-width: 1;"/>
    <text style="font-family: Arial, sans-serif; font-size: 28px; font-weight: 700; white-space: pre; visibility: hidden;" transform="matrix(3.117827, 0, 0, 3.622723, 161.590856, 16.823082)" x="-89.643" y="14.443">VS</text>
    <g transform="matrix(4.853253, 0, 0, 5.024656, -113.493898, -22.156527)" style="visibility: hidden;">
      <path d="M10,14c-1.1,0-2,0.9-2,2c0,1.1,0.9,2,2,2s2-0.9,2-2C12,14.9,11.1,14,10,14z M10,17c-0.6,0-1-0.4-1-1c0-0.6,0.4-1,1-1 s1,0.4,1,1C11,16.6,10.6,17,10,17z"/>
      <path d="M21.3,15H19V8.1c0-2-1.2-4.1-3.2-4.1H3.6C1.6,4,0,6.1,0,8.1l0,4.6C0,14.1,1.2,16,2.7,16H7c0-1.7,1.3-3,3-3s3,1.3,3,3h9 C22,15.6,21.7,15,21.3,15z M10,8c0,0.5-0.5,1-1,1H4C3.5,9,3,8.5,3,8V7c0-0.5,0.5-1,1-1h5c0.5,0,1,0.5,1,1V8z M17,8c0,0.5-0.5,1-1,1 h-2c-0.5,0-1-0.5-1-1V7c0-0.5,0.5-1,1-1h2c0.5,0,1,0.5,1,1V8z"/>
    </g>
    <line class="st3" x1="-116.83" y1="-25.943" x2="-6.431" y2="84.757" style="fill: none; stroke: rgb(252, 3, 3); stroke-miterlimit: 10; stroke-width: 10; visibility: hidden;"/>
    <g id="Layer_1" transform="matrix(4.66747, 0, 0, 5.130019, 441.70442, 104.608005)" style="">
      <path d="M -98.249 -13.62 C -98.749 -18.42 -99.35 -24.42 -104.95 -24.42 L -107.75 -24.42 C -107.85 -24.42 -107.95 -24.42 -107.95 -24.42 L -110.75 -24.42 C -110.75 -24.42 -110.85 -24.42 -110.95 -24.42 L -113.75 -24.42 C -113.75 -24.42 -113.85 -24.42 -113.95 -24.42 L -116.75 -24.42 C -116.75 -24.42 -116.85 -24.42 -116.95 -24.42 L -118.95 -24.42 L -118.95 -23.42 L -117.95 -23.42 L -116.45 -23.42 C -112.15 -23.12 -111.65 -18.02 -111.25 -13.52 C -111.05 -11.72 -110.85 -9.92 -110.45 -8.52 C -110.25 -8.62 -109.95 -8.82 -109.65 -9.12 C -109.65 -9.12 -109.65 -9.12 -109.55 -9.22 C -109.95 -10.42 -110.05 -11.92 -110.25 -13.62 C -110.65 -17.22 -111.05 -21.42 -113.55 -23.42 L -113.45 -23.42 C -109.15 -23.12 -108.65 -18.02 -108.25 -13.52 C -108.15 -12.42 -108.05 -11.32 -107.85 -10.32 C -107.55 -10.42 -107.25 -10.42 -106.95 -10.42 L -106.85 -10.42 C -107.05 -11.32 -107.15 -12.42 -107.25 -13.62 C -107.65 -17.22 -108.05 -21.42 -110.55 -23.42 L -110.45 -23.42 C -106.15 -23.12 -105.65 -18.02 -105.25 -13.52 C -105.15 -12.12 -104.95 -10.72 -104.75 -9.62 C -104.55 -9.42 -104.45 -9.32 -104.25 -9.22 C -103.85 -8.82 -103.65 -8.62 -103.35 -8.52 C -103.85 -9.62 -104.05 -11.52 -104.25 -13.62 C -104.65 -17.22 -105.05 -21.52 -107.55 -23.42 C -103.15 -23.12 -102.65 -18.02 -102.25 -13.52 C -102.05 -11.92 -101.95 -10.42 -101.65 -9.22 C -101.45 -9.42 -101.15 -9.72 -100.85 -9.92 C -101.05 -10.92 -101.25 -12.22 -101.35 -13.62 C -101.75 -17.22 -102.15 -21.52 -104.65 -23.42 C -100.25 -23.12 -99.75 -18.02 -99.35 -13.52 C -99.25 -12.42 -99.15 -11.42 -98.949 -10.42 C -98.549 -10.42 -98.249 -10.32 -97.949 -10.22 C -98.049 -11.32 -98.149 -12.42 -98.249 -13.62 Z" style="stroke-width: 1;"/>
      <path d="M -98.949 -9.42 C -100.95 -9.42 -100.95 -7.42 -102.95 -7.42 C -104.95 -7.42 -104.95 -9.42 -106.95 -9.42 C -108.95 -9.42 -108.95 -7.42 -110.95 -7.42 C -112.95 -7.42 -112.95 -9.42 -114.95 -9.42 C -116.95 -9.42 -118.95 -7.42 -118.95 -7.42 L -118.95 -5.42 C -118.95 -5.42 -116.95 -7.42 -114.95 -7.42 C -112.95 -7.42 -112.95 -5.42 -110.95 -5.42 C -108.95 -5.42 -108.95 -7.42 -106.95 -7.42 C -104.95 -7.42 -104.95 -5.42 -102.95 -5.42 C -100.95 -5.42 -100.95 -7.42 -98.949 -7.42 C -98.249 -7.42 -97.549 -7.22 -96.949 -6.82 L -96.949 -8.82 C -97.549 -9.22 -98.249 -9.42 -98.949 -9.42 Z" style="stroke-width: 1;"/>
    </g>
  </g>
</svg>