<?xml version="1.0" encoding="utf-8"?>
<svg xmlns="http://www.w3.org/2000/svg" viewBox="0 0 123.931 123.576">
  <g transform="matrix(1, 0, 0, 1, 123.813705, 32.91745)">
    <path class="st0" d="M -14.631 90.84 C -6.431 90.84 0.169 84.24 0.169 76.14 L 0.169 -17.86 C 0.169 -26.06 -6.431 -32.66 -14.631 -32.66 L -108.63 -32.66 C -116.83 -32.76 -123.43 -26.16 -123.43 -17.96 L -123.43 76.04 C -123.43 84.24 -116.83 90.74 -108.73 90.74 C -108.63 90.84 -14.631 90.84 -14.631 90.84 Z" style="stroke-width: 1;"/>
    <path class="st1" d="M -106.1 -26.243 C -112.5 -26.243 -117.7 -21.143 -117.7 -14.743 L -117.7 72.957 C -117.7 79.257 -112.5 84.457 -106.2 84.457 L -17.196 84.457 C -10.796 84.457 -5.596 79.357 -5.596 72.957 L -5.596 -14.743 C -5.596 -21.043 -10.796 -26.243 -17.196 -26.243 C -17.296 -26.243 -106.1 -26.243 -106.1 -26.243 Z" style="fill: rgb(255, 255, 255); stroke-width: 1;"/>
    <line class="st3" x1="-116.83" y1="-25.943" x2="-6.431" y2="84.757" style="fill: none; stroke: rgb(252, 3, 3); stroke-miterlimit: 10; stroke-width: 10; visibility: hidden;"/>
  </g>
  <g id="Layer_1" style="" transform="matrix(4.351048, 0, 0, 4.222364, -81.701754, -325.001688)">
    <circle cx="33.019" cy="89.605" r="3" style="stroke-width: 1;"/>
    <path d="M 35.019 98.405 C 39.019 97.505 42.019 93.905 42.019 89.605 C 42.019 84.605 38.019 80.605 33.019 80.605 C 28.019 80.605 24.019 84.605 24.019 89.605 C 24.019 93.905 27.019 97.505 31.019 98.405 L 31.019 100.605 L 26.019 100.605 L 26.019 102.605 L 40.019 102.605 L 40.019 100.605 L 35.019 100.605 L 35.019 98.405 Z M 27.019 89.605 C 27.019 86.305 29.719 83.605 33.019 83.605 C 36.319 83.605 39.019 86.305 39.019 89.605 C 39.019 92.905 36.319 95.605 33.019 95.605 C 29.719 95.605 27.019 92.905 27.019 89.605 Z" style="stroke-width: 1;"/>
  </g>
</svg>