<?xml version="1.0" encoding="utf-8"?>
<svg xmlns="http://www.w3.org/2000/svg" viewBox="0 0 123.575 123.219">
  <g transform="matrix(1, 0, 0, 1, 123.813705, 32.91745)">
    <path class="st0" d="M -14.631 90.84 C -6.431 90.84 0.169 84.24 0.169 76.14 L 0.169 -17.86 C 0.169 -26.06 -6.431 -32.66 -14.631 -32.66 L -108.63 -32.66 C -116.83 -32.76 -123.43 -26.16 -123.43 -17.96 L -123.43 76.04 C -123.43 84.24 -116.83 90.74 -108.73 90.74 C -108.63 90.84 -14.631 90.84 -14.631 90.84 Z" style="stroke-width: 1; fill: rgb(255, 0, 0);"/>
    <path class="st1" d="M -106.1 -26.243 C -112.5 -26.243 -117.7 -21.143 -117.7 -14.743 L -117.7 72.957 C -117.7 79.257 -112.5 84.457 -106.2 84.457 L -17.196 84.457 C -10.796 84.457 -5.596 79.357 -5.596 72.957 L -5.596 -14.743 C -5.596 -21.043 -10.796 -26.243 -17.196 -26.243 C -17.296 -26.243 -106.1 -26.243 -106.1 -26.243 Z" style="fill: rgb(255, 255, 255); stroke-width: 1;"/>
    <g id="Icons" transform="matrix(4, 0, 0, 4, -176.662197, -79.103949)">
      <polygon points="38.659 35.949 36.659 34.949 35.659 34.949 33.659 35.949 32.659 35.949 30.659 34.949 29.659 34.949 27.659 35.949 26.659 35.949 25.659 35.949 25.659 35.449 24.659 34.949 23.659 34.949 21.659 35.949 20.659 35.949 18.659 34.949 18.659 36.949 20.659 37.949 21.659 37.949 23.659 36.949 24.659 36.949 26.659 37.949 27.659 37.949 29.659 36.949 30.659 36.949 32.659 37.949 33.659 37.949 35.659 36.949 36.659 36.949 38.659 37.949 39.659 37.949 39.659 35.949" style="stroke-width: 1;"/>
      <path d="M 28.359 33.449 L 25.859 31.049 C 25.759 30.949 25.559 30.949 25.359 30.949 L 22.659 30.949 L 22.259 29.949 L 21.659 29.949 L 21.659 28.949 L 21.859 28.949 L 21.659 28.349 L 23.059 28.349 C 23.059 28.349 23.359 28.349 23.459 28.249 L 25.759 27.249 C 25.959 27.149 26.059 26.949 26.059 26.749 C 26.059 26.349 25.759 26.049 25.459 26.049 C 25.359 26.049 25.259 26.049 25.259 26.049 L 23.159 27.049 L 20.159 27.049 C 20.059 27.049 19.959 27.049 19.759 27.149 L 19.759 27.949 L 18.759 27.949 C 18.659 28.049 18.659 28.149 18.659 28.349 C 18.659 28.449 18.659 28.549 18.659 28.649 L 20.059 31.849 C 20.259 32.349 20.759 32.649 21.259 32.649 L 24.959 32.649 L 27.159 34.749 C 27.459 35.049 28.059 35.049 28.359 34.749 C 28.759 34.349 28.759 33.749 28.359 33.449 Z" style="stroke-width: 1;"/>
      <path d="M 24.659 15.949 L 31.759 33.949 L 39.659 29.049 C 39.159 21.649 31.059 16.749 24.659 15.949 Z M 35.659 25.949 C 34.159 25.949 29.659 25.949 29.659 25.949 L 29.659 24.949 C 29.659 24.949 34.159 24.949 35.659 24.949 C 37.459 24.949 38.659 26.949 38.659 26.949 L 38.659 27.949 L 37.659 27.949 C 37.659 27.949 36.459 25.949 35.659 25.949 Z" style="stroke-width: 1;"/>
      <circle cx="19.159" cy="25.449" r="1.5" style="stroke-width: 1;"/>
    </g>
    <line class="st3" x1="-116.83" y1="-25.943" x2="-6.431" y2="84.757" style="fill: none; stroke: rgb(252, 3, 3); stroke-miterlimit: 10; stroke-width: 10;"/>
    <path d="M -61.592 -5.305 L -65.241 -5.305 C -67.978 -5.305 -70.259 -7.407 -70.259 -9.93 L -70.259 -13.294 C -70.259 -15.817 -67.978 -17.92 -65.241 -17.92 C -65.241 -17.92 -65.241 -17.92 -65.241 -17.92 L -61.592 -17.92 C -58.856 -17.92 -56.575 -15.817 -56.575 -13.294 L -56.575 -9.93 C -56.575 -7.407 -58.856 -5.305 -61.592 -5.305 Z" style="stroke-width: 1; visibility: hidden;"/>
    <polygon points="-70.259 24.131 -56.575 24.131 -56.575 7.311 -52.014 7.311 -52.014 19.926 -47.452 19.926 -47.452 3.106 -56.575 -1.099 -70.259 -1.099 -79.381 3.106 -79.381 19.926 -74.82 19.926 -74.82 7.311 -70.259 7.311" style="stroke-width: 1; visibility: hidden;"/>
    <path d="M -10.962 71.649 L -13.699 62.818 C -29.664 64.501 -45.172 65.342 -61.136 65.342 C -76.644 65.342 -92.609 64.501 -108.12 62.818 L -111.31 71.649 C -94.433 73.331 -78.013 74.593 -61.136 74.593 C -44.26 74.593 -27.839 73.331 -10.962 71.649 Z" style="stroke-width: 1; visibility: hidden;"/>
    <path d="M -102.64 46.418 L -105.38 55.249 C -91.24 56.511 -76.644 57.352 -61.136 57.352 C -45.628 57.352 -31.032 56.511 -16.892 55.249 L -19.629 46.418 C -33.313 47.68 -47.452 48.521 -61.136 48.521 C -74.82 48.521 -88.96 47.68 -102.64 46.418 Z" style="stroke-width: 1; visibility: hidden;"/>
    <path d="M -61.136 40.531 C -48.365 40.531 -35.593 40.111 -22.822 38.849 L -25.558 30.018 C -36.962 30.859 -48.821 31.701 -61.136 31.701 C -73.452 31.701 -84.855 30.859 -96.258 30.018 L -98.995 38.849 C -87.135 39.69 -74.364 40.531 -61.136 40.531 Z" style="stroke-width: 1; visibility: hidden;"/>
  </g>
</svg>