<?xml version="1.0" encoding="utf-8"?>
<svg xmlns="http://www.w3.org/2000/svg" viewBox="0 0 123.932 123.932">
  <g transform="matrix(1, 0, 0, 1, 123.813705, 32.91745)">
    <path class="st0" d="M -14.631 90.84 C -6.431 90.84 0.169 84.24 0.169 76.14 L 0.169 -17.86 C 0.169 -26.06 -6.431 -32.66 -14.631 -32.66 L -108.63 -32.66 C -116.83 -32.76 -123.43 -26.16 -123.43 -17.96 L -123.43 76.04 C -123.43 84.24 -116.83 90.74 -108.73 90.74 C -108.63 90.84 -14.631 90.84 -14.631 90.84 Z" style="stroke-width: 1;"/>
    <path class="st1" d="M -106.1 -26.243 C -112.5 -26.243 -117.7 -21.143 -117.7 -14.743 L -117.7 72.957 C -117.7 79.257 -112.5 84.457 -106.2 84.457 L -17.196 84.457 C -10.796 84.457 -5.596 79.357 -5.596 72.957 L -5.596 -14.743 C -5.596 -21.043 -10.796 -26.243 -17.196 -26.243 C -17.296 -26.243 -106.1 -26.243 -106.1 -26.243 Z" style="fill: rgb(255, 255, 255); stroke-width: 1;"/>
    <text style="font-family: Arial, sans-serif; font-size: 28px; font-weight: 700; white-space: pre; visibility: hidden;" transform="matrix(3.117827, 0, 0, 3.622723, 161.590856, 16.823082)" x="-89.643" y="14.443">VS</text>
    <g transform="matrix(4.853253, 0, 0, 5.024656, -113.493898, -22.156527)" style="visibility: hidden;">
      <path d="M10,14c-1.1,0-2,0.9-2,2c0,1.1,0.9,2,2,2s2-0.9,2-2C12,14.9,11.1,14,10,14z M10,17c-0.6,0-1-0.4-1-1c0-0.6,0.4-1,1-1 s1,0.4,1,1C11,16.6,10.6,17,10,17z"/>
      <path d="M21.3,15H19V8.1c0-2-1.2-4.1-3.2-4.1H3.6C1.6,4,0,6.1,0,8.1l0,4.6C0,14.1,1.2,16,2.7,16H7c0-1.7,1.3-3,3-3s3,1.3,3,3h9 C22,15.6,21.7,15,21.3,15z M10,8c0,0.5-0.5,1-1,1H4C3.5,9,3,8.5,3,8V7c0-0.5,0.5-1,1-1h5c0.5,0,1,0.5,1,1V8z M17,8c0,0.5-0.5,1-1,1 h-2c-0.5,0-1-0.5-1-1V7c0-0.5,0.5-1,1-1h2c0.5,0,1,0.5,1,1V8z"/>
    </g>
    <line class="st3" x1="-116.83" y1="-25.943" x2="-6.431" y2="84.757" style="fill: none; stroke: rgb(252, 3, 3); stroke-miterlimit: 10; stroke-width: 10; visibility: hidden;"/>
    <g id="Layer_1" transform="matrix(5.064436, 0, 0, 4.659883, 411.704968, 46.921682)" style="">
      <path d="M -95.864 -11.318 C -96.864 -11.318 -97.664 -12.118 -97.664 -13.118 C -97.664 -14.118 -96.864 -14.918 -95.864 -14.918 C -94.864 -14.918 -94.064 -14.118 -94.064 -13.118 C -94.064 -12.118 -94.864 -11.318 -95.864 -11.318 Z" style="stroke-width: 1;"/>
      <path d="M -87.464 -7.918 C -87.464 -7.918 -89.764 -7.918 -90.264 -7.918 C -90.564 -8.218 -92.364 -9.818 -92.764 -10.318 C -92.764 -10.318 -92.964 -10.518 -92.964 -10.518 C -93.364 -10.718 -93.864 -10.918 -94.464 -10.918 L -98.164 -10.918 C -99.56 -10.918 -100.76 -9.818 -100.76 -8.618 L -100.76 -3.118 C -100.76 -2.018 -99.36 -2.018 -99.36 -3.118 L -99.36 -8.518 L -98.364 -8.518 L -98.364 6.082 C -98.364 6.682 -97.964 7.082 -97.364 7.082 C -96.764 7.082 -96.364 6.582 -96.364 6.082 L -96.364 -1.918 L -95.364 -1.918 L -95.364 6.082 C -95.364 6.682 -94.864 7.082 -94.364 7.082 C -93.764 7.082 -93.364 6.582 -93.364 6.082 L -93.364 -8.918 L -91.064 -6.718 C -90.964 -6.618 -90.764 -6.518 -90.564 -6.518 L -87.464 -6.518 C -87.064 -6.518 -86.764 -6.818 -86.764 -7.218 C -86.764 -7.618 -87.064 -7.918 -87.464 -7.918 Z" style="stroke-width: 1;"/>
      <path d="M -98.964 -5.518 L -103.36 -1.018 C -103.46 -0.918 -103.46 -0.718 -103.36 -0.618 C -103.26 -0.518 -103.06 -0.518 -102.96 -0.618 L -101.96 -1.618 L -101.96 -0.518 L -103.16 0.682 C -103.26 0.782 -103.26 0.882 -103.16 0.982 C -103.06 1.082 -102.96 1.082 -102.86 0.982 L -101.96 0.082 L -101.96 2.782 C -101.96 2.882 -101.86 2.982 -101.76 2.982 C -101.66 2.982 -101.56 2.882 -101.56 2.782 L -101.56 1.382 L -100.86 2.082 C -100.86 2.082 -100.76 2.082 -100.66 2.082 C -100.66 2.082 -100.66 1.982 -100.66 1.882 L -101.46 1.082 L -101.46 -2.118 L -98.564 -5.018 L -98.964 -5.518 Z" style="stroke-width: 1;"/>
      <path d="M -83.364 -8.718 C -83.264 -8.818 -83.264 -8.918 -83.364 -9.018 C -83.464 -9.118 -83.564 -9.118 -83.664 -9.018 L -84.764 -7.918 L -84.764 -9.018 C -84.764 -9.118 -84.864 -9.118 -84.864 -9.118 C -84.964 -9.118 -84.964 -9.018 -84.964 -9.018 L -84.964 -7.818 L -87.664 -5.118 L -89.964 -5.118 C -89.964 -5.118 -87.564 -7.518 -87.464 -7.618 C -87.364 -7.818 -87.364 -8.018 -87.364 -8.018 L -87.364 -9.318 L -85.364 -10.918 L -83.964 -10.918 C -83.864 -10.918 -83.864 -11.018 -83.864 -11.018 C -83.864 -11.118 -83.964 -11.118 -83.964 -11.118 L -85.364 -11.118 L -84.064 -12.118 C -83.964 -12.218 -83.964 -12.318 -84.064 -12.418 C -84.164 -12.518 -84.264 -12.518 -84.364 -12.418 L -86.364 -10.918 L -86.364 -13.118 C -86.364 -13.218 -86.464 -13.318 -86.564 -13.318 C -86.664 -13.318 -86.764 -13.218 -86.764 -13.118 L -86.764 -10.618 L -87.764 -9.818 L -87.764 -11.318 C -87.764 -11.418 -87.864 -11.518 -87.964 -11.518 C -88.064 -11.518 -88.164 -11.418 -88.164 -11.318 L -88.164 -8.418 L -92.864 -3.718 L -92.264 -3.118 L -90.864 -4.518 L -85.064 -4.518 C -84.864 -4.518 -84.764 -4.618 -84.764 -4.818 C -84.764 -5.018 -84.864 -5.118 -85.064 -5.118 L -87.164 -5.118 L -86.064 -6.218 L -84.164 -6.218 C -84.064 -6.218 -83.964 -6.318 -83.964 -6.418 C -83.964 -6.518 -84.064 -6.618 -84.164 -6.618 L -85.664 -6.618 L -83.364 -8.718 Z" style="stroke-width: 1;"/>
    </g>
  </g>
</svg>